<svg xmlns="http://www.w3.org/2000/svg" viewBox="0 0 500 500"><g id="freepik--Mountains--inject-138"><g id="freepik--mountains--inject-138"><path d="M57.56,295.32V191l35.77-53.69a3.89,3.89,0,0,1,6.38-.15l29.72,40.38,49.2-96.78a3.89,3.89,0,0,1,6.84-.18l35.26,61.08,15.87-20.16A3.9,3.9,0,0,1,243,122l26.25,37.64L302.86,98.5a3.88,3.88,0,0,1,6.8-.07l41.2,72.41,16.19-24.3a3.9,3.9,0,0,1,6.48,0l16.18,24.3,25.62-34.51a3.88,3.88,0,0,1,6.49.37l28.12,48.7V295.32Z" style="fill:#f0f0f0"></path><path d="M236.6,121.52,230,129.93l2.24,2.59a2.68,2.68,0,0,0,4.12-.06l1.45-1.78a2.69,2.69,0,0,1,4.1-.09h0a2.69,2.69,0,0,0,4.35-.47l1.11-2L243,122A3.9,3.9,0,0,0,236.6,121.52Z" style="fill:#fafafa"></path><path d="M302.86,98.5l-12.57,22.88,1.56,3.12a3,3,0,0,0,5.12.27l2.79-4.36a3,3,0,0,1,4.76-.29h0a2.94,2.94,0,0,0,4.64-.13l2.9-3.94a2.94,2.94,0,0,1,4.2-.57l5.66,4.49L309.66,98.43A3.88,3.88,0,0,0,302.86,98.5Z" style="fill:#fafafa"></path><path d="M367.05,146.54l-7.22,10.84,5.72-3.3a1.92,1.92,0,0,1,2.5.49l1.56,2a1.94,1.94,0,0,0,2.89.21l1.32-1.29a1.94,1.94,0,0,1,2.7,0l8.34,8.05h0l-11.33-17A3.9,3.9,0,0,0,367.05,146.54Z" style="fill:#fafafa"></path><path d="M178.63,80.78,170.38,97l.9,1.47A3.61,3.61,0,0,0,177,99l2.43-2.71a3.61,3.61,0,0,1,5.36,0l5.21,5.78a3.62,3.62,0,0,0,5.42-.07l1.4-1.64L185.47,80.6A3.89,3.89,0,0,0,178.63,80.78Z" style="fill:#fafafa"></path><path d="M421.82,136.7a3.88,3.88,0,0,0-6.49-.37l-7.41,10,3.44,6a2.25,2.25,0,0,0,3.72.27l2.75-3.46a2.23,2.23,0,0,1,3.51,0l1,1.16a2.25,2.25,0,0,0,3.83-.56l1.32-3.22Z" style="fill:#fafafa"></path><path d="M96.57,149.62l3.51,2a3.44,3.44,0,0,0,4-.41l3.59-3.23-8-10.83a3.89,3.89,0,0,0-6.38.15l-9.64,14.48.76.84a3.42,3.42,0,0,0,4.78.29L92.62,150A3.43,3.43,0,0,1,96.57,149.62Z" style="fill:#fafafa"></path><g style="opacity:0.05"><polygon points="99.7 137.18 88.99 169.51 94.46 170.84 86.69 193.26 107.7 169.51 121.28 193.59 129.43 177.56 99.7 137.18"></polygon><polygon points="185.47 80.6 195.33 126.05 183.32 140.38 185.45 160.83 177.84 196.16 220.73 141.68 185.47 80.6"></polygon><polygon points="243.03 121.98 238.2 139.44 245.97 139.44 232.01 175.05 253.75 157.38 263.67 169.84 269.28 159.62 243.03 121.98"></polygon><polygon points="350.87 170.84 309.67 98.43 319.79 134.95 306.55 154.22 339.21 164.11 328.71 175.99 334.22 182.84 325.72 208.58 350.87 170.84"></polygon><polygon points="373.53 146.54 366.87 166.62 375.84 165.39 375.73 189.68 389.71 170.84 373.53 146.54"></polygon><polygon points="421.82 136.7 434.03 173.28 419.57 188.07 430.86 199.96 419.57 236.58 449.94 185.4 421.82 136.7"></polygon></g></g></g><g id="freepik--Floor--inject-138"><g id="freepik--Grass--inject-138"><ellipse id="freepik--grass--inject-138" cx="250" cy="346.69" rx="242.14" ry="139.8" style="fill:#BA68C8"></ellipse><ellipse id="freepik--grass--inject-138" cx="250" cy="346.69" rx="242.14" ry="139.8" style="fill:#fff;opacity:0.5"></ellipse></g></g><g id="freepik--Shadows--inject-138"><polygon id="freepik--Shadow--inject-138" points="392.16 377.34 314.74 332.64 392.16 287.94 469.58 332.64 392.16 377.34" style="opacity:0.1"></polygon><ellipse id="freepik--shadow--inject-138" cx="215.94" cy="380.08" rx="48.53" ry="28.02" style="opacity:0.1"></ellipse><ellipse id="freepik--shadow--inject-138" cx="130.26" cy="409.67" rx="50.3" ry="29.04" style="opacity:0.1"></ellipse></g><g id="freepik--Clouds--inject-138"><g id="freepik--clouds--inject-138"><path id="freepik--Cloud--inject-138" d="M335.58,38.58a13.58,13.58,0,0,0-6.51,2.62c-3.05,2.26-5.15,5.68-8.34,7.73-5.51,3.54-12.65,2.19-19.19,2.56-3.66.21-7.3,1-11,.88-4.33-.15-8.89-1.54-12.83.26a28,28,0,0,0-4.18,2.76c-4.7,3.25-10.51,4.55-16.22,4.77a39.79,39.79,0,0,0-8.1.65c-1.33.32-2.89,1.44-2.35,2.69a2.47,2.47,0,0,0,2,1.16c8.59,1.7,17.49-1.73,26.15-.51,3.16.45,6.27,1.51,9.45,1.24,2.84-.25,5.48-1.54,8.24-2.24s6-.68,8.09,1.3c.73.71,1.24,1.6,1.93,2.34,2,2.2,5.13,2.4,7.6,3.86s4.41,3.36,7,4.33a13.11,13.11,0,0,0,7.89.18,28.44,28.44,0,0,0,7.27-3.32,21,21,0,0,1,5-2.51,6.91,6.91,0,0,1,6.09,1.1c1.64,1.21,3.33,2.61,5.36,2.77a9.94,9.94,0,0,0,3.23-.49l11-3a31.53,31.53,0,0,1,5-1.06c5.52-.56,11.09,1.82,16.57,1,2.81-.45,5.43-1.73,8.22-2.31a20.76,20.76,0,0,0,3.76-.88c1.8-.74,4.3-3.61,1-4.17-4.41-.76-9.14,1.73-13.3.06-1.7-.68-3.09-2-4.75-2.76a8.27,8.27,0,0,0-3.49-.78,23.76,23.76,0,0,0-4.18.58,8.85,8.85,0,0,1-4.19-.08c-2.43-.8-2.61-3.15-3.61-5.14s-2.71-4.72-5-4.23c-1.35.28-2.28,1.58-3.6,2-2.54.75-4.63-2.07-5.66-4.52A13.9,13.9,0,0,0,335.58,38.58Z" style="fill:#f5f5f5"></path><path id="freepik--cloud--inject-138" d="M134.46,44a38.23,38.23,0,0,1-18.72-1.53c.21-1,1.43-1.2,2.41-1.26q7.72-.48,15.38-1.66c3-.47,6.28-1.13,8.47-3.3.94-.93,1.63-2.1,2.57-3.05,2.33-2.33,5.92-3,9.18-2.55s6.3,1.84,9.32,3.13a4,4,0,0,0,1.89.46c2-.16,2.59-2.71,3.77-4.31,2.2-3,7-2.61,10.09-.57s5.24,5.25,8.07,7.66a22.37,22.37,0,0,0,8,4.28,11.36,11.36,0,0,0,5.32.53,24.91,24.91,0,0,0,4.43-1.65c5.38-2.15,12-1.27,17.65-.62l28.29,3.26c.78.92-.94,1.88-2.15,1.87l-14.06-.1c-6.56,0-13.35-.06-19.38,2.54-4.46,1.92-8.34,5.2-13,6.37-6.28,1.56-12.87-.93-18.41-4.26-3.78-2.26-7.9-5.06-12.2-4.07-1.33.31-2.56,1-3.89,1.33-5.94,1.59-11.59-3.26-17.65-4.31C144.7,41.27,139.57,43.14,134.46,44Z" style="fill:#f5f5f5"></path></g></g><g id="freepik--Trees--inject-138"><g id="freepik--Tree--inject-138"><g id="freepik--tree--inject-138"><path d="M107.27,174.86a6.68,6.68,0,0,1,3.65.66,37.5,37.5,0,0,1,6,4.21,12,12,0,0,0,6.6,2.85c2.43.08,5.06-1.43,5.5-3.83a3.6,3.6,0,0,1,.31-1.22,1.77,1.77,0,0,1,2.08-.53,11.2,11.2,0,0,1,2,1.15c2.46,1.46,5.54,1.13,8.38.72,2.35-.35,5.32-1.39,5.31-3.76,0-1.56-1.36-2.7-2.43-3.83s-1.93-2.93-1-4.14a2.77,2.77,0,0,1,1.37-.83c2.94-1,6.54.32,9-1.53a5.19,5.19,0,0,0,1.31-6.23,7.94,7.94,0,0,0-5.31-4c-2-.5-4.49-.73-5.22-2.63-.65-1.67.65-3.47,2.11-4.5s3.23-1.74,4.25-3.21a5.09,5.09,0,0,0,.14-5.27,6.41,6.41,0,0,0-4.44-3,10.18,10.18,0,0,1-2.69-.59,1.79,1.79,0,0,1-1-2.27c.26-.49.82-.74,1.15-1.19a2.15,2.15,0,0,0-.8-2.8,10.66,10.66,0,0,0-3-1.15c-2.14-.71-4.21-2.78-3.58-4.94s3.73-3,4.64-5.14c.8-1.91-.47-4.13-2.19-5.3s-3.79-1.64-5.66-2.53-3.69-2.45-3.84-4.52,1.43-3.9,2.72-5.58,2.4-4,1.27-5.84-3.5-1.82-5.45-2.44a8.8,8.8,0,0,1-5.36-4.84c-.52-1.2-.77-2.5-1.39-3.65C119.81,79.51,115,78,111.2,78.39c-2,.23-2.63,1-3.58,2.43a5.65,5.65,0,0,0-1.31,2.47c-.29,1.72.62,3.91-1,5.23-2.47,2-6.25-.69-6.11,3.77a18.73,18.73,0,0,0,.83,5.56c.67,1.88,2,2.69.9,4.79-1.45,2.73-2.4,2.71-5.31,2.71-2.1,0-3.85-.12-5.4,1.48-2.71,2.8-1.1,5.34,1.31,7.5,2.74,2.46,1.29,3.53.93,6.72-.17,1.53.18,2-1.19,3-2.6,1.92-4,1.28-3.31,5,.66,3.44-.36,2.26-3.35,3.55-2.64,1.13-4.39,4-6.53,5.76-1.37,1.14-3.47,2-3.6,4-.25,3.83,4.52,3,6.79,3.91,3.7,1.49,2.6,6.35-.29,8.17-3.06,1.93-7.53,2.64-7.78,7-.19,3.37,1.73,4.12,4.34,5.24,2.09.9,1.82,1.17,1.82,3.66,0,5,1.69,6.44,6.64,5.62,1.36-.22,3.43-.79,4.78-.39,1.89.57,1.25,1,1.31,2.62.13,4.06,4.85,2.92,6.85,1.18C101.25,177.49,104.14,175.17,107.27,174.86Z" style="fill:#BA68C8"></path><path d="M107.27,174.86a6.68,6.68,0,0,1,3.65.66,37.5,37.5,0,0,1,6,4.21,12,12,0,0,0,6.6,2.85c2.43.08,5.06-1.43,5.5-3.83a3.6,3.6,0,0,1,.31-1.22,1.77,1.77,0,0,1,2.08-.53,11.2,11.2,0,0,1,2,1.15c2.46,1.46,5.54,1.13,8.38.72,2.35-.35,5.32-1.39,5.31-3.76,0-1.56-1.36-2.7-2.43-3.83s-1.93-2.93-1-4.14a2.77,2.77,0,0,1,1.37-.83c2.94-1,6.54.32,9-1.53a5.19,5.19,0,0,0,1.31-6.23,7.94,7.94,0,0,0-5.31-4c-2-.5-4.49-.73-5.22-2.63-.65-1.67.65-3.47,2.11-4.5s3.23-1.74,4.25-3.21a5.09,5.09,0,0,0,.14-5.27,6.41,6.41,0,0,0-4.44-3,10.18,10.18,0,0,1-2.69-.59,1.79,1.79,0,0,1-1-2.27c.26-.49.82-.74,1.15-1.19a2.15,2.15,0,0,0-.8-2.8,10.66,10.66,0,0,0-3-1.15c-2.14-.71-4.21-2.78-3.58-4.94s3.73-3,4.64-5.14c.8-1.91-.47-4.13-2.19-5.3s-3.79-1.64-5.66-2.53-3.69-2.45-3.84-4.52,1.43-3.9,2.72-5.58,2.4-4,1.27-5.84-3.5-1.82-5.45-2.44a8.8,8.8,0,0,1-5.36-4.84c-.52-1.2-.77-2.5-1.39-3.65C119.81,79.51,115,78,111.2,78.39c-2,.23-2.63,1-3.58,2.43a5.65,5.65,0,0,0-1.31,2.47c-.29,1.72.62,3.91-1,5.23-2.47,2-6.25-.69-6.11,3.77a18.73,18.73,0,0,0,.83,5.56c.67,1.88,2,2.69.9,4.79-1.45,2.73-2.4,2.71-5.31,2.71-2.1,0-3.85-.12-5.4,1.48-2.71,2.8-1.1,5.34,1.31,7.5,2.74,2.46,1.29,3.53.93,6.72-.17,1.53.18,2-1.19,3-2.6,1.92-4,1.28-3.31,5,.66,3.44-.36,2.26-3.35,3.55-2.64,1.13-4.39,4-6.53,5.76-1.37,1.14-3.47,2-3.6,4-.25,3.83,4.52,3,6.79,3.91,3.7,1.49,2.6,6.35-.29,8.17-3.06,1.93-7.53,2.64-7.78,7-.19,3.37,1.73,4.12,4.34,5.24,2.09.9,1.82,1.17,1.82,3.66,0,5,1.69,6.44,6.64,5.62,1.36-.22,3.43-.79,4.78-.39,1.89.57,1.25,1,1.31,2.62.13,4.06,4.85,2.92,6.85,1.18C101.25,177.49,104.14,175.17,107.27,174.86Z" style="opacity:0.15"></path><path d="M145,166.31c2.26-.74,4.9-.16,7.14-.69a28.28,28.28,0,0,0-4-.63,11.33,11.33,0,0,0-8.63,3.43,7.8,7.8,0,0,1,1.74,5.18c-5.61,1.52-11.14-6-16.48-3.71.32,2.71,0,6.36-2.63,7-1.56.35-3.12-.69-4.08-2s-1.56-2.8-2.53-4.06a8.59,8.59,0,0,0-11.41-1.66c-1.34,1-5.05,3.53-5.76.37-.12-.5,0-1.33-.38-1.74s-.58-.19-.84-.39c-.6-.45-1.24-1-.54-1.88a3.85,3.85,0,0,1,2.27-1,19.56,19.56,0,0,0,3.64-1.25c1-.45,2.07-1.16,2.14-2.24,0-.73-.38-1.46-.19-2.16.27-1,1.67-1.37,2.14-2.33a2.31,2.31,0,0,0-.81-2.59c-.72-.64-1.65-1-2.42-1.61a2.54,2.54,0,0,1-1.15-2.49,2.58,2.58,0,0,1,1-1.31c1.68-1.22,4.06-1.5,5.29-3.17a6,6,0,0,0,.81-4c-.23-3.06-1.39-6.28-4-8-1.45-1-3.22-1.36-4.78-2.17s-3-2.28-2.89-4c.21-3.12,5-4.34,5.27-7.47a4,4,0,0,0-1.42-3.21,10.39,10.39,0,0,0-3.16-1.79A26.8,26.8,0,0,1,95,113.27a19.32,19.32,0,0,0-2.32-1.45,20.43,20.43,0,0,1-3.76-1.74l-.12-.09c.08,1.57,1.24,3,2.71,4.34,2.74,2.46,1.29,3.53.93,6.72-.17,1.53.18,2-1.19,3-2.6,1.92-4,1.28-3.31,5,.66,3.44-.36,2.26-3.35,3.55-2.64,1.13-4.39,4-6.53,5.76-1.37,1.14-3.47,2-3.6,4-.25,3.83,4.52,3,6.79,3.91,3.7,1.49,2.6,6.35-.29,8.17-3.06,1.93-7.53,2.64-7.78,7-.19,3.37,1.73,4.12,4.34,5.24,2.09.9,1.82,1.17,1.82,3.66,0,5,1.69,6.44,6.64,5.62,1.36-.22,3.43-.79,4.78-.39,1.89.57,1.25,1,1.31,2.62.13,4.06,4.85,2.92,6.85,1.18,2.31-2,5.2-4.32,8.33-4.63a6.68,6.68,0,0,1,3.65.66,37.5,37.5,0,0,1,6,4.21,12,12,0,0,0,6.6,2.85c2.43.08,5.06-1.43,5.5-3.83a3.6,3.6,0,0,1,.31-1.22,1.78,1.78,0,0,1,2.08-.53,11.2,11.2,0,0,1,2,1.15c2.46,1.46,5.54,1.13,8.38.72,2.35-.35,5.32-1.39,5.31-3.76,0-1.56-1.36-2.7-2.43-3.83s-1.93-2.93-1-4.14A2.77,2.77,0,0,1,145,166.31Z" style="opacity:0.15"></path><path d="M99.54,133.49l13.52,26.79V148l1.37-52.52,2,52.52v8.29l14.86-26-14.86,31.87v82.6a.83.83,0,0,1-.49.69,2.65,2.65,0,0,1-2.39,0,.83.83,0,0,1-.49-.69V167.12Z" style="fill:#BA68C8"></path><path d="M99.54,133.49l13.52,26.79V148l1.37-52.52,2,52.52v8.29l14.86-26-14.86,31.87v82.6a.83.83,0,0,1-.49.69,2.65,2.65,0,0,1-2.39,0,.83.83,0,0,1-.49-.69V167.12Z" style="opacity:0.45"></path></g><g id="freepik--Bush--inject-138"><path id="freepik--bush--inject-138" d="M100.14,247.88c6.61,1.05,12.54-.77,13.55-7.93a63.81,63.81,0,0,0,0-17.73c-.3-2.12-1.06-4.63-3.13-5.18-1.71-.45-3.5.8-4.26,2.39a11.71,11.71,0,0,0-.73,5.2c-1-2.31-2.6-5-5.14-5-2.35-.05-4.13,2.42-4.21,4.77s1,4.55,2.15,6.63c-1.78-.24-3.79-.37-5.15.8-1.62,1.41-1.44,4.12-.19,5.87s3.26,2.76,5.18,3.71a2.33,2.33,0,0,0-3.14,1.54,3.53,3.53,0,0,0,1.35,3.55A7.68,7.68,0,0,0,100.14,247.88Z" style="fill:#455a64"></path><g id="freepik--bush--inject-138"><path id="freepik--bush--inject-138" d="M111.61,250.7l15.81-9.12a12.8,12.8,0,0,0,3.43-3.24,9,9,0,0,0,1.92-4.09,2.14,2.14,0,0,0-.16-1.56c-.57-.83-1.92-.54-2.67.14s-1.36,1.27-2.16,2.12a23.41,23.41,0,0,0,.31-5.48,2.49,2.49,0,0,0-.66-1.83,2.06,2.06,0,0,0-2.21.05c-2.07,1.12-3,3.58-3.67,5.82a18.57,18.57,0,0,0-.21-7c-.55-2.5-3.4-3.47-4.37-1.09a13.79,13.79,0,0,0-.84,4,16.48,16.48,0,0,0,.35,5.25,16.46,16.46,0,0,0-4.21-5.83,2.54,2.54,0,0,0-2.43-.85c-1,.38-1.17,1.71-1.06,2.78a14.9,14.9,0,0,0,2.15,6.36,13.3,13.3,0,0,0-5.35-2.08,1.59,1.59,0,0,0-1.67.54,2.17,2.17,0,0,0,.36,2.2,13.46,13.46,0,0,0,4.25,4,13.7,13.7,0,0,0-5.17-.55,1.85,1.85,0,0,0-1.39.58c-.45.66.08,1.55.65,2.1a16,16,0,0,0,3.7,2.21,5.15,5.15,0,0,0-2.28.38,1.81,1.81,0,0,0-1.09,1.87,2.31,2.31,0,0,0,1.67,1.47C107.69,250.85,108.55,251.2,111.61,250.7Z" style="fill:#BA68C8"></path><path id="freepik--bush--inject-138" d="M111.61,250.7l15.81-9.12a12.8,12.8,0,0,0,3.43-3.24,9,9,0,0,0,1.92-4.09,2.14,2.14,0,0,0-.16-1.56c-.57-.83-1.92-.54-2.67.14s-1.36,1.27-2.16,2.12a23.41,23.41,0,0,0,.31-5.48,2.49,2.49,0,0,0-.66-1.83,2.06,2.06,0,0,0-2.21.05c-2.07,1.12-3,3.58-3.67,5.82a18.57,18.57,0,0,0-.21-7c-.55-2.5-3.4-3.47-4.37-1.09a13.79,13.79,0,0,0-.84,4,16.48,16.48,0,0,0,.35,5.25,16.46,16.46,0,0,0-4.21-5.83,2.54,2.54,0,0,0-2.43-.85c-1,.38-1.17,1.71-1.06,2.78a14.9,14.9,0,0,0,2.15,6.36,13.3,13.3,0,0,0-5.35-2.08,1.59,1.59,0,0,0-1.67.54,2.17,2.17,0,0,0,.36,2.2,13.46,13.46,0,0,0,4.25,4,13.7,13.7,0,0,0-5.17-.55,1.85,1.85,0,0,0-1.39.58c-.45.66.08,1.55.65,2.1a16,16,0,0,0,3.7,2.21,5.15,5.15,0,0,0-2.28.38,1.81,1.81,0,0,0-1.09,1.87,2.31,2.31,0,0,0,1.67,1.47C107.69,250.85,108.55,251.2,111.61,250.7Z" style="opacity:0.25"></path></g></g></g><g id="freepik--tree--inject-138"><g id="freepik--tree--inject-138"><path d="M47.76,157.68a8,8,0,0,1,4.37.79c2.63,1.27,4.81,3.29,7.14,5.05s5,3.32,7.91,3.42,6.07-1.72,6.6-4.59a4.19,4.19,0,0,1,.37-1.46,2.13,2.13,0,0,1,2.49-.65,13.38,13.38,0,0,1,2.4,1.39c3,1.74,6.66,1.35,10,.85,2.82-.41,6.38-1.65,6.37-4.51,0-1.86-1.63-3.23-2.91-4.58s-2.32-3.52-1.15-5a3.43,3.43,0,0,1,1.64-1c3.52-1.15,7.84.38,10.82-1.83,2.22-1.64,2.73-5,1.57-7.47a9.48,9.48,0,0,0-6.36-4.84c-2.37-.61-5.38-.88-6.26-3.16-.77-2,.78-4.16,2.53-5.39s3.87-2.09,5.09-3.85a6.08,6.08,0,0,0,.17-6.32,7.7,7.7,0,0,0-5.31-3.65,11.65,11.65,0,0,1-3.23-.71c-1-.49-1.73-1.75-1.2-2.71.32-.59,1-.89,1.38-1.43.75-1,.1-2.6-.95-3.36a13.17,13.17,0,0,0-3.6-1.38c-2.56-.85-5-3.33-4.28-5.92s4.46-3.57,5.55-6.15c1-2.29-.56-5-2.62-6.37s-4.55-2-6.79-3-4.42-2.93-4.61-5.41,1.72-4.68,3.27-6.7,2.88-4.84,1.52-7-4.2-2.19-6.53-2.93A10.57,10.57,0,0,1,66.77,52c-.62-1.43-.92-3-1.67-4.37C62.79,43.38,57,41.51,52.47,42c-2.36.28-3.15,1.18-4.29,2.92-.66,1-1.34,1.54-1.57,2.95-.34,2.07.74,4.69-1.2,6.27-3,2.39-7.49-.83-7.33,4.52a22.46,22.46,0,0,0,1,6.67c.8,2.25,2.42,3.23,1.08,5.75-1.74,3.26-2.88,3.24-6.36,3.24-2.52,0-4.63-.14-6.48,1.77-3.25,3.36-1.32,6.4,1.57,9,3.28,2.94,1.54,4.23,1.11,8-.2,1.84.22,2.4-1.43,3.62-3.1,2.31-4.84,1.53-4,6,.8,4.12-.43,2.71-4,4.25-3.17,1.36-5.26,4.77-7.83,6.9-1.65,1.37-4.17,2.43-4.32,4.83-.3,4.6,5.42,3.59,8.14,4.69,4.44,1.79,3.12,7.62-.35,9.8-3.67,2.31-9,3.16-9.32,8.43-.23,4,2.07,4.93,5.2,6.28,2.5,1.08,2.18,1.4,2.18,4.38,0,6,2,7.73,8,6.75,1.63-.27,4.11-1,5.73-.47,2.27.68,1.5,1.24,1.57,3.14.16,4.86,5.82,3.49,8.22,1.41C40.54,160.83,44,158.05,47.76,157.68Z" style="fill:#BA68C8"></path><path d="M93,147.43c2.71-.89,5.89-.19,8.57-.82a32.75,32.75,0,0,0-4.8-.76A13.61,13.61,0,0,0,86.45,150a9.32,9.32,0,0,1,2.08,6.21C81.8,158,75.18,149,68.77,151.72c.39,3.25,0,7.63-3.15,8.34-1.87.42-3.74-.82-4.89-2.35s-1.87-3.34-3-4.86a10.3,10.3,0,0,0-13.68-2c-1.74,1.25-3.91,3.16-5.65,1.9s-.73-5-2.78-6c-1.37-.68-3.29.4-4.44-.61a3.09,3.09,0,0,1-.78-1.68c-.81-3.44-1.52-7.41.64-10.21,1.93-2.48,6-4,5.56-7.13-.37-2.66-3.75-3.46-6.42-3.77s-6-1.57-5.92-4.26,3.7-3.9,4.23-6.49c.22-1.1-.15-2.33.35-3.34.76-1.51,2.94-1.58,4.21-2.7,2.28-2,.51-5.8,1.16-8.78.45-2.11,2.16-3.76,2.72-5.84,1.14-4.16-2.65-8.12-6.61-9.81A24.68,24.68,0,0,1,25.78,80l-.14-.11c.1,1.88,1.49,3.63,3.25,5.21,3.28,2.94,1.54,4.23,1.11,8-.2,1.84.22,2.4-1.43,3.62-3.1,2.31-4.84,1.53-4,6,.8,4.12-.43,2.71-4,4.25-3.17,1.36-5.26,4.77-7.83,6.9-1.65,1.37-4.17,2.43-4.32,4.83-.3,4.6,5.42,3.59,8.14,4.69,4.44,1.79,3.12,7.62-.35,9.8-3.67,2.31-9,3.16-9.32,8.43-.23,4,2.07,4.93,5.2,6.28,2.5,1.08,2.18,1.4,2.18,4.38,0,6,2,7.73,8,6.75,1.63-.27,4.11-1,5.73-.47,2.27.68,1.5,1.24,1.57,3.14.16,4.86,5.82,3.49,8.22,1.41,2.76-2.4,6.23-5.18,10-5.55a8,8,0,0,1,4.37.79c2.63,1.27,4.81,3.29,7.14,5.05s5,3.32,7.91,3.42,6.07-1.72,6.6-4.59a4.19,4.19,0,0,1,.37-1.46,2.13,2.13,0,0,1,2.49-.65,13.38,13.38,0,0,1,2.4,1.39c3,1.74,6.66,1.35,10,.85,2.82-.41,6.38-1.65,6.37-4.51,0-1.86-1.63-3.23-2.91-4.58s-2.32-3.52-1.15-5A3.45,3.45,0,0,1,93,147.43Z" style="opacity:0.15"></path><path d="M38.5,108.08,54.7,140.2V125.42l1.65-63,2.39,63v9.94l17.81-31.13L58.74,142.45V273a1,1,0,0,1-.59.83,3.2,3.2,0,0,1-2.86,0,1,1,0,0,1-.59-.83V148.4Z" style="fill:#BA68C8"></path><path d="M38.5,108.08,54.7,140.2V125.42l1.65-63,2.39,63v9.94l17.81-31.13L58.74,142.45V273a1,1,0,0,1-.59.83,3.2,3.2,0,0,1-2.86,0,1,1,0,0,1-.59-.83V148.4Z" style="opacity:0.4"></path></g><g id="freepik--bush--inject-138"><path id="freepik--bush--inject-138" d="M45.38,280.6c4.63.74,8.79-.54,9.5-5.56a44.62,44.62,0,0,0,0-12.43c-.21-1.49-.74-3.25-2.19-3.64a2.78,2.78,0,0,0-3,1.68,8.17,8.17,0,0,0-.51,3.65c-.73-1.63-1.82-3.5-3.61-3.54s-2.89,1.69-2.94,3.34a9.54,9.54,0,0,0,1.5,4.65c-1.25-.17-2.66-.26-3.61.56-1.14,1-1,2.89-.13,4.12A9.28,9.28,0,0,0,44,276a1.64,1.64,0,0,0-2.21,1.08,2.5,2.5,0,0,0,1,2.49A5.49,5.49,0,0,0,45.38,280.6Z" style="fill:#455a64"></path><g id="freepik--bush--inject-138"><path id="freepik--bush--inject-138" d="M53.42,282.58l11.08-6.4a8.7,8.7,0,0,0,2.41-2.27A6.2,6.2,0,0,0,68.26,271a1.46,1.46,0,0,0-.12-1.09c-.4-.59-1.34-.38-1.87.09s-1,.9-1.51,1.49a16.45,16.45,0,0,0,.21-3.84,1.69,1.69,0,0,0-.46-1.28,1.43,1.43,0,0,0-1.55,0c-1.45.79-2.07,2.51-2.57,4.08a13,13,0,0,0-.15-4.89c-.38-1.74-2.38-2.43-3.07-.76a9.77,9.77,0,0,0-.58,2.79,11.07,11.07,0,0,0,.25,3.68,11.56,11.56,0,0,0-3-4.09,1.78,1.78,0,0,0-1.7-.6c-.7.27-.82,1.2-.75,2a10.57,10.57,0,0,0,1.51,4.46,9.37,9.37,0,0,0-3.75-1.46A1.11,1.11,0,0,0,48,272a1.51,1.51,0,0,0,.25,1.54,9.34,9.34,0,0,0,3,2.77,9.89,9.89,0,0,0-3.63-.38,1.26,1.26,0,0,0-1,.41c-.31.46.06,1.08.46,1.47a10.88,10.88,0,0,0,2.59,1.54,3.94,3.94,0,0,0-1.6.27,1.29,1.29,0,0,0-.76,1.32,1.63,1.63,0,0,0,1.17,1C50.67,282.68,51.27,282.93,53.42,282.58Z" style="fill:#BA68C8"></path><path id="freepik--bush--inject-138" d="M53.42,282.58l11.08-6.4a8.7,8.7,0,0,0,2.41-2.27A6.2,6.2,0,0,0,68.26,271a1.46,1.46,0,0,0-.12-1.09c-.4-.59-1.34-.38-1.87.09s-1,.9-1.51,1.49a16.45,16.45,0,0,0,.21-3.84,1.69,1.69,0,0,0-.46-1.28,1.43,1.43,0,0,0-1.55,0c-1.45.79-2.07,2.51-2.57,4.08a13,13,0,0,0-.15-4.89c-.38-1.74-2.38-2.43-3.07-.76a9.77,9.77,0,0,0-.58,2.79,11.07,11.07,0,0,0,.25,3.68,11.56,11.56,0,0,0-3-4.09,1.78,1.78,0,0,0-1.7-.6c-.7.27-.82,1.2-.75,2a10.57,10.57,0,0,0,1.51,4.46,9.37,9.37,0,0,0-3.75-1.46A1.11,1.11,0,0,0,48,272a1.51,1.51,0,0,0,.25,1.54,9.34,9.34,0,0,0,3,2.77,9.89,9.89,0,0,0-3.63-.38,1.26,1.26,0,0,0-1,.41c-.31.46.06,1.08.46,1.47a10.88,10.88,0,0,0,2.59,1.54,3.94,3.94,0,0,0-1.6.27,1.29,1.29,0,0,0-.76,1.32,1.63,1.63,0,0,0,1.17,1C50.67,282.68,51.27,282.93,53.42,282.58Z" style="opacity:0.25"></path></g></g></g><g id="freepik--tree--inject-138"><g id="freepik--tree--inject-138"><path d="M457.64,163.69a7.11,7.11,0,0,0-3.87.7c-2.32,1.12-4.24,2.9-6.3,4.46s-4.41,2.93-7,3-5.36-1.51-5.82-4.05a4,4,0,0,0-.33-1.29,1.9,1.9,0,0,0-2.21-.57,11.91,11.91,0,0,0-2.12,1.23c-2.61,1.54-5.87,1.19-8.87.75-2.49-.36-5.64-1.46-5.63-4,0-1.64,1.44-2.86,2.57-4s2.05-3.11,1-4.38a3,3,0,0,0-1.44-.89c-3.12-1-6.93.34-9.57-1.61a5.51,5.51,0,0,1-1.38-6.6,8.38,8.38,0,0,1,5.61-4.27c2.1-.54,4.76-.78,5.54-2.8.68-1.76-.69-3.67-2.24-4.76s-3.42-1.84-4.5-3.4a5.38,5.38,0,0,1-.15-5.57,6.83,6.83,0,0,1,4.7-3.23,10.43,10.43,0,0,0,2.85-.62,1.89,1.89,0,0,0,1.05-2.4c-.28-.52-.87-.78-1.21-1.26-.67-.93-.09-2.3.84-3a11.5,11.5,0,0,1,3.18-1.21c2.26-.76,4.45-3,3.78-5.23s-3.94-3.16-4.91-5.44c-.85-2,.5-4.38,2.32-5.62s4-1.74,6-2.67,3.9-2.6,4.06-4.79-1.51-4.13-2.88-5.91S428.2,80,429.4,78.09s3.7-1.93,5.77-2.59a9.33,9.33,0,0,0,5.67-5.12c.55-1.27.82-2.65,1.47-3.86,1.48-2.74,4.52-4.3,7.49-4.83a29,29,0,0,1,4.36-.24,5.11,5.11,0,0,1,4.35,2.06c1.16,1.73.78,4,.63,6.09a3.12,3.12,0,0,0,.31,2c.66,1,2.1,1,3.3,1.12a5.64,5.64,0,0,1,4.47,2.42,5.16,5.16,0,0,1,.41,3.86,12.36,12.36,0,0,1-1.73,3.56,11.12,11.12,0,0,0-1.42,2.65A4,4,0,0,0,466,89.4c1.12.82,2.66.69,4,.69,2.23,0,4.09-.12,5.72,1.57,2.87,3,1.17,5.65-1.38,7.94-2.9,2.6-1.36,3.74-1,7.12.18,1.62-.19,2.12,1.27,3.19,2.74,2,4.27,1.35,3.5,5.34-.7,3.65.38,2.4,3.54,3.76,2.8,1.2,4.65,4.21,6.91,6.09,1.46,1.21,3.68,2.15,3.82,4.27.26,4.06-4.79,3.17-7.19,4.14-3.92,1.59-2.75,6.73.31,8.65,3.24,2,8,2.8,8.23,7.45.2,3.57-1.83,4.35-4.59,5.55-2.21,1-1.93,1.23-1.93,3.87,0,5.32-1.79,6.82-7,5.95-1.44-.23-3.63-.84-5.06-.41-2,.6-1.33,1.1-1.38,2.77-.15,4.3-5.15,3.09-7.26,1.25C464,166.47,460.94,164,457.64,163.69Z" style="fill:#BA68C8"></path><path d="M457.64,163.69a7.11,7.11,0,0,0-3.87.7c-2.32,1.12-4.24,2.9-6.3,4.46s-4.41,2.93-7,3-5.36-1.51-5.82-4.05a4,4,0,0,0-.33-1.29,1.9,1.9,0,0,0-2.21-.57,11.91,11.91,0,0,0-2.12,1.23c-2.61,1.54-5.87,1.19-8.87.75-2.49-.36-5.64-1.46-5.63-4,0-1.64,1.44-2.86,2.57-4s2.05-3.11,1-4.38a3,3,0,0,0-1.44-.89c-3.12-1-6.93.34-9.57-1.61a5.51,5.51,0,0,1-1.38-6.6,8.38,8.38,0,0,1,5.61-4.27c2.1-.54,4.76-.78,5.54-2.8.68-1.76-.69-3.67-2.24-4.76s-3.42-1.84-4.5-3.4a5.38,5.38,0,0,1-.15-5.57,6.83,6.83,0,0,1,4.7-3.23,10.43,10.43,0,0,0,2.85-.62,1.89,1.89,0,0,0,1.05-2.4c-.28-.52-.87-.78-1.21-1.26-.67-.93-.09-2.3.84-3a11.5,11.5,0,0,1,3.18-1.21c2.26-.76,4.45-3,3.78-5.23s-3.94-3.16-4.91-5.44c-.85-2,.5-4.38,2.32-5.62s4-1.74,6-2.67,3.9-2.6,4.06-4.79-1.51-4.13-2.88-5.91S428.2,80,429.4,78.09s3.7-1.93,5.77-2.59a9.33,9.33,0,0,0,5.67-5.12c.55-1.27.82-2.65,1.47-3.86,1.48-2.74,4.52-4.3,7.49-4.83a29,29,0,0,1,4.36-.24,5.11,5.11,0,0,1,4.35,2.06c1.16,1.73.78,4,.63,6.09a3.12,3.12,0,0,0,.31,2c.66,1,2.1,1,3.3,1.12a5.64,5.64,0,0,1,4.47,2.42,5.16,5.16,0,0,1,.41,3.86,12.36,12.36,0,0,1-1.73,3.56,11.12,11.12,0,0,0-1.42,2.65A4,4,0,0,0,466,89.4c1.12.82,2.66.69,4,.69,2.23,0,4.09-.12,5.72,1.57,2.87,3,1.17,5.65-1.38,7.94-2.9,2.6-1.36,3.74-1,7.12.18,1.62-.19,2.12,1.27,3.19,2.74,2,4.27,1.35,3.5,5.34-.7,3.65.38,2.4,3.54,3.76,2.8,1.2,4.65,4.21,6.91,6.09,1.46,1.21,3.68,2.15,3.82,4.27.26,4.06-4.79,3.17-7.19,4.14-3.92,1.59-2.75,6.73.31,8.65,3.24,2,8,2.8,8.23,7.45.2,3.57-1.83,4.35-4.59,5.55-2.21,1-1.93,1.23-1.93,3.87,0,5.32-1.79,6.82-7,5.95-1.44-.23-3.63-.84-5.06-.41-2,.6-1.33,1.1-1.38,2.77-.15,4.3-5.15,3.09-7.26,1.25C464,166.47,460.94,164,457.64,163.69Z" style="opacity:0.15"></path><path d="M417.65,154.63c-2.4-.78-5.2-.17-7.56-.72a28.79,28.79,0,0,1,4.23-.67,12,12,0,0,1,9.14,3.63,8.24,8.24,0,0,0-1.83,5.48c5.94,1.61,11.79-6.35,17.44-3.93-.34,2.88,0,6.74,2.79,7.37,1.65.37,3.3-.73,4.32-2.07s1.65-3,2.68-4.3a9.09,9.09,0,0,1,12.08-1.76c1.66,1.21,4.49,3.05,6.38,1.22a6.35,6.35,0,0,0,1.51-3.44,3.83,3.83,0,0,0,0-2.25c-.36-.84-1.32-1.56-1.07-2.44a1.41,1.41,0,0,1,1.43-.9,6,6,0,0,1,1.75.42,7,7,0,0,0,5.52-.4,4.74,4.74,0,0,0,2.42-4.75c-.55-3.05-4.17-4.31-6.23-6.62a7.55,7.55,0,0,1-1.68-6.74,11.23,11.23,0,0,0,.43-1.89c.16-2.18-1.83-4.15-1.44-6.29.41-2.33,3.41-3.57,3.69-5.92.17-1.47-.81-2.8-1.73-4-2-2.55-4.68-5.74-4.86-9.19s3.09-6.31,6-7.57a20.86,20.86,0,0,0,4-1.84l.13-.1c-.09,1.67-1.32,3.21-2.87,4.6-2.9,2.6-1.36,3.74-1,7.12.18,1.62-.19,2.12,1.27,3.19,2.74,2,4.27,1.35,3.5,5.34-.7,3.65.38,2.4,3.54,3.76,2.8,1.2,4.65,4.21,6.91,6.09,1.46,1.21,3.68,2.15,3.82,4.27.26,4.06-4.79,3.17-7.19,4.14-3.92,1.59-2.75,6.73.31,8.65,3.24,2,8,2.8,8.23,7.45.2,3.57-1.83,4.35-4.59,5.55-2.21,1-1.93,1.23-1.93,3.87,0,5.32-1.79,6.82-7,5.95-1.44-.23-3.63-.84-5.06-.41-2,.6-1.33,1.1-1.38,2.77-.15,4.3-5.15,3.09-7.26,1.25-2.44-2.12-5.51-4.58-8.82-4.9a7.09,7.09,0,0,0-3.86.7c-2.32,1.12-4.24,2.9-6.3,4.46s-4.41,2.93-7,3-5.36-1.51-5.82-4.05a4,4,0,0,0-.33-1.29,1.9,1.9,0,0,0-2.21-.57,11.91,11.91,0,0,0-2.12,1.23c-2.61,1.54-5.87,1.19-8.87.75-2.49-.36-5.64-1.46-5.63-4,0-1.64,1.44-2.86,2.57-4s2.05-3.11,1-4.38A3,3,0,0,0,417.65,154.63Z" style="opacity:0.15"></path><path d="M465.81,119.88,451.5,148.25V135.2l-1.45-55.61-2.12,55.61V144L432.2,116.49l15.73,33.75V279a.91.91,0,0,0,.52.73,2.82,2.82,0,0,0,2.53,0,.89.89,0,0,0,.52-.73V155.49Z" style="fill:#BA68C8"></path><path d="M465.81,119.88,451.5,148.25V135.2l-1.45-55.61-2.12,55.61V144L432.2,116.49l15.73,33.75V279a.91.91,0,0,0,.52.73,2.82,2.82,0,0,0,2.53,0,.89.89,0,0,0,.52-.73V155.49Z" style="opacity:0.45"></path></g><g id="freepik--bush--inject-138"><path id="freepik--bush--inject-138" d="M462.51,281.08c-5.61.9-10.64-.65-11.5-6.73a53.81,53.81,0,0,1,0-15.05c.26-1.8.9-3.93,2.66-4.4a3.36,3.36,0,0,1,3.61,2,9.85,9.85,0,0,1,.62,4.42c.88-2,2.21-4.24,4.36-4.29s3.51,2.05,3.58,4.05-.9,3.86-1.83,5.62c1.51-.2,3.22-.31,4.38.69,1.37,1.19,1.22,3.49.16,5a11.14,11.14,0,0,1-4.41,3.14,2,2,0,0,1,2.68,1.31,3,3,0,0,1-1.15,3A6.54,6.54,0,0,1,462.51,281.08Z" style="fill:#455a64"></path><g id="freepik--bush--inject-138"><path id="freepik--bush--inject-138" d="M452.77,283.47s-10.91-6.28-13.42-7.74a10.8,10.8,0,0,1-2.91-2.74,7.65,7.65,0,0,1-1.63-3.48,1.76,1.76,0,0,1,.14-1.32c.48-.71,1.63-.46,2.27.11s1.15,1.08,1.82,1.81a20.81,20.81,0,0,1-.26-4.66,2.11,2.11,0,0,1,.57-1.55,1.74,1.74,0,0,1,1.87,0c1.76.95,2.51,3,3.11,4.94a15.93,15.93,0,0,1,.18-5.92c.47-2.11,2.89-2.94,3.72-.92a12.13,12.13,0,0,1,.71,3.37,14.15,14.15,0,0,1-.3,4.46,13.81,13.81,0,0,1,3.57-4.95,2.16,2.16,0,0,1,2.06-.72c.85.32,1,1.45.91,2.36a12.67,12.67,0,0,1-1.83,5.39,11.42,11.42,0,0,1,4.54-1.76,1.36,1.36,0,0,1,1.42.46,1.81,1.81,0,0,1-.31,1.86,11.12,11.12,0,0,1-3.61,3.36,11.9,11.9,0,0,1,4.4-.47,1.51,1.51,0,0,1,1.17.5c.38.56-.06,1.31-.55,1.78a13.24,13.24,0,0,1-3.14,1.87,4.39,4.39,0,0,1,1.94.33,1.53,1.53,0,0,1,.92,1.58,2,2,0,0,1-1.42,1.25C456.1,283.6,455.37,283.9,452.77,283.47Z" style="fill:#BA68C8"></path><path id="freepik--bush--inject-138" d="M452.77,283.47s-10.91-6.28-13.42-7.74a10.8,10.8,0,0,1-2.91-2.74,7.65,7.65,0,0,1-1.63-3.48,1.76,1.76,0,0,1,.14-1.32c.48-.71,1.63-.46,2.27.11s1.15,1.08,1.82,1.81a20.81,20.81,0,0,1-.26-4.66,2.11,2.11,0,0,1,.57-1.55,1.74,1.74,0,0,1,1.87,0c1.76.95,2.51,3,3.11,4.94a15.93,15.93,0,0,1,.18-5.92c.47-2.11,2.89-2.94,3.72-.92a12.13,12.13,0,0,1,.71,3.37,14.15,14.15,0,0,1-.3,4.46,13.81,13.81,0,0,1,3.57-4.95,2.16,2.16,0,0,1,2.06-.72c.85.32,1,1.45.91,2.36a12.67,12.67,0,0,1-1.83,5.39,11.42,11.42,0,0,1,4.54-1.76,1.36,1.36,0,0,1,1.42.46,1.81,1.81,0,0,1-.31,1.86,11.12,11.12,0,0,1-3.61,3.36,11.9,11.9,0,0,1,4.4-.47,1.51,1.51,0,0,1,1.17.5c.38.56-.06,1.31-.55,1.78a13.24,13.24,0,0,1-3.14,1.87,4.39,4.39,0,0,1,1.94.33,1.53,1.53,0,0,1,.92,1.58,2,2,0,0,1-1.42,1.25C456.1,283.6,455.37,283.9,452.77,283.47Z" style="opacity:0.25"></path></g></g></g></g><g id="freepik--grass--inject-138"><g id="freepik--grass--inject-138"><path d="M337.48,273.28c.27,18-8.16,39.22-8.16,39.22l4.12-1.48C340.45,287.15,337.48,273.28,337.48,273.28Z" style="fill:#BA68C8"></path><path d="M337.48,273.28c.27,18-8.16,39.22-8.16,39.22l4.12-1.48C340.45,287.15,337.48,273.28,337.48,273.28Z" style="opacity:0.15"></path><path d="M331.48,311.57a1.34,1.34,0,0,0-.07.18l2-.73c7-23.87,4-37.74,4-37.74C338.89,282.21,335.06,302.45,331.48,311.57Z" style="opacity:0.15"></path><path d="M329.32,312.5s1.29-16-2.2-30.63-9.87-22-9.87-22,8.38,5.8,13.23,21.71a95,95,0,0,1,4.24,29Z" style="fill:#BA68C8"></path><path d="M329.32,312.5s1.29-16-2.2-30.63-9.87-22-9.87-22,8.38,5.8,13.23,21.71a95,95,0,0,1,4.24,29Z" style="opacity:0.2"></path><path d="M332.16,311.48h0l2.56-.92a95,95,0,0,0-4.24-29c-4.85-15.91-13.23-21.71-13.23-21.71C325.12,267.18,333.6,288.08,332.16,311.48Z" style="opacity:0.1"></path><path d="M329.32,312.5s-.29-13.4-14.4-27.06c0,0,14.13,8.58,18.52,25.58Z" style="fill:#BA68C8"></path><path d="M331.48,311.57a.7.7,0,0,0,0,.14l1.93-.69c-4.39-17-18.52-25.58-18.52-25.58C321.61,291.09,329.38,300.07,331.48,311.57Z" style="opacity:0.1"></path></g><g id="freepik--grass--inject-138"><path d="M460.13,291.18c-3.45,17.63,1.09,40.05,1.09,40.05l-3.8-2.19C454.75,304.31,460.13,291.18,460.13,291.18Z" style="fill:#BA68C8"></path><path d="M460.13,291.18c-3.45,17.63,1.09,40.05,1.09,40.05l-3.8-2.19C454.75,304.31,460.13,291.18,460.13,291.18Z" style="opacity:0.15"></path><path d="M459.26,329.93l0,.19L457.42,329c-2.67-24.73,2.71-37.86,2.71-37.86C457.16,299.72,457.34,320.32,459.26,329.93Z" style="opacity:0.15"></path><path d="M461.22,331.23s1.56-16,7.58-29.76,13.62-19.93,13.62-19.93-9.28,4.23-16.87,19a95.08,95.08,0,0,0-9.31,27.79Z" style="fill:#BA68C8"></path><path d="M461.22,331.23s1.56-16,7.58-29.76,13.62-19.93,13.62-19.93-9.28,4.23-16.87,19a95.08,95.08,0,0,0-9.31,27.79Z" style="opacity:0.2"></path><path d="M458.6,329.72h0l-2.36-1.36a95.08,95.08,0,0,1,9.31-27.79c7.59-14.8,16.87-19,16.87-19C473.37,287.36,461.33,306.44,458.6,329.72Z" style="opacity:0.1"></path><path d="M461.22,331.23s2.65-13.14,19-24.09c0,0-15.43,5.95-22.76,21.9Z" style="fill:#BA68C8"></path><path d="M459.26,329.93l-.06.14-1.78-1c7.33-16,22.76-21.9,22.76-21.9C472.6,311.52,463.36,319,459.26,329.93Z" style="opacity:0.1"></path></g></g><g id="freepik--Rocks--inject-138"><g id="freepik--rocks--inject-138"><polygon id="freepik--shadow--inject-138" points="267.95 309.17 273.43 313.3 277.58 320.3 282.16 319.73 287.73 323 295.2 318.16 302.66 317.8 311.23 319.26 314.44 323.46 320.55 325.81 330.17 322 340.16 312.51 327.5 310.53 307.24 311.99 315.27 309.72 320.49 304.96 318.97 301.98 313.25 292.5 301.69 291.85 268.8 293.98 267.95 309.17" style="opacity:0.1"></polygon><g id="freepik--rocks--inject-138"><g id="freepik--Rock--inject-138"><polygon points="290.66 277.23 275.88 285.26 270.56 291.53 279.55 293.65 290.66 300.03 294.34 292.98 289.7 285.26 290.66 277.23" style="fill:#BA68C8"></polygon><polygon points="290.66 277.23 275.88 285.26 270.56 291.53 279.55 293.65 290.66 300.03 294.34 292.98 289.7 285.26 290.66 277.23" style="opacity:0.30000000000000004"></polygon><polygon points="290.66 277.23 299.17 278.29 300.23 287.08 294.34 292.98 289.7 285.26 290.66 277.23" style="fill:#BA68C8"></polygon><polygon points="290.66 277.23 299.17 278.29 300.23 287.08 294.34 292.98 289.7 285.26 290.66 277.23" style="opacity:0.35000000000000003"></polygon><polygon points="310.76 288.63 311.35 295.49 305.35 292.98 297.62 296.17 293.95 300.03 290.66 307.96 287.09 319.17 284.29 309.02 290.66 300.03 296.68 294.33 304.97 292.21 310.76 288.63" style="fill:#BA68C8"></polygon><polygon points="300.71 313.76 311.93 305.83 308.16 297.52 300.71 313.76" style="fill:#BA68C8"></polygon><g style="opacity:0.5"><polygon points="310.76 288.63 311.35 295.49 305.35 292.98 297.62 296.17 293.95 300.03 290.66 307.96 287.09 319.17 284.29 309.02 290.66 300.03 296.68 294.33 304.97 292.21 310.76 288.63"></polygon><polygon points="300.71 313.76 311.93 305.83 308.16 297.52 300.71 313.76"></polygon></g><polygon points="282.04 281.91 276.46 287.37 275.01 290.56 280.03 291.24 290.66 300.03 279.55 293.65 270.56 291.53 275.88 285.26 282.04 281.91" style="fill:#BA68C8"></polygon><polygon points="299.17 278.29 298.3 286.5 293.13 290.97 294.34 292.98 300.23 287.08 299.17 278.29" style="fill:#BA68C8"></polygon><polygon points="284.29 309.02 277.91 307.28 265.05 302.06 257.23 295.2 260.61 290.97 265.63 290.56 261.48 292.01 260.61 295.11 264.86 298.97 283.7 307.09 290.66 300.03 284.29 309.02" style="fill:#BA68C8"></polygon><g style="opacity:0.25"><polygon points="282.04 281.91 276.46 287.37 275.01 290.56 280.03 291.24 290.66 300.03 279.55 293.65 270.56 291.53 275.88 285.26 282.04 281.91"></polygon><polygon points="299.17 278.29 298.3 286.5 293.13 290.97 294.34 292.98 300.23 287.08 299.17 278.29"></polygon><polygon points="284.29 309.02 277.91 307.28 265.05 302.06 257.23 295.2 260.61 290.97 265.63 290.56 261.48 292.01 260.61 295.11 264.86 298.97 283.7 307.09 290.66 300.03 284.29 309.02"></polygon></g><polygon points="275.88 285.26 265.63 290.56 261.48 292.01 260.61 295.11 264.86 298.97 283.7 307.09 285.67 305.09 279.45 298.39 274.43 298.39 270.56 291.53 275.88 285.26" style="fill:#BA68C8"></polygon><polygon points="275.88 285.26 265.63 290.56 261.48 292.01 260.61 295.11 264.86 298.97 283.7 307.09 285.67 305.09 279.45 298.39 274.43 298.39 270.56 291.53 275.88 285.26" style="opacity:0.35000000000000003"></polygon><polygon points="299.17 278.29 310.76 288.63 304.97 292.21 296.68 294.33 290.66 300.03 294.34 292.98 300.23 287.08 299.17 278.29" style="fill:#BA68C8"></polygon><polygon points="305.35 292.98 297.62 296.17 293.95 300.03 290.66 307.96 292.31 315.69 300.71 313.76 308.16 297.52 305.35 292.98" style="fill:#BA68C8"></polygon><polygon points="270.56 291.53 274.43 298.39 279.45 298.39 279.55 293.65 270.56 291.53" style="fill:#BA68C8"></polygon><polygon points="262.73 306.61 266.79 307.96 269.02 305.83 277.91 307.28 265.05 302.06 262.73 306.61" style="fill:#BA68C8"></polygon><g style="opacity:0.45"><polygon points="299.17 278.29 310.76 288.63 304.97 292.21 296.68 294.33 290.66 300.03 294.34 292.98 300.23 287.08 299.17 278.29"></polygon><polygon points="305.35 292.98 297.62 296.17 293.95 300.03 290.66 307.96 292.31 315.69 300.71 313.76 308.16 297.52 305.35 292.98"></polygon><polygon points="270.56 291.53 274.43 298.39 279.45 298.39 279.55 293.65 270.56 291.53"></polygon><polygon points="262.73 306.61 266.79 307.96 269.02 305.83 277.91 307.28 265.05 302.06 262.73 306.61"></polygon></g><polygon points="281.62 308.29 277.91 307.28 273.94 311.24 277.23 316.37 281.62 308.29" style="fill:#BA68C8"></polygon><polygon points="281.62 308.29 277.91 307.28 273.94 311.24 277.23 316.37 281.62 308.29" style="opacity:0.35000000000000003"></polygon><polygon points="311.35 295.49 315.69 302.45 311.93 305.83 308.16 297.52 305.35 292.98 311.35 295.49" style="fill:#BA68C8"></polygon><polygon points="287.09 319.17 292.31 315.69 290.66 307.96 287.09 319.17" style="fill:#BA68C8"></polygon><polygon points="290.66 300.03 285.67 305.09 279.45 298.39 279.55 293.65 290.66 300.03" style="fill:#BA68C8"></polygon><polygon points="257.23 295.2 254.71 300.71 262.73 306.61 265.05 302.06 257.23 295.2" style="fill:#BA68C8"></polygon><polygon points="287.09 319.17 277.23 316.37 281.62 308.29 284.29 309.02 287.09 319.17" style="fill:#BA68C8"></polygon><polygon points="266.79 307.96 273.94 311.24 277.91 307.28 269.02 305.83 266.79 307.96" style="fill:#BA68C8"></polygon><g style="opacity:0.4"><polygon points="311.35 295.49 315.69 302.45 311.93 305.83 308.16 297.52 305.35 292.98 311.35 295.49"></polygon><polygon points="287.09 319.17 292.31 315.69 290.66 307.96 287.09 319.17"></polygon><polygon points="290.66 300.03 285.67 305.09 279.45 298.39 279.55 293.65 290.66 300.03"></polygon><polygon points="257.23 295.2 254.71 300.71 262.73 306.61 265.05 302.06 257.23 295.2"></polygon><polygon points="287.09 319.17 277.23 316.37 281.62 308.29 284.29 309.02 287.09 319.17"></polygon><polygon points="266.79 307.96 273.94 311.24 277.91 307.28 269.02 305.83 266.79 307.96"></polygon></g></g><g id="freepik--rock--inject-138"><polygon points="322.63 298.73 314.49 303.15 311.56 306.6 316.51 307.77 322.63 311.28 324.65 307.4 322.1 303.15 322.63 298.73" style="fill:#BA68C8"></polygon><polygon points="322.63 298.73 314.49 303.15 311.56 306.6 316.51 307.77 322.63 311.28 324.65 307.4 322.1 303.15 322.63 298.73" style="opacity:0.30000000000000004"></polygon><polygon points="322.63 298.73 327.31 299.31 327.9 304.15 324.65 307.4 322.1 303.15 322.63 298.73" style="fill:#BA68C8"></polygon><polygon points="322.63 298.73 327.31 299.31 327.9 304.15 324.65 307.4 322.1 303.15 322.63 298.73" style="opacity:0.35000000000000003"></polygon><polygon points="333.7 305 334.02 308.78 330.72 307.4 326.46 309.15 324.44 311.28 322.63 315.65 320.66 321.82 319.12 316.23 322.63 311.28 325.94 308.14 330.5 306.97 333.7 305" style="fill:#BA68C8"></polygon><polygon points="328.16 318.84 334.34 314.48 332.26 309.9 328.16 318.84" style="fill:#BA68C8"></polygon><g style="opacity:0.5"><polygon points="333.7 305 334.02 308.78 330.72 307.4 326.46 309.15 324.44 311.28 322.63 315.65 320.66 321.82 319.12 316.23 322.63 311.28 325.94 308.14 330.5 306.97 333.7 305"></polygon><polygon points="328.16 318.84 334.34 314.48 332.26 309.9 328.16 318.84"></polygon></g><polygon points="317.88 301.31 314.81 304.31 314.01 306.07 316.78 306.44 322.63 311.28 316.51 307.77 311.56 306.6 314.49 303.15 317.88 301.31" style="fill:#BA68C8"></polygon><polygon points="327.31 299.31 326.83 303.83 323.99 306.3 324.65 307.4 327.9 304.15 327.31 299.31" style="fill:#BA68C8"></polygon><polygon points="319.12 316.23 315.61 315.27 308.53 312.4 304.22 308.62 306.08 306.3 308.85 306.07 306.56 306.87 306.08 308.57 308.42 310.7 318.8 315.17 322.63 311.28 319.12 316.23" style="fill:#BA68C8"></polygon><g style="opacity:0.25"><polygon points="317.88 301.31 314.81 304.31 314.01 306.07 316.78 306.44 322.63 311.28 316.51 307.77 311.56 306.6 314.49 303.15 317.88 301.31"></polygon><polygon points="327.31 299.31 326.83 303.83 323.99 306.3 324.65 307.4 327.9 304.15 327.31 299.31"></polygon><polygon points="319.12 316.23 315.61 315.27 308.53 312.4 304.22 308.62 306.08 306.3 308.85 306.07 306.56 306.87 306.08 308.57 308.42 310.7 318.8 315.17 322.63 311.28 319.12 316.23"></polygon></g><polygon points="314.49 303.15 308.85 306.07 306.56 306.87 306.08 308.57 308.42 310.7 318.8 315.17 319.88 314.07 316.46 310.38 313.69 310.38 311.56 306.6 314.49 303.15" style="fill:#BA68C8"></polygon><polygon points="314.49 303.15 308.85 306.07 306.56 306.87 306.08 308.57 308.42 310.7 318.8 315.17 319.88 314.07 316.46 310.38 313.69 310.38 311.56 306.6 314.49 303.15" style="opacity:0.35000000000000003"></polygon><polygon points="327.31 299.31 333.7 305 330.5 306.97 325.94 308.14 322.63 311.28 324.65 307.4 327.9 304.15 327.31 299.31" style="fill:#BA68C8"></polygon><polygon points="330.72 307.4 326.46 309.15 324.44 311.28 322.63 315.65 323.54 319.9 328.16 318.84 332.26 309.9 330.72 307.4" style="fill:#BA68C8"></polygon><polygon points="311.56 306.6 313.69 310.38 316.46 310.38 316.51 307.77 311.56 306.6" style="fill:#BA68C8"></polygon><polygon points="307.25 314.9 309.49 315.65 310.71 314.48 315.61 315.27 308.53 312.4 307.25 314.9" style="fill:#BA68C8"></polygon><g style="opacity:0.45"><polygon points="327.31 299.31 333.7 305 330.5 306.97 325.94 308.14 322.63 311.28 324.65 307.4 327.9 304.15 327.31 299.31"></polygon><polygon points="330.72 307.4 326.46 309.15 324.44 311.28 322.63 315.65 323.54 319.9 328.16 318.84 332.26 309.9 330.72 307.4"></polygon><polygon points="311.56 306.6 313.69 310.38 316.46 310.38 316.51 307.77 311.56 306.6"></polygon><polygon points="307.25 314.9 309.49 315.65 310.71 314.48 315.61 315.27 308.53 312.4 307.25 314.9"></polygon></g><polygon points="317.65 315.83 315.61 315.27 313.43 317.45 315.24 320.27 317.65 315.83" style="fill:#BA68C8"></polygon><polygon points="317.65 315.83 315.61 315.27 313.43 317.45 315.24 320.27 317.65 315.83" style="opacity:0.35000000000000003"></polygon><polygon points="334.02 308.78 336.41 312.61 334.34 314.48 332.26 309.9 330.72 307.4 334.02 308.78" style="fill:#BA68C8"></polygon><polygon points="320.66 321.82 323.54 319.9 322.63 315.65 320.66 321.82" style="fill:#BA68C8"></polygon><polygon points="322.63 311.28 319.88 314.07 316.46 310.38 316.51 307.77 322.63 311.28" style="fill:#BA68C8"></polygon><polygon points="304.22 308.62 302.84 311.65 307.25 314.9 308.53 312.4 304.22 308.62" style="fill:#BA68C8"></polygon><polygon points="320.66 321.82 315.24 320.27 317.65 315.83 319.12 316.23 320.66 321.82" style="fill:#BA68C8"></polygon><polygon points="309.49 315.65 313.43 317.45 315.61 315.27 310.71 314.48 309.49 315.65" style="fill:#BA68C8"></polygon><g style="opacity:0.4"><polygon points="334.02 308.78 336.41 312.61 334.34 314.48 332.26 309.9 330.72 307.4 334.02 308.78"></polygon><polygon points="320.66 321.82 323.54 319.9 322.63 315.65 320.66 321.82"></polygon><polygon points="322.63 311.28 319.88 314.07 316.46 310.38 316.51 307.77 322.63 311.28"></polygon><polygon points="304.22 308.62 302.84 311.65 307.25 314.9 308.53 312.4 304.22 308.62"></polygon><polygon points="320.66 321.82 315.24 320.27 317.65 315.83 319.12 316.23 320.66 321.82"></polygon><polygon points="309.49 315.65 313.43 317.45 315.61 315.27 310.71 314.48 309.49 315.65"></polygon></g></g></g></g></g><g id="freepik--Ruins--inject-138"><g id="freepik--ruins--inject-138"><polygon points="392.16 371.1 323.11 331.23 323.11 317.67 392.16 277.8 461.22 317.67 461.22 331.23 392.16 371.1" style="fill:#BA68C8"></polygon><polygon points="392.16 371.1 323.11 331.23 323.11 317.67 392.16 277.8 461.22 317.67 461.22 331.23 392.16 371.1" style="fill:#fff;opacity:0.7000000000000001"></polygon><polygon points="392.16 357.54 323.11 317.67 392.16 277.8 461.22 317.67 392.16 357.54" style="fill:#BA68C8"></polygon><polygon points="392.16 357.54 323.11 317.67 392.16 277.8 461.22 317.67 392.16 357.54" style="fill:#fff;opacity:0.9"></polygon><polygon points="392.16 371.1 392.16 357.54 461.22 317.67 461.22 331.23 392.16 371.1" style="fill:#fff;opacity:0.4"></polygon><polygon points="392.16 350.69 336.06 318.29 336.06 306.35 392.16 273.95 448.27 306.35 448.27 318.29 392.16 350.69" style="fill:#BA68C8"></polygon><polygon points="392.16 350.69 336.06 318.29 336.06 306.35 392.16 273.95 448.27 306.35 448.27 318.29 392.16 350.69" style="fill:#fff;opacity:0.7000000000000001"></polygon><polygon points="392.16 338.74 336.06 306.35 392.16 273.95 448.27 306.35 392.16 338.74" style="fill:#BA68C8"></polygon><polygon points="392.16 338.74 336.06 306.35 392.16 273.95 448.27 306.35 392.16 338.74" style="fill:#fff;opacity:0.9"></polygon><polygon points="392.16 350.69 392.16 338.74 448.27 306.35 448.27 318.29 392.16 350.69" style="fill:#fff;opacity:0.4"></polygon><path d="M416.58,286c-13.49-7.79-35.35-7.79-48.83,0-6.75,3.89-10.1,9-10.08,14.11v6.27c0,5.1,3.33,10.2,10.08,14.09,13.48,7.79,35.34,7.79,48.83,0,6.74-3.89,10.09-9,10.08-14.09,0-1.05,0-5.31,0-6.4C426.62,294.89,423.27,289.83,416.58,286Z" style="fill:#BA68C8"></path><path d="M416.58,286c-13.49-7.79-35.35-7.79-48.83,0-6.75,3.89-10.1,9-10.08,14.11v6.27c0,5.1,3.33,10.2,10.08,14.09,13.48,7.79,35.34,7.79,48.83,0,6.74-3.89,10.09-9,10.08-14.09,0-1.05,0-5.31,0-6.4C426.62,294.89,423.27,289.83,416.58,286Z" style="fill:#fff;opacity:0.7000000000000001"></path><ellipse cx="392.16" cy="300.06" rx="34.53" ry="19.93" style="fill:#BA68C8"></ellipse><ellipse cx="392.16" cy="300.06" rx="34.53" ry="19.93" style="fill:#fff;opacity:0.85"></ellipse><path d="M421,175.26c0,50.37,0,122.24,0,122.81,0,4.26-2.79,8.53-8.43,11.78-11.27,6.51-29.55,6.51-40.83,0-5.63-3.25-8.43-7.52-8.42-11.78V132.67c0-5.18,3.94-7.43,11.44-5.32,12.7,3.57,30.8,18.27,40.42,32.84,3.69,5.6,5.59,10.37,5.82,13.91Z" style="fill:#BA68C8"></path><path d="M421,175.26c0,50.37,0,122.24,0,122.81,0,4.26-2.79,8.53-8.43,11.78-11.27,6.51-29.55,6.51-40.83,0-5.63-3.25-8.43-7.52-8.42-11.78V132.67c0-5.18,3.94-7.43,11.44-5.32,12.7,3.57,30.8,18.27,40.42,32.84,3.69,5.6,5.59,10.37,5.82,13.91Z" style="fill:#fff;opacity:0.75"></path><path d="M421,174.1v1.16c-.22,4.85-4.15,6.9-11.42,4.86-12.7-3.57-30.8-18.28-40.42-32.85-3.94-6-5.84-11-5.84-14.6,0-5.18,3.94-7.43,11.44-5.32,12.7,3.57,30.8,18.27,40.42,32.84C418.88,165.79,420.78,170.56,421,174.1Z" style="fill:#fff;opacity:0.4"></path><path d="M389.65,169l6.57,13.25s-3.69,10.29-4.06,13.22,1.57,7.62.78,10.85-7.62,20.09-7.62,20.09,7.64-15.64,8.8-17.15.79-11,1.06-12.05,7.95,4.05,7.95,4.05l-6.91-8.13,3.25-11.26-4.68-9.12s8.13-1.64,8.29-3.08c.33-3.08-1.88-11-1.88-11s1,8.43.19,9.94S389.65,169,389.65,169Z" style="fill:#BA68C8;opacity:0.2"></path><path d="M389.65,169l6.57,13.25s-3.69,10.29-4.06,13.22,1.57,7.62.78,10.85-7.62,20.09-7.62,20.09,7.64-15.64,8.8-17.15.79-11,1.06-12.05,7.95,4.05,7.95,4.05l-6.91-8.13,3.25-11.26-4.68-9.12s8.13-1.64,8.29-3.08c.33-3.08-1.88-11-1.88-11s1,8.43.19,9.94S389.65,169,389.65,169Z" style="opacity:0.1"></path><path d="M421,283.62s-9.42-3.22-12.6-7-5.36-13.59-8.12-14.15-13.71-3-15-5.77-3.27-8.15-5.34-9.95c5.21,3.95,5.49,8.37,7.31,9.38s7.57,4,11.49,4c0,0-.91-5.75-2.56-7.29,3.12,1.4,3.75,5.46,5.3,7.34s2.52,4.06,4.16,7.45,2.21,6.93,5.85,8.89a60.32,60.32,0,0,0,9.48,3.67Z" style="fill:#BA68C8;opacity:0.2"></path><path d="M421,283.62s-9.42-3.22-12.6-7-5.36-13.59-8.12-14.15-13.71-3-15-5.77-3.27-8.15-5.34-9.95c5.21,3.95,5.49,8.37,7.31,9.38s7.57,4,11.49,4c0,0-.91-5.75-2.56-7.29,3.12,1.4,3.75,5.46,5.3,7.34s2.52,4.06,4.16,7.45,2.21,6.93,5.85,8.89a60.32,60.32,0,0,0,9.48,3.67Z" style="opacity:0.1"></path><polygon points="391.56 329.72 392.65 334.48 403.11 332.42 406.33 338.12 413.02 338.12 417.24 341.8 423.49 339.45 429.9 346.49 424.73 338.74 417.86 339.45 415.23 337.37 407.25 336.16 404.78 331.23 393.15 333.18 391.56 329.72" style="fill:#BA68C8;opacity:0.2"></polygon><polygon points="391.56 329.72 392.65 334.48 403.11 332.42 406.33 338.12 413.02 338.12 417.24 341.8 423.49 339.45 429.9 346.49 424.73 338.74 417.86 339.45 415.23 337.37 407.25 336.16 404.78 331.23 393.15 333.18 391.56 329.72" style="opacity:0.1"></polygon></g></g><g id="freepik--character-2--inject-138"><g id="freepik--Character--inject-138"><g id="freepik--Bottom--inject-138"><path d="M187.49,361.42s.21-31.53,2-43.57c1.54-10.33,3.55-15,3.87-17.36,0,0,1.88-24.34,2.33-45,.21-10-.3-16.61,5.28-28.38l35.69,7.77c.65,5.26,5.49,41.08,5.18,72.15-.27,25.5-2.29,47.43-2.28,51.69a35.39,35.39,0,0,0,.64,7.1,8.67,8.67,0,0,0,4,5.84,34.8,34.8,0,0,0,9,4.52,7.58,7.58,0,0,1,1.78.76,2.11,2.11,0,0,1,1,1.58,2.65,2.65,0,0,1-1.48,2.14c-2.77,1.73-6.34,1.57-9.49.72s-6.1-2.33-9.27-3.13c-2.19-.55-4.49-.78-6.52-1.77a3.29,3.29,0,0,1-1.62-1.41,3.77,3.77,0,0,1-.22-1.8,73.75,73.75,0,0,0,.38-8c-.17-2.53-.47-5.09-.78-7.62-.25-2.14-4.07-31-4.08-40.45a64.36,64.36,0,0,0-.65-8.68L217.68,275c-1.19,5.69-5.82,22.21-7.17,29.73-1.64,9.19-5.36,31.66-8.88,48.49-1,4.74-3,13.89-3,13.9-.09,1.36-2,12.26-2.58,15.32-1.2,6.4-6.89,5.53-7.74.33-.73-4.42-.65-17.07-.61-18.75Z" style="fill:#ffa8a7"></path><path d="M237.09,224.31l-.06,2.55c2.54,12.71,5.43,49.83,5.43,58.37,0,25.2-1.12,50.86-1.12,50.86a31.15,31.15,0,0,1-8.8,1.51,16.85,16.85,0,0,1-8.49-1.79A129.33,129.33,0,0,1,221.23,320a76.15,76.15,0,0,1-.21-9.32A65.27,65.27,0,0,0,220.4,299l-2.72-21.41s-5.54,27.26-6.25,30.87-6.74,29.73-6.74,29.73-4.77,2.7-9.71,2-7-3.12-7-3.12-.09-12.94.37-20.32c.61-9.85,1.36-14.46,1.89-18.51.62-4.76.26-22.59.38-33,.08-7.09.11-12.47.7-17.7,1.22-10.92,5.88-17.67,7.58-21.74l.2-2.15C204.88,228.19,227,230.82,237.09,224.31Z" style="fill:#BA68C8"></path><path d="M237.09,224.31l-.06,2.55c2.54,12.71,5.43,49.83,5.43,58.37,0,25.2-1.12,50.86-1.12,50.86a31.15,31.15,0,0,1-8.8,1.51,16.85,16.85,0,0,1-8.49-1.79A129.33,129.33,0,0,1,221.23,320a76.15,76.15,0,0,1-.21-9.32A65.27,65.27,0,0,0,220.4,299l-2.72-21.41s-5.54,27.26-6.25,30.87-6.74,29.73-6.74,29.73-4.77,2.7-9.71,2-7-3.12-7-3.12-.09-12.94.37-20.32c.61-9.85,1.36-14.46,1.89-18.51.62-4.76.26-22.59.38-33,.08-7.09.11-12.47.7-17.7,1.22-10.92,5.88-17.67,7.58-21.74l.2-2.15C204.88,228.19,227,230.82,237.09,224.31Z" style="opacity:0.35000000000000003"></path><path d="M217.68,277.63l4.37-20.49s6.73-1.68,9.9-5.74c0,0-.54,5-7.47,7.81l-4.19,17.92,0,20.86Z" style="opacity:0.15"></path><path d="M188,329.79c-.84.46-.71,1.48-.73,4a21,21,0,0,0,.3,5c.21.58,1.7,2.58,7.63,3.23s8.85-1.13,9.33-2.05a65.9,65.9,0,0,0,2-6.67c.32-1.35-.42-1.58-.42-1.58l-.36,1.55s-3,1.84-9.14,1.54-8.67-3.44-8.67-3.44Z" style="fill:#BA68C8"></path><path d="M223.11,331.57c-.58.19-.7.93-.47,2.29s1,4.43,1.19,5.39,5.25,3.11,10.42,2.49,7.65-1.67,7.84-3,.36-4.89.37-5.85-.33-1.09-.94-1.3l-.05,1.5s-2.38,1.65-8.16,1.86a20.66,20.66,0,0,1-9.95-2.12Z" style="fill:#BA68C8"></path><path d="M232,380.9s2.21-1.45,2.15-1.47l-2.42-.75Z" style="fill:#263238"></path><path d="M257.26,380.67a3.26,3.26,0,0,1-.16,2.38c-.34.69-4,2.7-8.89,2.32a17.74,17.74,0,0,1-9.48-3.64,19.62,19.62,0,0,0-3.72-2,11.49,11.49,0,0,0-3.06-.61l.06,1.81c-2.42-.16-5.15-1.17-5.92-2.31a12.47,12.47,0,0,1-.14-4.19Z" style="fill:#37474f"></path><path d="M241.82,366.52a6.94,6.94,0,0,0,2.63,4.25,31.37,31.37,0,0,0,4.06,2.33c1.18.59,6.34,2.44,7.51,3.24a3.54,3.54,0,0,1-.08,5.84c-1.9,1.08-6.88,2.24-12.08.71-2.83-.84-6-3.9-9.68-4.23-2.37-.21-6.84-.92-8.35-2.74-.45-2.62.22-3.33.86-5.5a9,9,0,0,0,.5-3.11c-.27-3.24-.55-6.49-.81-9.75a1.78,1.78,0,0,1,.05-.92.47.47,0,0,1,.39-.29l.08.63a2.51,2.51,0,0,0,.77.64,4.47,4.47,0,0,0,1.42.51,5,5,0,0,1,1.36.29c.31.18.34.9.42,1.23.14.55.27,1.11.41,1.66a.37.37,0,0,0,.12.23c.17.1.35-.11.42-.29a6.36,6.36,0,0,0,.4-1.48,1.72,1.72,0,0,1,.31-.92,1.55,1.55,0,0,1,1.08-.36,41.63,41.63,0,0,0,6.37-.93c1.07-.25,1.17.54,1.17,1.44a31.33,31.33,0,0,0,.14,3.21A32.63,32.63,0,0,0,241.82,366.52Z" style="fill:#455a64"></path><path d="M242.37,363.2a8,8,0,0,0-1-.87l-.56-.38a1.47,1.47,0,0,0-.75-.28l-.07,0c-.09-.11-.26-.16-.33,0a.16.16,0,0,0-.17.15v.06h0a5.61,5.61,0,0,0-1.84,1.94,2.71,2.71,0,0,0-.52,2.39,1.39,1.39,0,0,0,1.8.83,2.84,2.84,0,0,0,1.12-2.09,6.17,6.17,0,0,0,.08-.62l.08.21a2.62,2.62,0,0,0,1.67,1.55,1.44,1.44,0,0,0,1.1-.07,1.05,1.05,0,0,0,.5-.85A2.9,2.9,0,0,0,242.37,363.2Zm-2.94,1.48A3.86,3.86,0,0,1,239,366c-.16.3-.45.72-.84.58a.85.85,0,0,1-.49-.88,2.84,2.84,0,0,1,.47-1.31,6.69,6.69,0,0,1,.76-1.07c.2-.24.43-.47.65-.69,0,.24,0,.49,0,.72A10,10,0,0,1,239.43,364.68Zm3.15.83a.82.82,0,0,1-.73,0,2.06,2.06,0,0,1-1.11-1.3c-.14-.35-.28-.71-.39-1.07,0-.17-.1-.34-.14-.51a2.94,2.94,0,0,0-.05-.51.46.46,0,0,0,.15.16l.08,0,.2.11.39.26a6.91,6.91,0,0,1,.71.61,7.18,7.18,0,0,1,.65.7,1.75,1.75,0,0,1,.48.83A.68.68,0,0,1,242.58,365.51Z" style="fill:#263238"></path><path d="M198.46,386.59c0,3.36-.51,5.11-1.91,7a6.8,6.8,0,0,1-6.8,2.29c-2.63-.6-5.9-2.61-6.64-5.41a13.64,13.64,0,0,1-.09-7.37Z" style="fill:#37474f"></path><path d="M200.67,357.71l-.3,1.4s-2.26,1-7.1.54-5.73-2.69-5.73-2.69l0-1.31s-1-.14-.95,1.75,0,4.35.14,7.11-1.48,10.78-1.54,11.05c-.93,3.34-1.54,4.43-2.05,6.59-.85,3.54-.46,6.29,1.36,9s8.32,5.35,11.57,1.63c2.64-3,2.46-4.43,2.26-8.78-.06-1.37-.12-2.6-.17-3.76a22.8,22.8,0,0,1,.83-7.27c.57-2.65.07-4.75,1.06-9S202,358.08,200.67,357.71Z" style="fill:#455a64"></path><path d="M195.52,365.33a7.56,7.56,0,0,0-.61-1.16,4.21,4.21,0,0,0-.39-.55,1.37,1.37,0,0,0-.59-.53h-.08c0-.13-.19-.24-.3-.14a.16.16,0,0,0-.21.09.17.17,0,0,0,0,.05h0a5.69,5.69,0,0,0-2.41,1.16,2.71,2.71,0,0,0-1.33,2.06,1.39,1.39,0,0,0,1.39,1.41c.79-.09,1.41-.92,1.79-1.56.1-.17.2-.36.29-.54a1.61,1.61,0,0,0,0,.22,2.65,2.65,0,0,0,1,2,1.46,1.46,0,0,0,1.06.32,1,1,0,0,0,.76-.62A2.88,2.88,0,0,0,195.52,365.33Zm-3.28.34a4.06,4.06,0,0,1-.85,1.08c-.26.22-.68.51-1,.24a.86.86,0,0,1-.14-1,2.84,2.84,0,0,1,.9-1.05,7.21,7.21,0,0,1,1.09-.74c.28-.15.57-.28.85-.41l-.27.67A9.58,9.58,0,0,1,192.24,365.67Zm2.65,1.9a.84.84,0,0,1-.68-.26,2.06,2.06,0,0,1-.58-1.61,10.84,10.84,0,0,1,0-1.14c0-.17,0-.35,0-.52a4.07,4.07,0,0,0,.13-.5.39.39,0,0,0,.08.2l.06.07.15.18a3.28,3.28,0,0,1,.27.38,6.53,6.53,0,0,1,.45.82,8.76,8.76,0,0,1,.37.89,1.79,1.79,0,0,1,.14.94A.67.67,0,0,1,194.89,367.57Z" style="fill:#263238"></path></g><g id="freepik--Top--inject-138"><circle cx="213.56" cy="157.83" r="19.28" transform="translate(-44.14 93.74) rotate(-22.5)" style="fill:#455a64"></circle><ellipse cx="216.64" cy="163.87" rx="33.08" ry="19.61" transform="translate(-50.84 116.51) rotate(-27.06)" style="fill:#37474f"></ellipse><path d="M204.45,149.94c-6.84,8.68-4.31,15.64-5.12,25.57-.66,8-7.53,12-9.61,19.58-1.18,4.26-2.36,12.47,7.26,17.74s29.55,4.42,37.14-2.7,9.18-17.88,3-23.67c0,0,3.72-5.1,0-9.35s-10.56-2.92-10.56-2.92l-8.76-19.85Z" style="fill:#e0e0e0"></path><path d="M306.21,155c-1.19-1.4-3.93,1.69-6.39,4.45-2.27,2.53-5,5.77-5.73,5.67-1-.13-.25-3.46-1.33-5.26s-2.58-1.49-2.61.28c0,1.51-1,3.77-1,6.35,0,1.31.38,4-.94,5.26-1.07,1-21.8,13.62-21.8,13.62s-17.28.45-22,.26c-5.41-.21-7.47-.87-13.73-.59-1,1.32,1.46,13.82,8.71,14.64,0,0,17.15-.39,23.65-.64,6.35-.24,8-.27,10.41-1.91A129.46,129.46,0,0,0,286,187.36c5.59-4.61,8.08-6.6,8.8-7,2.07-1.28,4-1.58,5.65-2.62a16.21,16.21,0,0,0,4.93-4.23,2.39,2.39,0,0,0,.61-1.92c-.08-.34-.29-.64-.37-1a14,14,0,0,0-.24-1.74c-.29-.7-1.34-1-1.59-1.76-.11-.32,0-1.34-.21-1.6-.45-.54-.8-.59-1.26-1-.24-.2-.85-.48-.68-.88s1-1.26,2.48-3.54S307,155.9,306.21,155Z" style="fill:#ffa8a7"></path><path d="M230.69,184.73a27,27,0,0,1,6.5-.8c3.18.1,6.41,1,9.7,1.13s19.49,0,19.49,0l8.51-4.9a20.34,20.34,0,0,1,4.42,4.48A14.59,14.59,0,0,1,282,190.7s-5.91,5-8.32,6.72-3.59,1.75-6.11,1.85l-28.83,1.18Z" style="fill:#BA68C8"></path><path d="M230.69,184.73a27,27,0,0,1,6.5-.8c3.18.1,6.41,1,9.7,1.13s19.49,0,19.49,0l8.51-4.9a20.34,20.34,0,0,1,4.42,4.48A14.59,14.59,0,0,1,282,190.7s-5.91,5-8.32,6.72-3.59,1.75-6.11,1.85l-28.83,1.18Z" style="fill:#fff;opacity:0.7000000000000001"></path><path d="M299,165.05c-1.26,1.81-3.11,3.45-2.74,4.67a1.73,1.73,0,0,0,2.48.92,1.75,1.75,0,0,0,.11,1.72,1.62,1.62,0,0,0,1.55.62,1.65,1.65,0,0,0,1.57,1.83c-.63.3-2,.41-2.13-1,0,0-1.95-.28-1.87-1.92,0,0,0,1.85-2.4,3.29a6.1,6.1,0,0,0,1.56-3.74,2.54,2.54,0,0,1-1.66-2C295.3,168,299,165.05,299,165.05Z" style="fill:#f28f8f"></path><path d="M212.22,184.64l-9.94,1c1.66,10.59-5.64,23.11-5.64,23.11.73,7.65,2,14.44,1,18-1.89,6.32-5.24,10.75-6.44,18.88,2.18.9,6.54-.63,10.22-6,5.81,16.75,37.67,15.95,38,3.23,0,0-.52-7.67-1.09-12.86a107.65,107.65,0,0,1,.23-18.32c7.92-12.64-2.72-22.26-7.83-26.93l-6.33-.07Z" style="fill:#BA68C8"></path><path d="M212.22,184.64l-9.94,1c1.66,10.59-5.64,23.11-5.64,23.11.73,7.65,2,14.44,1,18-1.89,6.32-5.24,10.75-6.44,18.88,2.18.9,6.54-.63,10.22-6,5.81,16.75,37.67,15.95,38,3.23,0,0-.52-7.67-1.09-12.86a107.65,107.65,0,0,1,.23-18.32c7.92-12.64-2.72-22.26-7.83-26.93l-6.33-.07Z" style="fill:#fff;opacity:0.85"></path><g id="freepik--Head--inject-138"><path d="M229.75,151.16c2.13,1.18,4.86,6.38,4.9,17.43,0,9.36-2.93,11.76-4.43,12.47s-4.46.38-7.33,0l.06,3.88c3.89,5.8,5,9.87,4.61,16.32-5.7-8.33-11.05-11.74-17.05-15.89l-.24-10.86s-1.63,1.68-4.55-.74c-2.41-2-3.3-5.44-1.51-7.35a4.1,4.1,0,0,1,6.55,1.12s-1.29-11.25,4.68-14.75S229.45,154.8,229.75,151.16Z" style="fill:#ffa8a7"></path><path d="M223.08,174.19l3,.79a1.53,1.53,0,0,1-1.87,1.16A1.63,1.63,0,0,1,223.08,174.19Z" style="fill:#f28f8f"></path><path d="M232.83,160.58l-3-.73a1.5,1.5,0,0,1,1.83-1.19A1.64,1.64,0,0,1,232.83,160.58Z" style="fill:#455a64"></path><path d="M219.16,162.65l2.69-1.6a1.5,1.5,0,0,0-2.1-.59A1.65,1.65,0,0,0,219.16,162.65Z" style="fill:#455a64"></path><path d="M232.59,164.94a1.29,1.29,0,0,1-1.13,1.44,1.32,1.32,0,1,1,1.13-1.44Z" style="fill:#263238"></path><path d="M222.74,166a1.29,1.29,0,0,1-1.13,1.44,1.32,1.32,0,1,1,1.13-1.44Z" style="fill:#263238"></path><path d="M222.89,181c-3-.31-9.26-1.92-10.29-4.34a6.37,6.37,0,0,0,2.26,3.06c1.89,1.54,8.06,3.13,8.06,3.13Z" style="fill:#f28f8f"></path><path d="M219.44,165.47a.36.36,0,0,0-.19-.13l-.41-.14-.54-.17a3.64,3.64,0,0,0-.47-.14,1.36,1.36,0,0,0-.29-.06,1,1,0,0,0-.38,0c-.1,0-.11.15-.09.23a.32.32,0,0,0,.23.22,1.41,1.41,0,0,0,.22.06l.15,0h.09l.14,0,.49.15a2.94,2.94,0,0,0,.64.14.59.59,0,0,0,.32-.05A.18.18,0,0,0,219.44,165.47Z" style="fill:#f28f8f"></path><path d="M219.37,166.46a.68.68,0,0,0-.47-.25,4.07,4.07,0,0,0-.78,0l-.9.07c-.29,0-.11.46.11.48a7,7,0,0,0,1.12,0h.65l.14,0c.08,0,.07,0,.12-.08A.09.09,0,0,0,219.37,166.46Z" style="fill:#f28f8f"></path><path d="M219.34,167.1c-.07-.07-.19,0-.27,0l-.2,0-.4.14-.37.11-.16.05a1.18,1.18,0,0,0-.2.07.16.16,0,0,0-.11.16v0a.27.27,0,0,0,.13.21.38.38,0,0,0,.18,0H218a1.13,1.13,0,0,0,.18,0l.2-.06.4-.13a1.28,1.28,0,0,0,.47-.26.44.44,0,0,0,.12-.15A.2.2,0,0,0,219.34,167.1Z" style="fill:#f28f8f"></path><path d="M234.24,161.9a.08.08,0,0,0,0,0c-.53-3-1.12-5.18-1.25-5.69a.49.49,0,0,0,0-.11c0,6.87-9,6.53-9,6.53,1.69-4.5-.56-6.33-.56-6.33-2.28,5.84-6.81,6.89-6.81,6.89,0-4.13-1.8-6.14-1.8-6.14.88,7.23-4,10.51-4,10.51a4.1,4.1,0,0,0-6.55-1.12c-1.79,1.91-.9,5.36,1.51,7.36,2.92,2.41,4.55.73,4.55.73l.15,6.77c-.38-3.2-9.62-9.92-10.15-19-.51-8.85,1.76-12.29,11.19-16.2,8.38-3.49,12,1.69,12,1.69,1.84-.57,8.08.25,10.32,5.57A11.5,11.5,0,0,1,234.24,161.9Z" style="fill:#e0e0e0"></path><path d="M199.46,166.39c1.45-11.08,23.52-20.55,33.76-14.23a11.46,11.46,0,0,0-9.08-9.63s-15-1-25.54,11.45C198.6,154,197.2,162.78,199.46,166.39Z" style="fill:#37474f"></path><path d="M214.75,157a11.29,11.29,0,0,1-8.52,8.28,4.41,4.41,0,0,1,4.53,2.23S216.22,165.4,214.75,157Z" style="fill:#455a64"></path><path d="M236.74,160.69h-.61a18.13,18.13,0,0,0-6,1.05c-1.9.87-2.56,1.64-3.62,1.8s-1.89-.42-4-.73a20.16,20.16,0,0,0-6.45.71l-.65.17a1.19,1.19,0,0,0-.68,1.2,2.21,2.21,0,0,0,.66,1.19,1.53,1.53,0,0,1,.23.48,21.14,21.14,0,0,0,.91,3.42,3.87,3.87,0,0,0,.87,1.15,2.24,2.24,0,0,0,.43.31l.25.14a3.57,3.57,0,0,0,.74.25l.12,0,.19,0,.21,0c.2,0,.41,0,.64,0l.28,0,.34,0a5,5,0,0,0,4.32-3.24c.62-1.43.38-3.29,1.61-3.46h.22c.91.09.86,1.84,1.47,3a4.5,4.5,0,0,0,.91,1.24l.22.18.11.08.12.08.11.07.11.06.1.05.06,0a3.36,3.36,0,0,0,1.07.28h.1a4.79,4.79,0,0,0,1.29-.05,4.27,4.27,0,0,0,3.66-3,25,25,0,0,0,.64-3.63,1.28,1.28,0,0,1,.21-.5,2.73,2.73,0,0,0,.51-1.38C237.46,161.15,237.08,160.69,236.74,160.69Zm-12.55,6.78a4.46,4.46,0,0,1-.85,2h0a4.12,4.12,0,0,1-2.85,1.47,2.91,2.91,0,0,1-2.83-1l-.09-.13-.09-.12-.07-.11-.06-.11a.2.2,0,0,1,0-.08.25.25,0,0,1,0-.07l-.06-.13h0l-.16-.37h0l-.08-.23c0-.13-.07-.25-.1-.36l0-.07,0-.07c-.23-.9-.54-2.7-.09-3.18a5.47,5.47,0,0,1,3.61-1.16h.21l.9,0,.36,0a7.23,7.23,0,0,1,.88.17l.28.08.29.1.06,0,.11.05a1.69,1.69,0,0,1,.61.4C224.46,165.17,224.38,166.4,224.19,167.47Zm11.5-2a4.61,4.61,0,0,1-1.76,3.25,3.56,3.56,0,0,1-1.46.54,2.9,2.9,0,0,1-3-1v0l-.05-.07-.07-.09,0-.05-.08-.14a1.19,1.19,0,0,1-.08-.16.3.3,0,0,1,0-.08l0,0,0-.07,0,0a3.62,3.62,0,0,1-.21-.67,4.63,4.63,0,0,1,0-2.83,6.1,6.1,0,0,1,3.18-1.84c.32-.09.63-.15.91-.2h.1l.12,0,.31,0h.52l.45,0h.32l.13,0,.22.06h0a1.66,1.66,0,0,1,.5.25C236,162.62,235.85,164.49,235.69,165.45Z" style="fill:#263238"></path><path d="M215.42,164l-5.7,2.29a5.68,5.68,0,0,1,1,1.26l4.74-1.85Z" style="fill:#263238"></path><path d="M226.05,165.37l1,7.33,4.29-1.61-4.87-5.91A.92.92,0,0,0,226.05,165.37Z" style="fill:#f28f8f"></path></g><path d="M224.35,197c-2.19-2.43-6.41-3.7-8.65-1.45s-2.33,1.78-3.1.14-4.36-8.67-4.38-10.63c0,0,.72-1.92.95-2.88s.66-1.74,1.23-1.7v1.39s.31,1.66,2.67,3.55S221.57,192.24,224.35,197Z" style="fill:#fff"></path><path d="M227.59,197.08c.21-2.32,1-4.27,2.3-3.84s1.94,1.85,2.41,1.52-.68-4-2.41-6.53-5.06-5.91-7-6.42l0,3.11A32,32,0,0,1,227.59,197.08Z" style="fill:#fff"></path><g id="freepik--Camera--inject-138"><path d="M236.22,224.07a4.25,4.25,0,0,1-3.46-.18L229.44,222a4.2,4.2,0,0,1-1.88-3.3l0-9a2.86,2.86,0,0,1,.09-.7l.06-.24v0l.07-.22.12-.28.09-.18c0-.07.07-.13.1-.19a.08.08,0,0,0,0,0l7.11,4.14a3.86,3.86,0,0,0-.57,1.87l0,9C234.66,223.89,235.33,224.4,236.22,224.07Z" style="fill:#BA68C8"></path><path d="M236.22,224.07a4.25,4.25,0,0,1-3.46-.18L229.44,222a4.2,4.2,0,0,1-1.88-3.3l0-9a2.86,2.86,0,0,1,.09-.7l.06-.24v0l.07-.22.12-.28.09-.18c0-.07.07-.13.1-.19a.08.08,0,0,0,0,0l7.11,4.14a3.86,3.86,0,0,0-.57,1.87l0,9C234.66,223.89,235.33,224.4,236.22,224.07Z" style="opacity:0.45"></path><path d="M252.45,199.32l-3.31-1.94a4.2,4.2,0,0,0-3.8,0l-1.11.64a2.39,2.39,0,0,1-.65.26l.1.06h0l3.85,2.24.07,0h0a1.18,1.18,0,0,1,.42.52,2.38,2.38,0,0,0,3.31,1l1.11-.65c1-.57,1.82-.15,1.89.94A4.22,4.22,0,0,0,252.45,199.32Z" style="fill:#BA68C8"></path><path d="M252.45,199.32l-3.31-1.94a4.2,4.2,0,0,0-3.8,0l-1.11.64a2.39,2.39,0,0,1-.65.26l.1.06h0l3.85,2.24.07,0h0a1.18,1.18,0,0,1,.42.52,2.38,2.38,0,0,0,3.31,1l1.11-.65c1-.57,1.82-.15,1.89.94A4.22,4.22,0,0,0,252.45,199.32Z" style="opacity:0.15"></path><path d="M250,200.39v-.9h-.68a3.36,3.36,0,0,0-2.92,0h-.68v.9a1,1,0,0,0,.62.88,3.35,3.35,0,0,0,3,0A1,1,0,0,0,250,200.39Z" style="fill:#263238"></path><path d="M246.31,198.6a.92.92,0,0,0,0,1.75,3.34,3.34,0,0,0,3,0,.92.92,0,0,0,0-1.74A3.34,3.34,0,0,0,246.31,198.6Z" style="fill:#37474f"></path><path d="M254.33,202.61l0,9a4.18,4.18,0,0,1-1.91,3.28l-15.83,9-.13.07-.11.05-.09,0c-.89.33-1.56-.18-1.56-1.26l0-9a3.86,3.86,0,0,1,.57-1.87,4.24,4.24,0,0,1,.93-1.12l.18-.14.19-.12,0,0,.07,0,2.29-1.29a7.09,7.09,0,0,0,3.38-5,2.38,2.38,0,0,1,.36-.94,2,2,0,0,1,.68-.7l3.45-2a.72.72,0,0,1,.7-.06l.07.05a1.25,1.25,0,0,1,.42.52,2.38,2.38,0,0,0,3.31,1l1.11-.65c1-.57,1.82-.15,1.89.94Z" style="fill:#BA68C8"></path><path d="M254.33,202.61l0,9a4.18,4.18,0,0,1-1.91,3.28l-15.83,9-.13.07-.11.05-.09,0c-.89.33-1.56-.18-1.56-1.26l0-9a3.86,3.86,0,0,1,.57-1.87,4.24,4.24,0,0,1,.93-1.12l.18-.14.19-.12,0,0,.07,0,2.29-1.29a7.09,7.09,0,0,0,3.38-5,2.38,2.38,0,0,1,.36-.94,2,2,0,0,1,.68-.7l3.45-2a.72.72,0,0,1,.7-.06l.07.05a1.25,1.25,0,0,1,.42.52,2.38,2.38,0,0,0,3.31,1l1.11-.65c1-.57,1.82-.15,1.89.94Z" style="opacity:0.30000000000000004"></path><path d="M238.88,201.07h0l-3.28-1.91a2.68,2.68,0,0,0-.36.93,7,7,0,0,1-3.38,5l-2.4,1.37a4,4,0,0,0-1.29,1.37l7.11,4.14a3.85,3.85,0,0,1,1.3-1.38s2.37-1.35,2.39-1.35a7.12,7.12,0,0,0,3.38-5,2.56,2.56,0,0,1,.36-.93Z" style="fill:#BA68C8"></path><path d="M238.88,201.07h0l-3.28-1.91a2.68,2.68,0,0,0-.36.93,7,7,0,0,1-3.38,5l-2.4,1.37a4,4,0,0,0-1.29,1.37l7.11,4.14a3.85,3.85,0,0,1,1.3-1.38s2.37-1.35,2.39-1.35a7.12,7.12,0,0,0,3.38-5,2.56,2.56,0,0,1,.36-.93Z" style="opacity:0.15"></path><path d="M243.68,198.33h0l-.1-.06-3.09-1.81-.06,0a.71.71,0,0,0-.7,0l-3.46,2a2.08,2.08,0,0,0-.68.7l3.28,1.91h0l3.82,2.23a2.08,2.08,0,0,1,.68-.7l3.45-2a.72.72,0,0,1,.7-.06Z" style="fill:#BA68C8"></path><path d="M232.58,206.9a1,1,0,0,0-.86,0h-.2v.26a.31.31,0,0,0,.19.26,1,1,0,0,0,.89,0,.31.31,0,0,0,.18-.25v-.27Z" style="fill:#263238"></path><path d="M231.71,206.64c-.25.14-.25.37,0,.51a1,1,0,0,0,.89,0,.28.28,0,0,0,0-.52A1,1,0,0,0,231.71,206.64Z" style="fill:#37474f"></path><path d="M234.22,206.34v-.26H234a1,1,0,0,0-.85,0H233v.27a.3.3,0,0,0,.19.25,1,1,0,0,0,.89,0A.31.31,0,0,0,234.22,206.34Z" style="fill:#263238"></path><path d="M233.15,205.82c-.25.14-.25.37,0,.51a1,1,0,0,0,.89,0c.24-.14.25-.37,0-.51A1,1,0,0,0,233.15,205.82Z" style="fill:#37474f"></path><path d="M234,207.74a1,1,0,0,0-.86,0H233V208a.31.31,0,0,0,.18.26,1,1,0,0,0,.89,0,.36.36,0,0,0,.19-.26v-.26Z" style="fill:#263238"></path><path d="M233.14,207.48a.27.27,0,0,0,0,.51,1,1,0,0,0,.89,0c.25-.14.25-.37,0-.51A1,1,0,0,0,233.14,207.48Z" style="fill:#37474f"></path><path d="M235.66,207.18v-.27h-.2a1,1,0,0,0-.86,0h-.2v.26a.31.31,0,0,0,.18.26,1,1,0,0,0,.89,0A.32.32,0,0,0,235.66,207.18Z" style="fill:#263238"></path><path d="M234.58,206.65a.28.28,0,0,0,0,.52,1,1,0,0,0,.89,0c.25-.14.25-.37,0-.51A1,1,0,0,0,234.58,206.65Z" style="fill:#37474f"></path><path d="M237.49,209.08v-.41h-.3a1.53,1.53,0,0,0-1.32,0h-.31v.41a.49.49,0,0,0,.28.4,1.5,1.5,0,0,0,1.37,0A.47.47,0,0,0,237.49,209.08Z" style="fill:#263238"></path><path d="M235.84,208.27a.42.42,0,0,0,0,.79,1.54,1.54,0,0,0,1.37,0,.42.42,0,0,0,0-.79A1.5,1.5,0,0,0,235.84,208.27Z" style="fill:#37474f"></path><path d="M244.35,203.37l2.36-1.35c.36-.21.65-.06.65.33a1.43,1.43,0,0,1-.66,1.08l-2.36,1.35c-.36.2-.65.05-.65-.34A1.39,1.39,0,0,1,244.35,203.37Z" style="fill:#BA68C8"></path><path d="M237,220.83l2.78-1.59c.43-.24.77-.07.76.39a1.62,1.62,0,0,1-.77,1.27L237,222.49c-.43.24-.77.07-.77-.39A1.65,1.65,0,0,1,237,220.83Z" style="fill:#37474f"></path><path d="M250.84,207.73h0l-.14-.08a3.33,3.33,0,0,0-3.25.36,10.42,10.42,0,0,0-4.76,8.15,5.14,5.14,0,0,0,.2,1.48,3,3,0,0,0,.84,1.35c.1.07.19.15.29.21h.05l.08.05,3.16,1.84a3.27,3.27,0,0,1-.37-.28,3.67,3.67,0,0,1-1-2.76,10.45,10.45,0,0,1,4.76-8.15,3.65,3.65,0,0,1,2.88-.52,2.54,2.54,0,0,1,.38.16Z" style="fill:#BA68C8"></path><path d="M250.84,207.73h0l-.14-.08a3.33,3.33,0,0,0-3.25.36,10.42,10.42,0,0,0-4.76,8.15,5.14,5.14,0,0,0,.2,1.48,3,3,0,0,0,.84,1.35c.1.07.19.15.29.21h.05l.08.05,3.16,1.84a3.27,3.27,0,0,1-.37-.28,3.67,3.67,0,0,1-1-2.76,10.45,10.45,0,0,1,4.76-8.15,3.65,3.65,0,0,1,2.88-.52,2.54,2.54,0,0,1,.38.16Z" style="opacity:0.15"></path><path d="M243.72,219a3.06,3.06,0,0,0,.29.21l-1.66-1h0a3.35,3.35,0,0,1-1.35-3.05,10.42,10.42,0,0,1,4.76-8.15,4.29,4.29,0,0,1,2.1-.63,2.37,2.37,0,0,1,1.23.32l1.63,1a3.33,3.33,0,0,0-3.25.36,10.42,10.42,0,0,0-4.76,8.15,5.14,5.14,0,0,0,.2,1.48A2.92,2.92,0,0,0,243.72,219Z" style="fill:#BA68C8"></path><path d="M243.72,219a3.06,3.06,0,0,0,.29.21l-1.66-1h0a3.35,3.35,0,0,1-1.35-3.05,10.42,10.42,0,0,1,4.76-8.15,4.29,4.29,0,0,1,2.1-.63,2.37,2.37,0,0,1,1.23.32l1.63,1a3.33,3.33,0,0,0-3.25.36,10.42,10.42,0,0,0-4.76,8.15,5.14,5.14,0,0,0,.2,1.48A2.92,2.92,0,0,0,243.72,219Z" style="opacity:0.55"></path><path d="M258.24,214.28a10.41,10.41,0,0,1-4.75,8.15,4.25,4.25,0,0,1-2.11.63,2.48,2.48,0,0,1-1.22-.31h0l-2.78-1.59-.07,0a3.27,3.27,0,0,1-.37-.28,3.67,3.67,0,0,1-1-2.76,10.45,10.45,0,0,1,4.76-8.15,3.65,3.65,0,0,1,2.88-.52,2.54,2.54,0,0,1,.38.16h0l.13.08,2.74,1.57h0A3.3,3.3,0,0,1,258.24,214.28Z" style="fill:#BA68C8"></path><path d="M258.24,214.28a10.41,10.41,0,0,1-4.75,8.15,4.25,4.25,0,0,1-2.11.63,2.48,2.48,0,0,1-1.22-.31h0l-2.78-1.59-.07,0a3.27,3.27,0,0,1-.37-.28,3.67,3.67,0,0,1-1-2.76,10.45,10.45,0,0,1,4.76-8.15,3.65,3.65,0,0,1,2.88-.52,2.54,2.54,0,0,1,.38.16h0l.13.08,2.74,1.57h0A3.3,3.3,0,0,1,258.24,214.28Z" style="opacity:0.45"></path><path d="M256.19,210.3a3.49,3.49,0,0,0-3.53.33,11,11,0,0,0-5,8.62,3.5,3.5,0,0,0,1.4,3.19c.29.18,2.25,1.25,2.52,1.42a3.49,3.49,0,0,0,3.53-.33,11,11,0,0,0,5-8.62,3.51,3.51,0,0,0-1.41-3.21Z" style="fill:#455a64"></path><path d="M250.11,220.63c0,3.18,2.21,4.48,5,2.9a11,11,0,0,0,5-8.62c0-3.18-2.21-4.48-5-2.9A11,11,0,0,0,250.11,220.63Z" style="fill:#37474f"></path><path d="M252.86,223c-1.39,0-1.53-1.64-1.52-2.34a9.84,9.84,0,0,1,4.4-7.56,3.34,3.34,0,0,1,1.62-.5c1.38,0,1.53,1.63,1.52,2.34a9.81,9.81,0,0,1-4.41,7.55,3.19,3.19,0,0,1-1.61.51Z" style="fill:#263238"></path><path d="M257.25,213.26a6.08,6.08,0,0,0,0-.68,3.53,3.53,0,0,0-1.47.49,9.84,9.84,0,0,0-4.4,7.56,3.5,3.5,0,0,0,0,.69,3.63,3.63,0,0,0,1.46-.5A9.82,9.82,0,0,0,257.25,213.26Z" style="fill:#BA68C8"></path><path d="M257.25,213.26a6.08,6.08,0,0,0,0-.68,3.53,3.53,0,0,0-1.47.49,9.84,9.84,0,0,0-4.4,7.56,3.5,3.5,0,0,0,0,.69,3.63,3.63,0,0,0,1.46-.5A9.82,9.82,0,0,0,257.25,213.26Z" style="opacity:0.30000000000000004"></path><path d="M254.46,214.61c.94-1.13,2.15-1.5,2.33-1.08s-.42,4.5-4.38,6.89a13.69,13.69,0,0,0,3.19-4.15C256.22,214.91,255.66,213.79,254.46,214.61Z" style="fill:#e0e0e0"></path><path d="M250.65,223a4.44,4.44,0,0,1-.54-2.33,9.69,9.69,0,0,1,1.14-4.28L242.09,211a9.41,9.41,0,0,0-1.12,4.12,3.35,3.35,0,0,0,1.35,3.05h0l1.66,1h.05l.08.05,3.15,1.84h0l.07,0,.83.46h0a2.5,2.5,0,0,0,.82.83c.26.17,1.89,1.06,2.41,1.35A2.63,2.63,0,0,1,250.65,223Z" style="opacity:0.15"></path></g><path d="M227.58,213.6c1.5.53,4.45,1.23,6,.64s3.22-4.55,4.39-5.57,2.18-1.29,2.42-.57a11.09,11.09,0,0,1-.34,3.24,7.66,7.66,0,0,1,.4,4.06c-.4,2.25-.78,5.06-3,7.57s-5.71,3-9.33,3.27-4.25.42-9.64,2.24-16.67,6.61-26.72,7.83c-7.1.87-8.28-2.83-7.6-9.62,1.34-13.33,2.68-23.95,4.31-30.33,1.94-7.64,5.13-9.16,14.05-10.48,0,0,2.73,9.27-1.49,21.94l-2.32,12.6s16-2.53,18.78-3.47,4.61-2.84,6.36-5,2.79-4.81,4.69-4.69a3.94,3.94,0,0,0-1,2.42Z" style="fill:#ffa8a7"></path><path d="M202.73,185.62c.86,2.35,1.68,8,.54,14.88s-4,19.58-4,19.58l11.09-1.61s-1.37,2.15-.68,6.4A18.34,18.34,0,0,0,211.5,231a85.17,85.17,0,0,1-11.87,4.1c-8,2.27-11.34,2.36-13.39,1.3s-2.45-3-2.64-7.07,2.44-23.08,4-30.21S190.3,186.51,202.73,185.62Z" style="fill:#BA68C8"></path><path d="M202.73,185.62c.86,2.35,1.68,8,.54,14.88s-4,19.58-4,19.58l11.09-1.61s-1.37,2.15-.68,6.4A18.34,18.34,0,0,0,211.5,231a85.17,85.17,0,0,1-11.87,4.1c-8,2.27-11.34,2.36-13.39,1.3s-2.45-3-2.64-7.07,2.44-23.08,4-30.21S190.3,186.51,202.73,185.62Z" style="fill:#fff;opacity:0.7000000000000001"></path><path d="M199.24,220.08c-4.21.36-7.62,1.42-9.52,4.4,0,0-.19-5.17,10-6.71Z" style="opacity:0.1"></path></g></g></g><g id="freepik--character-1--inject-138"><g id="freepik--character--inject-138"><g id="freepik--Backpack--inject-138"><path d="M81.73,236.91c.93,1.52,3.46,0,7.89-1.76s2.62-21.48,2.62-21.48-7.08.05-8.34,6.66S81.73,236.91,81.73,236.91Z" style="fill:#263238"></path><path d="M118.48,202.23c4.17-.08,13.41,4.72,14.89,8,1.54,3.41,7.17,49.56,3.62,53.88-4.45,5.43-26.4,16.08-36,15.8-7.94-.23-15.52-7.51-16.73-9.63-2-3.47.39-51,2.9-55C91.21,208.76,113.16,202.33,118.48,202.23Z" style="fill:#37474f"></path><path d="M84.19,239.36c.12-2,.25-4,.4-5.86,0-.76.11-1.51.17-2.25.12-1.47.25-2.89.38-4.24.07-.67.13-1.33.2-2,.1-1,.21-1.86.31-2.7s.22-1.64.33-2.37c0-.24.08-.47.11-.7a14.39,14.39,0,0,1,1-4,6.36,6.36,0,0,1,.4-.55l.14-.18c.1-.13.21-.25.32-.38l.21-.22.35-.35.23-.22c.17-.17.36-.34.56-.51l.4-.32.27-.22.46-.35.24-.17.53-.38c3.75,1.55,7.3,3,7.41,3.09s4,2.44,3.87,8.27l0,23.6v2.25c0,3.12.35,33.39-6.14,30.36a1.28,1.28,0,0,0-.35-.06c-5.94-2.1-10.88-7-11.84-8.66a4.76,4.76,0,0,1-.39-1.58c0-.3-.08-.65-.11-1,0-.19,0-.39,0-.59-.05-.62-.08-1.31-.11-2.06l0-.77c-.11-4,0-9.45.19-15.32,0-1.17.09-2.36.15-3.56,0-.8.07-1.6.11-2.4,0-.4,0-.8.07-1.2C84.1,241,84.15,240.15,84.19,239.36Z" style="fill:#455a64"></path><path d="M86.35,217.88a9.79,9.79,0,0,1,.78-2.63c4.08-6.49,26-12.92,31.35-13,4.17-.08,13.41,4.72,14.89,8a25.33,25.33,0,0,1,.95,4.24c-8.34,4.45-29.87,14.33-32.09,13.53-2.73-1-15.64-9.7-15.88-10.08Z" style="fill:#263238"></path><path d="M82.47,248.72c.25-.12,3.91-2.86,4.34-3.07.75-.38,11.58,7,12.58,8.24.69.87-.43,14.27-.86,15.22-.15.35-4.19,2.74-4.34,3.08-.43.95-11.86-6.54-12.57-8.35S81.37,249.28,82.47,248.72Z" style="fill:#37474f"></path><path d="M95.05,257c.69.87-.43,14.27-.86,15.23s-11.86-6.54-12.57-8.35-.25-14.56.85-15.12C83.22,248.35,94.05,255.71,95.05,257Z" style="fill:#263238"></path><path d="M86.8,245.65c-.42.21-4.08,2.95-4.33,3.07.75-.37,11.58,7,12.58,8.24l4.33-3.07C98.39,252.64,87.56,245.27,86.8,245.65Z" style="opacity:0.4"></path><path d="M99.38,253.89c-.8-.53-3.22.75-4.27,1.64s-2.19,5.09-4.88,5.75-6.48-2.92-7.27-5.2-1.72-7.08-.41-8.79,3.59-2.62,5.49-1.59S99.16,251.79,99.38,253.89Z" style="fill:#37474f"></path><path d="M87.26,255.7a2,2,0,0,1,.93,1.86.81.81,0,0,1-1.24.7,2,2,0,0,1-.93-1.85C86.11,255.69,86.66,255.37,87.26,255.7Z" style="fill:#BA68C8"></path><path d="M102.53,228s-1.47-5.55-8.16-9.47-6.91-2.68-9.07,1.06c-1.94,3.37-2.77,16-2.87,17.17s-1.53,1-1.28-6.73,1.37-15.07,8.58-19.61c9.7-6.11,24.7-10.06,31.75-8.49s13.37,5.14,12.84,12.5C134.32,214.44,125.11,226.63,102.53,228Z" style="fill:#455a64"></path></g><g id="freepik--bottom--inject-138"><path d="M121.37,356l-6.13,30.62-14.52-1.74s.43-24.94,1.44-32.84Z" style="fill:#ffa8a7"></path><path d="M152,381.37l.63-26.93-18.68.23,2.89,28.83s1.67,2.37,6.17,2.54S152,381.37,152,381.37Z" style="fill:#ffa8a7"></path><path d="M107.6,266.61c-1.95,19.15-2,26.59-4.5,64.8,0,0-1.52,8-2.32,17.12-.27,3-.8,11.05-.8,11.05s10.08,6.37,20.82,3.53c0,0,2.37-10,5.1-22.78,2.62-12.3,4.85-25.69,4.85-25.69L131.87,331s0,11.38.71,19.38a109.41,109.41,0,0,0,1.49,10.84s10.52,3.2,19-1.35c0,0,1.28-25.6,1.38-31.12.12-6.29-1-69.61-1-69.61Z" style="fill:#455a64"></path><path d="M120.48,303.3c0,4.94-2.84,26.73-3.18,29.65s-3.59,22.79-3.59,22.79,4-18.32,4.67-22.27C119.25,328.7,120.48,303.3,120.48,303.3Z" style="fill:#37474f"></path><path d="M145.71,302.88c.7,4.89,1,26.86,1,29.79s-.34,23.08-.34,23.08,1.33-18.7,1.48-22.71C148.08,328.2,145.71,302.88,145.71,302.88Z" style="fill:#37474f"></path><path d="M104.2,312.77a84.56,84.56,0,0,0,9.94,1.15s-.43,18.13-2.26,21.06c-1.19,1.91-8.56,1.37-9.43.23Z" style="fill:#37474f"></path><path d="M130.75,314.64l4.29-27s8.29-.73,12.86-5.35c0,0-.81,4.53-11.23,7.25l-4.11,24.79L131.87,331Z" style="fill:#37474f"></path><path d="M100.27,355.36c3.87,3.28,9.26,3.48,12.9,3.48,0,0-8.5-.57-12.78-5.29Z" style="fill:#37474f"></path><path d="M133.41,357.27s7.62,2.56,13.8.61c0,0-5,3.32-13.6.69Z" style="fill:#37474f"></path><path d="M142.32,406.55s2.61-1.73,2.53-1.74l-2.85-.89Z" style="fill:#263238"></path><path d="M172.18,406.28a3.85,3.85,0,0,1-.19,2.81c-.4.81-4.72,3.19-10.51,2.74a21,21,0,0,1-11.22-4.3,23.28,23.28,0,0,0-4.4-2.41,13.78,13.78,0,0,0-3.62-.72l.08,2.15c-2.87-.2-6.11-1.39-7-2.74a15,15,0,0,1-.16-5Z" style="fill:#37474f"></path><path d="M153.92,389.53a8.22,8.22,0,0,0,3.11,5,35.16,35.16,0,0,0,4.81,2.75c1.39.71,7.49,2.89,8.87,3.84,2.26,1.55,2.52,5.41-.09,6.9-2.25,1.29-8.14,2.65-14.29.84-3.35-1-7-4.61-11.45-5-2.8-.25-8.1-1.09-9.88-3.24-.54-3.1.26-3.93,1-6.51a10.45,10.45,0,0,0,.58-3.67c-.31-3.84-.64-7.68-.95-11.54a1.9,1.9,0,0,1,.11-1.06.61.61,0,0,1,.43-.39l.07.77a3.32,3.32,0,0,0,.91.75,5.65,5.65,0,0,0,1.68.61,6.27,6.27,0,0,1,1.62.34c.37.21.4,1.06.5,1.45l.48,2a.4.4,0,0,0,.14.27c.2.12.41-.13.5-.35a8,8,0,0,0,.47-1.74,2,2,0,0,1,.36-1.09,1.84,1.84,0,0,1,1.28-.42,50.4,50.4,0,0,0,7.54-1.11c1.27-.29,1.39.64,1.38,1.7a37.36,37.36,0,0,0,.17,3.81A38.34,38.34,0,0,0,153.92,389.53Z" style="fill:#455a64"></path><path d="M154.57,385.61a9.31,9.31,0,0,0-1.15-1,7.13,7.13,0,0,0-.67-.45,1.67,1.67,0,0,0-.88-.33.14.14,0,0,0-.08,0c-.11-.13-.32-.19-.39,0a.19.19,0,0,0-.2.19v.06h0a6.86,6.86,0,0,0-2.18,2.3,3.23,3.23,0,0,0-.61,2.84,1.65,1.65,0,0,0,2.13,1,3.38,3.38,0,0,0,1.33-2.47c0-.24.06-.49.09-.73a2.5,2.5,0,0,0,.09.25,3.15,3.15,0,0,0,2,1.83,1.68,1.68,0,0,0,1.3-.09,1.21,1.21,0,0,0,.59-1A3.41,3.41,0,0,0,154.57,385.61Zm-3.48,1.74a5.06,5.06,0,0,1-.49,1.56c-.19.35-.54.84-1,.68a1,1,0,0,1-.59-1,3.58,3.58,0,0,1,.56-1.55,8.1,8.1,0,0,1,.9-1.27c.25-.28.51-.55.77-.81,0,.28,0,.57,0,.85A13.83,13.83,0,0,1,151.09,387.35Zm3.73,1a1,1,0,0,1-.87,0,2.46,2.46,0,0,1-1.31-1.54c-.17-.42-.33-.84-.46-1.27-.07-.2-.12-.39-.17-.59a4.07,4.07,0,0,0-.06-.61.59.59,0,0,0,.17.18l.11.06.23.13.46.31a7.16,7.16,0,0,1,.84.71,10.21,10.21,0,0,1,.78.83,2.16,2.16,0,0,1,.55,1A.79.79,0,0,1,154.82,388.34Z" style="fill:#263238"></path><path d="M113.75,415c0,4-.61,6.05-2.26,8.26a8,8,0,0,1-8,2.7c-3.11-.7-7-3.09-7.85-6.39a16.15,16.15,0,0,1-.11-8.73Z" style="fill:#37474f"></path><path d="M116.41,380.76l-.36,1.78s-2.72,1.11-8.45.61-6.78-3.18-6.78-3.18l0-1.56s-1.21-.16-1.12,2.08,0,5.14.16,8.4S98.15,401.65,98.08,402c-1.1,3.95-1.82,5.24-2.43,7.8-1,4.19-.54,7.44,1.61,10.59s9.85,6.32,13.69,1.92c3.13-3.59,2.92-5.24,2.68-10.39-.08-1.61-.15-3.07-.21-4.44a27,27,0,0,1,1-8.6c.67-3.13.08-5.62,1.25-10.62S118,381.19,116.41,380.76Z" style="fill:#455a64"></path><path d="M110.26,389.87a8.46,8.46,0,0,0-.71-1.37,6,6,0,0,0-.46-.66,1.63,1.63,0,0,0-.71-.62h-.09c-.05-.16-.22-.29-.36-.16a.18.18,0,0,0-.25.1s0,0,0,.06h0a6.71,6.71,0,0,0-2.85,1.38A3.24,3.24,0,0,0,103.2,391a1.63,1.63,0,0,0,1.64,1.66c1-.1,1.68-1.08,2.12-1.83.13-.21.24-.43.35-.65a2.25,2.25,0,0,0,0,.26,3.13,3.13,0,0,0,1.2,2.42,1.65,1.65,0,0,0,1.24.37,1.2,1.2,0,0,0,.91-.72A3.44,3.44,0,0,0,110.26,389.87Zm-3.87.4a4.6,4.6,0,0,1-1,1.27c-.3.26-.8.61-1.18.29a1,1,0,0,1-.17-1.18,3.3,3.3,0,0,1,1.07-1.25,8.1,8.1,0,0,1,1.29-.87c.33-.18.67-.33,1-.49-.11.27-.21.54-.31.8A15.65,15.65,0,0,1,106.39,390.27Zm3.14,2.24a1,1,0,0,1-.81-.3,2.45,2.45,0,0,1-.69-1.9c0-.45,0-.9,0-1.35,0-.21,0-.41.06-.62a3,3,0,0,0,.15-.59.64.64,0,0,0,.1.24l.08.08.17.21.33.45a9.12,9.12,0,0,1,.53,1,9.57,9.57,0,0,1,.42,1.05,2.08,2.08,0,0,1,.18,1.12A.8.8,0,0,1,109.53,392.51Z" style="fill:#263238"></path></g><g id="freepik--top--inject-138"><path d="M142.09,207c7.4,1.05,9.19,1.42,12.61,6.78s12.63,30.43,12.63,30.43l18.35,7.43-4,10s-12-2.19-19.22-3.89c-3.27-.77-5.2-2.08-7.11-6.46S145.76,230,145.76,230Z" style="fill:#BA68C8"></path><path d="M142.09,207c7.4,1.05,9.19,1.42,12.61,6.78s12.63,30.43,12.63,30.43l18.35,7.43-4,10s-12-2.19-19.22-3.89c-3.27-.77-5.2-2.08-7.11-6.46S145.76,230,145.76,230Z" style="fill:#fff;opacity:0.30000000000000004"></path><path d="M152.76,224.25c-2.06-14.56-6.27-16.85-12.89-17.43l-12.66-.58c-3.18.83-13.3,2.48-17.63,3.78s-6,11.58-5,18a198.83,198.83,0,0,1,2.88,23.8c.14,9.56-.2,18.34-.2,18.34,9.26,5.88,36.58,5.39,46.37-.51,0,0,.58-11.66.46-18C153.81,238.44,153.33,228.29,152.76,224.25Z" style="fill:#f5f5f5"></path><path d="M121.66,207.4c-1.65,2.27.6,6.31,2.93,17.72,1.76,8.67,4.46,39-1.55,52.6-4.2,9.47-17.85,12.26-17.85,12.26s1.91-25.82,1.91-28.33-3.8-31.75-4.17-38.22S107,210.67,107,210.67A79.93,79.93,0,0,1,121.66,207.4Z" style="fill:#BA68C8"></path><path d="M121.66,207.4c-1.65,2.27.6,6.31,2.93,17.72,1.76,8.67,4.46,39-1.55,52.6-4.2,9.47-17.85,12.26-17.85,12.26s1.91-25.82,1.91-28.33-3.8-31.75-4.17-38.22S107,210.67,107,210.67A79.93,79.93,0,0,1,121.66,207.4Z" style="fill:#fff;opacity:0.5"></path><path d="M135.6,207.25c2.72,1.23,8.25,5,11.56,18.83s3.88,40.47,4.57,47.69,2.69,9.63,2.69,9.63.63-30,0-43.68-2.43-28.32-8.49-31.4c-4-2.08-10.31-1.92-10.31-1.92Z" style="fill:#BA68C8"></path><path d="M135.6,207.25c2.72,1.23,8.25,5,11.56,18.83s3.88,40.47,4.57,47.69,2.69,9.63,2.69,9.63.63-30,0-43.68-2.43-28.32-8.49-31.4c-4-2.08-10.31-1.92-10.31-1.92Z" style="fill:#fff;opacity:0.5"></path><path d="M107.73,210.43c3,1.44,6.22,7.49,5.35,20.14-1,14.81-7.24,22.74-7.24,22.74l1.26,8.34s7.78-5.22,11.71-19c3.72-13,2.6-26.56-2.68-34.32A18,18,0,0,0,107.73,210.43Z" style="fill:#263238"></path><polygon points="137.66 234.68 158.22 239.47 171.42 227.94 188.42 232.19 201.07 220.15 178.82 276.74 171.42 283.19 157.91 282.6 145.13 293.01 130.6 289.8 137.66 234.68" style="fill:#BA68C8"></polygon><polygon points="137.66 234.68 158.22 239.47 171.42 227.94 188.42 232.19 201.07 220.15 178.82 276.74 171.42 283.19 157.91 282.6 145.13 293.01 130.6 289.8 137.66 234.68" style="fill:#fff;opacity:0.8"></polygon><polygon points="171.42 227.94 157.91 282.6 145.13 293.01 158.22 239.47 171.42 227.94" style="fill:#BA68C8;opacity:0.30000000000000004"></polygon><polygon points="188.42 232.19 201.07 220.15 178.82 276.74 171.42 283.19 188.42 232.19" style="fill:#BA68C8;opacity:0.30000000000000004"></polygon><path d="M145.86,290.42h-.09l-12.15-2.54a.43.43,0,0,1-.34-.48l6.66-49a.4.4,0,0,1,.18-.3.44.44,0,0,1,.35-.07l16.87,4.11L170.2,231.4a.42.42,0,0,1,.37-.09l16.66,3.61,9.1-7.62a.44.44,0,0,1,.54,0,.44.44,0,0,1,.15.51l-18.87,48.38a.52.52,0,0,1-.13.17l-5.52,4.8a.61.61,0,0,1-.31.11l-13.51-.79-12.55,9.87A.46.46,0,0,1,145.86,290.42ZM134.2,287.1l11.55,2.41,12.52-9.84a.53.53,0,0,1,.3-.09l13.49.78,5.31-4.61,18.21-46.68-8,6.66a.41.41,0,0,1-.37.09l-16.66-3.61L157.73,243a.45.45,0,0,1-.39.09l-16.6-4Z" style="fill:#fafafa"></path><path d="M149,269.67a2.49,2.49,0,0,0,.35-1.12,1.19,1.19,0,0,0-.27-.92,1.47,1.47,0,0,0-1.2-.27c-3,.22-5.91,1.2-8.93,1.12a9.76,9.76,0,0,1-3.86-.92c-.5-.24-1.53-.72-1.43-1.43,0,0-1.64,12.72-1.64,12.72a20.26,20.26,0,0,0,3.28.24c.62,0,1.24,0,1.86,0a18,18,0,0,0,7.48-1.85,9.7,9.7,0,0,0,2.2-1.57,5.75,5.75,0,0,0,1.3-4,2,2,0,0,1,.13-1,2.69,2.69,0,0,1,.44-.51A3.47,3.47,0,0,0,149,269.67Z" style="fill:#ffa8a7"></path><path d="M186.84,256.34c-2.1,1.69-4.28.91-5.36,3.56s-.8,6.81,1.45,6.4a6.19,6.19,0,0,0,4.87-3.22c3.13-5.5.17-9.61.17-9.61Z" style="fill:#ffa8a7"></path><path d="M107.05,211c-7.32,2.54-9.15,3-11.29,11.69-1.49,6-4.7,21.3-6.37,30.33-1.43,7.68-1.59,9.7,5.32,13.32,7.28,3.81,21.48,7,26.35,8.78,3,1.11,6.54,3.32,10.95,3.74l1.31-10.17.76-5.46c-3.33.12-6.05,1.15-9,1C121.4,264,104,254.11,104,254.11l6.33-23.78S115.19,217.41,107.05,211Z" style="fill:#ffa8a7"></path><path d="M107,210.67c-6,.83-8.64,2.85-10,6.62s-4.25,15.7-6.55,27.58-3.47,15.94-1,18.82,17.14,7.12,17.14,7.12a16.59,16.59,0,0,1,1.94-8.19c2.24-4.16,3.74-4.3,3.74-4.3l-7.63-4.85,6.72-21.82S115.28,215.43,107,210.67Z" style="fill:#BA68C8"></path><path d="M107,210.67c-6,.83-8.64,2.85-10,6.62s-4.25,15.7-6.55,27.58-3.47,15.94-1,18.82,17.14,7.12,17.14,7.12a16.59,16.59,0,0,1,1.94-8.19c2.24-4.16,3.74-4.3,3.74-4.3l-7.63-4.85,6.72-21.82S115.28,215.43,107,210.67Z" style="fill:#fff;opacity:0.30000000000000004"></path><path d="M141,167c-5.09-5.11-7.53-8.21-10.21-8.13s-1.81,1.13-4.49,1.38-12.21,1.82-14,7.68-.45,15.26-.45,15.26S122.21,168.43,141,167Z" style="fill:#455a64"></path><path d="M121,167.48a37.67,37.67,0,0,0-9.63,7,55.21,55.21,0,0,0,.48,8.79S122.21,168.43,141,167c-1.36-1.37-2.53-2.59-3.57-3.65A35.37,35.37,0,0,0,121,167.48Z" style="fill:#BA68C8"></path><ellipse cx="130.18" cy="183.74" rx="25.57" ry="16.22" transform="translate(-69.34 79.35) rotate(-27.06)" style="fill:#37474f"></ellipse><path d="M141.91,184.47a5.12,5.12,0,0,0,1.83-2.3,7.46,7.46,0,0,0,.35-3.08,15.38,15.38,0,0,0-1.71-5.85,11.19,11.19,0,0,0-11.29-6.13,19.33,19.33,0,0,0-3.25.74c-3.68,1.1-7.4,2.6-10,5.42a15.94,15.94,0,0,0-1.93,2.62,12.27,12.27,0,0,0-1.15,2.43,11.17,11.17,0,0,0-.24,5.42,31.55,31.55,0,0,0,2.82,8c.88,1.9,1.72,3.86,2.74,5.69s1.78,3.17,1.78,3.17l-.56-6.37c2.31-.28,4.2.37,6.37-.53a40.54,40.54,0,0,0,5.9-3,57.47,57.47,0,0,0,5.68-4C140.14,186,141,185.21,141.91,184.47Z" style="fill:#e0e0e0"></path><path d="M126.6,172.68c.07,2-2,6.44-4.74,9a20,20,0,0,1,.38,6.71,3.54,3.54,0,0,1-.46,1.36,1.62,1.62,0,0,1-1.15.79c-.65.07-.93-.31-1.15-.81a15.53,15.53,0,0,0-1-1.86,3.36,3.36,0,0,0-.6-.7c-1-.88-4-1.89-5.22,1.26s1.43,7.44,3.81,8c4.09,1,4.88-1.79,4.88-1.79l.38,13.4c1.25,3.37,7.66,6.46,12.71,5.63s3.33-3.84,1.2-5.84l.1-4.67a19.59,19.59,0,0,0,5.4-.38c2.09-.48,3.75-2.51,4.51-5.74a48.77,48.77,0,0,0,0-18.63c-.9-3.76-3.72-7.18-4.89-7.71.07.82-.52,2.92-4,3.6C132.43,175.15,129.76,173.86,126.6,172.68Z" style="fill:#ffa8a7"></path><path d="M115,185.78c3.75-9.39,18.23-16.4,27.8-13.09,0,0-1.85-4.83-8.46-6.41a28.43,28.43,0,0,0-20,9.75S113.19,182.94,115,185.78Z" style="fill:#37474f"></path><path d="M135.69,203.16c-3.75-.21-6.81-.62-9-1.66-1.58-.77-4-2.59-4.48-3.47a9.22,9.22,0,0,0,3.15,4.42c4.19,2.94,10.24,2.62,10.24,2.62Z" style="fill:#f28f8f"></path><path d="M122.25,184.17c.31,1.68,2.74,9.23,4.9,9.88,3.45,1,5.86-1.12,9.9-1.84,2.69-.48,4.51.45,6.4,1,.36.1.79.2,1.19.29a1.4,1.4,0,0,0,1.67-1.26c.14-1.74.05-7.74-.16-10.37h0s1.24,9.9,1,12.87-.64,5.36-3,7.14-7.33,2.58-13.26,1.37-8.73-4.72-9.37-6.83c-1.94-6.39-1.38-6.72-3.65-9.27C116.84,186,122.25,184.17,122.25,184.17Z" style="fill:#e0e0e0"></path><path d="M127,185.81a.36.36,0,0,1,0-.09s.06-.05.08-.08.22-.07.3-.08l.24,0h.49a4.77,4.77,0,0,1,.92.15c.15,0,.11.36,0,.33a3.62,3.62,0,0,0-1-.09l-.48,0-.25,0c-.08,0-.19.06-.26,0A.22.22,0,0,1,127,185.81Z" style="fill:#f28f8f"></path><path d="M128.29,186.69a1.67,1.67,0,0,1,.39,0l.14,0,.18.12c.06,0,.06.22,0,.24l-.36.11-.31.07-.08,0s-.08,0,0,0l-.17.08-.12.06a.35.35,0,0,1-.22,0,.18.18,0,0,1-.13-.16C127.54,186.93,128,186.75,128.29,186.69Z" style="fill:#f28f8f"></path><path d="M128.24,188.27a1.84,1.84,0,0,1,.87-.58.09.09,0,0,1,.09,0,.14.14,0,0,1,0,.09.21.21,0,0,1-.09.21l-.21.1-.1.06-.05,0h0l0,0-.18.15-.17.16a.11.11,0,0,1-.18,0A.25.25,0,0,1,128.24,188.27Z" style="fill:#ffa8a7"></path><path d="M144.73,184.55l.1-.07.13-.08.25-.13a1.66,1.66,0,0,1,.43-.14c.11,0,.18.06.18.16a.32.32,0,0,1-.15.29,1.66,1.66,0,0,1-.49.16l-.24,0h-.19c-.05,0-.08-.07-.08-.11S144.68,184.57,144.73,184.55Z" style="fill:#f28f8f"></path><path d="M144.88,185.78a.17.17,0,0,0,0,.1.1.1,0,0,0,.1.05h.12l.09,0,0,0-.06,0,.1,0h.07a.23.23,0,0,0,.28-.11.31.31,0,0,0,.06-.16.19.19,0,0,0,0-.16.37.37,0,0,0-.17-.13.58.58,0,0,0-.19,0,.78.78,0,0,0-.32.12.26.26,0,0,0-.09.09A.59.59,0,0,0,144.88,185.78Z" style="fill:#f28f8f"></path><path d="M132.62,194.91a1.09,1.09,0,0,1,.19-.37.75.75,0,0,1,.54-.34.41.41,0,0,1,.31.07.18.18,0,0,1,.05.07.1.1,0,0,1,0,.09.12.12,0,0,1-.1,0,.77.77,0,0,0-.56.27c-.08.11-.11.23-.19.33s-.11.1-.17.05S132.6,195,132.62,194.91Z" style="opacity:0.1"></path><path d="M133.19,186.16a1.36,1.36,0,1,1-1.45-1.32A1.39,1.39,0,0,1,133.19,186.16Z" style="fill:#263238"></path><path d="M132.5,181.74l-3.23,1.48a1.87,1.87,0,0,1,.91-2.42A1.74,1.74,0,0,1,132.5,181.74Z" style="fill:#455a64"></path><path d="M133.69,195l3.31,1.23a1.74,1.74,0,0,1-2.25,1.1A1.84,1.84,0,0,1,133.69,195Z" style="fill:#b16668"></path><path d="M135.6,197.45a1.91,1.91,0,0,0-1.89-1.7h-.12a1.81,1.81,0,0,0,1.16,1.61A1.65,1.65,0,0,0,135.6,197.45Z" style="fill:#f28f8f"></path><path d="M144.85,182.61l-3.28-1.15a1.67,1.67,0,0,1,2.17-1.05A1.78,1.78,0,0,1,144.85,182.61Z" style="fill:#455a64"></path><path d="M144.12,185.5a1.36,1.36,0,1,1-1.46-1.33A1.39,1.39,0,0,1,144.12,185.5Z" style="fill:#263238"></path><polygon points="137.11 192.11 142.09 190.98 137.1 183.15 137.11 192.11" style="fill:#f28f8f"></polygon></g></g></g></svg>