<svg xmlns="http://www.w3.org/2000/svg" viewBox="0 0 500 500"><g id="freepik--Floor--inject-122"><ellipse id="freepik--floor--inject-122" cx="250" cy="351.83" rx="243.71" ry="139.62" style="fill:#f5f5f5"></ellipse></g><g id="freepik--Shadows--inject-122"><path id="freepik--Shadow--inject-122" d="M125.19,376.21l60.4-34.87c2.39-1.38,2.39-3.62,0-5l-64.46-37.22a9.57,9.57,0,0,0-8.66,0L52.08,334c-2.4,1.38-2.4,3.62,0,5l64.45,37.22A9.57,9.57,0,0,0,125.19,376.21Z" style="fill:#e6e6e6"></path><ellipse id="freepik--shadow--inject-122" cx="210.28" cy="429.2" rx="49.95" ry="28.84" style="fill:#e6e6e6"></ellipse><ellipse id="freepik--shadow--inject-122" cx="267.07" cy="394.35" rx="51.62" ry="29.8" style="fill:#e6e6e6"></ellipse><ellipse id="freepik--shadow--inject-122" cx="337.89" cy="282.52" rx="45.04" ry="26" style="fill:#e6e6e6"></ellipse><ellipse id="freepik--shadow--inject-122" cx="430.34" cy="373.15" rx="46.65" ry="26.93" style="fill:#e6e6e6"></ellipse></g><g id="freepik--Sculpture--inject-122"><g id="freepik--sculpture--inject-122"><g id="freepik--Pedestal--inject-122"><path d="M129.52,366.23l39.55-22.83c4.78-2.76,8.66-9.48,8.66-15V273.66c0-5.52-3.88-12.24-8.66-15l-39.55-22.83c-4.78-2.76-12.54-2.76-17.32,0L72.65,258.66c-4.78,2.76-8.66,9.48-8.66,15V328.4c0,5.52,3.88,12.24,8.66,15l39.55,22.83C117,369,124.74,369,129.52,366.23Z" style="fill:#BA68C8"></path><path d="M129.52,366.23l39.55-22.83c4.78-2.76,8.66-9.48,8.66-15V273.66c0-5.52-3.88-12.24-8.66-15l-39.55-22.83c-4.78-2.76-12.54-2.76-17.32,0L72.65,258.66c-4.78,2.76-8.66,9.48-8.66,15V328.4c0,5.52,3.88,12.24,8.66,15l39.55,22.83C117,369,124.74,369,129.52,366.23Z" style="opacity:0.30000000000000004"></path><path d="M120.86,306.49v54.74c0,5.52,3.88,7.76,8.66,5l39.55-22.83c4.78-2.76,8.66-9.48,8.66-15V273.66c0-5.52-3.88-7.76-8.66-5l-39.55,22.83C124.74,294.25,120.86,301,120.86,306.49Z" style="fill:#BA68C8"></path><path d="M120.86,306.49v54.74c0,5.52,3.88,7.76,8.66,5l39.55-22.83c4.78-2.76,8.66-9.48,8.66-15V273.66c0-5.52-3.88-7.76-8.66-5l-39.55,22.83C124.74,294.25,120.86,301,120.86,306.49Z" style="opacity:0.1"></path><path d="M120.86,306.49v54.74c0,5.52-3.88,7.76-8.66,5L72.65,343.4c-4.78-2.76-8.66-9.48-8.66-15V273.66c0-5.52,3.88-7.76,8.66-5l39.55,22.83C117,294.25,120.86,301,120.86,306.49Z" style="fill:#BA68C8"></path><path d="M120.86,306.49v54.74c0,5.52-3.88,7.76-8.66,5L72.65,343.4c-4.78-2.76-8.66-9.48-8.66-15V273.66c0-5.52,3.88-7.76,8.66-5l39.55,22.83C117,294.25,120.86,301,120.86,306.49Z" style="opacity:0.2"></path><path d="M165,281.66c.49,2.27,1.92,3.31,3.34,3.31h.24v42.4c-2,1.52-3.54,4.75-3.73,7.88l-31.16,18c-.49-2.27-1.92-3.31-3.34-3.31h-.24v-42.4c2-1.52,3.54-4.75,3.73-7.88l31.16-18M133.81,299h0m32.05-19.12L132.73,299c0,3.19-1.67,6.74-3.75,7.94v44.43a2.66,2.66,0,0,1,1.32-.4c1.42,0,2.43,1.53,2.43,4l33.13-19.13c0-3.19,1.67-6.74,3.75-7.94V283.51a2.75,2.75,0,0,1-1.32.39c-1.42,0-2.43-1.53-2.43-4Z" style="fill:#fafafa"></path><path d="M76.77,281.66l31.16,18c.19,3.13,1.73,6.36,3.73,7.88v42.4h-.24c-1.42,0-2.85,1-3.34,3.31l-31.16-18c-.19-3.13-1.72-6.36-3.73-7.88V285h.24c1.42,0,2.85-1,3.34-3.31m-.9-1.76c0,2.47-1,4-2.44,4a2.68,2.68,0,0,1-1.31-.39v44.42c2.07,1.2,3.75,4.75,3.75,7.94L109,355c0-2.48,1-4,2.43-4a2.66,2.66,0,0,1,1.32.4V307c-2.07-1.2-3.75-4.75-3.75-7.94L75.87,279.9Z" style="fill:#e0e0e0"></path><polygon points="72.12 258.97 72.11 263.66 120.86 291.8 169.6 263.66 169.6 258.97 120.86 287.11 72.12 258.97" style="fill:#455a64"></polygon><polygon points="63.99 249.59 120.86 282.42 177.73 249.59 120.86 216.76 63.99 249.59" style="fill:#BA68C8"></polygon><polygon points="63.99 249.59 63.99 254.28 120.86 287.11 120.86 282.42 63.99 249.59" style="fill:#BA68C8"></polygon><polygon points="63.99 249.59 63.99 254.28 120.86 287.11 120.86 282.42 63.99 249.59" style="opacity:0.2"></polygon><polygon points="120.86 282.42 177.73 249.59 177.73 254.28 120.86 287.11 120.86 282.42" style="fill:#BA68C8"></polygon><polygon points="120.86 282.42 177.73 249.59 177.73 254.28 120.86 287.11 120.86 282.42" style="opacity:0.1"></polygon></g><path id="freepik--shadow--inject-122" d="M85,250.32c-5,1-9,5.32,1,10,8.52,4,27.77,4.58,38.87.09s13.78-9.33,19.49-9.13,15.55.26,16.68-2.4-.53-1.74-8.32-4.3-10.32-6.2-23.79-6.32S90.31,249.2,85,250.32Z" style="opacity:0.1"></path><g id="freepik--sculpture--inject-122"><path d="M161.82,126.71c1.23-4.35-2-7.11-4.5-10.59s-6.07-21.92-6.35-24c-.48-3.56-2.67-3.82-2.67-3.82.6-4-1-8.87-2.43-7.2L147.15,67c7-5.68,4.07-13.5,2-16.54s-4.19-6.29-6.44-9.51a13.87,13.87,0,0,0-1.73-8c-3.07-5.15-7.88-4.81-11.36-3.65a5.16,5.16,0,0,0-1.74-1.56,12.07,12.07,0,0,0-10.92,0,4.07,4.07,0,0,0-2.22,2.73,2.33,2.33,0,0,0,0,.79v6.21l-2.4,1.39c-.7.41-4,2.24-4.6,2.66a69.4,69.4,0,0,0-8.64,6.64h0c-1.26,1.11-2,3.25-2,6.15,0,5.57,2.93,11.79,6.56,13.89.18.1.36.18.53.26h0c3.47,1.9,5,3.86,7,8.29,1.58,3.6,3.93,8.11,3.61,9.43-.75,3-3.86,5.86-6.89,9.89-3.64-1.65-4.21,7.16-4.21,7.16s-3.38,6.84-5.27,20.45a150.92,150.92,0,0,0-1.29,21.65c-2.54,2-1.15,5.62,0,11.56s4.38,20.27,4.17,25.82S99,188.8,97.05,196.43s0,20,0,20c-2.34,2.66-.33,5.52.9,9.33s0,11.75,0,11.75c-1.53,1.15-1.63,3.79-1.2,5.87A97.13,97.13,0,0,0,86.12,247c-4,1.68-4,8.9-4,8.9,3.86,3.48,22.19,5.66,36.28-.1,9.68-4,14.85-12.68,18.38-21.71h0c1,1.1,3.5,2.48,4.62,3.88a8.94,8.94,0,0,1,2,4c.31,1.25.8,3.32,1.65,4.29a6,6,0,0,0,3.53,2.15c2.56.44,6.09-.22,7.9-.4s3.47-.71,3.5-2.23c0-.62,0-1.48-.57-1.77s-2.29-.63-2.85-.88c-2.26-1-3.13-2.83-4.23-4.66-1.71-2.84-2.49-5.95-3.58-9.06-.85-2.44-1.72-5.91-1.18-8.53,1.88-9.26,12.66-37,17.57-46S171.24,162.59,170,155,161.82,126.71,161.82,126.71Z" style="fill:#BA68C8"></path><path d="M161.82,126.71c1.23-4.35-2-7.11-4.5-10.59s-6.07-21.92-6.35-24c-.48-3.56-2.67-3.82-2.67-3.82.6-4-1-8.87-2.43-7.2L147.15,67c7-5.68,4.07-13.5,2-16.54s-4.19-6.29-6.44-9.51a13.87,13.87,0,0,0-1.73-8c-3.07-5.15-7.88-4.81-11.36-3.65a5.16,5.16,0,0,0-1.74-1.56,12.07,12.07,0,0,0-10.92,0,4.07,4.07,0,0,0-2.22,2.73,2.33,2.33,0,0,0,0,.79v6.21l-2.4,1.39c-.7.41-4,2.24-4.6,2.66a69.4,69.4,0,0,0-8.64,6.64h0c-1.26,1.11-2,3.25-2,6.15,0,5.57,2.93,11.79,6.56,13.89.18.1.36.18.53.26h0c3.47,1.9,5,3.86,7,8.29,1.58,3.6,3.93,8.11,3.61,9.43-.75,3-3.86,5.86-6.89,9.89-3.64-1.65-4.21,7.16-4.21,7.16s-3.38,6.84-5.27,20.45a150.92,150.92,0,0,0-1.29,21.65c-2.54,2-1.15,5.62,0,11.56s4.38,20.27,4.17,25.82S99,188.8,97.05,196.43s0,20,0,20c-2.34,2.66-.33,5.52.9,9.33s0,11.75,0,11.75c-1.53,1.15-1.63,3.79-1.2,5.87A97.13,97.13,0,0,0,86.12,247c-4,1.68-4,8.9-4,8.9,3.86,3.48,22.19,5.66,36.28-.1,9.68-4,14.85-12.68,18.38-21.71h0c1,1.1,3.5,2.48,4.62,3.88a8.94,8.94,0,0,1,2,4c.31,1.25.8,3.32,1.65,4.29a6,6,0,0,0,3.53,2.15c2.56.44,6.09-.22,7.9-.4s3.47-.71,3.5-2.23c0-.62,0-1.48-.57-1.77s-2.29-.63-2.85-.88c-2.26-1-3.13-2.83-4.23-4.66-1.71-2.84-2.49-5.95-3.58-9.06-.85-2.44-1.72-5.91-1.18-8.53,1.88-9.26,12.66-37,17.57-46S171.24,162.59,170,155,161.82,126.71,161.82,126.71Z" style="fill:#fff;opacity:0.65"></path><path d="M136.29,228.2c-13.58,23.62-34.06,22.51-39.08,21.18s-2.06-3.2,0-4.37a3,3,0,0,0,.71,1.11c.9.76,4.1,1.27,8.81.41C124.36,243.28,132.34,232.59,136.29,228.2Z" style="fill:#BA68C8;opacity:0.1"></path><path d="M106.76,246.53c-1.52,1.85-4.69,2.87-9.55,2.85s-11.59,2-12.15,5,8.57,4.72,8.73,4.75c-5.61-.48-10-1.74-11.7-3.25,0,0,0-7.23,4-8.91,3.65-1.53,4.87-1.77,10.63-3.57A5.32,5.32,0,0,0,98,246.12C98.73,246.77,101.61,247.44,106.76,246.53Z" style="fill:#BA68C8;opacity:0.1"></path><path d="M82.08,255.87c3.86,3.48,22.19,5.66,36.28-.1,8-3.28,13-9.86,16.43-17.18l0-.35c-2.79,6.46-13.49,16.27-29.21,17.52s-18.77-2.49-19.75-3.65a3.81,3.81,0,0,1,.27-5.14C82.11,248.65,82.08,255.87,82.08,255.87Z" style="fill:#BA68C8;opacity:0.1"></path><path d="M103.61,68.16c-3.63-2.1-6.56-8.32-6.56-13.89,0-3.14.93-5.42,2.38-6.42a3.73,3.73,0,0,1,4.18.1c3.63,2.09,6.56,8.31,6.56,13.89,0,2.62-.64,4.63-1.7,5.81C107.27,69,105.53,69.27,103.61,68.16Z" style="fill:#BA68C8;opacity:0.1"></path><path d="M141.47,33.84l-3,1.94s2.67,3.07,4.24,5.15v-1.8A13.46,13.46,0,0,0,141.47,33.84Z" style="fill:#BA68C8;opacity:0.1"></path><path d="M114.74,30.84v8a9,9,0,0,0,2.2,5.89c3,2.86,10.85,6.41,13.86,4.67,1.51-.87,0-6.42-.38-10.2s-.29-8.36-.29-8.36Z" style="fill:#BA68C8;opacity:0.1"></path><path d="M116.94,44.73a20.87,20.87,0,0,0,5.48,3.45V30.84h-7.68v8A9,9,0,0,0,116.94,44.73Z" style="fill:#BA68C8;opacity:0.1"></path><path d="M140.7,67.87c-1.14,4.49-4,7.93-9.58,8.66a12.49,12.49,0,0,1-12.56-5.59s3,11.45,12.32,11S140.7,67.87,140.7,67.87Z" style="fill:#BA68C8;opacity:0.1"></path><path d="M145.87,81.14c-1.2,14.49-11.91,26-25.64,27.4s-12.82-9.76-12.82-9.76,2.31,9.69,13.33,7.34S142.84,96.36,145.87,81.14Z" style="fill:#BA68C8;opacity:0.1"></path><path d="M103.61,103.2c0,3.92-.17,9.93,4.52,16s16.42,4.7,22.26,0c0,0-11.48,5.92-19.56-1.13C104,112.17,103.61,103.2,103.61,103.2Z" style="fill:#BA68C8;opacity:0.1"></path><path d="M148.3,88.34c-1.07,11.56-4.94,18.52-10.33,24.52a24.67,24.67,0,0,0,8.61-11.13A27.68,27.68,0,0,0,148.3,88.34Z" style="fill:#BA68C8;opacity:0.1"></path><path d="M161.82,126.71c-5.68,13.11-9.29,27.2-13.32,41.19S136,187.54,136,187.54s9.23-3.16,15-20c6.56-19.09,6.61-25.58,12.33-36.19h0C162.44,128.54,161.82,126.71,161.82,126.71Z" style="fill:#BA68C8;opacity:0.1"></path><path d="M136.74,234.06c1,1.1,3.5,2.48,4.62,3.88a8.94,8.94,0,0,1,2,4c.31,1.25.8,3.32,1.65,4.29a6.15,6.15,0,0,0,2.83,1.95c-2.18-1.19-2.72-3.59-3-7.66s-4.11-4.86-5.51-7.49.57-4.61,3.45-11.44,19-40,19-40-19.61,38.61-25.57,46.64C135.7,230.14,135.37,232.57,136.74,234.06Z" style="fill:#BA68C8;opacity:0.1"></path><path d="M127.42,223.89c-17,10.65-29,9.35-29,9.35h0c-.16,2.39-.45,4.28-.45,4.28C131.18,233.59,143,216,154.7,189.64,154.7,189.64,143.67,213.69,127.42,223.89Z" style="fill:#BA68C8;opacity:0.1"></path><path d="M161.09,172.75c-9.8,17.77-20.72,28.91-36.64,37.66-15.6,8.57-26.5,7.69-27.4,6,0,0-.69,1.93.36,2.59,2.91,1.81,17,2.16,35.63-10.73S161.09,172.75,161.09,172.75Z" style="fill:#BA68C8;opacity:0.1"></path><path d="M105.45,185.94c1.09-4.37-4.1-12-6.83-21.28h0c1.3,6.48,2.74,14.26,2.6,18-.2,5.55-2.25,6.12-4.17,13.75-1.25,4.93-.89,11.82-.47,16.09a34.32,34.32,0,0,1,2.59-15C102.6,189.07,104.36,190.32,105.45,185.94Z" style="fill:#BA68C8;opacity:0.1"></path><path d="M97.05,145.3A17.56,17.56,0,0,0,111.65,160c8.77,1.58,24.13-2.9,31.58-17.28s7.62-32,7.62-32c-.66,6.49-4.59,25.32-12.88,34.57s-17.19,11.84-23.4,11.83S101.43,154.67,97.05,145.3Z" style="fill:#BA68C8;opacity:0.1"></path><path d="M151.54,59a12.46,12.46,0,0,1-3,5.42c-1.58,1.67-3.76,2.83-6.51,1.49A4.32,4.32,0,0,0,147.15,67,11,11,0,0,0,151.54,59Z" style="fill:#BA68C8;opacity:0.1"></path><path d="M119.5,87.42c-1.46-3.23-5-12.44-7-15.51-1.81-2.86-4.92-1.58-7.19-2.76,2.64,1.7,4,3.69,5.74,7.57,1.58,3.6,3.93,8.11,3.61,9.43-.75,3-3.86,5.86-6.89,9.89-3.64-1.65-4.21,7.16-4.21,7.16s-3.38,6.84-5.27,20.45a150.92,150.92,0,0,0-1.29,21.65c-2.54,2-1.15,5.62,0,11.56s4.38,20.27,4.17,25.82S99,188.8,97.05,196.43s0,20,0,20c-2.34,2.66-.33,5.52.9,9.33s0,11.75,0,11.75c-2.46,1.84-1.23,7.58,0,8.6.77.65,3.66,1.32,8.8.4-2-1.28-3.58-3.17-3.88-5.1a4.92,4.92,0,0,1,1.82-4.94c.34-3.33-2.89-10.2-3.8-13.5a5.71,5.71,0,0,1,1.4-5.47c-1.21-6.43.79-13.29,6.44-25.44s-5.65-29.31-6.32-33.14,1.74-4.83,1.74-4.83c-3.09-8.87-1.39-31.09,0-35.78s3.25-4.17,3.25-4.17-1.86-3.42-.69-6.43,3-2.08,3-2.08a23.3,23.3,0,0,1,5-10.73C118.79,90.28,121,90.65,119.5,87.42Z" style="fill:#BA68C8;opacity:0.1"></path><path d="M153.08,106.8c.51,6.67-1.67,30-9.44,46.49s-19,19.56-25.66,18.54c0,0,10.71,5.14,21.66-8.84C150.85,148.68,154.05,127.15,153.08,106.8Z" style="fill:#BA68C8;opacity:0.1"></path><path d="M147.15,67l-.38,4.22c-3.27-.33-4.66-5-4.74-5.27A4.32,4.32,0,0,0,147.15,67Z" style="fill:#BA68C8;opacity:0.1"></path><path d="M136.29,228.2c-13.58,23.62-34.06,22.51-39.08,21.18s-2.06-3.2,0-4.37a3,3,0,0,0,.71,1.11c.9.76,4.1,1.27,8.81.41C124.36,243.28,132.34,232.59,136.29,228.2Z" style="opacity:0.05"></path><path d="M106.76,246.53c-1.52,1.85-4.69,2.87-9.55,2.85s-11.59,2-12.15,5,8.57,4.72,8.73,4.75c-5.61-.48-10-1.74-11.7-3.25,0,0,0-7.23,4-8.91,3.65-1.53,4.87-1.77,10.63-3.57A5.32,5.32,0,0,0,98,246.12C98.73,246.77,101.61,247.44,106.76,246.53Z" style="opacity:0.05"></path><path d="M82.08,255.87c3.86,3.48,22.19,5.66,36.28-.1,8-3.28,13-9.86,16.43-17.18l0-.35c-2.79,6.46-13.49,16.27-29.21,17.52s-18.77-2.49-19.75-3.65a3.81,3.81,0,0,1,.27-5.14C82.11,248.65,82.08,255.87,82.08,255.87Z" style="opacity:0.05"></path><path d="M103.61,68.16c-3.63-2.1-6.56-8.32-6.56-13.89,0-3.14.93-5.42,2.38-6.42a3.73,3.73,0,0,1,4.18.1c3.63,2.09,6.56,8.31,6.56,13.89,0,2.62-.64,4.63-1.7,5.81C107.27,69,105.53,69.27,103.61,68.16Z" style="opacity:0.05"></path><path d="M141.47,33.84l-3,1.94s2.67,3.07,4.24,5.15v-1.8A13.46,13.46,0,0,0,141.47,33.84Z" style="opacity:0.05"></path><path d="M114.74,30.84v8a9,9,0,0,0,2.2,5.89c3,2.86,10.85,6.41,13.86,4.67,1.51-.87,0-6.42-.38-10.2s-.29-8.36-.29-8.36Z" style="opacity:0.05"></path><path d="M116.94,44.73a20.87,20.87,0,0,0,5.48,3.45V30.84h-7.68v8A9,9,0,0,0,116.94,44.73Z" style="opacity:0.05"></path><path d="M140.7,67.87c-1.14,4.49-4,7.93-9.58,8.66a12.49,12.49,0,0,1-12.56-5.59s3,11.45,12.32,11S140.7,67.87,140.7,67.87Z" style="opacity:0.05"></path><path d="M145.87,81.14c-1.2,14.49-11.91,26-25.64,27.4s-12.82-9.76-12.82-9.76,2.31,9.69,13.33,7.34S142.84,96.36,145.87,81.14Z" style="opacity:0.05"></path><path d="M103.61,103.2c0,3.92-.17,9.93,4.52,16s16.42,4.7,22.26,0c0,0-11.48,5.92-19.56-1.13C104,112.17,103.61,103.2,103.61,103.2Z" style="opacity:0.05"></path><path d="M148.3,88.34c-1.07,11.56-4.94,18.52-10.33,24.52a24.67,24.67,0,0,0,8.61-11.13A27.68,27.68,0,0,0,148.3,88.34Z" style="opacity:0.05"></path><path d="M161.82,126.71c-5.68,13.11-9.29,27.2-13.32,41.19S136,187.54,136,187.54s9.23-3.16,15-20c6.56-19.09,6.61-25.58,12.33-36.19h0C162.44,128.54,161.82,126.71,161.82,126.71Z" style="opacity:0.05"></path><path d="M136.74,234.06c1,1.1,3.5,2.48,4.62,3.88a8.94,8.94,0,0,1,2,4c.31,1.25.8,3.32,1.65,4.29a6.15,6.15,0,0,0,2.83,1.95c-2.18-1.19-2.72-3.59-3-7.66s-4.11-4.86-5.51-7.49.57-4.61,3.45-11.44,19-40,19-40-19.61,38.61-25.57,46.64C135.7,230.14,135.37,232.57,136.74,234.06Z" style="opacity:0.05"></path><path d="M127.42,223.89c-17,10.65-29,9.35-29,9.35h0c-.16,2.39-.45,4.28-.45,4.28C131.18,233.59,143,216,154.7,189.64,154.7,189.64,143.67,213.69,127.42,223.89Z" style="opacity:0.05"></path><path d="M161.09,172.75c-9.8,17.77-20.72,28.91-36.64,37.66-15.6,8.57-26.5,7.69-27.4,6,0,0-.69,1.93.36,2.59,2.91,1.81,17,2.16,35.63-10.73S161.09,172.75,161.09,172.75Z" style="opacity:0.05"></path><path d="M105.45,185.94c1.09-4.37-4.1-12-6.83-21.28h0c1.3,6.48,2.74,14.26,2.6,18-.2,5.55-2.25,6.12-4.17,13.75-1.25,4.93-.89,11.82-.47,16.09a34.32,34.32,0,0,1,2.59-15C102.6,189.07,104.36,190.32,105.45,185.94Z" style="opacity:0.05"></path><path d="M97.05,145.3A17.56,17.56,0,0,0,111.65,160c8.77,1.58,24.13-2.9,31.58-17.28s7.62-32,7.62-32c-.66,6.49-4.59,25.32-12.88,34.57s-17.19,11.84-23.4,11.83S101.43,154.67,97.05,145.3Z" style="opacity:0.05"></path><path d="M151.54,59a12.46,12.46,0,0,1-3,5.42c-1.58,1.67-3.76,2.83-6.51,1.49A4.32,4.32,0,0,0,147.15,67,11,11,0,0,0,151.54,59Z" style="opacity:0.05"></path><path d="M119.5,87.42c-1.46-3.23-5-12.44-7-15.51-1.81-2.86-4.92-1.58-7.19-2.76,2.64,1.7,4,3.69,5.74,7.57,1.58,3.6,3.93,8.11,3.61,9.43-.75,3-3.86,5.86-6.89,9.89-3.64-1.65-4.21,7.16-4.21,7.16s-3.38,6.84-5.27,20.45a150.92,150.92,0,0,0-1.29,21.65c-2.54,2-1.15,5.62,0,11.56s4.38,20.27,4.17,25.82S99,188.8,97.05,196.43s0,20,0,20c-2.34,2.66-.33,5.52.9,9.33s0,11.75,0,11.75c-2.46,1.84-1.23,7.58,0,8.6.77.65,3.66,1.32,8.8.4-2-1.28-3.58-3.17-3.88-5.1a4.92,4.92,0,0,1,1.82-4.94c.34-3.33-2.89-10.2-3.8-13.5a5.71,5.71,0,0,1,1.4-5.47c-1.21-6.43.79-13.29,6.44-25.44s-5.65-29.31-6.32-33.14,1.74-4.83,1.74-4.83c-3.09-8.87-1.39-31.09,0-35.78s3.25-4.17,3.25-4.17-1.86-3.42-.69-6.43,3-2.08,3-2.08a23.3,23.3,0,0,1,5-10.73C118.79,90.28,121,90.65,119.5,87.42Z" style="opacity:0.05"></path><path d="M153.08,106.8c.51,6.67-1.67,30-9.44,46.49s-19,19.56-25.66,18.54c0,0,10.71,5.14,21.66-8.84C150.85,148.68,154.05,127.15,153.08,106.8Z" style="opacity:0.05"></path><path d="M147.15,67l-.38,4.22c-3.27-.33-4.66-5-4.74-5.27A4.32,4.32,0,0,0,147.15,67Z" style="opacity:0.07"></path><path d="M127.88,34A12.14,12.14,0,0,1,117,34c-1.69-1-2.44-2.31-2.22-3.58A4.07,4.07,0,0,1,117,27.69a12.07,12.07,0,0,1,10.92,0,4,4,0,0,1,2.25,2.94C130.23,31.84,129.48,33.07,127.88,34Z" style="fill:#BA68C8"></path><path d="M127.88,34A12.14,12.14,0,0,1,117,34c-1.69-1-2.44-2.31-2.22-3.58A4.07,4.07,0,0,1,117,27.69a12.07,12.07,0,0,1,10.92,0,4,4,0,0,1,2.25,2.94C130.23,31.84,129.48,33.07,127.88,34Z" style="fill:#fff;opacity:0.7000000000000001"></path><path d="M120.36,62.29c-3.82,2.63-1.59,10.48,5.39,12.64a11.4,11.4,0,0,0,13.53-5.78c1.14-3-.26-.91-4.83-.45a8.76,8.76,0,0,1-8.93-4.57C124,61.49,121.7,61.37,120.36,62.29Z" style="fill:#fff;opacity:0.15"></path><path d="M113.63,40.93c-1.2-1.11-2.11-.83-5.28,1.35s-5.41,4.12-3.86,5,3.44,3.39,4.64,4.66,3.74-3.85,5.83-2.81,6.75,4.42,12.45,4.17,7-3.06,3.66-2.34a13.32,13.32,0,0,1-12.17-3.41C114.26,43.26,114.1,41.37,113.63,40.93Z" style="fill:#fff;opacity:0.1"></path><path d="M146.78,82.79c.88,1.79,1.41,10.16-2.49,17.81s-10.44,15-17.65,18.35-15.28-.48-17.26-4.69c0,0,5.34,7.52,16.89,1.95s17-16.75,18-21.3S146.39,81.39,146.78,82.79Z" style="fill:#fff;opacity:0.15"></path><path d="M150.85,125.08c-.86,8.88-5.2,26.58-14,35.35s-21.64,9.65-27.85,4.69-1.09-4.13,3.39-3.23a26,26,0,0,0,22.67-6.15C143.86,148,150.08,132.71,150.85,125.08Z" style="fill:#fff;opacity:0.15"></path><path d="M157.05,118.22c1.78,2.08,4.38,5,2.78,9.38s-4,11.33-7.41,22.87-4.89,23.42-12.76,31.8S119.21,194,119.21,194s13.74-4.79,19.73-16.41,8.15-16.32,10.71-26.55S157.78,129.35,157.05,118.22Z" style="fill:#fff;opacity:0.15"></path><path d="M140,54.53c-1.69,2.84-.75,8.46,2.31,10.48,1.53,1,4.41.66,6.59-2.05,2.34-2.9,2-7.19,1.22-8s-1.66,3.52-4.71,2S141,52.81,140,54.53Z" style="fill:#fff;opacity:0.1"></path><path d="M163.33,137.71c-1.77-1.91-4.92,7.7-5.05,12.09s3.61,9.34,4.25,14.85-3.65,18-1.87,16,7.77-12.29,8-18.44S164.8,139.29,163.33,137.71Z" style="fill:#fff;opacity:0.25"></path><path d="M146.24,220.31a17.5,17.5,0,0,1-2,5.3c-2,4-2.07,5.76,0,7.87s2.57,8.25,4.07,9.92,7.53,1.18,8.12.77-1.28-.49-3.06-2.83-3.1-5.53-5.06-9.82a15,15,0,0,1-1.49-9.38C147.2,219.46,146.48,219.1,146.24,220.31Z" style="fill:#fff;opacity:0.25"></path></g></g></g><g id="freepik--Stanchion--inject-122"><g id="freepik--Ribbon--inject-122"><path d="M368.8,187.63h-5.51v66.28h0a1.38,1.38,0,0,0,.8,1.13,4.32,4.32,0,0,0,3.9,0,1.37,1.37,0,0,0,.81-1.13h0Z" style="fill:#BA68C8"></path><path d="M368.8,187.63h-5.51v66.28h0a1.38,1.38,0,0,0,.8,1.13,4.32,4.32,0,0,0,3.9,0,1.37,1.37,0,0,0,.81-1.13h0Z" style="fill:#fff;opacity:0.6000000000000001"></path><path d="M372.07,184.44a6,6,0,1,1-6-6A6,6,0,0,1,372.07,184.44Z" style="fill:#BA68C8"></path><path d="M372.07,184.44a6,6,0,1,1-6-6A6,6,0,0,1,372.07,184.44Z" style="fill:#fff;opacity:0.6000000000000001"></path><path d="M372,185.51a5.18,5.18,0,0,1-6.31,1.86c-3.37-1.39-4.37-6.61-1.59-8.62a6,6,0,1,0,7.9,6.76Z" style="opacity:0.15"></path><path d="M288,253.81c-12.25,0-19.4-4.86-19.52-4.94a.85.85,0,0,1,1-1.4c.19.13,18.75,12.66,47.61-4,29.15-16.82,48.18-51.38,48.33-51.71a.85.85,0,1,1,1.54.72c-.15.33-19.39,35.37-49,52.47C306.1,251.74,296,253.81,288,253.81Z" style="fill:#455a64"></path><path d="M271.65,243.83h-5.51v66.28h0a1.37,1.37,0,0,0,.81,1.13,4.32,4.32,0,0,0,3.9,0,1.38,1.38,0,0,0,.8-1.13h0Z" style="fill:#BA68C8"></path><path d="M271.65,243.83h-5.51v66.28h0a1.37,1.37,0,0,0,.81,1.13,4.32,4.32,0,0,0,3.9,0,1.38,1.38,0,0,0,.8-1.13h0Z" style="fill:#fff;opacity:0.6000000000000001"></path><path d="M274.92,240.64a6,6,0,1,1-6-6A6,6,0,0,1,274.92,240.64Z" style="fill:#BA68C8"></path><path d="M274.92,240.64a6,6,0,1,1-6-6A6,6,0,0,1,274.92,240.64Z" style="fill:#fff;opacity:0.6000000000000001"></path><path d="M274.82,241.71a5.18,5.18,0,0,1-6.31,1.87c-3.36-1.4-4.37-6.62-1.58-8.63a6,6,0,1,0,7.89,6.76Z" style="opacity:0.15"></path><path d="M187.1,312c-12.25,0-19.39-4.86-19.51-4.94a.84.84,0,0,1-.21-1.18.85.85,0,0,1,1.19-.21c.18.12,22.4,10.54,51.27-6.13C249,282.75,268,248.19,268.16,247.86a.85.85,0,0,1,1.55.72c-.16.33-19.4,35.37-49,52.47C208.91,307.85,195.09,312,187.1,312Z" style="fill:#455a64"></path><path d="M170.85,301.88h-5.51v66.28h0a1.38,1.38,0,0,0,.8,1.13,4.32,4.32,0,0,0,3.9,0,1.37,1.37,0,0,0,.81-1.13h0Z" style="fill:#BA68C8"></path><path d="M170.85,301.88h-5.51v66.28h0a1.38,1.38,0,0,0,.8,1.13,4.32,4.32,0,0,0,3.9,0,1.37,1.37,0,0,0,.81-1.13h0Z" style="fill:#fff;opacity:0.6000000000000001"></path><path d="M174.12,298.69a6,6,0,1,1-6-6A6,6,0,0,1,174.12,298.69Z" style="fill:#BA68C8"></path><path d="M174.12,298.69a6,6,0,1,1-6-6A6,6,0,0,1,174.12,298.69Z" style="fill:#fff;opacity:0.6000000000000001"></path><path d="M174,299.76a5.16,5.16,0,0,1-6.3,1.86c-3.37-1.39-4.37-6.61-1.59-8.62a6,6,0,1,0,7.89,6.76Z" style="opacity:0.15"></path><path d="M89.92,368.1c-12.25,0-19.4-4.86-19.51-4.94a.85.85,0,1,1,1-1.4c.18.13,22.4,10.55,51.26-6.12,29.15-16.83,44.52-49.27,44.67-49.6a.85.85,0,1,1,1.54.72c-.15.33-15.73,33.25-45.35,50.35C111.72,363.92,97.91,368.1,89.92,368.1Z" style="fill:#455a64"></path><path d="M73.7,358H68.19v66.28h0a1.36,1.36,0,0,0,.81,1.12,4.26,4.26,0,0,0,3.9,0,1.37,1.37,0,0,0,.8-1.12h0Z" style="fill:#BA68C8"></path><path d="M73.7,358H68.19v66.28h0a1.36,1.36,0,0,0,.81,1.12,4.26,4.26,0,0,0,3.9,0,1.37,1.37,0,0,0,.8-1.12h0Z" style="fill:#fff;opacity:0.6000000000000001"></path><path d="M77,354.75a6,6,0,1,1-6-6A6,6,0,0,1,77,354.75Z" style="fill:#BA68C8"></path><path d="M77,354.75a6,6,0,1,1-6-6A6,6,0,0,1,77,354.75Z" style="fill:#fff;opacity:0.6000000000000001"></path><path d="M76.87,355.83a5.18,5.18,0,0,1-6.31,1.86c-3.36-1.39-4.37-6.62-1.58-8.62a6,6,0,1,0,7.89,6.76Z" style="opacity:0.15"></path></g></g><g id="freepik--character-4--inject-122"><g id="freepik--Character--inject-122"><g id="freepik--Bottom--inject-122"><path d="M400.43,382.48a5.07,5.07,0,0,0-.06,2.67c.25.53,1.86,2.3,5.12,2.94s7.76,0,9.69-.12a92.65,92.65,0,0,1,9.94.89c3,.41,5.37-.25,6.5-1.35a2,2,0,0,0,.45-1.6,7.77,7.77,0,0,0-.32-2.16Z" style="fill:#37474f"></path><path d="M431.25,380.57c.06.25.11.51.16.76a12.75,12.75,0,0,1,.28,3.94,3.56,3.56,0,0,1-2.33,1.76,12,12,0,0,1-6.55.13,46.39,46.39,0,0,0-7.69-.47,48.86,48.86,0,0,1-6.73.33,15.93,15.93,0,0,1-4.94-1c-1.33-.57-2.69-1.3-3-2.66-.4-2.88.81-4.16,2.18-5s3.3-.74,5.38-.88c1.88-.13,3.25-.13,4.92-.26a22.88,22.88,0,0,0,4.23-.81c1.25-.39,2.61-1.78,3.14-1.84,0,0,8.36-.07,9.16,0s1.2,2.93,1.32,3.55.1,1,.23,1.48C431.09,379.94,431.17,380.26,431.25,380.57Z" style="fill:#455a64"></path><path d="M434.29,336.54c-.12,2-.39,4-.63,6-.41,3.36-.84,6.71-1.27,10.07q-.72,5.48-1.47,11c-.4,2.92-.8,5.83-1.22,8.74-.12.83-.24,1.67-.38,2.51a3.81,3.81,0,0,1-2.68,3,14.09,14.09,0,0,1-3.3.5,9.55,9.55,0,0,0-3.64.84c.55-1.62,2.57-2.16,1.77-3.08-.54-.63-1.48-.46-1.54-1.4s-.09-1.48-.13-2.3c-.16-2.67-2.78-37.63-2.83-38.42C419.14,332.93,434.29,336.54,434.29,336.54Z" style="fill:#ffa8a7"></path><path d="M435.08,355.83a9.25,9.25,0,0,0,.28,4.4c.86,2.32,2.68,3.38,3.75,4.3a30.06,30.06,0,0,1,3.11,3.58c1,1.27,1.27,2.1,2.9,3.44a6.7,6.7,0,0,0,5.59.78c1.37-.57,1.84-1,1.76-3.13s-6.75-2.81-6.75-2.81Z" style="fill:#37474f"></path><path d="M451.6,363c.57.21.72,1.24.8,3.29.07,1.55.75,3.81-1.49,4.79a5.69,5.69,0,0,1-5.93-1.19c-1.53-1.83-2.56-3.43-4.74-5.66-1.89-1.93-4.49-2.85-5.29-6.72a3.12,3.12,0,0,1,2.23-3.94c2.56-.61,3.89.12,8.1,2.72C446.71,357.14,451,362.76,451.6,363Z" style="fill:#455a64"></path><path d="M454.53,326.27c.32,13.07-1.74,26.19-2.69,37.5-.17,1.1-5.94,2.06-7.79-1.19-.12-.24-5-35.71-5-35.71Z" style="fill:#ffa8a7"></path><path d="M454.56,309.77s-.22-12.9,0-22.74c.14-6.18-.19-9.62-.44-13.93a100.9,100.9,0,0,0-2.71-16.34s-35.74-4.12-36.16,8.17c-.5,14.72.19,46.94.33,50.79.32,9,.61,14.43,1.39,22.92,5.45,1.33,13.52.51,17.82-1.1.15-4.13.25-6.48.25-6.48l.94-21.29s.32,3.85.75,9.12a100.61,100.61,0,0,0,1.77,13c3.42,1.59,13.61,1.5,16.35-1.51C454.85,322.69,454.56,309.77,454.56,309.77Z" style="fill:#37474f"></path><path d="M415.07,291.77c4.84,1.15,14.64,1,14.64,1s-.11,21.24-1,23.51-12.4,1.76-13.64-.13A184.17,184.17,0,0,1,415.07,291.77Z" style="fill:#263238"></path><path d="M448.55,277.61s-2.09,5.91-9.85,8.43L436,309.77l.75-16.63.55-8.95A21.79,21.79,0,0,0,448.55,277.61Z" style="fill:#263238"></path></g><g id="freepik--Top--inject-122"><path d="M440,213.34,419.81,218s-9.14-14.36-10.41-17.66-1.46-5.39-3-8.14-7.59-3.85-7.59-3.85-2.91,5.48-3.19,8.36c0,0,1.83,5.33,3.55,7.6s2.67,2.44,3.88,5,5.67,13.07,8.45,18.72c2.42,4.89,5.15,4.5,9.9,3s19.94-6,19.94-6Z" style="fill:#f28f8f"></path><g id="freepik--Camera--inject-122"><path d="M387,191h0l-.12-.07a2.71,2.71,0,0,0-2.64.31,8.47,8.47,0,0,0-3.83,6.63,4,4,0,0,0,.17,1.2,2.33,2.33,0,0,0,.69,1.09,1.46,1.46,0,0,0,.24.17h0l.07,0,.59.35-.29-.23a3,3,0,0,1-.8-2.24,8.47,8.47,0,0,1,3.83-6.63,3,3,0,0,1,2.34-.43,1.69,1.69,0,0,1,.31.13Z" style="fill:#BA68C8"></path><path d="M380.54,199.11a4,4,0,0,1-.17-1.2,8.47,8.47,0,0,1,3.83-6.63,2.71,2.71,0,0,1,2.64-.31l-1.32-.76a2,2,0,0,0-1-.26,3.43,3.43,0,0,0-1.71.53,8.47,8.47,0,0,0-3.83,6.63,2.67,2.67,0,0,0,1.11,2.46h0l1.36.78a1.46,1.46,0,0,1-.24-.17A2.33,2.33,0,0,1,380.54,199.11Zm11.24-5.29h0l-4.11-2.37-.11-.06h0a1.69,1.69,0,0,0-.31-.13,3,3,0,0,0-2.34.43,8.47,8.47,0,0,0-3.83,6.63,3,3,0,0,0,.8,2.24l.29.23.06,0,4.15,2.39h0a1.92,1.92,0,0,0,1,.26,3.46,3.46,0,0,0,1.71-.53,8.47,8.47,0,0,0,3.83-6.63A2.68,2.68,0,0,0,391.78,193.82Z" style="fill:#455a64"></path><path d="M390.65,201.62a6.37,6.37,0,0,1-1.57,1.31,3.44,3.44,0,0,1-1.71.52,1.92,1.92,0,0,1-1-.25h0l-4.15-2.39-.05,0a2.37,2.37,0,0,1-.3-.23,3,3,0,0,1-.8-2.24,7,7,0,0,1,.34-2Z" style="fill:#37474f"></path><path d="M381.46,200.37l-1.35-.78h0a2.7,2.7,0,0,1-1.11-2.47,6.36,6.36,0,0,1,.35-2l1.39.8a6.66,6.66,0,0,0-.35,2,4,4,0,0,0,.17,1.2,2.28,2.28,0,0,0,.69,1.09Z" style="fill:#37474f"></path><path d="M390.65,209.23a3.32,3.32,0,0,1-2.71-.12l-2.6-1.5a3.31,3.31,0,0,1-1.49-2.57v-7a2.58,2.58,0,0,1,.07-.54c0-.07,0-.13.05-.19v0a1.54,1.54,0,0,1,0-.17l.09-.21a1,1,0,0,0,.07-.15,1.09,1.09,0,0,0,.08-.15l0,0,5.57,3.22a3,3,0,0,0-.44,1.46v7C389.42,209.1,390,209.49,390.65,209.23Z" style="fill:#263238"></path><path d="M404.74,192.39v7a3.25,3.25,0,0,1-1.49,2.57l-12.34,7.13,0,0-.08,0-.08,0-.07,0c-.7.26-1.23-.13-1.23-1v-7a3.31,3.31,0,0,1,1.49-2.57,5.51,5.51,0,0,0,2.62-3.92,2.2,2.2,0,0,1,.28-.73,1.75,1.75,0,0,1,.53-.55l2.7-1.55a.55.55,0,0,1,.55,0l.05,0h0a1,1,0,0,1,.33.42,1.87,1.87,0,0,0,2.59.78l2.69-1.56c.79-.45,1.43-.12,1.49.73Z" style="fill:#37474f"></path><path d="M389.86,199.77a3,3,0,0,1,1.05-1.11,5.51,5.51,0,0,0,2.62-3.92,2.2,2.2,0,0,1,.28-.73,1.75,1.75,0,0,1,.53-.55l2.7-1.55s-2.31,1.43-2.63,1.66a2.08,2.08,0,0,0-.73,1.26,5.45,5.45,0,0,1-2.67,3.92A3.52,3.52,0,0,0,389.86,199.77Z" style="fill:#fff;opacity:0.30000000000000004"></path><path d="M390.82,192.28h0l-2.58-1.48a2.12,2.12,0,0,0-.28.73,5.5,5.5,0,0,1-2.62,3.91,3,3,0,0,0-1,1.11l5.57,3.22a3,3,0,0,1,1.05-1.11,5.51,5.51,0,0,0,2.62-3.92,2.2,2.2,0,0,1,.28-.73Z" style="fill:#455a64"></path><path d="M390.82,192.28h0l-2.58-1.48a2.12,2.12,0,0,0-.28.73,3.33,3.33,0,0,1-.11.53s0,.06,0,.1a3.66,3.66,0,0,1-.15.43,1.59,1.59,0,0,1-.07.2l-.15.34-.15.27h0c-.11.19-.23.37-.35.55a5.32,5.32,0,0,1-1.62,1.48,3,3,0,0,0-1,1.11,3.73,3.73,0,0,1,1.15-1,5.52,5.52,0,0,0,1.74-1.46l5.35,3.08a5.54,5.54,0,0,0,1-2.43,2.2,2.2,0,0,1,.28-.73Z" style="fill:#37474f"></path><path d="M403.25,189.82l-2.6-1.5a3.22,3.22,0,0,0-3,0l-2.7,1.55a1.87,1.87,0,0,1-.51.2l.08.05h0l3,1.74.05,0h0a1,1,0,0,1,.33.42,1.87,1.87,0,0,0,2.59.78l2.69-1.56c.79-.45,1.43-.12,1.49.73A3.3,3.3,0,0,0,403.25,189.82Z" style="fill:#455a64"></path><path d="M394.57,190.12h0l-.08-.05-2.42-1.4,0,0a.53.53,0,0,0-.55,0l-2.7,1.55a1.79,1.79,0,0,0-.53.56l2.58,1.48h0l3,1.73a1.75,1.75,0,0,1,.53-.55l2.7-1.55a.55.55,0,0,1,.55,0Z" style="fill:#455a64"></path><path d="M394.85,194l2-1.17c.2-.12.37,0,.37.21v1.15a.81.81,0,0,1-.37.64l-2,1.18c-.2.12-.37,0-.37-.21v-1.15A.84.84,0,0,1,394.85,194Z" style="fill:#BA68C8"></path><path d="M399.41,191.43l-.27-.07-.61-.36a1,1,0,0,0-.84,0h0l-.14,0v.25h0a.35.35,0,0,0,.2.27l.68.39a.93.93,0,0,0,.84,0,.25.25,0,0,0,.15-.21v-.24Z" style="fill:#BA68C8"></path><path d="M399.41,191.43l-.27-.07-.61-.36a1,1,0,0,0-.84,0h0l-.14,0v.25h0a.35.35,0,0,0,.2.27l.68.39a.93.93,0,0,0,.84,0,.25.25,0,0,0,.15-.21v-.24Z" style="opacity:0.2"></path><path d="M397.69,190.73c-.22.13-.2.35.05.49l.68.39a.9.9,0,0,0,.84,0c.22-.12.19-.34-.05-.48l-.68-.39A.93.93,0,0,0,397.69,190.73Z" style="fill:#BA68C8"></path><path d="M390.09,196.79l-.4-.1-.91-.53a1.38,1.38,0,0,0-1.25,0h0l-.2-.06v.37h0a.49.49,0,0,0,.3.4l1,.58a1.35,1.35,0,0,0,1.25.05.37.37,0,0,0,.22-.32v-.36Z" style="fill:#BA68C8"></path><path d="M390.09,196.79l-.4-.1-.91-.53a1.38,1.38,0,0,0-1.25,0h0l-.2-.06v.37h0a.49.49,0,0,0,.3.4l1,.58a1.35,1.35,0,0,0,1.25.05.37.37,0,0,0,.22-.32v-.36Z" style="opacity:0.2"></path><path d="M387.53,195.76c-.32.19-.29.51.08.73l1,.58a1.42,1.42,0,0,0,1.25.05c.32-.19.29-.51-.08-.73l-1-.58A1.42,1.42,0,0,0,387.53,195.76Z" style="fill:#BA68C8"></path><path d="M401.79,189.39a2.73,2.73,0,0,0-2.46,0h-.52v.72a.88.88,0,0,0,.51.72,2.77,2.77,0,0,0,2.48,0,.88.88,0,0,0,.51-.72v-.72Z" style="fill:#BA68C8"></path><path d="M401.79,189.39a2.73,2.73,0,0,0-2.46,0h-.52v.72a.88.88,0,0,0,.51.72,2.77,2.77,0,0,0,2.48,0,.88.88,0,0,0,.51-.72v-.72Z" style="opacity:0.4"></path><path d="M399.32,188.68a.76.76,0,0,0,0,1.43,2.77,2.77,0,0,0,2.48,0,.76.76,0,0,0,0-1.43A2.71,2.71,0,0,0,399.32,188.68Z" style="fill:#BA68C8"></path><path d="M399.32,188.68a.76.76,0,0,0,0,1.43,2.77,2.77,0,0,0,2.48,0,.76.76,0,0,0,0-1.43A2.71,2.71,0,0,0,399.32,188.68Z" style="opacity:0.2"></path><path d="M396.72,190.27a.79.79,0,0,0-.67,0h-.16v.21c0,.07.05.14.15.2a.76.76,0,0,0,.69,0c.1-.06.15-.13.15-.2v-.21Z" style="fill:#BA68C8"></path><path d="M396.72,190.27a.79.79,0,0,0-.67,0h-.16v.21c0,.07.05.14.15.2a.76.76,0,0,0,.69,0c.1-.06.15-.13.15-.2v-.21Z" style="opacity:0.2"></path><path d="M398.27,189.67v-.2h-.16a.79.79,0,0,0-.67,0h-.15v.2a.24.24,0,0,0,.14.21.78.78,0,0,0,.7,0A.26.26,0,0,0,398.27,189.67Z" style="fill:#BA68C8"></path><path d="M398.27,189.67v-.2h-.16a.79.79,0,0,0-.67,0h-.15v.2a.24.24,0,0,0,.14.21.78.78,0,0,0,.7,0A.26.26,0,0,0,398.27,189.67Z" style="opacity:0.2"></path><path d="M396,190.07a.21.21,0,0,0,0,.4.76.76,0,0,0,.69,0c.2-.11.2-.29,0-.4A.76.76,0,0,0,396,190.07Z" style="fill:#BA68C8"></path><path d="M397.43,189.27a.21.21,0,0,0,0,.4.78.78,0,0,0,.7,0,.21.21,0,0,0,0-.4A.78.78,0,0,0,397.43,189.27Z" style="fill:#BA68C8"></path><path d="M402.87,197.67a1.66,1.66,0,0,0,.21-.78.68.68,0,0,0-.21-.55l.56-1a1.18,1.18,0,0,1,.4,1,3.37,3.37,0,0,1-.46,1.6Z" style="fill:#263238"></path><path d="M401.4,199.53a.77.77,0,0,1-.34-.07l.57-1a.48.48,0,0,0,.18,0,.86.86,0,0,0,.41-.12,1.61,1.61,0,0,0,.56-.57l.51.29a3.49,3.49,0,0,1-1.16,1.19A1.47,1.47,0,0,1,401.4,199.53Z" style="fill:#263238"></path><path d="M400.91,199.38a1.22,1.22,0,0,1-.39-1,3.37,3.37,0,0,1,.46-1.6l.5.29a1.69,1.69,0,0,0-.21.78.7.7,0,0,0,.21.56Z" style="fill:#263238"></path><path d="M402.92,196.94a1.54,1.54,0,0,1-.22.73,1.59,1.59,0,0,1-.53.56.53.53,0,0,1-.52.05.52.52,0,0,1-.22-.48,1.5,1.5,0,0,1,.22-.74,1.53,1.53,0,0,1,.52-.55.46.46,0,0,1,.75.43Z" style="fill:#263238"></path><path d="M401.06,196.63a3.35,3.35,0,0,1,1.16-1.2,1.45,1.45,0,0,1,.73-.22.88.88,0,0,1,.33.06l-.56,1a.57.57,0,0,0-.18,0,.83.83,0,0,0-.41.12,1.86,1.86,0,0,0-.57.58Z" style="fill:#263238"></path><path d="M400.58,201l.4-.23c.08,0,.15,0,.15.09v.46a.32.32,0,0,1-.15.25l-.4.24a.1.1,0,0,1-.15-.09v-.46A.34.34,0,0,1,400.58,201Z" style="fill:#263238"></path><path d="M403.37,199.35l.4-.23c.08,0,.14,0,.14.09v.46a.34.34,0,0,1-.14.26l-.4.23c-.09.05-.15,0-.15-.09v-.46A.32.32,0,0,1,403.37,199.35Z" style="fill:#263238"></path><path d="M400.58,194.53l.4-.23c.08,0,.15,0,.15.09v.46a.35.35,0,0,1-.15.26l-.4.23c-.08,0-.15,0-.15-.09v-.46A.35.35,0,0,1,400.58,194.53Z" style="fill:#263238"></path><path d="M403.37,192.93l.4-.24c.08,0,.14,0,.14.09v.46a.33.33,0,0,1-.14.26l-.4.23c-.09.05-.15,0-.15-.09v-.46A.29.29,0,0,1,403.37,192.93Z" style="fill:#263238"></path><path d="M399.17,196v6.21a1,1,0,0,1-.44.77l-7.47,4.31c-.24.14-.44,0-.44-.26v-6.21a1,1,0,0,1,.44-.77l7.47-4.31C399,195.61,399.17,195.73,399.17,196Z" style="fill:#BA68C8"></path><path d="M391.51,201.61a.09.09,0,0,1-.08-.08v-.81a.07.07,0,0,1,0-.07l.7-.4a.07.07,0,0,1,.11,0,.07.07,0,0,1,0,.11l-.65.38v.76A.09.09,0,0,1,391.51,201.61Z" style="fill:#fafafa"></path><path d="M391.51,206.43h0a.07.07,0,0,1,0-.07v-.81a.09.09,0,0,1,.08-.08.09.09,0,0,1,.09.08v.66l.57-.33a.08.08,0,0,1,.11,0,.08.08,0,0,1,0,.12l-.69.4Z" style="fill:#fafafa"></path><path d="M398.47,197.59a.09.09,0,0,1-.08-.08v-.66l-.57.33a.1.1,0,0,1-.12,0,.09.09,0,0,1,0-.12l.69-.4a.07.07,0,0,1,.09,0,.08.08,0,0,1,0,.07v.81A.09.09,0,0,1,398.47,197.59Z" style="fill:#fafafa"></path><path d="M397.78,202.82a.1.1,0,0,1-.08,0,.08.08,0,0,1,0-.11l.65-.38v-.75a.09.09,0,0,1,.08-.09.09.09,0,0,1,.09.09v.8a.08.08,0,0,1,0,.07l-.7.41Z" style="fill:#fafafa"></path><path d="M403,197.75a1.69,1.69,0,0,0,.21-.78.74.74,0,0,0-.21-.56l.56-1a1.19,1.19,0,0,1,.4,1,3.37,3.37,0,0,1-.46,1.6Z" style="fill:#BA68C8"></path><path d="M401.53,199.61a.94.94,0,0,1-.34-.07l.57-1a.48.48,0,0,0,.18,0,.86.86,0,0,0,.41-.12,1.8,1.8,0,0,0,.56-.57l.51.29a3.49,3.49,0,0,1-1.16,1.19A1.47,1.47,0,0,1,401.53,199.61Z" style="fill:#BA68C8"></path><path d="M401,199.45a1.21,1.21,0,0,1-.39-1,3.37,3.37,0,0,1,.46-1.6l.5.29a1.66,1.66,0,0,0-.21.78.72.72,0,0,0,.21.56Z" style="fill:#BA68C8"></path><path d="M403.05,197a1.62,1.62,0,0,1-.22.74,1.56,1.56,0,0,1-.53.55.45.45,0,0,1-.74-.43,1.65,1.65,0,0,1,.74-1.28.53.53,0,0,1,.53-.06A.54.54,0,0,1,403.05,197Z" style="fill:#BA68C8"></path><path d="M401.19,196.7a3.4,3.4,0,0,1,1.16-1.19,1.47,1.47,0,0,1,.73-.23.72.72,0,0,1,.33.07l-.56,1a.57.57,0,0,0-.18,0,.83.83,0,0,0-.41.12,1.72,1.72,0,0,0-.57.57Z" style="fill:#BA68C8"></path><path d="M400.71,201l.4-.23c.08-.05.15,0,.15.08v.46a.34.34,0,0,1-.15.26l-.4.23c-.08,0-.15,0-.15-.08v-.46A.34.34,0,0,1,400.71,201Z" style="fill:#BA68C8"></path><path d="M403.5,199.43l.39-.23c.09,0,.15,0,.15.09v.46a.29.29,0,0,1-.15.25l-.39.23c-.09.05-.15,0-.15-.08v-.46A.31.31,0,0,1,403.5,199.43Z" style="fill:#BA68C8"></path><path d="M400.71,194.61l.4-.23c.08,0,.15,0,.15.08v.47a.32.32,0,0,1-.15.25l-.4.23c-.08.05-.15,0-.15-.08v-.46A.34.34,0,0,1,400.71,194.61Z" style="fill:#BA68C8"></path><path d="M403.5,193l.39-.23c.09-.05.15,0,.15.09v.46a.32.32,0,0,1-.15.26l-.39.23c-.09,0-.15,0-.15-.09v-.46A.31.31,0,0,1,403.5,193Z" style="fill:#BA68C8"></path></g><path d="M446.31,212.42c4.52.13,7.4.94,9.2,3s4.05,7.83-.49,15.54Z" style="fill:#455a64"></path><polygon points="430.36 207.08 430.43 218.63 442.11 218.51 442.3 205.1 430.36 207.08" style="fill:#ffa8a7"></polygon><path d="M454.23,218c-.93-3.06-4.87-5.58-9-5.7-.91,0-3,0-3,0-.47,1.89-6.9,2.81-11.84,1.65-1.49.39-7.72,1.07-9,1.48-3.56,1.18-5.45,5.41-6,17,0,0-1,23.87-.64,39.51,6.25,3.29,17.33,3,24.2,2.34,10.8-1.09,14.73-5.5,14.73-5.5-.45-6.36-.37-14-.19-20.3.13-4.71.9-9.49,1.32-14.83C455.48,225.7,454.87,220.12,454.23,218Z" style="fill:#BA68C8"></path><path d="M454.23,218c-.93-3.06-4.87-5.58-9-5.7-.91,0-3,0-3,0-.47,1.89-6.9,2.81-11.84,1.65-1.49.39-7.72,1.07-9,1.48-3.56,1.18-5.45,5.41-6,17,0,0-1,23.87-.64,39.51,6.25,3.29,17.33,3,24.2,2.34,10.8-1.09,14.73-5.5,14.73-5.5-.45-6.36-.37-14-.19-20.3.13-4.71.9-9.49,1.32-14.83C455.48,225.7,454.87,220.12,454.23,218Z" style="opacity:0.30000000000000004"></path><path d="M421.63,192.25s-3.1,4.68-2.81,5.1,2.72.72,2.72.72Z" style="fill:#f28f8f"></path><path d="M430,177.34c-5.56.93-7.61,4.26-8.44,13.93a85.86,85.86,0,0,0,0,9.34c.35,4.21,1.14,5.27,2,6.21s6,1.23,8.25.7c2.88-.67,9.41-2.68,12.62-7.16,3.77-5.26,4.23-11.85,1.33-15.73C439,175.54,432.28,177,430,177.34Z" style="fill:#ffa8a7"></path><path d="M423.54,206.82c.63.71,4.44,1.09,6.82.9l0-1.36A17.8,17.8,0,0,1,423.54,206.82Z" style="fill:#f28f8f"></path><path d="M426.09,185.91a5,5,0,0,0,3.15,5.36,6.64,6.64,0,0,0-.48,2.45,2.07,2.07,0,0,0,.21,1.21.77.77,0,0,0,1.4,0,9.45,9.45,0,0,1,1.25-1.94A3.73,3.73,0,0,1,434,191.8c3.47-.24,3.72,4.31,2.25,6.13-2.39,3-4.23.82-4.23.82s-.59,3.75,3.36,7.47a5.87,5.87,0,0,0,3.1,1.12,7.17,7.17,0,0,0,3.76-.28c1.94-3.14,6.06-8.41,7.53-11.19s3.08-5.77,2.36-8.88a5.08,5.08,0,0,0-2.33-3.3,6.54,6.54,0,0,0,.7-2.79,2.57,2.57,0,0,0-3.48-2.41,3,3,0,0,0-4.86-3.25,3,3,0,0,0-5.74-1.32,4,4,0,0,0-7.09.6,5.82,5.82,0,0,0-4-.86,4.11,4.11,0,0,0-3.14,2.43,3.23,3.23,0,0,0,1,3.72c-1.27.07-2.26,1.76-2.26,3C421,183.81,421.63,187.09,426.09,185.91Z" style="fill:#263238"></path><path d="M387.73,203.71c0-.72.06-1.43.09-2.14a6.54,6.54,0,0,1,.41-2c.29-.78.84-1.43,1.08-2.23a1.43,1.43,0,0,0,0-1,.7.7,0,0,0-1.15-.27,33.49,33.49,0,0,0-2.35,2.42,6.32,6.32,0,0,0-1,3.12,4.91,4.91,0,0,1-.91,2.28,15,15,0,0,0-1.29,1.36,8.94,8.94,0,0,1-.59,1,5,5,0,0,1-.8.65,4.07,4.07,0,0,0-1.47,2.16,7.64,7.64,0,0,0,.24,3.29,29.23,29.23,0,0,0,.84,3.59c.29,1,.61,2,.95,2.94.61,1.74,7.48,20.59,9.84,23.64,1.69,2.17,4.09,3.08,7.89,1.28,6.84-3.23,18.83-10.56,18.83-10.56,7.86-4.49,7.42-14.49,4.68-18.22-5.44.86-7.57.86-11.52,4.47-7.7,7-14,12.32-14,12.32-1.41-2.58-2.69-4.65-4.18-7.57-1.19-2.33-3.21-4.9-2.89-7.65a23.72,23.72,0,0,1,1.34-4.16c.56-1.78,1.08-3.56,1.67-5.34a1.48,1.48,0,0,0,.06-1.09,1.09,1.09,0,0,0-1.48-.27,3.75,3.75,0,0,0-1.27,1.38l-1.14,1.74c-.18.27-.42.58-.75.54-.9-.11-.84-1.62-.92-2.26A26.31,26.31,0,0,1,387.73,203.71Z" style="fill:#ffa8a7"></path><path d="M397.39,231.83c-2.1,1.7-3.75,5.43-3.75,5.43a13.06,13.06,0,0,1,3-6.8Z" style="fill:#f28f8f"></path><path d="M424.63,214.87c-3.41.27-8.14.49-11.16,2.62s-13.32,11.45-13.32,11.45a9.71,9.71,0,0,0-1,7.37c1.1,4.72,4.28,6.74,5.57,6.11L420,233S428.34,227,424.63,214.87Z" style="fill:#455a64"></path></g></g></g><g id="freepik--character-3--inject-122"><g id="freepik--character--inject-122"><g id="freepik--Botom--inject-122"><path d="M315.11,279.82c2.25,1.28,4.48,1.24,7.21.17l1.73-14.76-9.51-2.12Z" style="fill:#b16668"></path><path d="M342.67,271.62c1.83,4.21,4.45,2.82,8.44.24l.17-14.56-10.36-.65Z" style="fill:#b16668"></path><path d="M332.46,292.21a4.16,4.16,0,0,1,.06,2.51c-.28.48-1.78,2-4.85,2.4s-5.58.11-7.37-.9a5.12,5.12,0,0,1-2.94-3.83c-.25-1.67-.15-3.3-1-4.55s-1.84-2.26-2.14-2.89a8.42,8.42,0,0,1-.4-3.58Z" style="fill:#263238"></path><path d="M323.81,278.84a7.71,7.71,0,0,0,.46,1.85,17.06,17.06,0,0,0,2,3.59,15.13,15.13,0,0,0,1.32,1.67c1,1,2.1,1.82,3.09,2.78a6,6,0,0,1,2,3.52c.25,2.3-2.21,3.22-4.12,3.66a14.16,14.16,0,0,1-6.28,0,5.77,5.77,0,0,1-4.47-4.38c-.14-.63-.14-1.29-.25-1.93a9,9,0,0,0-2-3.94,11.83,11.83,0,0,1-1.49-2.13c-.68-1.39-.29-3,0-4.47.27-1.25.46-2.75.9-2.66l0,.81c.15.26.49.42.6.73a6.36,6.36,0,0,0,.4.93,2.56,2.56,0,0,0,1.09,1.07l-.06-2.62a1.25,1.25,0,0,1,.16-.77,1.21,1.21,0,0,1,.72-.36,16.51,16.51,0,0,1,4.92-.68.92.92,0,0,1,.68.26,1,1,0,0,1,.14.58A22,22,0,0,0,323.81,278.84Z" style="fill:#37474f"></path><path d="M326.61,284.75c-.9-.6-2.82-.51-3.87-.34a6.48,6.48,0,0,0-2.94,1.21.67.67,0,0,1-.88,0h0a.64.64,0,0,1,0-1,6.44,6.44,0,0,1,3.3-1.43c2.58-.32,3.37.08,3.37.08S326.82,284,326.61,284.75Z" style="fill:#f5f5f5"></path><path d="M328.71,287c-1.12-.58-3.23-.38-4.28-.21a6,6,0,0,0-2.85,1.26.67.67,0,0,1-.88,0h0a.64.64,0,0,1,0-1,6.7,6.7,0,0,1,3.37-1.53c2.58-.33,3.28.17,3.28.17A2.14,2.14,0,0,1,328.71,287Z" style="fill:#f5f5f5"></path><path d="M321.07,280.76a6.43,6.43,0,0,1,3.27.1c.47.23.81.94.52,1.14a5.88,5.88,0,0,0-2.9-.24,8.37,8.37,0,0,0-2.77.92c-.21.11-.47.26-.69.4a.62.62,0,0,1-.87-.22h0a.57.57,0,0,1,.19-.75A8.21,8.21,0,0,1,321.07,280.76Z" style="fill:#f5f5f5"></path><path d="M368,280.06a2.82,2.82,0,0,1,0,2.06c-.26.61-3.3,2.55-7.55,2.48a17.67,17.67,0,0,1-8.92-2.6,10.1,10.1,0,0,0-5.47-1.11c-2.1,0-4.91-.92-5.42-1.87a4.68,4.68,0,0,1-.07-2.68Z" style="fill:#263238"></path><path d="M350.27,268.48l1.08-.46a.87.87,0,0,1,.62-.11c.28.09.4.4.49.68a10,10,0,0,0,.55,1.81,4.61,4.61,0,0,0,1.26,1.19,19,19,0,0,0,3.5,2c1.42.67,2.81,1.18,4.27,1.75s3.45.87,4.63,1.58a3.06,3.06,0,0,1,.24,5.05c-1.58,1-5.82,2.31-10.4,1.27-2.49-.57-5.35-3.05-8.59-3.14-2.06-.05-6-.43-7.36-1.91-.53-.67,0-2.89.45-4.81a33,33,0,0,0,.58-3.68c.11-1,.23-1.59.67-1.58.2,1.08.67,1.13,1.06,1.68a14.2,14.2,0,0,1,.82,1.6,3,3,0,0,0,1.14,1.36,1.38,1.38,0,0,0,1.66-.18c.57-.66.15-1.73.55-2.5a2.67,2.67,0,0,1,1.4-1Z" style="fill:#37474f"></path><path d="M355.8,272.58a1.91,1.91,0,0,0-1.57-.93,5.51,5.51,0,0,0-3.53,1.54.77.77,0,0,0,.18,1.26h0a.76.76,0,0,0,.86-.14A5.86,5.86,0,0,1,355.8,272.58Z" style="fill:#f5f5f5"></path><path d="M358.77,274.05a2.19,2.19,0,0,0-1.84-.83,6.83,6.83,0,0,0-3.86,1.68.75.75,0,0,0,.16,1.22h0a.75.75,0,0,0,.84-.14A5.88,5.88,0,0,1,358.77,274.05Z" style="fill:#f5f5f5"></path><path d="M362,275.35a2.43,2.43,0,0,0-1.9-.74,6.55,6.55,0,0,0-3.7,1.68.75.75,0,0,0,.16,1.22h0a.73.73,0,0,0,.84-.14A5.59,5.59,0,0,1,362,275.35Z" style="fill:#f5f5f5"></path><path d="M317.55,166c-.91,16.17-2.29,56.63-2.29,56.63-.22,2-.92,8-1.24,15.2-.47,10.51.51,33.7.51,33.7a11.37,11.37,0,0,0,9,.65s5.76-34.22,7.6-44.55c1.63-9.08,4.76-31,4.76-31l1.7,26.88A86.16,86.16,0,0,0,338,238c.63,4.79,3.51,25.58,3.51,25.58a18.44,18.44,0,0,0,9.79-.15s1.2-34.9,1.39-39.32c.21-5,.9-61.57.9-61.57Z" style="fill:#455a64"></path><path d="M335.87,196.67l2.7-13.21s6.65-.42,10.4-4c0,0-.73,3.61-9.13,5.59l-2.7,13.36-.2,12.41Z" style="fill:#263238"></path></g><g id="freepik--top--inject-122"><path d="M382.87,102.11c1.58-1.25,3.77-3.32,5.72-3.29s2.37.5,2.37.5l-.88,3.35Z" style="fill:#9a4a4d"></path><path d="M385.59,101.75s-4,3.63-4.63,6.25c-.43,1.82-8,19.63-8,19.63-12.82-4.77-16.76-8.47-24.28-9-4.36,8.08,2.91,15,2.91,15s16.11,4.3,21.54,5.68c5.15,1.3,6.78,1.35,8.48-2.67a65,65,0,0,0,3.24-11c1.55-6.7,1.76-9.42,2.95-11.59,3.09-1,3.22-2.87,4.88-3.69Z" style="fill:#b16668"></path><path d="M348,118.29c3.25.21,5,.55,9.93,2.61s14.82,6.31,14.82,6.31l4.09-8.92s.85,1.89,4.17,3.22,4.55.55,4.55.55-1.37,6.77-2.72,11.79c-1.49,5.5-2.46,7.47-6.72,6.71s-25.44-6.71-25.44-6.71S345.8,126.08,348,118.29Z" style="fill:#BA68C8"></path><path d="M348,118.29c3.25.21,5,.55,9.93,2.61s14.82,6.31,14.82,6.31l4.09-8.92s.85,1.89,4.17,3.22,4.55.55,4.55.55-1.37,6.77-2.72,11.79c-1.49,5.5-2.46,7.47-6.72,6.71s-25.44-6.71-25.44-6.71S345.8,126.08,348,118.29Z" style="opacity:0.1"></path><path d="M372.78,127.21a24.42,24.42,0,0,0-1.84,6.64s-.67-4.12.62-7.17Z" style="opacity:0.1"></path><path d="M376.52,119.06s1.59,4.7,8.81,4.25l.92-4.39s-5.2.24-8-3.88Z" style="fill:#BA68C8"></path><path d="M376.52,119.06s1.59,4.7,8.81,4.25l.92-4.39s-5.2.24-8-3.88Z" style="fill:#fff;opacity:0.7000000000000001"></path><polygon points="388.53 62.07 411 49.1 404.12 61.01 411 64.98 388.53 77.96 388.53 62.07" style="fill:#BA68C8"></polygon><path d="M388.41,121.51h0a1.28,1.28,0,0,1-1.27-1.29l.23-62c0-.83,2.56-.81,2.56,0l-.24,62A1.28,1.28,0,0,1,388.41,121.51Z"></path><path d="M389.64,103a2.31,2.31,0,0,0,.15-1.11s.07-3,.07-3a2.56,2.56,0,0,1,1.28.55,5.75,5.75,0,0,1,1.26,1.74c1.05,1.94,2.61,5.5,1.88,7.17" style="fill:#9a4a4d"></path><path d="M379.46,112c.89-2.36,1-6.26,1.82-8.11s2.77-2.56,5.2-3a11.08,11.08,0,0,0,4.06-1.4,2.1,2.1,0,0,1,0,2.23,8.06,8.06,0,0,1-2.92,2c-2.45,1.22,1,3.21-1.05,7.24C386.43,113.17,379.46,112,379.46,112Z" style="fill:#b16668"></path><path d="M394.28,108.38a5.71,5.71,0,0,1-4.41,3,2.72,2.72,0,0,1-1.37-.5c-.39-.3-.58-.77-1-1.07-.2-.15-.43-.27-.62-.44a1,1,0,0,1-.38-.63c0-.28.13-.57.06-.84a.73.73,0,0,0-.28-.39c-.21-.18-.46-.3-.66-.48a.73.73,0,0,1-.3-.71,1,1,0,0,1,.45-.51,21.61,21.61,0,0,1,2.26-1.25,3.73,3.73,0,0,0,1.59-1.53" style="fill:#9a4a4d"></path><path d="M387.26,108c-.1,2.39-2.51,3.43-4,3.75a4.27,4.27,0,0,0,3.32-.84l.59,4.42Z" style="fill:#9a4a4d"></path><path d="M317.23,119.62c-.82.19-3,2.27-3.72,5.42a23.47,23.47,0,0,0,0,6.76l3.65,18.92-.08,20.16c5.11,5.56,25.56,7.35,36.73-.81,0,0-.12-35.25-.64-40.91-.47-5.18-1.69-9.66-4.71-10.73s-6.36-1.77-8.59-2.52l-11.29-.46Z" style="fill:#BA68C8"></path><path d="M335.46,135.65l9.24-1.78a1.31,1.31,0,0,1,1.58,1.22l.35,4.89a1.72,1.72,0,0,1-1.37,1.78L336,143.54a1.3,1.3,0,0,1-1.58-1.21l-.35-4.9A1.73,1.73,0,0,1,335.46,135.65Z" style="fill:#fafafa"></path><path d="M327.58,116l0,1.09s5.83,10.12,13,16l-1.3.33a49.25,49.25,0,0,1-12.64-16.29S326.61,115.9,327.58,116Z" style="fill:#455a64"></path><path d="M339,116.37c.51,1.71,2.14,11.06.3,17l1.3-.33c1.28-4.29.38-14-.72-17.16,0,0-.31-.81-1-.87Z" style="fill:#37474f"></path><polygon points="339.33 133.59 340.63 133.26 340.96 135.48 339.64 135.81 339.33 133.59" style="fill:#455a64"></polygon><path d="M336.28,139.1l7.76-1.5c.41-.07.72-.36.7-.64s-.37-.43-.78-.36l-7.77,1.5c-.41.08-.72.37-.69.64S335.87,139.18,336.28,139.1Z" style="fill:#e0e0e0"></path><path d="M336.52,141.11l7.77-1.49c.4-.08.71-.37.69-.64s-.37-.44-.78-.36l-7.77,1.49c-.4.08-.71.37-.69.64S336.11,141.19,336.52,141.11Z" style="fill:#e0e0e0"></path><path d="M329.59,93A10,10,0,1,0,339,82.4,10,10,0,0,0,329.59,93Z" style="fill:#263238"></path><path d="M326.58,95.08l-2.5-6.66a5.1,5.1,0,0,0-2.72,2.06c-1,1.59-.51,5.93,1.39,10,0,0,2.07,7.49,2.79,8.7a3.45,3.45,0,0,0,2.08,1.49Z" style="fill:#263238"></path><path d="M326.73,100.6c-.59.4-1.53-.72-2.33-1.46s-3.32-1.68-4.39,1,1.16,5.93,3.05,6.67c2.35.92,3.36-.28,3.59-1l.63,11.41s7.86,3.29,10.84,4.88c.92-1.15,1.87-3.65.87-5.69l-.23-3.65a21.54,21.54,0,0,0,4.51,0c2.42-.53,3.85-2.55,4.44-5.25.94-4.33,1.18-7.8-.33-16.12-1.66-9.12-12.35-8.58-17.9-4.6S326.73,100.6,326.73,100.6Z" style="fill:#b16668"></path><path d="M326.84,101.4c-1-.22-1.77-1.73-2.44-2.26-1.11-.9-.27-9.65-.27-9.65a4.12,4.12,0,0,1,.75-4.45c1.35-1.67,3.75-2,7.82-2.88,2-.44,4.4-.74,6.39-1.22A20.45,20.45,0,0,0,345,78.69a1.83,1.83,0,0,1,1.13-.36,1.1,1.1,0,0,1,.75.56,2,2,0,0,1,.22.94,3.45,3.45,0,0,1-.12,1c-.05.2-.41.8-.32,1,.23.4,1.78-.39,2.09-.5a.31.31,0,0,1,.23,0,.47.47,0,0,1,.14.14,3.89,3.89,0,0,1,0,3.35,11.28,11.28,0,0,1-5.39,5.13A15.46,15.46,0,0,1,336,91.41a15.09,15.09,0,0,1-3.33-.58A8.55,8.55,0,0,1,332,92a5,5,0,0,1-1,1,4.31,4.31,0,0,1-1.25.67c-.46.15-.91.12-1.15.64a2.41,2.41,0,0,0-.13,1.07l.09,3.19a5.4,5.4,0,0,1-.13,1.61,1.73,1.73,0,0,1-1,1.19A1,1,0,0,1,326.84,101.4Z" style="fill:#263238"></path><path d="M338.76,112.72s-5.54-.78-7.51-1.68a6.31,6.31,0,0,1-2.8-2.46,8.76,8.76,0,0,0,1.69,3c1.5,1.7,8.71,2.59,8.71,2.59Z" style="fill:#9a4a4d"></path><path d="M336.93,98.81a1.1,1.1,0,1,1-1.17-1.07A1.12,1.12,0,0,1,336.93,98.81Z" style="fill:#263238"></path><path d="M335.43,95.51l-2.34,1.71a1.51,1.51,0,0,1,.33-2.08A1.42,1.42,0,0,1,335.43,95.51Z" style="fill:#263238"></path><path d="M335.48,105.58l3.95,1.44a2.14,2.14,0,0,1-2.77,1.28A2,2,0,0,1,335.48,105.58Z" style="fill:#9a4a4d"></path><path d="M336.66,108.3a2.16,2.16,0,0,0,1,.12,1.86,1.86,0,0,0-1.92-1.48l-.28,0A2,2,0,0,0,336.66,108.3Z" style="fill:#f28f8f"></path><path d="M346.56,96l-2.39-1.27a1.3,1.3,0,0,1,1.79-.59A1.42,1.42,0,0,1,346.56,96Z" style="fill:#263238"></path><path d="M345.8,98.31a1.1,1.1,0,1,1-2.19.13,1.1,1.1,0,1,1,2.19-.13Z" style="fill:#263238"></path><polygon points="339.99 98.07 340.56 105.12 344.21 103.76 339.99 98.07" style="fill:#9a4a4d"></polygon><path d="M338.12,122.06c2.06-1.36,3.74,2.07,4.09,1.55s-1.74-8.73-3.34-9.16l.12,2.66A41.44,41.44,0,0,1,338.12,122.06Z" style="fill:#BA68C8"></path><path d="M338.12,122.06c2.06-1.36,3.74,2.07,4.09,1.55s-1.74-8.73-3.34-9.16l.12,2.66A41.44,41.44,0,0,1,338.12,122.06Z" style="fill:#fff;opacity:0.7000000000000001"></path><path d="M327,112.88l.08,1.2c.16.79,2.08,2.36,6,4.13s5,3.85,5,3.85a4.73,4.73,0,0,0-3.31.47c-1.64,1-3.26,3.59-4.12,3.57s-2.82-2-5-4.77a22.47,22.47,0,0,1-2.44-3.84S325.5,112.9,327,112.88Z" style="fill:#BA68C8"></path><path d="M327,112.88l.08,1.2c.16.79,2.08,2.36,6,4.13s5,3.85,5,3.85a4.73,4.73,0,0,0-3.31.47c-1.64,1-3.26,3.59-4.12,3.57s-2.82-2-5-4.77a22.47,22.47,0,0,1-2.44-3.84S325.5,112.9,327,112.88Z" style="fill:#fff;opacity:0.7000000000000001"></path><path d="M310.68,150.5A137.16,137.16,0,0,0,318,137.26c5.07-6.78,1.6-14.58-.25-17.58-7.13,1.06-8.3,3.86-10,7.7-2.45,5.41-7.65,16.71-9.53,21.46L285.64,141c-2.68-2.33-3.27-5.61-4.9-7.67s-3.5-2.65-5.36-4.4-2.54-3-3.29-1.68,1.28,3.94,1.62,4.56,2.48,2.14-.46,1.86-8.4-4-9.73-4.69-1.46,1-.89,2.14.21,4.21,1.18,6.1a8.45,8.45,0,0,0,4.25,4.39c2.45,1.4,7.8,2.45,10.34,4.47s8.49,7.35,13.46,11.43c5.41,4.45,9.16,6.69,12.44,2.44C306.72,156.76,308.47,153.88,310.68,150.5Z" style="fill:#b16668"></path><path d="M319.13,118.92c-5.86,1.67-9.3,2.42-11.55,7.31-2,4.27-9.57,22.09-9.57,22.09l-5.52-3.07c.11,2.69-2.28,7.19-5.38,8.21,0,0,6,5.83,9.18,7.65s4.85,2.94,8.2-1,15.64-24.18,15.64-24.18S324.36,129,319.13,118.92Z" style="fill:#BA68C8"></path><path d="M319.13,118.92c-5.86,1.67-9.3,2.42-11.55,7.31-2,4.27-9.57,22.09-9.57,22.09l-5.52-3.07c.11,2.69-2.28,7.19-5.38,8.21,0,0,6,5.83,9.18,7.65s4.85,2.94,8.2-1,15.64-24.18,15.64-24.18S324.36,129,319.13,118.92Z" style="opacity:0.1"></path><path d="M298,148.32c3,1.94,4.9,4.38,5.43,6,0,0,.05-3.37-4.78-7.5Z" style="opacity:0.1"></path><path d="M293.32,145.71s.08,5-5.34,8.58L284.21,151s3.64-1.75,4.93-7.82Z" style="fill:#BA68C8"></path><path d="M293.32,145.71s.08,5-5.34,8.58L284.21,151s3.64-1.75,4.93-7.82Z" style="fill:#fff;opacity:0.7000000000000001"></path></g></g></g><g id="freepik--character-2--inject-122"><g id="freepik--character--inject-122"><g id="freepik--bottom--inject-122"><path d="M271,373.19a10.21,10.21,0,0,0,.28,4.69c.87,2.47,2.71,3.59,3.79,4.57a18.76,18.76,0,0,1,3.15,3.81,16.19,16.19,0,0,0,3.28,4.11c1,.89,3.92,1,5.31.38s1.86-1.11,1.78-3.33-6.84-3-6.84-3Z" style="fill:#455a64"></path><path d="M287.72,380.78c.58.22.72,1.32.81,3.5.07,1.65.76,4.06-1.51,5.1a5.54,5.54,0,0,1-6-1.28c-1.55-1.93-2.59-3.64-4.79-6-1.92-2-3.91-2.75-4.76-6.85-.54-2.64-.12-3.73,1.66-4.49,2.44-1,6.28,2.36,8.19,2.9C283,374.11,287.15,380.56,287.72,380.78Z" style="fill:#BA68C8"></path><path d="M287.72,380.78c.58.22.72,1.32.81,3.5.07,1.65.76,4.06-1.51,5.1a5.54,5.54,0,0,1-6-1.28c-1.55-1.93-2.59-3.64-4.79-6-1.92-2-3.91-2.75-4.76-6.85-.54-2.64-.12-3.73,1.66-4.49,2.44-1,6.28,2.36,8.19,2.9C283,374.11,287.15,380.56,287.72,380.78Z" style="opacity:0.2"></path><path d="M281.32,373.65l-.32-.12a6.3,6.3,0,0,0-5.29,3.47c-.33.72.68,1.28,1.27.72a6.76,6.76,0,0,1,5.29-3.45A2.74,2.74,0,0,0,281.32,373.65Z" style="fill:#fafafa"></path><path d="M282.9,374.89a6.23,6.23,0,0,0-4.91,3.44c-.33.71.68,1.27,1.27.71a6.39,6.39,0,0,1,4.41-3.28C283.41,375.45,283.15,375.15,282.9,374.89Z" style="fill:#fafafa"></path><path d="M272.59,378.28s.19-4.89,6.8-5.57l.38.22a5.72,5.72,0,0,0-3.25-2.51,4.5,4.5,0,0,0-5.08,1.46C270.28,373.37,271.45,377.33,272.59,378.28Z" style="fill:#fafafa"></path><path d="M237.68,402.24a4.9,4.9,0,0,0-.07,2.62c.25.53,1.83,2.27,5,2.9s7.64,0,9.54-.11a89.28,89.28,0,0,1,9.77.87c3,.4,5.28-.25,6.4-1.33a2,2,0,0,0,.44-1.57,8.08,8.08,0,0,0-.31-2.13Z" style="fill:#455a64"></path><path d="M268,400.37c.06.24.12.49.16.74a12.67,12.67,0,0,1,.28,3.88,3.53,3.53,0,0,1-2.29,1.73,11.93,11.93,0,0,1-6.45.13,44.82,44.82,0,0,0-7.56-.47,47.36,47.36,0,0,1-6.62.33,15.82,15.82,0,0,1-4.87-1c-1.3-.56-2.64-1.28-3-2.63-.39-2.83.81-4.08,2.15-4.87s3.25-.73,5.29-.87c1.85-.12,3.2-.12,4.84-.25a23.06,23.06,0,0,0,4.22-.59c1.24-.39,2.51-2,3-2,0,0,8.22-.07,9,0s1.19,2.89,1.3,3.5.1,1,.23,1.45S267.92,400.06,268,400.37Z" style="fill:#BA68C8"></path><g style="opacity:0.2"><path d="M268,400.37c.06.24.12.49.16.74a12.67,12.67,0,0,1,.28,3.88,3.53,3.53,0,0,1-2.29,1.73,11.93,11.93,0,0,1-6.45.13,44.82,44.82,0,0,0-7.56-.47,47.36,47.36,0,0,1-6.62.33,15.82,15.82,0,0,1-4.87-1c-1.3-.56-2.64-1.28-3-2.63-.39-2.83.81-4.08,2.15-4.87s3.25-.73,5.29-.87c1.85-.12,3.2-.12,4.84-.25a23.06,23.06,0,0,0,4.22-.59c1.24-.39,2.51-2,3-2,0,0,8.22-.07,9,0s1.19,2.89,1.3,3.5.1,1,.23,1.45S267.92,400.06,268,400.37Z"></path></g><path d="M242.66,406.33c-.26-2-.6-6.46,3.16-9l.48,0a9.25,9.25,0,0,0-5.2,0c-3,.8-4.34,3.23-3.6,5.79C237.5,403.08,238.17,405.57,242.66,406.33Z" style="fill:#fafafa"></path><path d="M253.63,396.66a7.25,7.25,0,0,0-1.64,3.53c-.16.92-1.82,1.06-1.66.17a9.5,9.5,0,0,1,1.44-3.41A2.81,2.81,0,0,1,253.63,396.66Z" style="fill:#fafafa"></path><path d="M250.22,397.08a6,6,0,0,0-1.71,3.34c-.17.88-1.55.87-1.46,0a5.11,5.11,0,0,1,1.46-3.19A1.85,1.85,0,0,1,250.22,397.08Z" style="fill:#fafafa"></path><path d="M266.48,388.49s-.17,5-.46,6.69c-.18,1-1.58,2.45-4.95,2.33-2.37-.08-4-.89-4.14-1.74l-.33-6.19Z" style="fill:#ffbda7"></path><path d="M288.23,376.13l-.51,5.31a6.54,6.54,0,0,1-6.76.18c-.12-.25-.45-4.36-.45-4.36Z" style="fill:#ffbda7"></path><path d="M292.24,341.75c-.23-8.82-2.05-12.7-2.05-12.7s1.3-10.84,2.15-24.24c1.23-19.49-3.18-25.91-7.18-35.06,0,0-32.32-1.93-33.14,12.3-1.35,23.29,0,51,.49,57.22s.76,10.54,1.59,23.37c.65,10.06,2.52,30,2.52,30,4.54,2.45,9.86-.2,9.86-.2s4.13-33.37,3.84-40.58c-.36-8.81-.86-11.05-.86-11.05s2.94-20.94,3.56-25.54c0,0,.68,8.74,1.15,15s.83,7.42,2.15,20.35c1,10.15,4.07,27.83,4.07,27.83a9.67,9.67,0,0,0,7.84-.43S292.42,348.89,292.24,341.75Z" style="fill:#455a64"></path><path d="M272.92,315.93l1.8-15.19a26,26,0,0,0,10.44-3.95s-2.22,3.56-8.32,5.18l-2.67,13.91,0,13.94Z" style="fill:#37474f"></path></g><g id="freepik--top--inject-122"><path d="M281.79,230.25c5.73-.88,10.58,4.09,13.14,10.82s8.81,22.48,8.71,27.07c-.07,3.52-12.65,19.54-12.1,19.29.17-.08-6.67-8.43-6.67-8.43l7.05-12.62L287,256.16Z" style="fill:#ffbda7"></path><path d="M280.85,230.15c4.37-.58,6.81-.15,10.34,3.88s6.9,14,6.9,14-1.32,4.28-12.17,7.54c-.05-.42-6.17-13.87-6.17-13.87Z" style="fill:#455a64"></path><polygon points="265.27 224.56 266.89 239.74 278.47 238.29 277.53 223.59 265.27 224.56" style="fill:#ffbda7"></polygon><path d="M288.73,236.66c-1.27-3.48-3.5-6.51-7.88-6.51H278c-.1,3-6.06,4.67-11.78,2.82l-10.32,2.26s-5.1,1-5.68,15.63c-.71,17.8.5,50,.5,50s3-2.09,5.44-12.7c1.39,12.15,9.67,15.74,22.1,14.95,11.91-.76,14.25-8.22,15-13.66-.55-4.27-2.37-14.46-6.76-22.75C288.76,252,290.63,241.82,288.73,236.66Z" style="fill:#BA68C8"></path><path d="M288.73,236.66c-1.27-3.48-3.5-6.51-7.88-6.51H278c-.1,3-6.06,4.67-11.78,2.82l-10.32,2.26s-5.1,1-5.68,15.63c-.71,17.8.5,50,.5,50s3-2.09,5.44-12.7c1.39,12.15,9.67,15.74,22.1,14.95,11.91-.76,14.25-8.22,15-13.66-.55-4.27-2.37-14.46-6.76-22.75C288.76,252,290.63,241.82,288.73,236.66Z" style="fill:#fff;opacity:0.5"></path><path d="M255.52,236.27s-2.57-.71-9.23-.77c-7.13-.07-22-2.78-22-2.78s-11.53-13.95-11.91-15.19.82-2.93,1.46-3.87,1.93-3.08,2.42-3.62c.87-1-.91-1.34-2.32-.7s-2.69,2.51-3.33,2.66-2.57-5.65-3.51-8.45-1.19-4.58-2.75-4.24c-1.12.26-1.07,1.71-.51,4a25,25,0,0,1,.7,3c0,.38-.56.44-.82.53-.48.17-1.31.42-1.55.89a5.12,5.12,0,0,1-.38.78c-.41.51-1.25.49-1.7,1s-.35.88-.61,1.28-.43.45-.59.71a2.09,2.09,0,0,0-.05,1.75,14.87,14.87,0,0,0,3,5c1.06,1.33,2.28,2.56,3.35,4.1,1,1.38,6.86,14.27,10.81,19.38a5.83,5.83,0,0,0,3.39,2.57c4.53,1.21,28.93,5.37,28.93,5.37C256.29,249.82,258.86,239.66,255.52,236.27Z" style="fill:#ffbda7"></path><path d="M258.74,234.6c-5-.36-15,.63-22,.07,0,0,1.34,1.66.91,6.45a13.82,13.82,0,0,1-2.19,6.3s16.13,3.28,18.8,3.48c2.95-.53,4.67-2.44,5.68-5.08C262.92,238.21,258.74,234.6,258.74,234.6Z" style="fill:#455a64"></path><path d="M257.48,208.71a11.67,11.67,0,0,1-1.39-8.25,9.1,9.1,0,0,1,6.14-6.81,16.06,16.06,0,0,1,6.62,0c1.69.25,3.27.74,4.95,1s3.65.31,5.45.64c2.53.46,5.18,1.74,6.07,4.15a9.66,9.66,0,0,1-.08,5.14c-.62,3.08-1.23,6.15-2,9.19-.85,3.31-3,4.27-5.77,5.84-1.64.91-5.68,2.7-5.52,5.08,0-.56-1.76-1.92-2.12-2.32l-8.43-9.25c-1.09-1.2-2.34-2.36-3.34-3.65A7.83,7.83,0,0,1,257.48,208.71Z" style="fill:#263238"></path><path d="M256.93,211.24s-3,4.64-2.63,5a9.46,9.46,0,0,0,2.23,1.13Z" style="fill:#f0997a"></path><path d="M264.8,198.89c-2.51,1.29-6.84,3.69-7.95,12.92-1.14,9.48,1,12.77,2.27,14,.87.84,5.37,1.14,7.72.41,2.93-.91,9.3-4.06,12.28-8.95,3.5-5.76,4.23-13.43.17-16.43C273.59,196.62,266.92,197.79,264.8,198.89Z" style="fill:#ffbda7"></path><path d="M265.27,224.56l.21,1.95a12.92,12.92,0,0,1-6-.44,11.07,11.07,0,0,0,2.22-.21A14,14,0,0,0,265.27,224.56Z" style="fill:#f0997a"></path><path d="M264.62,210.07a9.39,9.39,0,0,1-5.82-7.75c-.78-6,6.82-8.4,6.82-8.4Z" style="fill:#263238"></path><path d="M264.06,199.28s-2.18,8.65.44,14.11c0,0,1.53-3.37,4.43-2.4s3.09,5,.66,6.87a3,3,0,0,1-3.81-.05,19.65,19.65,0,0,0,4.19,7.08s6.56,4.74,13.83-3.92c6.41-7.63,7.82-20.35-1.17-21.94C267.54,192.94,264.06,199.28,264.06,199.28Z" style="fill:#263238"></path><path d="M285.11,200.18c6.14-3,12.1.59,12.56,8.85.38,6.81-3.34,18.21-2.71,22.1a10.86,10.86,0,0,0,1.89,4.69,1,1,0,0,1-.69,1.61,4.34,4.34,0,0,1-3.19-1,7.25,7.25,0,0,0,2.19,4.59,1.24,1.24,0,0,1-.51,2.19,8.74,8.74,0,0,1-5.43-.75c-4.76-2.38-7.51-7.61-5.23-15.11s7.36-15.67,6.22-20.5-4.72-3.68-4.72-3.68Z" style="fill:#263238"></path></g></g></g><g id="freepik--character-1--inject-122"><g id="freepik--character--inject-122"><g id="freepik--bottom--inject-122"><path d="M218.33,408.09a.21.21,0,0,0-.36.12,9.09,9.09,0,0,0,.32,4.16c.85,2.43,2.67,3.54,3.73,4.5a18.18,18.18,0,0,1,3.1,3.76,16,16,0,0,0,3.24,4.05c1,.88,3.86.95,5.23.38s1.84-1.1,1.75-3.29c-.08-2-6-2.84-6.66-2.93a.23.23,0,0,1-.12-.06Z" style="fill:#37474f"></path><path d="M234.48,415.23c.57.22.71,1.3.8,3.44.06,1.63.75,4-1.49,5a5.46,5.46,0,0,1-5.91-1.25c-1.53-1.92-2.56-3.6-4.73-5.93-1.88-2-3.85-2.71-4.68-6.75-.54-2.6-.12-3.68,1.63-4.42,2.41-1,6.19,2.32,8.07,2.85C229.8,408.65,233.92,415,234.48,415.23Z" style="fill:#455a64"></path><path d="M219.26,412.43a.21.21,0,0,0,.37-.1c.22-1.19,1.32-4.51,6.64-5.05l.37.21a5.62,5.62,0,0,0-3.2-2.47,4.41,4.41,0,0,0-5,1.44C217.4,407.78,218.25,411.12,219.26,412.43Z" style="fill:#fafafa"></path><path d="M234.48,412l.05,4.28a.2.2,0,0,1-.09.17,6.71,6.71,0,0,1-6.65.31.22.22,0,0,1-.13-.15c-.11-.59-.86-3.93-.93-4.7a.2.2,0,0,1,.21-.22l7.33.11A.2.2,0,0,1,234.48,412Z" style="fill:#ffa8a7"></path><path d="M184.09,438.61a.23.23,0,0,0-.19.18c-.29,1.72.4,2.65,2.67,4a13.08,13.08,0,0,0,9.92.7c3.88-1.13,5.73-2.82,7.34-3.23s5.6-.43,7.19-.9,1.57-1.22,1.57-3a.22.22,0,0,0-.23-.21Z" style="fill:#37474f"></path><path d="M210.87,426.89a.21.21,0,0,1,.2.15c.17.53.77,2.44,1.12,4.15s.79,4.26.23,5.46-2.74,2-6.11,1.94c-2.19,0-5.6,1.47-7.93,2.77a12.09,12.09,0,0,1-7.57,1.05c-3-.35-6.12-2.09-6.61-3.33s-.61-2.18,6.47-5.2c.07,0,8.13-3,11.59-6.75a.17.17,0,0,1,.14-.06Z" style="fill:#455a64"></path><path d="M197.26,441.89a.2.2,0,0,0,.13-.22c-.14-1-1.06-6.09-5.53-7.66s-8.36,1.74-7.93,4.62C184.22,440.55,189.59,444.9,197.26,441.89Z" style="fill:#fafafa"></path><path d="M210.81,424a.21.21,0,0,1,.21.21v2.86c0,1.12-1.31,2.79-4.73,2.67-2.4-.09-4.07-.73-4-2.71v-2.65a.21.21,0,0,1,.21-.21Z" style="fill:#ffa8a7"></path><path d="M236.86,389.1c-.33-8-1.18-8.18-2.45-14.38v-.11c.15-.92-.16-1.09.09-8.9.16-4.95.74-11.29.68-17.64,0-5.12-.76-10.19-.92-14.95-9.77-.66-32.11-7.57-35.17,7.8,0,14.94-.2,25.83-.06,42.74s1.2,25.32,2.41,43.23a9.46,9.46,0,0,0,1.29,1c2.77,1,6.43,1.12,9.13-.64a.2.2,0,0,0,.09-.13c2-11.34,3-16.4,3.55-23.44.68-9-1-10.5-.54-17.25s2.76-23.68,2.76-23.68c1.06,8.25,3.44,19.57,5.2,28.81,1.59,8.35,2.47,13.48,4.07,23.71a.2.2,0,0,0,.12.16c2.29,1.07,5.74,1.23,7.92-.59a.2.2,0,0,0,.08-.12A129.44,129.44,0,0,0,236.86,389.1Z" style="fill:#BA68C8"></path><path d="M236.86,389.1c-.33-8-1.18-8.18-2.45-14.38v-.11c.15-.92-.16-1.09.09-8.9.16-4.95.74-11.29.68-17.64,0-5.12-.76-10.19-.92-14.95-9.77-.66-32.11-7.57-35.17,7.8,0,14.94-.2,25.83-.06,42.74s1.2,25.32,2.41,43.23a9.46,9.46,0,0,0,1.29,1c2.77,1,6.43,1.12,9.13-.64a.2.2,0,0,0,.09-.13c2-11.34,3-16.4,3.55-23.44.68-9-1-10.5-.54-17.25s2.76-23.68,2.76-23.68c1.06,8.25,3.44,19.57,5.2,28.81,1.59,8.35,2.47,13.48,4.07,23.71a.2.2,0,0,0,.12.16c2.29,1.07,5.74,1.23,7.92-.59a.2.2,0,0,0,.08-.12A129.44,129.44,0,0,0,236.86,389.1Z" style="opacity:0.2"></path><path d="M228.5,350.4a13.36,13.36,0,0,1-9.69,4.29l-1.09,8.1c.69,5.37,1.94,12,3.22,18.6l-1.68-17.69,1.79-7.23C228.19,353.85,228.5,350.4,228.5,350.4Z" style="opacity:0.1"></path></g><g id="freepik--top--inject-122"><path d="M227.77,292.14c3.9-.56,7.69,2.84,9.18,6.22s4.82,17.13,5.12,19.83c.34,3,.61,4.51-1.67,6.28a32.7,32.7,0,0,1-8.41,4.45Z" style="fill:#37474f"></path><path d="M234,298.06c-1.1-3.32-5.32-6.94-9.54-6.16-7.76,1.44-12.79,2.59-17.37,4.23-3.87,1.38-8.11.69-8.43,13.41,0,0,0,26.72,0,32.45,9.71,3.84,17.92,3.81,23.5,2.59,11.62-2.54,12.38-7.79,12.38-7.79s.95-13.62.61-22.83C234.81,306.14,234.71,300.35,234,298.06Z" style="fill:#455a64"></path><polygon points="209.57 287.54 210.82 299.42 221.47 299.43 220.23 285.98 209.57 287.54" style="fill:#ffa8a7"></polygon><path d="M207.05,296.13c.77-1.61,1.37-3.77,2.87-4.05,0,0,5.23.78,7.8-.29S221,289.5,221,289.5a3.58,3.58,0,0,1,3.82.69c1.56,1.65,6.2,4.39,7.42,9.24s2.21,13.81-3.39,15.54c-8.21,2.54-14.06-1.32-16-8.11C210.7,299.42,211.29,297.47,207.05,296.13Z" style="fill:#37474f"></path><path d="M213.47,296.74c1.34,1.85,2.76,9.85,5.95,13s10.1,2.37,11.36-.82c0,0-.24,4.07-5.12,4.55a10,10,0,0,1-10.38-7.73C214.06,301,214.23,298.9,213.47,296.74Z" style="fill:#263238"></path><path d="M202.21,273.75s-3,4.06-2.74,4.49,2.32.93,2.32.93Z" style="fill:#f28f8f"></path><path d="M210.48,264.49c-5.5-.27-7.82,2.16-8.8,10-1,8.19.16,11.45,1.33,12.63.78.8,5.38,1.23,7.74.81,2.94-.52,9.63-2.16,12.95-6.1,3.9-4.64,5.23-11.17,1.51-14.12C220,263.54,212.81,264.61,210.48,264.49Z" style="fill:#ffa8a7"></path><path d="M205.65,268.41c-.25,0-.74,1.38.29,2.37a2.47,2.47,0,0,0,2.58.28,5.51,5.51,0,0,0-.69,3.35c.24.84.83,1.27,1.83,1.73,0,0,1.07-3,4-2.42s3.11,3.88,1.15,5.76-3.64,1-3.64,1-.16,4.35,1.89,6.95a17,17,0,0,0,7.08.29c2.84-.35,5.38-3,7.38-6.06,4.17-6.42,6-13.24,1.1-15.43.64-2.68-.26-4.95-2.86-6.65a7.49,7.49,0,0,0-6.91-.54c-.16.07-.76-1.25-.82-1.35a4.76,4.76,0,0,0-1.78-1.47,7.5,7.5,0,0,0-3.25-.73,7.79,7.79,0,0,0-3.72.79A4.16,4.16,0,0,0,207,259c.05-.27-2.1-.36-2.28-.38a3.38,3.38,0,0,0-1.69.26,5.23,5.23,0,0,0-2.74,2.46,5.31,5.31,0,0,0-.43,3.35,4.84,4.84,0,0,0,.64,1.64A5.91,5.91,0,0,0,205.65,268.41Z" style="fill:#263238"></path><path d="M228.66,266.67l3.49-1.78a2,2,0,1,0-3.49,1.78Z" style="fill:#263238"></path><path d="M182.33,353.1c1.48-1.33,2.11-2.22,3.82-3.53a19.16,19.16,0,0,0,2.5-2.28c1.39-1.49,2.7-6.66,3.26-8.05l7.42,4.24c-.89,2.61-3.56,9.83-5.07,12.4-3.82,6.5-6.29,9-9.51,8.68-5.15-.44-5.68-2.88-2.89-5.81a18.17,18.17,0,0,0,3-4.09,8.94,8.94,0,0,1-2.3,1,1.78,1.78,0,0,1-2.2-1C180.24,354.35,181.17,354.14,182.33,353.1Z" style="fill:#ffa8a7"></path><path d="M202.42,297.84a19.17,19.17,0,0,1,3.45,6.7c.71,3.21,0,5.86-.31,12A101.84,101.84,0,0,1,204,331.85c-.7,3.38-6,15.44-6,15.44a14.78,14.78,0,0,1-8.27-2.32l4.25-15.4s.24-13.57.21-19.22C194.19,303.84,195.11,299.18,202.42,297.84Z" style="fill:#37474f"></path></g></g></g><g id="freepik--speech-bubble--inject-122"><g id="freepik--speech-bubble--inject-122"><g id="freepik--speech-bubble--inject-122"><path d="M335.82,68.56,333.39,64l2-5.64V54.89l-6,3.46V61.8l2.57,4.45a.37.37,0,0,0,.17.16h0Z" style="fill:#BA68C8"></path><path d="M335.82,68.56,333.39,64l2-5.64V54.89l-6,3.46V61.8l2.57,4.45a.37.37,0,0,0,.17.16h0Z" style="opacity:0.2"></path><path d="M351.3,34a4,4,0,0,0-1.79-3.1L348.05,30a4,4,0,0,0-3.59,0L315.93,46.5a4,4,0,0,0-1.8,3.1V67.09a4,4,0,0,0,1.8,3.11l1.46.84A3.9,3.9,0,0,0,321,71L333.12,64l2.57,4.44a.38.38,0,0,0,.69-.07l2.72-7.83,10.41-6a4,4,0,0,0,1.79-3.11Z" style="fill:#BA68C8"></path><path d="M314.13,67.09a4,4,0,0,0,1.8,3.11l1.46.84a4,4,0,0,0,3.28.15c-.85.32-1.49-.16-1.49-1.18V52.52a3.59,3.59,0,0,1,.53-1.77l-5-2.92a3.65,3.65,0,0,0-.53,1.77Z" style="opacity:0.2"></path><path d="M351.24,33.46c-.21-.76-.9-1-1.73-.52L321,49.41a3.63,3.63,0,0,0-1.26,1.34l-5-2.91a3.48,3.48,0,0,1,1.26-1.34L344.46,30a4,4,0,0,1,3.59,0l1.46.85A3.93,3.93,0,0,1,351.24,33.46Z" style="fill:#fff;opacity:0.4"></path></g><path d="M326.47,54.29a5.3,5.3,0,0,0-2.39,4.15c0,1.53,1.07,2.15,2.39,1.38a5.29,5.29,0,0,0,2.39-4.14C328.86,54.15,327.79,53.53,326.47,54.29Z" style="fill:#fff"></path><path d="M335.29,49.19a5.29,5.29,0,0,0-2.39,4.15c0,1.52,1.07,2.14,2.39,1.38a5.32,5.32,0,0,0,2.4-4.15C337.69,49.05,336.61,48.43,335.29,49.19Z" style="fill:#fff"></path><path d="M344.12,44.08a5.32,5.32,0,0,0-2.4,4.15c0,1.53,1.08,2.15,2.4,1.38a5.29,5.29,0,0,0,2.39-4.14C346.51,43.94,345.44,43.32,344.12,44.08Z" style="fill:#fff"></path></g></g></svg>