<svg xmlns="http://www.w3.org/2000/svg" viewBox="0 0 500 500"><g id="freepik--Floor--inject-33"><ellipse id="freepik--floor--inject-33" cx="250.23" cy="349.36" rx="243.48" ry="138.2" style="fill:#f5f5f5"></ellipse></g><g id="freepik--Shadows--inject-33"><ellipse id="freepik--Shadow--inject-33" cx="248.85" cy="386.94" rx="57.27" ry="33.07" style="fill:#e0e0e0"></ellipse><ellipse id="freepik--shadow--inject-33" cx="395.08" cy="386.94" rx="57.27" ry="33.07" style="fill:#e0e0e0"></ellipse><path id="freepik--shadow--inject-33" d="M263,348.49l-90.34-52.17a7.94,7.94,0,0,0-7.17,0l-4.54,2.62-4.54-2.62a7.94,7.94,0,0,0-7.17,0L25.76,367.55c-2,1.14-2,3,0,4.14l90.35,52.16a7.94,7.94,0,0,0,7.17,0l4.54-2.62,4.54,2.62a7.92,7.92,0,0,0,7.16,0L263,352.62C265,351.48,265,349.63,263,348.49Z" style="fill:#e0e0e0"></path></g><g id="freepik--Clouds--inject-33"><g id="freepik--clouds--inject-33"><path d="M359.4,40.32l3.41,1.14V35c0-5.16,4.75-6.39,9.9-3.82h0c5.15,2.58,9.33,8.85,9.33,14v1a5.62,5.62,0,0,1,4.33.58h0c3.71,1.85,6.72,6.36,6.72,10.07v.43l4.75,2.38a8.31,8.31,0,0,1,4.43,6.63c0,2.44-2,3.43-4.43,2.21L359.4,49.17A8.32,8.32,0,0,1,355,42.53C355,40.09,357,39.1,359.4,40.32Z" style="fill:#ebebeb"></path><path d="M409.26,45l6.18,3.09a5.78,5.78,0,0,1-.05-.71V45.81c0-2.76,2.24-3.87,5-2.5a9.34,9.34,0,0,1,3,2.48c.46-3.46,3.6-4.76,7.41-2.85,4.13,2.07,7.48,7.08,7.48,11.21v2.32a5.38,5.38,0,0,1-.64,2.69l5.14,2.56a5.23,5.23,0,0,1,2.77,4.16c0,1.53-1.24,2.15-2.77,1.38L409.26,50.52a5.2,5.2,0,0,1-2.77-4.15C406.49,44.84,407.73,44.22,409.26,45Z" style="fill:#ebebeb"></path></g></g><g id="freepik--Plane--inject-33"><g id="freepik--plane--inject-33"><path d="M135.47,58,104.65,43.4l1.36-.71,29.36,5.84L138.32,47a2.14,2.14,0,0,1,1.94.08c.53.33.52.84,0,1.12l-1.8,1,10.12,2.11Z" style="fill:#BA68C8"></path><g style="opacity:0.1"><path d="M135.47,58,104.65,43.4l1.36-.71,29.36,5.84L138.32,47a2.14,2.14,0,0,1,1.94.08c.53.33.52.84,0,1.12l-1.8,1,10.12,2.11Z"></path></g><path d="M144.09,50.26C158,43,169.23,38.85,172.62,41s-4.75,8.23-18.57,15.56l-12.23,5.92C129.57,68,117,72.7,117,72.7l.57,8.47-1.22.65-5.5-6.11s-3.08,1.47-4.79.39,1.09-2.72,1.09-2.72L97.07,69.69,98.29,69l14.59,1.08s9.31-6.81,19.9-13.36Z" style="fill:#BA68C8"></path><path d="M159.23,60.14l-2.95,1.56,7.5,17.38-1.36.71-20.6-17.33,12.23-5.92,1.45,3.35,1.81-1a2.14,2.14,0,0,1,1.94.08C159.78,59.35,159.77,59.86,159.23,60.14Z" style="fill:#BA68C8"></path><g style="opacity:0.1"><path d="M159.23,60.14l-2.95,1.56,7.5,17.38-1.36.71L139.14,60.25l13.51-6.88,2.85,6.52,1.81-1a2.14,2.14,0,0,1,1.94.08C159.78,59.35,159.77,59.86,159.23,60.14Z"></path></g><path d="M99.4,79.32l-.46-.89,1.34-.68.45.89Z" style="fill:#e0e0e0"></path><path d="M79.89,200.2c-.81-.58-1.6-1.17-2.37-1.78l.62-.79c.76.6,1.54,1.19,2.33,1.76Zm-4.66-3.66c-.74-.64-1.48-1.31-2.2-2l.68-.72c.71.66,1.44,1.32,2.17,1.95Zm-4.31-4.07c-.68-.7-1.36-1.43-2-2.17l.75-.67c.65.73,1.31,1.45,2,2.15ZM67,188c-.62-.78-1.23-1.57-1.8-2.36l.81-.59c.56.78,1.16,1.56,1.77,2.32Zm-3.48-4.81c-.54-.82-1.07-1.67-1.56-2.52l.86-.5c.49.83,1,1.67,1.53,2.48Zm-3-5.11c-.45-.87-.89-1.76-1.31-2.66l.91-.42c.41.88.84,1.76,1.29,2.62ZM58,172.73c-.36-.91-.72-1.85-1-2.77l.94-.33c.32.91.67,1.83,1,2.73Zm-2-5.6c-.28-.95-.54-1.91-.78-2.86l1-.24c.24.94.49,1.88.77,2.82Zm-1.42-5.75c-.19-1-.36-1.95-.5-2.93l1-.14c.14,1,.31,1.92.5,2.87Zm-.87-5.87c-.1-1-.18-2-.24-3l1-.05c.06,1,.13,1.94.23,2.91Zm-.34-5.92c0-.3,0-.6,0-.89q0-1,0-2.07l1,0q0,1,0,2c0,.29,0,.58,0,.88Zm1.18-5.85-1-.08c.07-1,.16-2,.28-2.95l1,.11C54.79,141.8,54.7,142.77,54.63,143.74Zm.67-5.81-1-.16c.16-1,.33-2,.53-2.92l1,.19C55.62,136,55.45,137,55.3,137.93Zm1.15-5.74-1-.24c.23-1,.49-1.91.76-2.87l1,.28C56.93,130.3,56.68,131.24,56.45,132.19Zm1.61-5.63-1-.32q.47-1.39,1-2.79l.93.35C58.69,124.71,58.37,125.64,58.06,126.56Zm2-5.48-.92-.39c.38-.91.78-1.81,1.19-2.71l.91.42C60.88,119.29,60.49,120.18,60.11,121.08Zm2.46-5.31-.89-.45c.44-.88.91-1.75,1.39-2.61l.87.48C63.47,114.05,63,114.91,62.57,115.77Zm2.85-5.1-.86-.52c.51-.84,1-1.68,1.58-2.5l.84.55C66.44,109,65.92,109.84,65.42,110.67Zm3.21-4.89-.81-.58c.57-.8,1.16-1.59,1.76-2.38l.79.61C69.78,104.21,69.2,105,68.63,105.78Zm3.56-4.64-.77-.63c.63-.76,1.27-1.51,1.93-2.25l.74.66C73.44,99.65,72.81,100.4,72.19,101.14Zm3.88-4.37-.72-.69c.67-.71,1.37-1.42,2.08-2.11l.69.71C77.43,95.37,76.74,96.06,76.07,96.77Zm4.18-4.1-.68-.74c.72-.66,1.46-1.31,2.22-2l.65.76C81.69,91.37,81,92,80.25,92.67Zm4.44-3.8-.62-.78c.77-.62,1.55-1.22,2.34-1.81l.6.8C86.22,87.67,85.45,88.26,84.69,88.87Zm4.69-3.5-.57-.82q1.22-.84,2.46-1.65l.54.84C91,84.27,90.18,84.82,89.38,85.37Zm4.91-3.18-.52-.86c.84-.51,1.7-1,2.56-1.49l.49.88C96,81.2,95.12,81.69,94.29,82.19Z" style="fill:#e0e0e0"></path><path d="M83.61,202.7l-1.27-.81.55-.84,1.25.8Z" style="fill:#e0e0e0"></path><path d="M73.46,115.88l-.89-.46c.23-.46.48-.91.72-1.34l.87.5C73.92,115,73.69,115.43,73.46,115.88Z" style="fill:#e0e0e0"></path><path d="M98.61,187.77c-.88-.52-1.74-1-2.58-1.57l.54-.85c.82.53,1.67,1,2.54,1.55Zm-5.1-3.24c-.84-.58-1.65-1.17-2.44-1.77l.6-.8c.78.59,1.58,1.18,2.41,1.75Zm-4.81-3.64c-.78-.65-1.55-1.31-2.29-2l.67-.74c.73.66,1.49,1.31,2.25,2Zm-4.48-4.06c-.71-.72-1.41-1.45-2.08-2.19l.74-.67c.66.72,1.35,1.45,2.05,2.15Zm-4.06-4.48c-.64-.79-1.27-1.6-1.85-2.4l.8-.59c.58.79,1.19,1.58,1.83,2.35Zm-3.58-4.88c-.55-.85-1.09-1.72-1.58-2.58l.86-.5c.49.84,1,1.7,1.56,2.53Zm-3-5.24c-.45-.9-.89-1.82-1.29-2.74l.92-.4c.39.9.82,1.8,1.26,2.69Zm-2.43-5.54c-.35-.94-.68-1.91-1-2.87l1-.3q.44,1.42,1,2.82Zm-1.8-5.78c-.24-1-.46-2-.66-3l1-.19c.18,1,.4,2,.64,2.9ZM68.17,145c-.13-1-.24-2-.32-3l1-.08c.08,1,.19,2,.32,3Zm-.49-6c0-.49,0-1,0-1.47s0-1,0-1.56l1,0c0,.51,0,1,0,1.53s0,1,0,1.44Zm1.17-6-1-.08c.09-1,.2-2,.34-3l1,.14C69,131,68.93,132,68.85,133Zm.82-5.88-1-.2c.2-1,.43-2,.68-2.95l1,.25C70.09,125.13,69.87,126.11,69.67,127.08Zm1.52-5.74-1-.32c.32-1,.68-1.93,1.06-2.84l.92.38C71.85,119.45,71.51,120.38,71.19,121.34Z" style="fill:#e0e0e0"></path><path d="M102.62,190l-1.34-.7.48-.88,1.32.69Z" style="fill:#e0e0e0"></path></g></g><g id="freepik--Plant--inject-33"><g id="freepik--Plants--inject-33"><path d="M460.52,305.75l-20.69,9,18.55-3.22a32,32,0,0,1-6,12.63s-12.49,3.35-19.82,8l16.13-1.86a17.23,17.23,0,0,1-2,7.86c-.16.33-.34.67-.53,1-1.27,2.28-3.3,6.66-6.3,11.74,0,0,0,0,0,0A80.37,80.37,0,0,1,431,363.44a55.64,55.64,0,0,1-5.37,5.38c-.11.11-.23.21-.35.31q-3.69-3.63-7.75-7.22c-.89-4.82-.73-16.11.62-25,5.18-34.13,35.31-46.45,57.17-47.45C475.27,289.44,466,296.28,460.52,305.75Z" style="fill:#BA68C8"></path><path d="M460.52,305.75l-20.69,9,18.55-3.22a32,32,0,0,1-6,12.63s-12.49,3.35-19.82,8l16.13-1.86a17.23,17.23,0,0,1-2,7.86c-.16.33-.34.67-.53,1-1.27,2.28-3.3,6.66-6.3,11.74,0,0,0,0,0,0A80.37,80.37,0,0,1,431,363.44a55.64,55.64,0,0,1-5.37,5.38c-.11.11-.23.21-.35.31q-3.69-3.63-7.75-7.22c-.89-4.82-.73-16.11.62-25,5.18-34.13,35.31-46.45,57.17-47.45C475.27,289.44,466,296.28,460.52,305.75Z" style="opacity:0.25"></path><path d="M487.34,333.28l0,0c-.65.32-11.31,5.78-23.19,20.68l-17.64,1.47L459.11,360l-8.93,9.86-18,.56L445.35,375s-7,8.64-17.26,11.9q-3.3-2.61-6.85-5.15c-.72-.51-1.46-1-2.21-1.53,0-.19,0-.39,0-.59h0A43.14,43.14,0,0,1,427.48,353a35.39,35.39,0,0,1,7-7.21C449.84,333.66,475.36,331,487.34,333.28Z" style="fill:#BA68C8"></path><path d="M487.34,333.28l0,0c-.52.44-9.16,7.7-22.66,22.39l-18.17-.24L459.11,360l-8.93,9.86-18,.56L445.35,375s-7,8.64-17.26,11.9q-3.3-2.61-6.85-5.15c-.72-.51-1.46-1-2.21-1.53,0-.19,0-.39,0-.59h0A43.14,43.14,0,0,1,427.48,353a35.39,35.39,0,0,1,7-7.21C449.84,333.66,475.36,331,487.34,333.28Z" style="fill:#BA68C8"></path><path d="M487.34,333.28c-19-.21-41,8.6-53.25,21.17a37,37,0,0,0-4.1,5h0v0a53.9,53.9,0,0,0-6.61,13.9,0,0,0,0,1,0,0h0a74.88,74.88,0,0,0-2.11,8.33c-.72-.51-1.46-1-2.21-1.53,0-.19,0-.39,0-.59h0A43.14,43.14,0,0,1,427.48,353a35.39,35.39,0,0,1,7-7.21C449.84,333.66,475.36,331,487.34,333.28Z" style="opacity:0.1"></path></g></g><g id="freepik--Suitcases--inject-33"><g id="freepik--suitcases--inject-33"><g id="freepik--Suitcase--inject-33"><path d="M245.14,349.83l-115.36,66.6a7.16,7.16,0,0,1-6.5,0L41.43,369.17a7.15,7.15,0,0,1-3.25-5.62V320.6A7.15,7.15,0,0,1,41.43,315l115.36-66.61a7.16,7.16,0,0,1,6.5,0l81.85,47.26a7.17,7.17,0,0,1,3.25,5.62V344.2A7.21,7.21,0,0,1,245.14,349.83Z" style="fill:#BA68C8"></path><path d="M126.53,366.76V417.2a6.51,6.51,0,0,1-3.25-.77L41.42,369.17a7.18,7.18,0,0,1-3.24-5.63V320.6a7.23,7.23,0,0,1,2.65-5.21c-1.18,1-1,2.43.58,3.34L123.27,366A6.66,6.66,0,0,0,126.53,366.76Z" style="opacity:0.4"></path><path d="M248.39,301.25V344.2a7.17,7.17,0,0,1-3.25,5.62L129.77,416.43a6.58,6.58,0,0,1-3.24.77V366.76a6.57,6.57,0,0,0,3.23-.78l115.37-66.6c1.67-1,1.78-2.49.34-3.54A7.23,7.23,0,0,1,248.39,301.25Z" style="opacity:0.2"></path><path d="M41.42,315l115.36-66.61a7.16,7.16,0,0,1,6.5,0l81.85,47.26c1.8,1,1.8,2.71,0,3.75L129.77,366a7.22,7.22,0,0,1-6.5,0L41.42,318.73C39.62,317.69,39.62,316,41.42,315Z" style="fill:#BA68C8"></path><path d="M41.42,315l115.36-66.61a7.16,7.16,0,0,1,6.5,0l81.85,47.26c1.8,1,1.8,2.71,0,3.75L129.77,366a7.22,7.22,0,0,1-6.5,0L41.42,318.73C39.62,317.69,39.62,316,41.42,315Z" style="opacity:0.30000000000000004"></path><path d="M38.18,339.14l86.63,50a3.48,3.48,0,0,0,3.45,0L248.4,319.8v4.69L128.26,393.85a3.48,3.48,0,0,1-3.45,0l-86.63-50Z" style="opacity:0.1"></path><path d="M111.11,358.94c0-.05,0-.09,0-.14a39.53,39.53,0,0,1,30.88,0c0,.05,0,.09,0,.14l-12.19,7a6.57,6.57,0,0,1-3.23.78,6.66,6.66,0,0,1-3.26-.78l-12.16-7" style="fill:#455a64"></path><path d="M245.13,295.65l-10.39-6c-7.41,4.34-7.39,11.32.08,15.64l.07,0,10.24-5.9C246.93,298.36,246.93,296.68,245.13,295.65Z" style="fill:#455a64"></path><path d="M41.45,315l10.39-6c7.42,4.34,7.39,11.32-.08,15.64l-.07,0-10.24-5.9C39.66,317.67,39.66,316,41.45,315Z" style="fill:#455a64"></path><path d="M174.6,254.91l-11.32-6.54a7.16,7.16,0,0,0-6.5,0l-11.16,6.44c.32.21.63.43,1,.63,7.5,4.33,19.67,4.33,27.17,0C174.07,255.27,174.33,255.09,174.6,254.91Z" style="fill:#455a64"></path><path d="M142,358.94c-1.13,9.4-7.38,17.69-15.42,23.31V366.76a6.57,6.57,0,0,0,3.23-.78Z" style="fill:#37474f"></path><path d="M245.13,299.38l-10.3,5.95c0,8.61,6.09,11.09,13.57,6.77V301.24a7.17,7.17,0,0,0-3.25-5.62l-.73-.43,0,0,.73.42C246.92,296.66,246.92,298.34,245.13,299.38Z" style="fill:#37474f"></path><path d="M248.39,344.2V332.09c-7.49,4.34-13.57,14.86-13.57,23.52,0,.05,0,.11,0,.16l10.69-6.21A7.25,7.25,0,0,0,248.39,344.2Z" style="fill:#37474f"></path><path d="M140.12,410.45c0-8.62-6.1-12.1-13.59-7.78h0v14.54a6.57,6.57,0,0,0,3.23-.78Z" style="fill:#37474f"></path><path d="M126.53,366.76v15.49c-8.06-5.66-14.29-13.93-15.42-23.31l12.19,7A6.57,6.57,0,0,0,126.53,366.76Z" style="fill:#263238"></path><path d="M113,410.45l10.35,6a6.57,6.57,0,0,0,3.23.78V402.67C119.05,398.35,113,401.83,113,410.45Z" style="fill:#263238"></path><path d="M38.57,351.84c-.13-.08-.26-.13-.39-.2v11.93A7.23,7.23,0,0,0,41,368.93l11.11,6.45h0C52.15,366.71,46.07,356.17,38.57,351.84Z" style="fill:#263238"></path><path d="M41.45,318.69l10.31,5.95c0,8.61-6.1,12.1-13.58,7.79V320.55a7.17,7.17,0,0,1,3.28-5.6h0C39.67,316,39.66,317.65,41.45,318.69Z" style="fill:#263238"></path><path d="M158.17,367.2l-6.4,3.69a1.9,1.9,0,0,0-.86,1.5v12.07a1.94,1.94,0,0,0,.86,1.5l.58.33a1.89,1.89,0,0,0,1.73,0l6.39-3.69a1.89,1.89,0,0,0,.87-1.5V369a1.94,1.94,0,0,0-.86-1.5l-.58-.33A1.89,1.89,0,0,0,158.17,367.2Z" style="fill:#BA68C8"></path><path d="M158.17,367.2l-6.4,3.69a1.9,1.9,0,0,0-.86,1.5v12.07a1.94,1.94,0,0,0,.86,1.5l.58.33a1.89,1.89,0,0,0,1.73,0l6.39-3.69a1.89,1.89,0,0,0,.87-1.5V369a1.94,1.94,0,0,0-.86-1.5l-.58-.33A1.89,1.89,0,0,0,158.17,367.2Z" style="fill:#fff;opacity:0.5"></path><path d="M153.88,386.38a1.89,1.89,0,0,1-1.53-.09l-.58-.33a1.92,1.92,0,0,1-.87-1.5V372.39a1.84,1.84,0,0,1,.27-.88l2.3,1.35a1.75,1.75,0,0,0-.26.86v12.07C153.21,386.27,153.49,386.5,153.88,386.38Z" style="opacity:0.1"></path><path d="M153.88,386.38a1.89,1.89,0,0,1-1.53-.09l-.58-.33a1.92,1.92,0,0,1-.87-1.5V372.39a1.84,1.84,0,0,1,.27-.88l2.3,1.35a1.75,1.75,0,0,0-.26.86v12.07C153.21,386.27,153.49,386.5,153.88,386.38Z" style="fill:#BA68C8;opacity:0.1"></path><path d="M153.22,373.72v12.07c0,.56.39.78.86.5l6.39-3.69a1.89,1.89,0,0,0,.87-1.5V369c0-.55-.39-.77-.86-.5l-6.4,3.69A1.91,1.91,0,0,0,153.22,373.72Z" style="fill:#BA68C8"></path><path d="M153.22,373.72v12.07c0,.56.39.78.86.5l6.39-3.69a1.89,1.89,0,0,0,.87-1.5V369c0-.55-.39-.77-.86-.5l-6.4,3.69A1.91,1.91,0,0,0,153.22,373.72Z" style="fill:#fff;opacity:0.2"></path><path d="M223.16,329.67l-6.4,3.69a1.94,1.94,0,0,0-.86,1.5v12.07a1.91,1.91,0,0,0,.87,1.5l.57.34a2,2,0,0,0,1.74,0l6.39-3.69a1.94,1.94,0,0,0,.86-1.5V331.5a1.91,1.91,0,0,0-.86-1.5l-.58-.33A1.89,1.89,0,0,0,223.16,329.67Z" style="fill:#BA68C8"></path><path d="M223.16,329.67l-6.4,3.69a1.94,1.94,0,0,0-.86,1.5v12.07a1.91,1.91,0,0,0,.87,1.5l.57.34a2,2,0,0,0,1.74,0l6.39-3.69a1.94,1.94,0,0,0,.86-1.5V331.5a1.91,1.91,0,0,0-.86-1.5l-.58-.33A1.89,1.89,0,0,0,223.16,329.67Z" style="fill:#fff;opacity:0.5"></path><path d="M218.87,348.85a1.89,1.89,0,0,1-1.53-.09l-.58-.33a1.91,1.91,0,0,1-.86-1.5V334.86a1.64,1.64,0,0,1,.25-.86l2.31,1.33h0a1.7,1.7,0,0,0-.25.85v12.07C218.21,348.74,218.49,349,218.87,348.85Z" style="opacity:0.1"></path><path d="M218.87,348.85a1.89,1.89,0,0,1-1.53-.09l-.58-.33a1.91,1.91,0,0,1-.86-1.5V334.86a1.64,1.64,0,0,1,.25-.86l2.31,1.33h0a1.7,1.7,0,0,0-.25.85v12.07C218.21,348.74,218.49,349,218.87,348.85Z" style="fill:#BA68C8;opacity:0.1"></path><path d="M218.21,336.19v12.08c0,.55.39.77.87.5l6.39-3.69a1.91,1.91,0,0,0,.86-1.5V331.5c0-.55-.38-.77-.86-.5l-6.4,3.69A1.94,1.94,0,0,0,218.21,336.19Z" style="fill:#BA68C8"></path><path d="M218.21,336.19v12.08c0,.55.39.77.87.5l6.39-3.69a1.91,1.91,0,0,0,.86-1.5V331.5c0-.55-.38-.77-.86-.5l-6.4,3.69A1.94,1.94,0,0,0,218.21,336.19Z" style="fill:#fff;opacity:0.2"></path><path d="M176.75,373v4.89a1.28,1.28,0,0,1-.57,1l-6.92,4a1.23,1.23,0,0,1-1.15,0l-.38-.22a1.25,1.25,0,0,1-.58-1v-4.88a1.28,1.28,0,0,1,.58-1l6.92-4a1.27,1.27,0,0,1,1.14,0l.39.22A1.28,1.28,0,0,1,176.75,373Z" style="fill:#263238"></path><path d="M176.18,378.89l-6.92,4c-.32.19-.58,0-.58-.33v-4.88a1.25,1.25,0,0,1,.58-1l6.92-4c.31-.18.57,0,.57.33v4.89A1.28,1.28,0,0,1,176.18,378.89Z" style="fill:#37474f"></path><path d="M211.84,352.71v4.88a1.25,1.25,0,0,1-.58,1l-6.92,4a1.27,1.27,0,0,1-1.14,0l-.38-.22a1.28,1.28,0,0,1-.58-1v-4.88a1.25,1.25,0,0,1,.58-1l6.91-4a1.29,1.29,0,0,1,1.15,0l.38.22A1.28,1.28,0,0,1,211.84,352.71Z" style="fill:#263238"></path><path d="M211.26,358.64l-6.92,4c-.31.18-.57,0-.57-.33v-4.89a1.28,1.28,0,0,1,.57-1l6.92-4c.32-.18.58,0,.58.33v4.89A1.26,1.26,0,0,1,211.26,358.64Z" style="fill:#37474f"></path><path d="M209.81,356.14l-4.09,2.36h0v2l2.27,1.31v2.32a5.76,5.76,0,0,1-2.59,4.51l-26,15a2.78,2.78,0,0,1-.69.28,2.61,2.61,0,0,1-.1-.72v-4.4l-1.81-1.05h0l-2.26-1.3-4.07,2.34v2l2.28,1.31v4a2.63,2.63,0,0,0,1,2.23c.36.26,1.74,1,2,1.2,1.51.9,4.27.49,7.45-1.34l22-12.72c4.78-2.76,8.66-7.71,8.66-11v-6Z" style="fill:#263238"></path><path d="M174.53,387.27c0,3.33,3.87,3.79,8.66,1l22-12.72c4.78-2.76,8.66-7.71,8.66-11v-6l-4-2.36-4.09,2.36,4.09,2.36v4.37a5.74,5.74,0,0,1-2.59,4.5l-26,15c-1.44.83-2.6.16-2.6-1.5v-4.4l-4.08-2.35-4.07,2.34,4.09,2.36Z" style="fill:#37474f"></path><polygon points="209.81 356.14 205.73 358.51 209.82 360.86 213.85 358.5 209.81 356.14" style="fill:#455a64"></polygon><polygon points="174.51 376.53 170.44 378.87 174.53 381.23 178.59 378.88 174.51 376.53" style="fill:#455a64"></polygon></g><path id="freepik--shadow--inject-33" d="M121.48,364.93l-83.3-48.21v46.82A7.25,7.25,0,0,0,41,368.85l65.5,37.58Z" style="opacity:0.15"></path><path id="freepik--shadow--inject-33" d="M236.77,294.62l-80.05-46.21L41.42,315c-1.8,1-1.8,2.71,0,3.75l80.05,46.21,115.3-66.57C238.56,297.34,238.56,295.66,236.77,294.62Z" style="opacity:0.15"></path><g id="freepik--suitcase--inject-33"><path d="M227.2,298.69,111.84,365.3a7.22,7.22,0,0,1-6.5,0L23.49,318a7.21,7.21,0,0,1-3.25-5.63V269.47a7.19,7.19,0,0,1,3.25-5.63l115.36-66.61a7.22,7.22,0,0,1,6.5,0l81.85,47.26a7.18,7.18,0,0,1,3.25,5.63v42.95A7.15,7.15,0,0,1,227.2,298.69Z" style="fill:#BA68C8"></path><path d="M108.6,315.63v50.44a6.51,6.51,0,0,1-3.25-.77L23.49,318a7.18,7.18,0,0,1-3.24-5.63V269.47a7.23,7.23,0,0,1,2.65-5.21c-1.18,1-1,2.43.58,3.34l81.86,47.25A6.66,6.66,0,0,0,108.6,315.63Z" style="fill:#fff;opacity:0.45"></path><path d="M108.6,315.63v50.44a6.51,6.51,0,0,1-3.25-.77L23.49,318a7.18,7.18,0,0,1-3.24-5.63V269.47a7.23,7.23,0,0,1,2.65-5.21c-1.18,1-1,2.43.58,3.34l81.86,47.25A6.66,6.66,0,0,0,108.6,315.63Z" style="opacity:0.1"></path><path d="M230.46,250.12v42.95a7.17,7.17,0,0,1-3.25,5.62L111.84,365.3a6.58,6.58,0,0,1-3.24.77V315.63a6.57,6.57,0,0,0,3.23-.78l115.37-66.6c1.67-1,1.78-2.49.34-3.54A7.23,7.23,0,0,1,230.46,250.12Z" style="fill:#fff;opacity:0.55"></path><path d="M23.48,263.84l115.37-66.61a7.2,7.2,0,0,1,6.49,0l81.86,47.26c1.79,1,1.79,2.72,0,3.75L111.83,314.85a7.14,7.14,0,0,1-6.49,0L23.48,267.59C21.69,266.56,21.69,264.88,23.48,263.84Z" style="fill:#BA68C8"></path><path d="M23.48,263.84l115.37-66.61a7.2,7.2,0,0,1,6.49,0l81.86,47.26c1.79,1,1.79,2.72,0,3.75L111.83,314.85a7.14,7.14,0,0,1-6.49,0L23.48,267.59C21.69,266.56,21.69,264.88,23.48,263.84Z" style="fill:#fff;opacity:0.65"></path><path d="M31.53,267a.59.59,0,0,1-.25-.07l-2.05-1.18,2.05-1.19a.5.5,0,0,1,.5.87l-.55.32.55.31a.51.51,0,0,1,.18.69A.5.5,0,0,1,31.53,267Z" style="fill:#fff"></path><path d="M34.1,264a.5.5,0,0,1-.25-.93l2.57-1.48a.5.5,0,1,1,.5.86l-2.57,1.49A.57.57,0,0,1,34.1,264Zm5.13-3a.5.5,0,0,1-.25-.93l2.57-1.49a.5.5,0,0,1,.5.87L39.48,261A.43.43,0,0,1,39.23,261Zm5.14-3a.5.5,0,0,1-.25-.93l2.57-1.48a.5.5,0,1,1,.5.86L44.62,258A.57.57,0,0,1,44.37,258.05Zm5.13-3a.5.5,0,0,1-.25-.93l2.57-1.49a.5.5,0,0,1,.5.87L49.75,255A.43.43,0,0,1,49.5,255.09Zm5.14-3a.5.5,0,0,1-.25-.93L57,249.71a.5.5,0,1,1,.5.86l-2.57,1.49A.57.57,0,0,1,54.64,252.12Zm5.13-3a.5.5,0,0,1-.43-.25.5.5,0,0,1,.18-.68l2.57-1.49a.5.5,0,1,1,.5.87L60,249.09A.43.43,0,0,1,59.77,249.16Zm5.14-3a.5.5,0,0,1-.43-.25.51.51,0,0,1,.18-.69l2.57-1.48a.49.49,0,0,1,.68.18.51.51,0,0,1-.18.69l-2.57,1.48A.59.59,0,0,1,64.91,246.2Zm151.67-1.57a.54.54,0,0,1-.25-.06l-2.57-1.49a.5.5,0,1,1,.5-.86l2.57,1.48a.5.5,0,0,1-.25.93ZM70,243.23a.5.5,0,0,1-.43-.25.5.5,0,0,1,.18-.68l2.57-1.48a.5.5,0,0,1,.5.86l-2.57,1.48A.43.43,0,0,1,70,243.23Zm141.4-1.56a.47.47,0,0,1-.25-.07l-2.57-1.48a.49.49,0,0,1-.18-.68.51.51,0,0,1,.68-.19l2.57,1.49a.5.5,0,0,1-.25.93Zm-136.26-1.4a.5.5,0,0,1-.43-.25.51.51,0,0,1,.18-.69l2.57-1.48a.49.49,0,0,1,.68.18.51.51,0,0,1-.18.69l-2.57,1.48A.59.59,0,0,1,75.18,240.27Zm131.13-1.57a.51.51,0,0,1-.25-.06l-2.57-1.48a.51.51,0,0,1-.18-.69.49.49,0,0,1,.68-.18l2.57,1.48a.5.5,0,0,1,.18.68A.48.48,0,0,1,206.31,238.7Zm-126-1.4a.5.5,0,0,1-.25-.93l2.56-1.48a.5.5,0,1,1,.5.86l-2.56,1.48A.47.47,0,0,1,80.32,237.3Zm120.85-1.56a.47.47,0,0,1-.25-.07l-2.57-1.48a.49.49,0,0,1-.18-.68.51.51,0,0,1,.68-.19l2.57,1.49a.5.5,0,0,1-.25.93Zm-115.72-1.4a.5.5,0,0,1-.43-.25.51.51,0,0,1,.18-.69l2.57-1.48a.49.49,0,0,1,.68.18.51.51,0,0,1-.18.69l-2.57,1.48A.55.55,0,0,1,85.45,234.34ZM196,232.78a.55.55,0,0,1-.25-.07l-2.57-1.48a.51.51,0,0,1-.18-.69.49.49,0,0,1,.68-.18l2.57,1.48a.51.51,0,0,1,.18.69A.5.5,0,0,1,196,232.78ZM90.58,231.37a.5.5,0,0,1-.43-.25.5.5,0,0,1,.18-.68L92.9,229a.5.5,0,1,1,.5.86l-2.57,1.48A.43.43,0,0,1,90.58,231.37Zm100.32-1.56a.47.47,0,0,1-.25-.07l-2.57-1.48a.5.5,0,1,1,.5-.86l2.57,1.48a.5.5,0,0,1-.25.93Zm-95.18-1.4a.5.5,0,0,1-.43-.25.51.51,0,0,1,.18-.69L98,226a.49.49,0,0,1,.68.18.51.51,0,0,1-.18.69L96,228.34A.47.47,0,0,1,95.72,228.41Zm90.05-1.56a.52.52,0,0,1-.25-.07L183,225.3a.51.51,0,0,1-.18-.69.49.49,0,0,1,.68-.18l2.57,1.48a.51.51,0,0,1,.18.69A.5.5,0,0,1,185.77,226.85Zm-84.91-1.41a.5.5,0,0,1-.25-.93l2.56-1.48a.5.5,0,1,1,.5.86l-2.56,1.48A.47.47,0,0,1,100.86,225.44Zm79.77-1.56a.47.47,0,0,1-.25-.07l-2.57-1.48a.5.5,0,0,1,.5-.86l2.57,1.48a.5.5,0,0,1-.25.93ZM106,222.48a.5.5,0,0,1-.43-.25.51.51,0,0,1,.18-.69l2.57-1.48a.49.49,0,0,1,.68.18.51.51,0,0,1-.18.69l-2.57,1.48A.45.45,0,0,1,106,222.48Zm69.51-1.56a.45.45,0,0,1-.25-.07l-2.57-1.48a.5.5,0,1,1,.5-.87l2.57,1.48a.51.51,0,0,1,.18.69A.5.5,0,0,1,175.5,220.92Zm-64.38-1.41a.5.5,0,0,1-.43-.25.5.5,0,0,1,.18-.68l2.57-1.48a.5.5,0,0,1,.5.86l-2.57,1.49A.51.51,0,0,1,111.12,219.51ZM170.36,218a.47.47,0,0,1-.25-.07l-2.57-1.48a.5.5,0,1,1,.5-.86l2.57,1.48a.5.5,0,0,1-.25.93Zm-54.1-1.4a.5.5,0,0,1-.25-.93l2.57-1.49a.5.5,0,0,1,.5.87l-2.57,1.48A.47.47,0,0,1,116.26,216.55Zm49-1.56a.43.43,0,0,1-.25-.07l-2.57-1.48a.51.51,0,0,1-.18-.69.5.5,0,0,1,.68-.18l2.57,1.48a.51.51,0,0,1,.18.69A.5.5,0,0,1,165.23,215Zm-43.83-1.41a.5.5,0,0,1-.25-.93l2.56-1.48a.5.5,0,1,1,.5.86l-2.56,1.49A.57.57,0,0,1,121.4,213.58ZM160.09,212a.47.47,0,0,1-.25-.07l-2.57-1.48a.5.5,0,1,1,.5-.86l2.57,1.48a.5.5,0,0,1-.25.93Zm-33.56-1.4a.5.5,0,0,1-.25-.93l2.57-1.49a.51.51,0,0,1,.68.19.49.49,0,0,1-.18.68l-2.57,1.48A.45.45,0,0,1,126.53,210.62ZM155,209.06a.45.45,0,0,1-.25-.07l-2.57-1.48a.5.5,0,1,1,.5-.87l2.57,1.48a.51.51,0,0,1,.18.69A.5.5,0,0,1,155,209.06Zm-23.3-1.41a.5.5,0,0,1-.43-.25.5.5,0,0,1,.18-.68l2.57-1.48a.5.5,0,0,1,.5.86l-2.57,1.49A.51.51,0,0,1,131.66,207.65Zm18.16-1.56a.57.57,0,0,1-.25-.06L147,204.54a.5.5,0,0,1,.5-.86l2.57,1.48a.5.5,0,0,1-.25.93Zm-13-1.4a.5.5,0,0,1-.25-.93l2.57-1.49a.5.5,0,0,1,.5.87l-2.57,1.48A.45.45,0,0,1,136.8,204.69Zm7.89-1.56a.43.43,0,0,1-.25-.07L142.61,202s-.21,0-.52,0a.53.53,0,0,1-.53-.49A.47.47,0,0,1,142,201h.09a2.66,2.66,0,0,1,1,.16l1.86,1.08a.5.5,0,0,1-.25.93Z" style="fill:#fff"></path><path d="M219.15,247.62a.5.5,0,0,1-.44-.25.49.49,0,0,1,.19-.68l.54-.32-.54-.32a.5.5,0,0,1-.19-.68.51.51,0,0,1,.69-.18l2,1.18-2,1.18A.47.47,0,0,1,219.15,247.62Z" style="fill:#fff"></path><path d="M108.58,311.13a2.57,2.57,0,0,1-1-.17l-1.86-1.07a.5.5,0,0,1,.5-.87l1.83,1.06s.2.05.51.05a.52.52,0,0,1,.54.49.47.47,0,0,1-.44.51Zm2.73-1.25a.5.5,0,0,1-.43-.25.51.51,0,0,1,.18-.69l2.57-1.48a.5.5,0,0,1,.5.87l-2.57,1.48A.47.47,0,0,1,111.31,309.88Zm-7.89-1.41a.57.57,0,0,1-.25-.06l-2.56-1.49a.5.5,0,1,1,.5-.86l2.56,1.48a.5.5,0,0,1-.25.93Zm13-1.56a.5.5,0,0,1-.25-.93l2.57-1.48a.5.5,0,1,1,.5.86l-2.57,1.48A.43.43,0,0,1,116.44,306.91Zm-18.15-1.4a.45.45,0,0,1-.25-.07L95.47,304a.49.49,0,0,1-.18-.68.51.51,0,0,1,.68-.19l2.57,1.49a.5.5,0,0,1-.25.93ZM121.58,304a.5.5,0,0,1-.25-.93l2.57-1.49a.5.5,0,0,1,.5.87l-2.57,1.48A.47.47,0,0,1,121.58,304Zm-28.42-1.41a.51.51,0,0,1-.25-.06L90.34,301a.5.5,0,1,1,.5-.86l2.57,1.48a.5.5,0,0,1,.18.68A.5.5,0,0,1,93.16,302.54ZM126.71,301a.5.5,0,0,1-.43-.25.5.5,0,0,1,.18-.68l2.57-1.48a.5.5,0,1,1,.5.86L127,300.92A.51.51,0,0,1,126.71,301ZM88,299.58a.45.45,0,0,1-.25-.07L85.2,298a.49.49,0,0,1-.18-.68.51.51,0,0,1,.68-.19l2.57,1.49a.5.5,0,0,1-.25.93ZM131.85,298a.5.5,0,0,1-.25-.93l2.57-1.49a.5.5,0,0,1,.5.87L132.1,298A.47.47,0,0,1,131.85,298Zm-49-1.41a.57.57,0,0,1-.25-.06l-2.56-1.49a.5.5,0,1,1,.5-.86l2.56,1.48a.5.5,0,0,1-.25.93ZM137,295.05a.5.5,0,0,1-.25-.93l2.56-1.48a.5.5,0,1,1,.5.86L137.24,295A.57.57,0,0,1,137,295.05Zm-59.24-1.4a.45.45,0,0,1-.25-.07l-2.57-1.48a.49.49,0,0,1-.18-.68.51.51,0,0,1,.68-.19L78,292.72a.5.5,0,0,1-.25.93Zm64.37-1.56a.5.5,0,0,1-.25-.93l2.57-1.49a.5.5,0,0,1,.5.87L142.37,292A.47.47,0,0,1,142.12,292.09Zm-69.51-1.41a.57.57,0,0,1-.25-.06l-2.56-1.49a.5.5,0,1,1,.5-.86l2.56,1.48a.5.5,0,0,1,.19.68A.51.51,0,0,1,72.61,290.68Zm74.64-1.56a.5.5,0,0,1-.43-.25.5.5,0,0,1,.18-.68l2.57-1.48a.5.5,0,0,1,.5.86l-2.57,1.49A.51.51,0,0,1,147.25,289.12Zm-79.77-1.4a.45.45,0,0,1-.25-.07l-2.57-1.48a.49.49,0,0,1-.18-.68.51.51,0,0,1,.68-.19l2.57,1.49a.5.5,0,0,1-.25.93Zm84.91-1.56a.5.5,0,0,1-.25-.93l2.57-1.49a.5.5,0,0,1,.5.87l-2.57,1.48A.47.47,0,0,1,152.39,286.16Zm-90-1.41a.57.57,0,0,1-.25-.06l-2.56-1.48a.52.52,0,0,1-.19-.69.51.51,0,0,1,.69-.18l2.56,1.48a.5.5,0,0,1-.25.93Zm95.19-1.56a.5.5,0,0,1-.25-.93l2.56-1.48a.51.51,0,0,1,.69.18.52.52,0,0,1-.19.69l-2.56,1.48A.57.57,0,0,1,157.53,283.19Zm-100.32-1.4a.45.45,0,0,1-.25-.07l-2.57-1.48a.5.5,0,0,1,.5-.86l2.57,1.48a.5.5,0,0,1-.25.93Zm105.45-1.56a.5.5,0,0,1-.25-.93l2.57-1.48a.5.5,0,0,1,.5.86l-2.57,1.48A.47.47,0,0,1,162.66,280.23Zm-110.59-1.4a.59.59,0,0,1-.25-.07l-2.56-1.48a.5.5,0,1,1,.5-.87l2.56,1.48a.5.5,0,0,1-.25.94Zm115.72-1.56a.5.5,0,0,1-.43-.25.51.51,0,0,1,.18-.69l2.57-1.48a.49.49,0,0,1,.68.18.51.51,0,0,1-.18.69L168,277.2A.52.52,0,0,1,167.79,277.27ZM46.94,275.86a.45.45,0,0,1-.25-.07l-2.57-1.48a.5.5,0,0,1,.5-.86l2.57,1.48a.5.5,0,0,1-.25.93Zm126-1.56a.5.5,0,0,1-.25-.93l2.57-1.48a.5.5,0,0,1,.5.86l-2.57,1.48A.45.45,0,0,1,172.93,274.3ZM41.8,272.9a.59.59,0,0,1-.25-.07L39,271.35a.52.52,0,0,1-.19-.69.51.51,0,0,1,.69-.18L42.05,272a.51.51,0,0,1,.19.69A.5.5,0,0,1,41.8,272.9Zm136.27-1.56a.5.5,0,0,1-.44-.25.51.51,0,0,1,.19-.69l2.56-1.48a.51.51,0,0,1,.69.18.52.52,0,0,1-.19.69l-2.56,1.48A.59.59,0,0,1,178.07,271.34Zm-141.4-1.41a.45.45,0,0,1-.25-.07l-2.57-1.48a.5.5,0,0,1,.5-.86L36.92,269a.5.5,0,0,1-.25.93Zm146.53-1.56a.5.5,0,0,1-.25-.93l2.57-1.48a.5.5,0,1,1,.5.86l-2.57,1.48A.45.45,0,0,1,183.2,268.37Zm5.13-3a.5.5,0,0,1-.43-.25.51.51,0,0,1,.18-.69l2.57-1.48a.51.51,0,0,1,.69.18.52.52,0,0,1-.19.69l-2.57,1.48A.52.52,0,0,1,188.33,265.41Zm5.14-3a.5.5,0,0,1-.25-.93l2.57-1.48a.5.5,0,0,1,.5.86l-2.57,1.48A.45.45,0,0,1,193.47,262.44Zm5.14-3a.5.5,0,0,1-.44-.25.51.51,0,0,1,.19-.69l2.56-1.48a.5.5,0,1,1,.5.87l-2.56,1.48A.47.47,0,0,1,198.61,259.48Zm5.13-3a.5.5,0,0,1-.25-.93l2.57-1.48a.5.5,0,1,1,.5.86L204,256.45A.54.54,0,0,1,203.74,256.51Zm5.14-3a.51.51,0,0,1-.44-.25.49.49,0,0,1,.19-.68l2.56-1.49a.5.5,0,1,1,.5.87l-2.56,1.48A.47.47,0,0,1,208.88,253.55Zm5.13-3a.5.5,0,0,1-.25-.93l2.57-1.48a.5.5,0,0,1,.5.86l-2.57,1.49A.54.54,0,0,1,214,250.58Z" style="fill:#fff"></path><path d="M20.24,288l86.63,50a3.43,3.43,0,0,0,3.45,0l120.15-69.35,0,4.69L110.32,342.71a3.43,3.43,0,0,1-3.45,0l-86.63-50Z" style="opacity:0.1"></path><path d="M93.18,307.81c0-.05,0-.09,0-.14a39.53,39.53,0,0,1,30.88,0c0,.05,0,.09,0,.14l-12.19,7a6.57,6.57,0,0,1-3.23.78,6.66,6.66,0,0,1-3.26-.78l-12.16-7" style="fill:#BA68C8"></path><path d="M227.2,244.51l-10.39-6c-7.42,4.33-7.4,11.32.08,15.63l.06,0,10.25-5.91C229,247.23,229,245.55,227.2,244.51Z" style="fill:#BA68C8"></path><path d="M23.51,263.82l10.39-6c7.42,4.33,7.4,11.32-.08,15.63l-.06,0-10.25-5.91C21.72,266.54,21.72,264.86,23.51,263.82Z" style="fill:#BA68C8"></path><path d="M156.66,203.77l-11.32-6.54a7.2,7.2,0,0,0-6.49,0l-11.16,6.45c.31.21.63.42,1,.62,7.51,4.33,19.67,4.33,27.18,0C156.13,204.13,156.39,204,156.66,203.77Z" style="fill:#BA68C8"></path><path d="M124,307.81c-1.13,9.4-7.38,17.68-15.42,23.3V315.63a6.57,6.57,0,0,0,3.23-.78Z" style="fill:#BA68C8"></path><path d="M227.2,248.25l-10.31,5.94c0,8.62,6.09,11.09,13.58,6.78V250.11a7.17,7.17,0,0,0-3.25-5.62l-.73-.43,0,0,.73.42C229,245.53,229,247.21,227.2,248.25Z" style="fill:#BA68C8"></path><path d="M230.45,293.07V281c-7.49,4.34-13.56,14.86-13.56,23.52a1,1,0,0,0,0,.17l10.69-6.21A7.23,7.23,0,0,0,230.45,293.07Z" style="fill:#BA68C8"></path><path d="M122.18,359.32c0-8.62-6.1-12.11-13.58-7.79h0v14.54a6.57,6.57,0,0,0,3.23-.78Z" style="fill:#BA68C8"></path><g style="opacity:0.15"><path d="M124,307.81c-1.13,9.4-7.38,17.68-15.42,23.3V315.63a6.57,6.57,0,0,0,3.23-.78Z"></path><path d="M227.2,248.25l-10.31,5.94c0,8.62,6.09,11.09,13.58,6.78V250.11a7.17,7.17,0,0,0-3.25-5.62l-.73-.43,0,0,.73.42C229,245.53,229,247.21,227.2,248.25Z"></path><path d="M230.45,293.07V281c-7.49,4.34-13.56,14.86-13.56,23.52a1,1,0,0,0,0,.17l10.69-6.21A7.23,7.23,0,0,0,230.45,293.07Z"></path><path d="M122.18,359.32c0-8.62-6.1-12.11-13.58-7.79h0v14.54a6.57,6.57,0,0,0,3.23-.78Z"></path></g><path d="M108.6,315.63v15.48c-8.06-5.66-14.29-13.92-15.42-23.3l12.19,7A6.57,6.57,0,0,0,108.6,315.63Z" style="fill:#BA68C8"></path><path d="M95,359.32l10.36,6a6.57,6.57,0,0,0,3.23.78V351.53C101.11,347.21,95,350.7,95,359.32Z" style="fill:#BA68C8"></path><path d="M20.63,300.7l-.39-.2v11.93a7.25,7.25,0,0,0,2.87,5.36l11.11,6.46h0C34.22,315.57,28.13,305,20.63,300.7Z" style="fill:#BA68C8"></path><path d="M23.51,267.56l10.31,5.94c0,8.62-6.09,12.11-13.58,7.79V269.42a7.2,7.2,0,0,1,3.29-5.61h0C21.74,264.84,21.72,266.52,23.51,267.56Z" style="fill:#BA68C8"></path><g style="opacity:0.30000000000000004"><path d="M108.6,315.63v15.48c-8.06-5.66-14.29-13.92-15.42-23.3l12.19,7A6.57,6.57,0,0,0,108.6,315.63Z"></path><path d="M95,359.32l10.36,6a6.57,6.57,0,0,0,3.23.78V351.53C101.11,347.21,95,350.7,95,359.32Z"></path><path d="M20.63,300.7l-.39-.2v11.93a7.25,7.25,0,0,0,2.87,5.36l11.11,6.46h0C34.22,315.57,28.13,305,20.63,300.7Z"></path><path d="M23.51,267.56l10.31,5.94c0,8.62-6.09,12.11-13.58,7.79V269.42a7.2,7.2,0,0,1,3.29-5.61h0C21.74,264.84,21.72,266.52,23.51,267.56Z"></path></g><path d="M140.23,316.06l-6.39,3.69a1.92,1.92,0,0,0-.87,1.5v12.07a1.89,1.89,0,0,0,.87,1.5l.57.34a2,2,0,0,0,1.74,0l6.39-3.69a1.91,1.91,0,0,0,.86-1.5V317.9a1.88,1.88,0,0,0-.86-1.5l-.58-.34A2,2,0,0,0,140.23,316.06Z" style="fill:#BA68C8"></path><path d="M140.23,316.06l-6.39,3.69a1.92,1.92,0,0,0-.87,1.5v12.07a1.89,1.89,0,0,0,.87,1.5l.57.34a2,2,0,0,0,1.74,0l6.39-3.69a1.91,1.91,0,0,0,.86-1.5V317.9a1.88,1.88,0,0,0-.86-1.5l-.58-.34A2,2,0,0,0,140.23,316.06Z" style="opacity:0.30000000000000004"></path><path d="M136,335.25a1.89,1.89,0,0,1-1.53-.09l-.58-.33a1.92,1.92,0,0,1-.87-1.5V321.26a1.84,1.84,0,0,1,.27-.88l2.3,1.35a1.75,1.75,0,0,0-.26.86v12.07C135.28,335.14,135.56,335.37,136,335.25Z" style="opacity:0.1"></path><path d="M135.28,322.59v12.07c0,.55.39.77.87.5l6.39-3.69a1.91,1.91,0,0,0,.86-1.5V317.9c0-.56-.38-.78-.86-.5l-6.39,3.69A1.89,1.89,0,0,0,135.28,322.59Z" style="fill:#BA68C8"></path><path d="M135.28,322.59v12.07c0,.55.39.77.87.5l6.39-3.69a1.91,1.91,0,0,0,.86-1.5V317.9c0-.56-.38-.78-.86-.5l-6.39,3.69A1.89,1.89,0,0,0,135.28,322.59Z" style="opacity:0.2"></path><path d="M205.22,278.53l-6.39,3.69a1.92,1.92,0,0,0-.87,1.5V295.8a1.92,1.92,0,0,0,.87,1.5l.58.33a1.89,1.89,0,0,0,1.73,0l6.39-3.69a1.92,1.92,0,0,0,.87-1.5V280.37a1.91,1.91,0,0,0-.87-1.5l-.58-.34A2,2,0,0,0,205.22,278.53Z" style="fill:#BA68C8"></path><path d="M205.22,278.53l-6.39,3.69a1.92,1.92,0,0,0-.87,1.5V295.8a1.92,1.92,0,0,0,.87,1.5l.58.33a1.89,1.89,0,0,0,1.73,0l6.39-3.69a1.92,1.92,0,0,0,.87-1.5V280.37a1.91,1.91,0,0,0-.87-1.5l-.58-.34A2,2,0,0,0,205.22,278.53Z" style="opacity:0.30000000000000004"></path><path d="M200.94,297.72a1.89,1.89,0,0,1-1.53-.09l-.58-.33a1.91,1.91,0,0,1-.86-1.5V283.73a1.64,1.64,0,0,1,.25-.86l2.31,1.33h0a1.7,1.7,0,0,0-.25.85v12.07C200.28,297.61,200.56,297.84,200.94,297.72Z" style="opacity:0.1"></path><path d="M200.27,285.06v12.07c0,.55.39.78.87.5l6.39-3.69a1.92,1.92,0,0,0,.87-1.5V280.37c0-.55-.39-.78-.87-.5l-6.39,3.69A1.91,1.91,0,0,0,200.27,285.06Z" style="fill:#BA68C8"></path><path d="M200.27,285.06v12.07c0,.55.39.78.87.5l6.39-3.69a1.92,1.92,0,0,0,.87-1.5V280.37c0-.55-.39-.78-.87-.5l-6.39,3.69A1.91,1.91,0,0,0,200.27,285.06Z" style="opacity:0.2"></path><path d="M158.81,321.82v4.88a1.24,1.24,0,0,1-.57,1l-6.92,4a1.29,1.29,0,0,1-1.15,0l-.38-.22a1.25,1.25,0,0,1-.57-1v-4.89a1.28,1.28,0,0,1,.57-1l6.92-4a1.29,1.29,0,0,1,1.15,0l.38.22A1.27,1.27,0,0,1,158.81,321.82Z" style="fill:#263238"></path><path d="M158.24,327.75l-6.92,4c-.32.18-.57,0-.57-.33v-4.89a1.25,1.25,0,0,1,.57-1l6.92-4c.32-.18.57,0,.57.34v4.88A1.24,1.24,0,0,1,158.24,327.75Z" style="fill:#37474f"></path><path d="M193.9,301.57v4.88a1.3,1.3,0,0,1-.57,1l-6.92,4a1.29,1.29,0,0,1-1.15,0l-.38-.22a1.25,1.25,0,0,1-.57-1v-4.89a1.25,1.25,0,0,1,.57-1l6.92-4a1.21,1.21,0,0,1,1.14,0l.39.22A1.26,1.26,0,0,1,193.9,301.57Z" style="fill:#263238"></path><path d="M193.33,307.51l-6.92,4c-.32.18-.58,0-.58-.33v-4.88a1.27,1.27,0,0,1,.57-1l6.92-4c.31-.19.57,0,.57.33v4.88A1.3,1.3,0,0,1,193.33,307.51Z" style="fill:#37474f"></path><path d="M191.88,305l-4.09,2.36,2.28,1.32h0l-2.27-1.31v2l2.27,1.31V313a5.76,5.76,0,0,1-2.6,4.5l-26,15a2.78,2.78,0,0,1-.69.28,2.66,2.66,0,0,1-.1-.72v-4.4l-1.81-1.05h0l-2.25-1.3-4.07,2.34v2l2.27,1.31v4a2.6,2.6,0,0,0,1,2.23c.35.27,1.73,1,2,1.2,1.51.91,4.28.5,7.45-1.34l22-12.72c4.79-2.76,8.66-7.7,8.66-11v-6Z" style="fill:#BA68C8"></path><path d="M191.88,305l-4.09,2.36,2.28,1.32h0l-2.27-1.31v2l2.27,1.31V313a5.76,5.76,0,0,1-2.6,4.5l-26,15a2.78,2.78,0,0,1-.69.28,2.66,2.66,0,0,1-.1-.72v-4.4l-1.81-1.05h0l-2.25-1.3-4.07,2.34v2l2.27,1.31v4a2.6,2.6,0,0,0,1,2.23c.35.27,1.73,1,2,1.2,1.51.91,4.28.5,7.45-1.34l22-12.72c4.79-2.76,8.66-7.7,8.66-11v-6Z" style="opacity:0.4"></path><path d="M156.59,336.13c0,3.33,3.88,3.8,8.66,1l22-12.72c4.78-2.76,8.66-7.7,8.66-11v-6l-4-2.36-4.09,2.36,4.09,2.37v4.37a5.74,5.74,0,0,1-2.6,4.5l-26,15c-1.43.83-2.6.16-2.6-1.49v-4.4l-4.07-2.36-4.07,2.34,4.08,2.36Z" style="fill:#BA68C8"></path><path d="M156.59,336.13c0,3.33,3.88,3.8,8.66,1l22-12.72c4.78-2.76,8.66-7.7,8.66-11v-6l-4-2.36-4.09,2.36,4.09,2.37v4.37a5.74,5.74,0,0,1-2.6,4.5l-26,15c-1.43.83-2.6.16-2.6-1.49v-4.4l-4.07-2.36-4.07,2.34,4.08,2.36Z" style="opacity:0.2"></path><polygon points="191.88 305 187.8 307.37 191.88 309.73 195.91 307.36 191.88 305" style="fill:#BA68C8"></polygon><polygon points="191.88 305 187.8 307.37 191.88 309.73 195.91 307.36 191.88 305" style="opacity:0.30000000000000004"></polygon><polygon points="156.58 325.39 152.51 327.73 156.59 330.09 160.65 327.75 156.58 325.39" style="fill:#BA68C8"></polygon><polygon points="156.58 325.39 152.51 327.73 156.59 330.09 160.65 327.75 156.58 325.39" style="opacity:0.30000000000000004"></polygon></g></g></g><g id="freepik--character-2--inject-33"><g id="freepik--Character--inject-33"><path d="M389.67,147.12c-5.08-.53-12.07.07-16.18,7.06-1.33,2.27-8.18,16.88-13.25,29.44-5.07-10.37-9.31-19.17-9.89-20.79-1.54-4.33-1.27-7.12-2.84-11.59a35.57,35.57,0,0,1-1.91-7.59c-.3-1.76-1.93-.65-2.54,0a8,8,0,0,0-1.89,4.24c-.17,1.39-.14,3.11-1.37,3.77-1,.54-2.26,0-3.25-.64a65.62,65.62,0,0,1-10.41-7.83,6.5,6.5,0,0,0-1.75-1.29,1.82,1.82,0,0,0-2.67,2.1,5.81,5.81,0,0,0,.86,2,3.78,3.78,0,0,0-2,3c-.12.89.06,1.74-.08,2.61a7.58,7.58,0,0,0,0,3,7.94,7.94,0,0,0,2.24,3.41,39.41,39.41,0,0,0,6.66,5.51q2.39,1.56,4.72,3.19a16.43,16.43,0,0,1,4.12,3.32c1.91,2.6,2.95,5.71,4.15,8.67,1.86,4.56,4.58,17.21,10.36,26.62,3.32,5.42,8.43,7.67,13,1.92a63.81,63.81,0,0,0,6.68-10.49c6.57-13.15,11.17-24.19,11.17-24.19S392.2,159,389.67,147.12Z" style="fill:#ffa8a7"></path><path d="M360.24,183.62c2,3.53,3.25,8.94,2.75,11.77,0,0,2.66-7.51-2-13.63Z" style="fill:#f28f8f"></path><path d="M390.75,147.06c-5.37-.53-11.68-1.77-17.26,6.24s-11.83,25.13-11.83,25.13,4.39,13.78,18.94,14.65Z" style="fill:#ebebeb"></path><g id="freepik--Backpack--inject-33"><path d="M463.75,188.89c-1.34,1.87-4.46-.37-10-3s-1.32-28-1.32-28,9.14.75,10.12,9.4S463.75,188.89,463.75,188.89Z" style="fill:#BA68C8"></path><path d="M463.75,188.89c-1.34,1.87-4.46-.37-10-3s-1.32-28-1.32-28,9.14.75,10.12,9.4S463.75,188.89,463.75,188.89Z" style="opacity:0.25"></path><path d="M419.65,140.58c-5.38-.5-17.77,4.8-20,8.85-2.32,4.25-14,63.29-9.87,69.22,5.23,7.43,32.54,23.3,45,23.87,10.27.46,20.75-8.2,22.52-10.82,2.91-4.3,4.41-65.87,1.55-71.29C454.23,151.64,426.51,141.23,419.65,140.58Z" style="fill:#BA68C8"></path><path d="M419.65,140.58c-5.38-.5-17.77,4.8-20,8.85-2.32,4.25-14,63.29-9.87,69.22,5.23,7.43,32.54,23.3,45,23.87,10.27.46,20.75-8.2,22.52-10.82,2.91-4.3,4.41-65.87,1.55-71.29C454.23,151.64,426.51,141.23,419.65,140.58Z" style="fill:#fff;opacity:0.1"></path><path d="M419.65,140.58c-5.38-.5-17.77,4.8-20,8.85-2.32,4.25-14,63.29-9.87,69.22,5.23,7.43,32.54,23.3,45,23.87,10.27.46,20.75-8.2,22.52-10.82,2.91-4.3,4.41-65.87,1.55-71.29C454.23,151.64,426.51,141.23,419.65,140.58Z" style="opacity:0.2"></path><path d="M460.34,191.81c0-2.58.05-5.13.05-7.59,0-1,0-2,0-2.92,0-1.92,0-3.76-.08-5.51,0-.88,0-1.73-.07-2.56,0-1.24-.08-2.41-.14-3.52s-.12-2.13-.2-3.08c0-.31-.05-.62-.07-.92a18.32,18.32,0,0,0-1-5.3c-.13-.24-.28-.5-.45-.75l-.17-.25-.38-.52-.24-.3-.42-.49-.27-.3c-.22-.24-.45-.47-.69-.71l-.48-.46-.33-.3-.56-.5-.29-.24-.65-.55c-5,1.64-9.72,3.21-9.86,3.29-.31.16-5.46,2.75-5.8,10.29L436,199.09l-.23,2.9c-.24,4-6.58,41,5,39.78l.46,0c7.88-2.13,14.72-8,16.12-10a6.47,6.47,0,0,0,.66-2q.12-.58.24-1.32.06-.36.12-.75c.12-.79.23-1.68.34-2.65,0-.32.07-.65.11-1,.53-5.11,1-12.19,1.24-19.79.05-1.52.1-3.06.15-4.61,0-1,.05-2.08.08-3.11l0-1.56Z" style="fill:#BA68C8"></path><path d="M459.62,163.88a11.9,11.9,0,0,0-.76-3.47c-4.63-8.77-32.35-19.18-39.21-19.83-5.38-.5-17.77,4.8-20,8.85a33.08,33.08,0,0,0-1.63,5.39c10.33,6.54,37.18,21.37,40.12,20.55,3.61-1,21.13-11,21.47-11.48Z" style="opacity:0.4"></path><path d="M461.66,204.08c-.31-.19-4.78-4.07-5.31-4.39-.93-.56-15.62,7.91-17,9.42-1,1.06-.82,18.47-.36,19.74.17.46,5.14,3.93,5.3,4.39.47,1.27,15.95-7.3,17-9.56S463,204.9,461.66,204.08Z" style="fill:#BA68C8"></path><path d="M461.66,204.08c-.31-.19-4.78-4.07-5.31-4.39-.93-.56-15.62,7.91-17,9.42-1,1.06-.82,18.47-.36,19.74.17.46,5.14,3.93,5.3,4.39.47,1.27,15.95-7.3,17-9.56S463,204.9,461.66,204.08Z" style="opacity:0.18"></path><path d="M444.63,213.5c-1,1.05-.83,18.46-.37,19.74s15.95-7.3,17-9.56,1.73-18.78.36-19.6C460.73,203.52,446,212,444.63,213.5Z" style="fill:#BA68C8"></path><path d="M456.36,199.69c.52.31,5,4.2,5.29,4.38-.92-.55-15.61,7.92-17,9.43l-5.31-4.39C440.73,207.59,455.42,199.13,456.36,199.69Z" style="opacity:0.4"></path><path d="M444.63,213.5c-1,1.05-.83,18.46-.37,19.74s15.95-7.3,17-9.56,1.73-18.78.36-19.6C460.73,203.52,446,212,444.63,213.5Z" style="opacity:0.30000000000000004"></path><path d="M439.32,209.11c1.09-.6,4.09,1.28,5.36,2.53s2.34,6.79,5.75,7.89,8.65-3.14,9.89-6,2.89-9,1.37-11.3-4.38-3.74-6.94-2.58S439.81,206.43,439.32,209.11Z" style="fill:#BA68C8"></path><path d="M439.32,209.11c1.09-.6,4.09,1.28,5.36,2.53s2.34,6.79,5.75,7.89,8.65-3.14,9.89-6,2.89-9,1.37-11.3-4.38-3.74-6.94-2.58S439.81,206.43,439.32,209.11Z" style="opacity:0.1"></path><path d="M454.8,212.62a2.6,2.6,0,0,0-1.37,2.31,1,1,0,0,0,1.52,1,2.55,2.55,0,0,0,1.38-2.31C456.29,212.71,455.6,212.25,454.8,212.62Z" style="fill:#37474f"></path><path d="M437.76,175.4s2.42-7,11.45-11.43,9.17-2.81,11.6,2.23c2.19,4.54,2,20.88,2.05,22.44s1.89,1.41,2.3-8.56-.31-19.59-9.18-26.14c-11.94-8.83-30.92-15.37-40.17-14s-17.76,5.34-17.78,14.9C398,154.82,408.74,171.44,437.76,175.4Z" style="fill:#BA68C8"></path><path d="M437.76,175.4s2.42-7,11.45-11.43,9.17-2.81,11.6,2.23c2.19,4.54,2,20.88,2.05,22.44s1.89,1.41,2.3-8.56-.31-19.59-9.18-26.14c-11.94-8.83-30.92-15.37-40.17-14s-17.76,5.34-17.78,14.9C398,154.82,408.74,171.44,437.76,175.4Z" style="opacity:0.1"></path><path d="M413.37,152s-3.52,1.78-3.84,3.94-1.73,7.32-.93,8.8,3.53,1.84,3.95.86,1.18-7.2,1.87-8.78,3.42-3.47,3.42-3.47Z" style="fill:#BA68C8"></path><path d="M433.86,158.17s-3.48,1.53-3.8,3.69-1.76,7.1-1,8.59,3.53,1.84,3.95.86,1.18-7.2,1.87-8.78,3.45-3.08,3.45-3.08Z" style="fill:#BA68C8"></path><g style="opacity:0.30000000000000004"><path d="M413.37,152s-3.52,1.78-3.84,3.94-1.73,7.32-.93,8.8,3.53,1.84,3.95.86,1.18-7.2,1.87-8.78,3.42-3.47,3.42-3.47Z" style="fill:#fff"></path><path d="M433.86,158.17s-3.48,1.53-3.8,3.69-1.76,7.1-1,8.59,3.53,1.84,3.95.86,1.18-7.2,1.87-8.78,3.45-3.08,3.45-3.08Z" style="fill:#fff"></path></g><path d="M410.2,121.83h0c-2-.66-4.35,0-6.72,2.06-4.72,4.17-7.55,12.55-6.3,18.73.65,3.24,2.3,5.22,4.4,5.77h0l54.21,16.38,9-26.42L449.58,136l-5.6-1.84-18.84-6-2.59-.94Z" style="fill:#455a64"></path><ellipse cx="460.19" cy="151.51" rx="13.97" ry="8.07" transform="translate(169.74 539.29) rotate(-71.39)" style="fill:#37474f"></ellipse><path d="M423.58,127.65s-11.4,6.65-10.21,24.31l4.47,1.35s-1.32-17,11.19-23.86Z" style="fill:#BA68C8"></path><path d="M444,134.18s-11.42,6.28-10.23,23.93l4.48,1.36s-1.16-16.6,11.35-23.45Z" style="fill:#BA68C8"></path><g style="opacity:0.15"><path d="M414.71,139.93a31.94,31.94,0,0,0-1.34,12l4.47,1.35a33.56,33.56,0,0,1,1.57-11.7Z"></path><path d="M434.79,147.12a32.14,32.14,0,0,0-1,11l4.48,1.36a32.48,32.48,0,0,1,1.4-10.61Z"></path></g><path d="M465.08,146.4c-1.82-1.16-3.75.41-4.65,2a8.56,8.56,0,0,0-.89,4.35,3.29,3.29,0,0,0,.37,1.83c.32.47.88.7,1.29.21.17-.19,0-.77-.3-.71s-.2.15-.27.05a1.44,1.44,0,0,1-.05-.59,8.52,8.52,0,0,1,.21-1.73,7.64,7.64,0,0,1,.79-2.55,5,5,0,0,1,1.61-1.79c.58-.35,1.46-.49,1.67.32.34,1.29-.42,3-.83,4.25a15.11,15.11,0,0,1-2.56,5c-.66.8-2.51,2.55-3.69,1.85s-1.06-2.93-1.07-4a14.83,14.83,0,0,1,.89-5,15.47,15.47,0,0,1,2.69-5.15,4.33,4.33,0,0,1,1.87-1.25c.58-.2,1.93-.63,2.16.2.06.2.46.59.65.3.67-1-.33-1.9-1.33-2.14a5.31,5.31,0,0,0-4.5,1.1c-1.81,1.42-2.83,4-3.62,6.11a16.11,16.11,0,0,0-1,7.07c.16,1.87.77,4.23,2.88,4.7,2.27.51,4.65-1.15,5.92-2.91A17.27,17.27,0,0,0,466,151C466.33,149.53,466.57,147.35,465.08,146.4Z" style="fill:#263238"></path></g><g id="freepik--Botom--inject-33"><path d="M426.6,380.94c-3.41,1.83-7.17,1.68-11.22,0l-2.06-22.06,14.11-1.52Z" style="fill:#ffa8a7"></path><path d="M385.88,367.75c-2.87,6.22-8.06,4.5-13.91.52l1-22.18h14.1Z" style="fill:#ffa8a7"></path><path d="M401.75,401.82c-.38.35-.26,2.76.15,3.41s3,2.87,7.59,3.2c4.39.31,8.32-.28,10.9-1.92s3.83-3.45,4.07-5.95,0-4.92,1.16-6.85c1.1-1.78,2.85-3.78,3.24-4.75.83-2.1,0-5.1,0-5.1Z" style="fill:#263238"></path><path d="M413.81,380a11.88,11.88,0,0,1-.54,2.78,25.56,25.56,0,0,1-2.69,5.51,24.25,24.25,0,0,1-1.83,2.59c-1.33,1.58-3,2.88-4.39,4.39a9,9,0,0,0-2.72,5.4c-.18,3.45,3.56,4.62,6.44,5.13a21.14,21.14,0,0,0,9.36-.47,8.62,8.62,0,0,0,6.31-6.87c.15-1,.1-1.93.21-2.9a13.5,13.5,0,0,1,2.68-6,17.86,17.86,0,0,0,2.06-3.28c.9-2.14.17-4.54-.4-6.66-.5-1.84-.88-3.9-1.52-3.73,0,.37,0,1.11,0,1.11-.22.4-.67.6-.8,1.07a8.4,8.4,0,0,1-.53,1.42,3.72,3.72,0,0,1-1.53,1.68c0-1.3-.08-2.6-.13-3.9a1.83,1.83,0,0,0-.3-1.15,1.78,1.78,0,0,0-1.1-.47A24.13,24.13,0,0,0,415,375a1.3,1.3,0,0,0-1,.43,1.4,1.4,0,0,0-.17.88A34.72,34.72,0,0,1,413.81,380Z" style="fill:#455a64"></path><path d="M410.11,389c1.29-1,4.16-1,5.74-.8a9.51,9.51,0,0,1,4.47,1.57,1,1,0,0,0,1.31-.11h0a1,1,0,0,0-.09-1.46,9.72,9.72,0,0,0-5-1.87c-3.87-.27-5,.39-5,.39S409.73,387.84,410.11,389Z" style="fill:#f5f5f5"></path><path d="M407.16,392.51c1.62-.95,4.78-.81,6.35-.64a9,9,0,0,1,4.35,1.65,1,1,0,0,0,1.32-.1h0a1,1,0,0,0-.1-1.47,10,10,0,0,0-5.14-2c-3.87-.27-4.88.52-4.88.52A3.2,3.2,0,0,0,407.16,392.51Z" style="fill:#f5f5f5"></path><path d="M418.05,382.61a9.51,9.51,0,0,0-4.87.41c-.68.38-1.13,1.46-.69,1.73a8.84,8.84,0,0,1,4.31-.59,12.59,12.59,0,0,1,4.19,1.15,11.79,11.79,0,0,1,1.06.54.92.92,0,0,0,1.28-.4h0a.85.85,0,0,0-.34-1.1A12.25,12.25,0,0,0,418.05,382.61Z" style="fill:#f5f5f5"></path><path d="M348.87,381.94a4.18,4.18,0,0,0,.18,3.07c.42.89,5.11,3.54,11.44,3.11a26.35,26.35,0,0,0,13.08-4.57c2.41-1.6,4.92-1.9,8.05-2.08s7.25-1.74,7.94-3.2-.11-4-.11-4Z" style="fill:#263238"></path><path d="M374.29,362.49l-1.64-.61a1.32,1.32,0,0,0-.93-.1c-.41.15-.57.63-.67,1a15.37,15.37,0,0,1-.69,2.75,7,7,0,0,1-1.78,1.87,29.51,29.51,0,0,1-5.06,3.26c-2.07,1.11-4.09,2-6.22,2.93s-5.07,1.58-6.77,2.73c-2.48,1.67-2.8,5.87,0,7.53,2.44,1.43,8.86,3,15.59,1.08,3.67-1,7.74-5,12.56-5.34,3.06-.24,8.85-1.1,10.82-3.42.72-1-.25-4.3-1-7.12-.87-3.08-1.2-7.9-2.22-7.63-.07,1-1,1.62-1.5,2.48a17.91,17.91,0,0,0-1.09,2.45,4.48,4.48,0,0,1-1.6,2.1,2,2,0,0,1-2.48-.14c-.9-.93-.37-2.56-1-3.68a3.83,3.83,0,0,0-2.15-1.41Z" style="fill:#455a64"></path><path d="M366.38,369a2.84,2.84,0,0,1,2.26-1.51c1.39-.26,3.85.77,5.38,2a1.14,1.14,0,0,1-.16,1.89h0a1.15,1.15,0,0,1-1.31-.15A8.74,8.74,0,0,0,366.38,369Z" style="fill:#f5f5f5"></path><path d="M362.06,371.45a3.26,3.26,0,0,1,2.68-1.38s3.64.11,5.89,2.2a1.13,1.13,0,0,1-.15,1.83h0a1.11,1.11,0,0,1-1.26-.15A8.78,8.78,0,0,0,362.06,371.45Z" style="fill:#f5f5f5"></path><path d="M357.3,373.63a3.68,3.68,0,0,1,2.78-1.25,9.8,9.8,0,0,1,5.64,2.23,1.11,1.11,0,0,1-.16,1.82h0a1.07,1.07,0,0,1-1.25-.14A8.34,8.34,0,0,0,357.3,373.63Z" style="fill:#f5f5f5"></path><path d="M426.2,219.94c.8,24.14,1.66,77.38,1.66,77.38.26,3,1.15,10.23,1.37,21.05.33,15.69-1.94,50.24-1.94,50.24s-6.54,3.52-13.4.66c0,0-7.45-49.58-9.84-65-2.1-13.6-6.23-39.2-6.23-39.2l-3.26,32.87a108.06,108.06,0,0,1-1.13,19.89c-1.1,7.11-6.33,38-6.33,38a28.41,28.41,0,0,1-15.13-.34s.13-50.66,0-57.25c-.14-7.52.59-84.7.59-84.7Z" style="fill:#37474f"></path><path d="M397.82,265l-3.57-19.78s-9.9-.87-15.37-6.39c0,0,1,5.41,13.42,8.66l3.57,20L395.73,286Z" style="fill:#263238"></path></g><path d="M372.56,164.36c1.09-7.88,6-16.82,18.19-17.3l15.77.75c3.88,1,14.45,3.59,18.5,5l.76,32s1,24.66.66,37.86c-11.29,7.15-38.8,8.58-54.23-3.13C371.75,208.65,371.48,172.17,372.56,164.36Z" style="fill:#BA68C8"></path><path d="M372.56,164.36c1.09-7.88,6-16.82,18.19-17.3l15.77.75c3.88,1,14.45,3.59,18.5,5l.76,32s1,24.66.66,37.86c-11.29,7.15-38.8,8.58-54.23-3.13C371.75,208.65,371.48,172.17,372.56,164.36Z" style="fill:#fff;opacity:0.4"></path><path d="M373.5,113.07a15.87,15.87,0,0,1,31.69-.64l7.3-5a5.61,5.61,0,0,1,4.61,1.79c1.94,2.11.61,8.49-2.08,14.68,0,0-2.81,11.36-3.85,13.2a5.16,5.16,0,0,1-3.07,2.32l.37-6.93-28.79-2.58,2.89-2A15.88,15.88,0,0,1,373.5,113.07Z" style="fill:#263238"></path><path d="M409,124.24c.9.58,2.27-1.14,3.44-2.29s4.93-2.65,6.65,1.3-1.93,9.14-4.88,10c-5.07,1.42-5.72-1.83-5.72-1.83l-1,18.1c-4.48,4.69-19.24,3.06-16.31-1l.19-5.51a32,32,0,0,1-6.78.13c-3.67-.69-5.9-3.68-6.89-7.72-1.59-6.47-2.11-11.68-.17-24.25,2.12-13.78,18.22-13.41,26.73-7.65S409,124.24,409,124.24Z" style="fill:#ffa8a7"></path><path d="M374.31,98.16a5.93,5.93,0,0,1,3.9-.38,4.73,4.73,0,0,1,2.91-4.69,5.45,5.45,0,0,1,5.95.9c-.37-1.41.94-2.81,2.36-3.1a7.6,7.6,0,0,1,4.24.77c2,.81,4,1.71,6,2.43,3.6,1.28,7.45,2,10.69,4.06a6.72,6.72,0,0,1,2,1.77,5.71,5.71,0,0,1,.86,3.61,7.45,7.45,0,0,1-.2,1.24,3.33,3.33,0,0,1,.87-.66,3.07,3.07,0,0,1,4.17,1.53l-5.51,2.73c.11,1.1.23,2.2.32,3.31.24,2.91.75,6.32,0,9.2a2.12,2.12,0,0,1-.37,1,4.73,4.73,0,0,0-.76,1c-.33.59-.66,1.18-1,1.77-.44.79-1.14,1.7-2.16,1.58-.57-.07-.86-.87-1-1.33-1.38-5.15-1.33-10.63-3.06-15.67a.83.83,0,0,0-.22-.4.89.89,0,0,0-.7-.08c-2.63.41-5.26.84-7.9,1.16-6,.71-12.43.75-17.65-2.27-2-1.18-5.45-3.61-5.77-6.16A3.39,3.39,0,0,1,374.31,98.16Z" style="fill:#263238"></path><path d="M391.44,143s8.29-1.39,11.22-2.83a9.53,9.53,0,0,0,4.12-3.81,13,13,0,0,1-2.42,4.57c-2.19,2.63-13,4.26-13,4.26Z" style="fill:#f28f8f"></path><path d="M392.15,122.68a1.63,1.63,0,1,0,3.25.1,1.63,1.63,0,1,0-3.25-.1Z" style="fill:#263238"></path><path d="M393.85,116.42l3.6,1.83a2.12,2.12,0,0,0-.92-2.79A2,2,0,0,0,393.85,116.42Z" style="fill:#263238"></path><path d="M393.34,132.12l-5.81,2a3,3,0,0,0,3.83,2A3.22,3.22,0,0,0,393.34,132.12Z" style="fill:#b16668"></path><path d="M393.38,133.89a2.41,2.41,0,0,0-3.65,2.08,1.5,1.5,0,0,0,0,.22,3,3,0,0,0,1.61-.07A3.17,3.17,0,0,0,393.38,133.89Z" style="fill:#f28f8f"></path><path d="M378.29,117.44l3.23-2.28a1.91,1.91,0,0,0-2.7-.47A2,2,0,0,0,378.29,117.44Z" style="fill:#263238"></path><path d="M379,122.18a1.62,1.62,0,1,0,1.67-1.63A1.64,1.64,0,0,0,379,122.18Z" style="fill:#263238"></path><polygon points="387 121.01 386.51 131.02 380.63 129.55 387 121.01" style="fill:#f28f8f"></polygon><path d="M413.21,149.44s-8.68,8.8-9.32,24.76C402.28,214.59,428,224.58,428,224.58a127.69,127.69,0,0,0-.77-13.31S412.62,198,413.4,177.33c.55-14.71,7.21-23.7,10.88-24.85C424.28,152.48,418.24,149.19,413.21,149.44Z" style="fill:#BA68C8"></path><path d="M413.21,149.44s-8.68,8.8-9.32,24.76C402.28,214.59,428,224.58,428,224.58a127.69,127.69,0,0,0-.77-13.31S412.62,198,413.4,177.33c.55-14.71,7.21-23.7,10.88-24.85C424.28,152.48,418.24,149.19,413.21,149.44Z" style="opacity:0.4"></path><path d="M437.3,224.23c-3.5-.77-7.43-3.43-12.29-7.95a142.88,142.88,0,0,1-14.16-14.83c-.78-.91-3.15-3.49-4-4.31a33.36,33.36,0,0,1-4.25-5.15c-2.71-4-3.49-6.72-3-11.55.58-6,.86-10.15,2.74-12.74a3.3,3.3,0,0,1,2.51-.88c-.29,1.08-.37,2.26-.57,3.33a8,8,0,0,0,2.45,5.29c2.47,2.85,4.29,4.52,4.57,3.91s-.6-2.49-.33-5.55,1.09-4.17,2-4.41c1.48-.39,1.48,1.22,2.13,3.65.77,2.91,2,4.49,2.23,8.79.17,3.76,0,5.28,1.76,7.43,1,1.2,6.15,4.92,6.15,4.92s-2.25-6.92-4.47-13.82c-4.36-13.53-2.65-25.63,2.69-27.7,7.63.34,12.32,3.39,15.82,14.42,3.73,11.74,5,16.72,8.06,39.73C449.58,223.88,443.14,225.53,437.3,224.23Z" style="fill:#ffa8a7"></path><path d="M425.22,194.18c4.84,3.53,15.41,8.59,16.82,14.28,0,0-.23-4.53-6.62-9.9A80,80,0,0,0,424,190.42Z" style="fill:#f28f8f"></path><path d="M423.44,152.66c2.62-.61,7.05.3,10.9,3.72s5.81,10.17,7.69,16.21,4.93,22,4.93,22-8.35,3.08-16.16,3.16c0,0-4.31-2.73-6.43-4.23,0,0-4.35-13.91-5.6-17.45S415.81,155.23,423.44,152.66Z" style="fill:#ebebeb"></path></g></g><g id="freepik--character-1--inject-33"><g id="freepik--character--inject-33"><path d="M262.45,307l-11.12,42.42s-4.59,2.7-8.55,0c-3.13-2.11-2.95-4.61-2.95-4.61l.19-2.29,3.26-37Z" style="fill:#b16668"></path><path d="M252.14,224.78c6.5,22.65,17.51,61.16,14.4,73.15-2.33,9-8.26,26.34-8.26,26.34-3.93.55-14.88,2.39-18-4.48-.79-11.15-4.78-72.35-4.78-72.35Z" style="fill:#37474f"></path><path d="M235.49,247.44A117.44,117.44,0,0,0,247,234.89s-.83,5.36-8.23,12.76c0,0,12.4,47.77,12.33,55.39s-5.21,49.3-5.21,49.3Z" style="opacity:0.25"></path><polygon points="239.22 366.08 247.57 363.73 251.35 358.91 240.76 362.05 239.22 366.08"></polygon><path d="M266.53,378.26l-11.66-8.14-9.22-9.19-4.31-.42.91-2.42-6.1-5c-1.08,2.43-1.22,8.13-1.22,8.13s.66,2.6,4.29,4.91l.7-1.79c.26,2.45-.09,8,2.33,11.88,2.63,4.25,7.58,5.31,11.57,6.14,4.65,1,10.21-.07,11.24-.63A3.54,3.54,0,0,0,266.53,378.26Z" style="fill:#263238"></path><path d="M252,346.78l.48-1.85c1.39.08,1.27,2.83,1.37,3.63.31,2.28.54,4.57.89,6.85a42.62,42.62,0,0,0,1.76,7.44,21.9,21.9,0,0,0,3.17,5.75,13.66,13.66,0,0,0,5,4.26,3.6,3.6,0,0,1,1.92,2.29,5,5,0,0,1-.75,4.27c-1.36,1.33-3.14,1.53-5.21,1.79a26,26,0,0,1-6-.26,20.33,20.33,0,0,1-9.36-3.46c-2.68-1.91-3.27-5.7-3.7-8.77-.35-2.49-.13-5.4-1.16-7.74s-4-5.41-4.27-7.94a12,12,0,0,1,1.33-6.19c1.06-2.06,1.84-4.68,2.54-4.31l-.12,1.5c0-.11.69,2.88,5,3.95C246.91,348.5,250.73,348.48,252,346.78Z" style="fill:#37474f"></path><path d="M264.62,372.42c-1.74-1.2-3.68-2.26-4.93-3.82a15.07,15.07,0,0,0-8.22,1.27c-5.85,2.79-7.46,6.71-6.19,7.62a20.33,20.33,0,0,0,9.36,3.46,26,26,0,0,0,6,.26c2.07-.26,3.85-.46,5.21-1.79a5,5,0,0,0,.75-4.27A4.61,4.61,0,0,0,264.62,372.42Z" style="fill:#455a64"></path><path d="M246.48,321.41c.11,2.8-1,45.72-.95,47a32.52,32.52,0,0,0,1.25,6.16,15.76,15.76,0,0,0,1,2.69c.42,1,1.24,2.34.76,3.31a3.82,3.82,0,0,1-.94,1.17,8.87,8.87,0,0,1-6.25,2.12,6.55,6.55,0,0,1-3.4-1c-2-1.31-2.79-3.71-3.87-5.73-1.17-2.19-.49-3.35-.68-5.74-.21-2.67-6.34-42.91-6.91-45.53C230.75,320.94,241.05,320,246.48,321.41Z" style="fill:#b16668"></path><path d="M252.14,224.78c-5.3,11-7.39,15.39-16.65,22.66,0,0,11.33,47.08,11.83,56.21.83,15.2-.48,26.32-1.18,36.65-1.75,2.29-12.89,3.58-17.35.19-1.1-5.51-2.58-14.09-3.32-19.87-1.44-11.14.1-14.5.34-17.42-6-15.31-19.48-37.66-24.41-53.66a41.13,41.13,0,0,1-1.52-8.45c-1.1-10.15,3.05-17.91,5.49-23.33l46.77,7" style="fill:#37474f"></path><polygon points="235.66 391.53 239.22 389.99 235.66 389.8 235.66 391.53"></polygon><path d="M230.77,381.68a21,21,0,0,0,.26,5.58c.27,1,4.14,4.35,4.63,4.27V389.8s1.19,2.32,2.39,4.58c1.34,2.51,1.93,5.51,8.46,8.4a20.66,20.66,0,0,0,14.33,1.42,8.89,8.89,0,0,0,4.77-2.76s.93-3.26-1.11-4.28S230.77,381.68,230.77,381.68Z" style="fill:#263238"></path><path d="M247,370.13a7.75,7.75,0,0,0,.43,2.26c.42,1.09.91,2.18,1.38,3.26A35.57,35.57,0,0,0,253,383c6.67,8.75,13.63,9.13,12.86,16.16-.31,2-4.24,4.62-12.85,4.15-4.4-.24-10.8-3.77-12.54-6.69s-2.38-5.4-3.8-7.55-5.16-4.93-5.87-7.37c-.56-1.94,0-4,.24-6a30.29,30.29,0,0,0,.12-4.54c0-1.32-.56-3.64-.25-4.2a1.82,1.82,0,0,1,1.76-.9l.2,1.42c.86,1.3,2.79,1.08,3.26,1.75.6.85.28,2.27,1.17,2.8,1-.56.61-2.39,1.6-3a2.72,2.72,0,0,1,1.7-.14A6,6,0,0,0,245,367.4c.38-.35.87-.77,1.33-.56s.48.66.52,1.08C246.94,368.61,247,369.37,247,370.13Z" style="fill:#37474f"></path><path d="M265.83,399.14c.48-4.39-2.05-6.18-5.64-9-10.16-.83-13.41,3.4-16.8,9.4a20.46,20.46,0,0,0,9.59,3.79C261.59,403.76,265.52,401.11,265.83,399.14Z" style="fill:#455a64"></path><path d="M238,156.05c6.49-.76,9.55,2,16.17,10.69s20.17,24.84,20.17,24.84L262.2,202.64l-25.06-27Z" style="fill:#BA68C8"></path><path d="M238,156.05c6.49-.76,9.55,2,16.17,10.69s20.17,24.84,20.17,24.84L262.2,202.64l-25.06-27Z" style="opacity:0.15"></path><path d="M230.13,135l-4.37,14.77c-12.15,0-19.66-11.83-19.66-24h0c0-12.21,7.77-22.41,20-22.41h4c12.2,0,22.1,8.11,22.1,20.31h0C252.14,131.68,242.29,135,230.13,135Z" style="fill:#263238"></path><path d="M193.65,156.6h3.92a9.8,9.8,0,0,0,9.8-9.8l.57-29.9h-4.48a9.81,9.81,0,0,0-9.81,9.8Z" style="fill:#263238"></path><path d="M254.42,112.43a8.86,8.86,0,0,0,1.29-5.08,5.89,5.89,0,0,0-2.54-4.47c-2.27-1.45-5.42-.77-7.53.91a6.14,6.14,0,0,0-6.58-5.48c-2,.15-3.82,1.27-5.57,2.29a29.08,29.08,0,0,1-9.46,2.92l3.71,1.47a6,6,0,0,0-.64,5.31,5,5,0,0,0,.58,1,24.95,24.95,0,0,0,22.75,11,7.16,7.16,0,0,0,3.53-1,5.49,5.49,0,0,0,1.56-1.66,6.31,6.31,0,0,0,1.09-3.94A4.05,4.05,0,0,0,254.42,112.43Z" style="fill:#263238"></path><path d="M220.64,155.71l-10.44,1c-5.28,1.3-5.2,3.49-5.74,8.18-.25,2.18-2.6,9.28-.75,16.55,1.68,6.6,7.17,21.46,7.17,21.46s-5.78,14.52-8.52,21.9c18.79,12.26,42,7.42,49.78,0-.66-7-3.14-13.54-3.7-19.8,0,0,.41-9.77,1.18-14,5.95-6.48,5.19-12.69,2.52-17.7-4.93-9.24-12.36-17.36-14.76-17.35Z" style="fill:#f0f0f0"></path><path d="M231.85,232.12c-4.58-.85-8.45-1.81-10.16-2.8-3.84-2.21-5.73-5.95-6.94-10s1.71-8.31,2.14-12.47c.35-3.36-1.07-6-2-9.11s-1.85-6.51-2.65-9.8a55.81,55.81,0,0,1-1.43-6.4,16.1,16.1,0,0,1-.12-3.18c.05-.7.68-2.06.56-2.68l-2.14-11-5,1.9c-.66,3.12-2,8.94-.44,14.89,1.68,6.6,7.17,21.46,7.17,21.46s-5.78,14.52-8.52,21.9A47.39,47.39,0,0,0,231.85,232.12Z" style="fill:#e0e0e0"></path><path d="M198.06,212.35c2.89-10.66,9.86-28.7,9.86-28.7,4.26-10.15,3.81-21.23,2.28-27-9,.52-12.51,2-17,14-3.4,9.13-9.87,30.94-12.75,40.76a7.41,7.41,0,0,0,2.8,8.11" style="fill:#b16668"></path><path d="M231.18,229a1,1,0,0,1,.28-.59c1.38-1.62,6.39-2.57,6.7-3.4s-1.94-2.56-6.16-1.9-5,2-10.39,1.7c-3.49-.22-17.67-8.6-22.84-14.08l-15.49,8.86c8.77,6.28,21.41,12.75,27.05,15.63s10.44,5.22,17.17,6.43" style="fill:#b16668"></path><path d="M212.21,156.6c-6.63-.09-10.69.07-14.46,4.16s-4.55,7.47-7.86,17-7,25.57-7,25.57,4.7,5.72,16.57,4.29L210.74,178S214,167,212.21,156.6Z" style="fill:#BA68C8"></path><path d="M212.21,156.6c-6.63-.09-10.69.07-14.46,4.16s-4.55,7.47-7.86,17-7,25.57-7,25.57,4.7,5.72,16.57,4.29L210.74,178S214,167,212.21,156.6Z" style="opacity:0.15"></path><path d="M239.71,114.58c5.56.57,10.21,6.48,9.9,19.89-.27,11.37-4,14.18-5.8,15s-5.42.93-8.89.35V156s4,8.8,2.3,11.94c-9.5-3.89-16.58-12.25-16.58-12.25v-14s-2.34,2.77-6.17.23-4-8.84-1.75-11.1,7-1.54,7.92,1.58c0,0,3.34-.09,9.47-4.45A24.2,24.2,0,0,0,239.71,114.58Z" style="fill:#b16668"></path><path d="M234.17,130.11a1.51,1.51,0,1,1-1.59-1.5A1.54,1.54,0,0,1,234.17,130.11Z" style="fill:#263238"></path><path d="M235.77,140.76l4.51,1.44a2.33,2.33,0,0,1-2.94,1.61A2.46,2.46,0,0,1,235.77,140.76Z" style="fill:#9a4a4d"></path><path d="M247.58,126.62l-3.06-2.13a1.79,1.79,0,0,1,2.54-.52A2,2,0,0,1,247.58,126.62Z" style="fill:#263238"></path><path d="M246.45,129.82a1.53,1.53,0,0,1-1.43,1.64,1.57,1.57,0,1,1,1.43-1.64Z" style="fill:#263238"></path><polygon points="238.81 128.95 239.05 138.06 243.85 136.58 238.81 128.95" style="fill:#9a4a4d"></polygon><path d="M234.92,149.81c-3.65-.48-11.17-3.26-12.35-6.23a7.71,7.71,0,0,0,2.64,3.8c2.25,1.92,9.71,4.09,9.71,4.09Z" style="fill:#9a4a4d"></path><polygon points="237.08 183.36 260.61 188.85 275.72 175.65 295.17 180.52 309.66 166.74 284.19 231.51 275.72 238.88 260.25 238.21 245.62 250.12 229 246.45 237.08 183.36" style="fill:#BA68C8"></polygon><polygon points="237.08 183.36 260.61 188.85 275.72 175.65 295.17 180.52 309.66 166.74 284.19 231.51 275.72 238.88 260.25 238.21 245.62 250.12 229 246.45 237.08 183.36" style="fill:#fff;opacity:0.6000000000000001"></polygon><polygon points="275.72 175.65 260.25 238.21 245.62 250.12 260.61 188.85 275.72 175.65" style="opacity:0.1"></polygon><polygon points="295.17 180.52 309.66 166.74 284.19 231.51 275.72 238.88 295.17 180.52" style="opacity:0.1"></polygon><path d="M246.46,247.16h-.11l-13.89-2.9a.51.51,0,0,1-.4-.56l7.62-56.06a.49.49,0,0,1,.22-.34.47.47,0,0,1,.4-.07l19.3,4.69,14.72-12.3a.48.48,0,0,1,.43-.1l19.06,4.13,10.42-8.72a.51.51,0,0,1,.61,0,.5.5,0,0,1,.17.59l-21.6,55.36a.5.5,0,0,1-.13.19l-6.33,5.5a.48.48,0,0,1-.36.12l-15.45-.9-14.37,11.29A.51.51,0,0,1,246.46,247.16Zm-13.34-3.8,13.21,2.76,14.34-11.26a.6.6,0,0,1,.34-.11l15.44.9,6.08-5.28,20.84-53.43-9.1,7.63a.48.48,0,0,1-.43.1l-19.07-4.13L260,192.84a.52.52,0,0,1-.43.11l-19-4.63Z" style="fill:#fafafa"></path><path d="M248.79,233.05c-.66-2.23-3.82-.05-9.34-.82-4.83-.66-8.39-1.88-8.27-3.26l-3.68,12.65a29.66,29.66,0,0,0,5,.45C242.11,242.14,249.45,235.29,248.79,233.05Z" style="fill:#b16668"></path><path d="M293.37,208.16c-2.42,1.93-4.9,1-6.15,4.07s-.91,7.8,1.67,7.33c3.33-.61,4.63-2,5.57-3.69,3.59-6.3.2-11,.2-11Z" style="fill:#b16668"></path></g></g></svg>