<svg xmlns="http://www.w3.org/2000/svg" viewBox="0 0 500 500"><g id="freepik--Background--inject-101"><g id="freepik--Mountains--inject-101"><g id="freepik--mountains--inject-101"><path d="M461.22,288.89v-60.6s-87.59-69.49-94.43-69.14c-5.22.27-15,8.15-15,8.15s-31.94-32.27-38.17-33-95.9,90.26-95.9,90.26v64.36Z" style="fill:#e0e0e0"></path><path d="M461.22,288.89v-60.6s-87.59-69.49-94.43-69.14c-5.22.27-15,8.15-15,8.15s-31.94-32.27-38.17-33-95.9,90.26-95.9,90.26v64.36Z" style="fill:#e6e6e6"></path><path d="M351.75,167.3l-12.08,9.09c3.65-2.74,7,1.71,12.09,1.53s8-4.56,12.91-3.19c4,1.13,5.61,2.87,8.46,3.32,5.21.83,3.76-2,6.71-2.62,2-.42,12.17,1.11,16.31,2.84-14.83-10.91-27-19.24-29.36-19.12a8.31,8.31,0,0,0-1.85.35,20.6,20.6,0,0,0-3.53,1.45c-.33.17-.66.34-1,.52a62.75,62.75,0,0,0-6.24,4c-1.48,1.07-2.43,1.84-2.43,1.84Z" style="fill:#f5f5f5"></path><path d="M311.09,153.94c3.94.31,10.35,4.1,13,1.71s8.68-6.67,11.31-4.2c-8.88-8.29-18.66-16.8-21.83-17.18-2.08-.26-13.48,9.74-27.74,23.16,6-3.49,10.09.78,13.65,1.72S307.15,153.62,311.09,153.94Z" style="fill:#f5f5f5"></path><path d="M320.62,147c4.22,5.24-4.1,1.18-8.1,2.36s14.76,14.14,11.43,17.22c-1.84,1.71-13.83-2.89-11.58,1.3.73,1.34,13.06,11,7.31,11.74-3.44.43-8.14-1.35-6.16,3.53a25.83,25.83,0,0,0,5.77,8.61l32.47-24.43s-30.5-30.82-37.7-32.93l-.47-.1C312.28,134.7,316.41,141.73,320.62,147Z" style="fill:#fff;opacity:0.30000000000000004"></path><path d="M366.79,159.15a5.17,5.17,0,0,0-.64.09c-2.1.93,3.3,7.32,4.44,9.67,1.22,2.54-10.35,0-10.83,1.71s15.7,13.37,15.88,15.46-14.53-1.94-15-.08,16.76,15.19,17,19.09c.13,2.13-6.2.53-11.1-1.2-3.41-1.2-9,0-4.1,5.8,2.93,3.43,98.74,76.29,98.74,76.29V228.29C457.85,225.62,373.5,158.81,366.79,159.15Z" style="fill:#fff;opacity:0.30000000000000004"></path><path d="M265.52,288.89l0-75.12s-60.85-53.92-66.67-53.62c-4.43.22-30,19.18-30,19.18S139,152.59,133.7,152s-99,72-99,72l0,65Z" style="fill:#e0e0e0"></path><path d="M265.52,288.89l0-75.12s-60.85-53.92-66.67-53.62c-4.43.22-30,19.18-30,19.18S139,152.59,133.7,152s-99,72-99,72l0,65Z" style="fill:#e0e0e0"></path><path d="M198.83,160.15c-2.77.14-13.86,7.64-21.76,13.22,2.25.46,6.09,2.83,9,2.73,4.35-.16,7.68-4.16,10.79-2.43s6.71,6.05,10.7,6.7c6.42,1,7.4-1.61,10.83-.82a81.61,81.61,0,0,0,8.75,1.24C213.69,169.66,201.3,160,198.83,160.15Z" style="fill:#f5f5f5"></path><path d="M131.57,168.66c3.35.27,8.79,3.49,11.07,1.46s5.18-3.61,7.93-2.8,6.83,2.12,6.83,2.12l0,0c-9-7.68-20.63-17.09-23.74-17.47-1.73-.22-12.86,7.37-27.07,17.69,7.1-1.4,8.67,4.55,13.28,3.53C124.71,172.11,128.22,168.4,131.57,168.66Z" style="fill:#f5f5f5"></path><path d="M139.67,162.74c3.58,4.45-3.49,1-6.88,2s11.84,9.8,9,12.43c-1.57,1.45-9.18-2.05-7.27,1.51s14.34,14.22,14.34,14.22l19.94-13.58s-28.6-25.5-34.72-27.3l-.39-.08C132.58,152.31,136.09,158.29,139.67,162.74Z" style="fill:#fff;opacity:0.30000000000000004"></path><path d="M200.81,169.9c1,2.16-7.54-1.45-7.95,0s11.64,13.69,11.79,15.47-10.64-4-11-2.4,14.25,12.91,14.46,16.22c.11,1.81-5.27.45-9.44-1-2.89-1-7.68,0-3.47,4.93,2.46,2.89,69.51,59,70.33,59.69v-49s-60.85-53.92-66.66-53.62a2.91,2.91,0,0,0-.59.1C196.59,161.17,199.86,167.92,200.81,169.9Z" style="fill:#fff;opacity:0.30000000000000004"></path></g></g><g id="freepik--Palms--inject-101"><path d="M450,192.07a14.44,14.44,0,0,1,9.43-4.91,13.72,13.72,0,0,0-9,9,11.66,11.66,0,0,1,7.3-6.06,17.24,17.24,0,0,0-6.87,9.85c2.52-4.33,4.95-6.82,8.42-8.24a23.56,23.56,0,0,0-6.6,15.81c.82-3.38,2.12-7.06,4.56-9.73a42.45,42.45,0,0,0-1.79,9c1.33-4.51,3.55-9.19,6.53-11.52-.14.39-.27.8-.39,1.22-1.54,3.83-3,8.63-3,8.63s.85-2.11,2-4.75a60.45,60.45,0,0,0-1.24,8.34,44.09,44.09,0,0,1,4.72-13.46,49.75,49.75,0,0,0-1.83,11.26,51.27,51.27,0,0,1,3.55-13.37c-.22,1.3-.4,2.64-.49,3.87a36.33,36.33,0,0,0-.72,8.12,49.26,49.26,0,0,1,.76-5.51,4.23,4.23,0,0,0,.51,1.64,1.73,1.73,0,0,0,.25.21c-5.82,24-9.32,61.14-10.82,87.35l1.11.14h4.09c-.29-23.14,5-70.43,7.79-87a1.27,1.27,0,0,0,.7-.25q.19-.16.39-.36c-.09.63-.17,1.25-.28,1.85.18-.68.35-1.38.5-2.1.6-.74,1.19-2,1.92-5.39a43.58,43.58,0,0,1-1.21,10.74,28.35,28.35,0,0,0,1.91-5.5c0,1.53-.07,3-.15,4.24a42.44,42.44,0,0,0,1-8.17c.65,5.4-1.58,15.45-1.56,15.46A95.43,95.43,0,0,0,475,200.11a75.68,75.68,0,0,1,.29,8.15,46.92,46.92,0,0,0,.73-8.42,22,22,0,0,1,1,10.7,31,31,0,0,0-.17-14.34c2.9,4.67,2.42,12.34,2.08,17.17,1.26-6.28,1.79-13.24-.86-19.27a19.41,19.41,0,0,1,4.3,9.62,30.45,30.45,0,0,0-1.16-6.91,19.65,19.65,0,0,1,2.3,11.71,25,25,0,0,0-1.66-14,22.7,22.7,0,0,1,4.3,7.32,36.37,36.37,0,0,0-1.4-7.05,19.13,19.13,0,0,1,2.63,8.33c.63-5.22-.93-11.82-4.88-15.41,2.8.74,4.27,3,5.15,6.19a15,15,0,0,0-1.73-6,11.15,11.15,0,0,1,2.7,6c.2-4.91-1.78-9.34-6.17-11.21a14.68,14.68,0,0,0-3.13-.91c2.5-.42,5.29.84,7.44,2-2.52-2.08-5.22-3.55-8.59-3.44,3.9-2.2,7.4-.45,10.06,2.6-1.51-2.78-3.84-5.46-7.15-5.84a9.4,9.4,0,0,0-5.29,1.05c1.14-1.48,2.6-2.66,4.38-2.61-2.11-1.46-4.3-.34-6,1.19a9.31,9.31,0,0,1,3.32-4.39,8.59,8.59,0,0,0-3.89,3,16.74,16.74,0,0,1,3-4.64,11.21,11.21,0,0,0-5,5,30.56,30.56,0,0,1,2.06-8.06c-2,2.51-3.09,6.21-3.56,9.32a21.81,21.81,0,0,0-3-4.87s.41,1.2.85,2.77a6,6,0,0,0-5.34-2.82c3.55.33,4.88,4,5.5,7.24-3.09-5-8.41-5.42-13.72-2.28,3.8-1.53,6.69-1.45,9,.56a7.64,7.64,0,0,0-5.36.23,6.38,6.38,0,0,1,5.23,1.5,13.25,13.25,0,0,0-7.4-.62,9.21,9.21,0,0,1,5.28,1.25c-4.51-.41-9.61,3.13-10.78,7,2.8-3.53,7.76-6.43,12.53-3.77a11,11,0,0,0-9.34,3,8.84,8.84,0,0,1,6.72-1.42C455.8,185.66,451.36,188.74,450,192.07Z" style="fill:#f5f5f5"></path><path id="freepik--Palm--inject-101" d="M456.88,164.72a36.49,36.49,0,0,0-2.75-6.64,19.18,19.18,0,0,1,4.21,7.65c-.41-5.23-3.22-11.41-7.79-14.16,2.89.18,4.78,2.13,6.26,5.07a15.14,15.14,0,0,0-2.87-5.58,11.19,11.19,0,0,1,3.82,5.41c-.75-4.86-3.56-8.81-8.23-9.79a14,14,0,0,0-3.25-.29c2.37-.9,5.35-.21,7.69.5-2.88-1.54-5.81-2.46-9.09-1.7,3.39-2.91,7.16-1.88,10.37.59-2-2.43-4.83-4.6-8.16-4.33a9.35,9.35,0,0,0-5,2.05c.84-1.67,2-3.11,3.78-3.41-2.34-1-4.27.51-5.64,2.33a9.43,9.43,0,0,1,2.41-4.95,8.51,8.51,0,0,0-3.23,3.72,16.61,16.61,0,0,1,2-5.14,11.24,11.24,0,0,0-3.92,5.83,30.4,30.4,0,0,1,.45-8.31,20.73,20.73,0,0,0-1.67,9.84,21.8,21.8,0,0,0-3.92-4.19s.64,1.09,1.38,2.55A6,6,0,0,0,428,140c3.55-.36,5.56,3,6.8,6-4-4.3-9.3-3.68-13.9.43,3.43-2.24,6.28-2.73,8.93-1.2a7.72,7.72,0,0,0-5.22,1.26A6.39,6.39,0,0,1,430,147a13.17,13.17,0,0,0-7.37.82,9.22,9.22,0,0,1,5.42.2c-4.5.48-8.82,4.94-9.21,9,2.06-4,6.36-7.82,11.56-6.14a11,11,0,0,0-8.59,4.72,8.83,8.83,0,0,1,6.32-2.7c-4.19,1.83-7.94,5.71-8.59,9.23a14.4,14.4,0,0,1,8.3-6.64,13.71,13.71,0,0,0-7,10.54,11.65,11.65,0,0,1,6-7.36,17.16,17.16,0,0,0-4.82,11c1.63-4.73,3.53-7.66,6.66-9.72a23.56,23.56,0,0,0-3.41,16.79c.16-3.47.71-7.34,2.59-10.43a42.13,42.13,0,0,0,0,9.13c.42-4.68,1.7-9.7,4.16-12.56-.05.4-.1.83-.14,1.27-.76,4.06-1.3,9.06-1.3,9.06s.42-2.24,1.08-5.06a58.55,58.55,0,0,0,.4,8.42,44.45,44.45,0,0,1,2-14.11,50.39,50.39,0,0,0,.39,11.39,51.7,51.7,0,0,1,.89-13.81c0,1.32.12,2.67.28,3.9a35.26,35.26,0,0,0,.87,8.11,45.33,45.33,0,0,1-.33-5.56,4.22,4.22,0,0,0,.82,1.51,1.57,1.57,0,0,0,.29.16A780,780,0,0,0,443.57,256l5.24-.35c-4.84-22.43-8.87-70.46-9.38-87.35a1.3,1.3,0,0,0,.64-.39,4.56,4.56,0,0,0,.31-.42q.06.95.09,1.86c0-.7.07-1.42.08-2.15.45-.85.77-2.22.84-5.66a43.67,43.67,0,0,1,.9,10.77,28.66,28.66,0,0,0,.8-5.77c.29,1.51.51,2.94.68,4.2a42.91,42.91,0,0,0-.6-8.22c1.68,5.17,1.46,15.47,1.47,15.47a96.19,96.19,0,0,0,.94-12.75,75.62,75.62,0,0,1,1.86,8,48.07,48.07,0,0,0-.91-8.4A21.94,21.94,0,0,1,449.61,175a30.93,30.93,0,0,0-2.95-14c3.75,4,4.77,11.64,5.38,16.44,0-6.41-.82-13.34-4.59-18.73a19.3,19.3,0,0,1,6.08,8.6,29.66,29.66,0,0,0-2.48-6.56,19.64,19.64,0,0,1,4.54,11,25.21,25.21,0,0,0-4.35-13.42A22.85,22.85,0,0,1,456.88,164.72Z" style="fill:#f5f5f5"></path><path d="M7.94,193.91a11.15,11.15,0,0,1,2.7-6,15,15,0,0,0-1.73,6c.88-3.17,2.35-5.45,5.15-6.19-4,3.59-5.51,10.19-4.88,15.41a19.13,19.13,0,0,1,2.63-8.33,36.37,36.37,0,0,0-1.4,7.05,22.7,22.7,0,0,1,4.3-7.32,25,25,0,0,0-1.66,14,19.65,19.65,0,0,1,2.3-11.71,30.45,30.45,0,0,0-1.16,6.91,19.41,19.41,0,0,1,4.3-9.62c-2.65,6-2.12,13-.86,19.27-.34-4.83-.82-12.5,2.08-17.17a31,31,0,0,0-.17,14.34,22,22,0,0,1,1-10.7,46.92,46.92,0,0,0,.73,8.42,75.68,75.68,0,0,1,.29-8.15A95.43,95.43,0,0,0,25,212.43s-2.2-10.06-1.56-15.46a42.44,42.44,0,0,0,1,8.17c-.08-1.26-.14-2.71-.15-4.24a28.35,28.35,0,0,0,1.91,5.5A43.58,43.58,0,0,1,25,195.66c.73,3.36,1.32,4.65,1.92,5.39.15.72.32,1.42.5,2.1-.11-.6-.19-1.22-.28-1.85q.19.19.39.36a1.27,1.27,0,0,0,.7.25c2.77,16.55,6.89,63.84,6.57,87h5l1.38-.14c-1.5-26.21-5-63.37-10.82-87.35a1.73,1.73,0,0,0,.25-.21,4.23,4.23,0,0,0,.51-1.64,49.26,49.26,0,0,1,.76,5.51,36.33,36.33,0,0,0-.72-8.12,39,39,0,0,0-.49-3.87,51.27,51.27,0,0,1,3.55,13.37,49.75,49.75,0,0,0-1.83-11.26,44.09,44.09,0,0,1,4.72,13.46,60.45,60.45,0,0,0-1.24-8.34c1.19,2.64,2,4.75,2,4.75s-1.5-4.8-3-8.63c-.12-.42-.25-.83-.39-1.22,3,2.33,5.2,7,6.53,11.52a42.45,42.45,0,0,0-1.79-9c2.44,2.67,3.74,6.35,4.56,9.73a23.56,23.56,0,0,0-6.6-15.81c3.47,1.42,5.9,3.91,8.42,8.24a17.24,17.24,0,0,0-6.87-9.85,11.66,11.66,0,0,1,7.3,6.06,13.72,13.72,0,0,0-8.95-9,14.44,14.44,0,0,1,9.43,4.91c-1.32-3.33-5.76-6.41-10.22-7.39A8.84,8.84,0,0,1,43,186.1a11,11,0,0,0-9.34-3c4.77-2.66,9.73.24,12.53,3.77-1.17-3.89-6.27-7.43-10.78-7a9.21,9.21,0,0,1,5.28-1.25,13.25,13.25,0,0,0-7.4.62,6.38,6.38,0,0,1,5.23-1.5,7.64,7.64,0,0,0-5.36-.23c2.3-2,5.19-2.09,9-.56-5.31-3.14-10.63-2.72-13.72,2.28.63-3.24,1.95-6.91,5.5-7.24a6,6,0,0,0-5.34,2.82c.44-1.57.85-2.77.85-2.77a21.81,21.81,0,0,0-3,4.87c-.47-3.11-1.58-6.81-3.56-9.32A30.56,30.56,0,0,1,25,175.67a11.21,11.21,0,0,0-5-5,16.74,16.74,0,0,1,3,4.64,8.59,8.59,0,0,0-3.89-3,9.4,9.4,0,0,1,3.33,4.39c-1.7-1.53-3.89-2.65-6-1.19,1.78,0,3.24,1.13,4.38,2.61a9.4,9.4,0,0,0-5.29-1.05c-3.31.38-5.64,3.06-7.15,5.84,2.66-3.05,6.16-4.8,10.06-2.6-3.37-.11-6.07,1.36-8.59,3.44,2.15-1.15,4.94-2.41,7.44-2a14.68,14.68,0,0,0-3.13.91C9.72,184.57,7.74,189,7.94,193.91Z" style="fill:#f5f5f5"></path><path id="freepik--palm--inject-101" d="M39.69,164.72a36.49,36.49,0,0,1,2.75-6.64,19.3,19.3,0,0,0-4.21,7.65c.41-5.23,3.22-11.41,7.79-14.16-2.89.18-4.78,2.13-6.26,5.07a15.14,15.14,0,0,1,2.87-5.58,11.19,11.19,0,0,0-3.82,5.41c.75-4.86,3.56-8.81,8.23-9.79a14,14,0,0,1,3.25-.29c-2.37-.9-5.35-.21-7.69.5,2.88-1.54,5.81-2.46,9.09-1.7-3.39-2.91-7.16-1.88-10.37.59,2-2.43,4.83-4.6,8.16-4.33a9.35,9.35,0,0,1,5,2.05c-.84-1.67-2-3.11-3.78-3.41,2.34-1,4.27.51,5.64,2.33a9.43,9.43,0,0,0-2.41-4.95,8.51,8.51,0,0,1,3.23,3.72,16.61,16.61,0,0,0-2-5.14A11.24,11.24,0,0,1,59,141.88a30,30,0,0,0-.45-8.31c1.45,2.85,1.82,6.7,1.68,9.84a21.54,21.54,0,0,1,3.91-4.19s-.64,1.09-1.38,2.55A6,6,0,0,1,68.59,140c-3.55-.36-5.56,3-6.8,6,4-4.3,9.3-3.68,13.9.43-3.43-2.24-6.28-2.73-8.93-1.2A7.72,7.72,0,0,1,72,146.57a6.39,6.39,0,0,0-5.42.47,13.17,13.17,0,0,1,7.37.82,9.22,9.22,0,0,0-5.42.2c4.5.48,8.82,4.94,9.21,9-2.06-4-6.36-7.82-11.56-6.14a11,11,0,0,1,8.59,4.72,8.83,8.83,0,0,0-6.32-2.7c4.19,1.83,7.94,5.71,8.59,9.23a14.41,14.41,0,0,0-8.29-6.64,13.72,13.72,0,0,1,7,10.54,11.65,11.65,0,0,0-6-7.36,17.16,17.16,0,0,1,4.82,11C73,165,71.07,162,67.94,160a23.56,23.56,0,0,1,3.41,16.79c-.16-3.47-.71-7.34-2.59-10.43a42.13,42.13,0,0,1,0,9.13c-.42-4.68-1.7-9.7-4.16-12.56,0,.4.1.83.14,1.27.76,4.06,1.3,9.06,1.3,9.06S65.64,171,65,168.17a58.55,58.55,0,0,1-.4,8.42,44.17,44.17,0,0,0-2-14.11,50.39,50.39,0,0,1-.39,11.39,51.7,51.7,0,0,0-.89-13.81c0,1.32-.12,2.67-.28,3.9a35.84,35.84,0,0,1-.86,8.11,47.57,47.57,0,0,0,.32-5.56,4.07,4.07,0,0,1-.82,1.51,1.57,1.57,0,0,1-.29.16A780,780,0,0,1,53,256l-5.24-.35c4.84-22.43,8.87-70.46,9.38-87.35a1.3,1.3,0,0,1-.64-.39,4.56,4.56,0,0,1-.31-.42q-.06.95-.09,1.86c0-.7-.07-1.42-.08-2.15-.45-.85-.77-2.22-.84-5.66a43.67,43.67,0,0,0-.9,10.77,28.66,28.66,0,0,1-.8-5.77c-.29,1.51-.51,2.94-.68,4.2a42.91,42.91,0,0,1,.6-8.22C51.72,167.65,51.94,178,51.93,178A96.19,96.19,0,0,1,51,165.2a75.62,75.62,0,0,0-1.86,8,48.07,48.07,0,0,1,.91-8.4A21.94,21.94,0,0,0,47,175a30.93,30.93,0,0,1,2.95-14c-3.75,4-4.77,11.64-5.38,16.44,0-6.41.82-13.34,4.59-18.73a19.3,19.3,0,0,0-6.08,8.6,29.66,29.66,0,0,1,2.48-6.56,19.64,19.64,0,0,0-4.54,11,25.21,25.21,0,0,1,4.35-13.42A22.85,22.85,0,0,0,39.69,164.72Z" style="fill:#f5f5f5"></path></g></g><g id="freepik--Floor--inject-101"><g id="freepik--Sea--inject-101"><ellipse cx="250" cy="338.03" rx="243.99" ry="148.24" style="fill:#BA68C8"></ellipse><ellipse cx="250" cy="338.03" rx="243.99" ry="148.24" style="opacity:0.30000000000000004"></ellipse><g style="opacity:0.1"><path d="M432.66,436.3a97.87,97.87,0,0,0-11.11-4c-3.28-.85-7.7-1.24-11.21.35a9.46,9.46,0,0,0-4.47,4.31,19.55,19.55,0,0,0-2.45,7.5c-.24,2.55.13,5-.48,7.63a10.51,10.51,0,0,1-.57,1.69q4.15-2,8.21-4.19c.4-1.52.82-3,1.27-4.57a12.62,12.62,0,0,1,1.52-3.56,5.24,5.24,0,0,1,3.2-2.28,4.5,4.5,0,0,1,1.92.26c1.87.52,4.47.93,7.12,1.45Q429.24,438.65,432.66,436.3Z" style="fill:#BA68C8"></path><path d="M35.92,292c8.53-2.15,18.18-5.26,21.43-10.27,3.52-5.37-2.17-9.84-5.67-14.25-3.32-4.17-4.63-9.33-1.74-14.37Q44.38,258,39.53,263a14.33,14.33,0,0,0,1.68,4.43c1.06,1.79,2.5,3.29,3.45,5.17a7.51,7.51,0,0,1,.28,6.62c-1.65,3.6-6,5.65-9.71,6.47-4.29.95-8.47,1-12.76,1.84-.74.15-1.48.34-2.23.55A109.73,109.73,0,0,0,14,300.43C19.06,296.29,27.94,294.05,35.92,292Z" style="fill:#BA68C8"></path><path d="M164.16,476.83Q170,478.17,176,479.3a33.75,33.75,0,0,0-10.19-2.37C165.23,476.88,164.69,476.86,164.16,476.83Z" style="fill:#BA68C8"></path><path d="M479.33,388.7c-2.37.56-4.8,1-7.18,1.37-7.51,1.13-14.45-.69-21.09-2.25-6.1-1.44-12.1-3.11-18.41-4.1-2.36-.38-4.68-.46-6.67,2.22-1.52,2.05-1.21,4.51-3.38,6.33-2.83,2.36-8.78,2.71-12.06,1.4s-4.62-3.68-6.13-5.87c-6.36-9.17-17.58-16.7-32.14-21.57-2.57-.86-5.36-1.71-6.54-3.29s-.56-3.79.18-5.79l3.73-10.4a4.64,4.64,0,0,1,1.65-2.46c1.56-1.12,4.14-1.47,6.36-1.56,8.36-.34,16.09,1.61,24.55,0,6.82-1.25,12.59-4.55,18.5-7.28a117.77,117.77,0,0,1,20.18-7.07c9.18-2.3,19.42-3.57,27-1.52s10.68,8.39,4.43,13.15c-2,1.54-4.75,2.77-6.56,4.39-3.93,3.47-2.23,7.49,1.07,10.22,3.91,3.26,9.65,5.52,15,7.94a61.07,61.07,0,0,1,7.61,4c.58-1.8,1.09-3.62,1.56-5.44a42.25,42.25,0,0,1-5.62-2.84c-2.06-1.23-4.52-1.7-6.51-3.1-2.43-1.71-3.87-4.06-2.89-6.59s4.06-4.83,6.1-7.26c4.62-5.56,3.12-11.86-3.62-15-3.4-1.58-8.32-2.94-7.58-5.81s6.22-4.71,10.68-6.39a76,76,0,0,0,8.18-3.62q-1.25-4.05-2.87-8.06c-3.76,4.74-10.51,8.31-15.61,10.32-9,3.54-19.56,5.12-27.86,9.25-4.32,2.13-9,5.19-13.81,4.8-3.27-.27-4.89-2.17-5.16-4.09s.36-4,0-5.91c-.64-3.13-4.08-5.51-7.93-7.43-11-5.47-26.29-8.58-33.11-16.14-1.22-1.34-2.1-3-.75-4.64,2.84-3.44,11.52-3.24,16.65-5.85,5.3-2.7,4.59-7,3.29-10.33l-4-10c-.95-2.4-1.92-4.82-1.41-7.45s2.68-5.51,6.67-7.32c5.71-2.58,12.91-2.18,18.52-1.07a41.88,41.88,0,0,1,11.76,3.81c15.74,8.67,5.76,27.73,21,36.69a21.66,21.66,0,0,0,12.73,2.73c3.9-.35,7.85-1.67,11.71-2.09q-2.49-4.19-5.39-8.3a21.57,21.57,0,0,1-8.45-1.1c-8-3.36-8.23-14.32-12.2-21.83-.09-.17-.19-.33-.29-.5a179.21,179.21,0,0,0-14.11-11.6q-1.14-.51-2.31-1c-7-2.65-14.57-4.11-21.76-6.38-1-.33-2-.71-2.34-1.64-.47-1.27.4-4.16,1.6-6.93a284.71,284.71,0,0,0-55.09-23c-3.74.2-7.51.53-11.26.81a2.77,2.77,0,0,1-1.54-.2c-.76-.49-.55-1.72-.38-2.74.1-.51.17-1,.22-1.52-2.32-.61-4.65-1.18-7-1.74a11.56,11.56,0,0,1-.36,3.34,11.31,11.31,0,0,1-6.83,7.74c-2,.9-4.44,1.41-6.37,2.37a10.28,10.28,0,0,0-4,3.59c-2.78,4.32-1.4,8.9,3.5,11.46,2.6,1.34,6,2.14,8.88,3.3a18.49,18.49,0,0,1,6.39,4.1c2,2.07,2.66,5.2-1,7.25a21.27,21.27,0,0,1-5.95,1.87c-9.54,2-20.91,3.8-26.86.39-4.37-2.51-4-7-6.53-10.32-1.5-2-4-3.49-6.67-4.86-9.58-4.9-22.14-7.94-36-8.73-4.85-.27-10.45-.49-12.54-2.83-1.23-1.39-.89-3.21-.51-4.94,1.11-5.33,3.51-11.12,8.64-14.92,2.38-1.77,10.84-5.78,9.31-8.86q-7.9-.24-15.82-.17a11.77,11.77,0,0,1,3.26,1.16c.7.41,1.24.93,1.23,1.56,0,1.69-3.55,2.95-6.08,4.18a12.73,12.73,0,0,0-5.84,5.1,19.28,19.28,0,0,1-1.39,2.91,5.81,5.81,0,0,1-3.78,2.19c-2.35.36-3.84-.77-5.5-1.46-6.09-2.63-16.87.22-24.26-1.28a29.51,29.51,0,0,1-6.55-2.42c-5-2.24-10.67-4.05-16.08-6q-5.21.93-10.36,2A54.11,54.11,0,0,1,187,203.86c5.51,3.08,11.16,6.67,19.68,6.71,5.81,0,12.15-1.64,17.82-1.3,8.82.55,12.74,6.95,7.3,12-2.12,2-5.22,3.59-8,5.3-5.58,3.39-10.24,7.39-12.1,11.59s-.66,8.55,4.21,10.92c2.78,1.34,10,2.09,7.63,4.33-3.73,3.55-12.74.48-18.63-.3a48.81,48.81,0,0,0-14.29-.06c-6.56,1-13.47,2.95-19.61,2.09-4.45-.61-10.27-2.25-11.45-6.79-1-3.67,1.57-8-.11-11.43-2.23-4.59-10.91-6.34-18.89-7.58s-16.79-2.71-19.68-7.1c-2-3-.71-6.79,2.41-10.12.37-.4.78-.81,1.2-1.2q-6.76,2.48-13.33,5.23a18.89,18.89,0,0,0,.88,9.15c1,2.53,2.59,5.25,1,8.21-1,2-3.24,3.39-5.23,4.56-2.55,1.52-5.27,3.07-7.91,3.17-3.16.13-5.36-1.9-7.56-3.61a40.84,40.84,0,0,0-11.95-6.11c-1,.57-1.94,1.13-2.9,1.72q-9.14,5.55-17.09,11.52A31.79,31.79,0,0,1,76,241.85c5.57.57,9.31,3,12.47,5.48,1.86,1.45,3.68,3,4,5,.2,1.52-.55,3.15-.61,4.71-.23,4,3.85,7.05,8.22,9.56,4.15,2.39,9,5.43,6.3,9.25a32.78,32.78,0,0,1-3.06,3.07c-3.08,3.16-3.08,6.88,0,9.2,3.57,2.69,10.67,3.47,13,6.69s-2.18,8.31-8.86,9.92-13.45,0-19.83,2c-6.11,1.9-9.57,6.4-15.78,8-6,1.59-11.58-.19-17.18-.9a50.24,50.24,0,0,0-16.8,1c-3.28.72-6.47,1.77-9.78,2.32a18.73,18.73,0,0,1-8.88-.72,15.17,15.17,0,0,1-7.85-5.61,5.87,5.87,0,0,1-.69-1.34A94.08,94.08,0,0,0,8,319.1c3.9,1.48,7.44,3.46,7.73,6.35s-2.68,5.94-3.8,8.94c-1.72,4.59,1.05,8.77,4.53,12.34s7.71,6.9,9.24,11.1a6.94,6.94,0,0,1-1.36,7.26c-2.08,2.39-5.86,4.26-9.27,6.18-.78.44-1.57.9-2.35,1.37q1.27,3.23,2.79,6.42c1.4-1.09,2.93-2.15,4.48-3.16,5.67-3.66,12.16-7.16,15.77-11.43,3.31-3.93,3.82-8.27,1.36-11.6-3.78-5.17-13.89-7.72-16.71-13.19s3.18-12.79,13-16.28a51.6,51.6,0,0,1,19.66-2.53,54.11,54.11,0,0,1,25.07,7.26c5.19,3.12,9.26,7.6,6.27,12.52-2.74,4.52-11,8.44-11.74,13-.68,3.79,4.23,6.37,9.21,8.12s10.72,3.39,12.63,6.68c1.61,2.76.19,6.2,1,9.19,2.32,8.8,21.85,10.58,28.73,18,.9,1,1.35,2.46-.44,3.36a8.26,8.26,0,0,1-3,.64c-4.56.38-9.63,1.77-12.41-.8s-2.84-5.8-5.68-8.15c-4.59-3.84-12.92-5.9-22-5.45S62,388.59,55.15,393c-2,1.31-3.82,2.73-6,4-5.55,3.14-13.29,4.56-19.95,4.21a147.74,147.74,0,0,0,15.47,17c10.67,6.68,27.14,6.54,34.88,16.44,2.78,3.56,4.16,8.09,5.49,12.66a269,269,0,0,0,34.55,16.11c1.64-.93,2.77-1.5,2.77-1.5,4.32-2.05,6.85-5.36,6.22-8.06a2.77,2.77,0,0,1-.15-1.68,3.94,3.94,0,0,1,1.19-1.34c3.62-2.85,10.55-4.24,15-3,3.73,1,5.52,3.43,9.22,4.45,3.9,1,9.07.32,13.85-.42a53.42,53.42,0,0,1,9.78-.92c3.15.11,6.09.94,7,2.58s-.35,3.77-.49,5.68c-.23,3.53,3.63,6.24,8.62,7.65s11,1.7,17,2,12,.6,16.93,2a20.6,20.6,0,0,1,7.87,4,2.67,2.67,0,0,1,1.26,2.27,5.07,5.07,0,0,1-1.42,2.13q-2.1,2.31-4.22,4.66c-.56.62-1.14,1.24-1.75,1.85,2.94.15,5.89.28,8.83.38,3.42-2.6,6.7-5.38,8.06-8.32s.32-6.23-3.77-7.48c-2.28-.69-5.22-.7-7.6-1.32s-4.19-2.19-2.67-3.79c1-1,3-1.68,4.92-2.14,15.05-3.7,31.66-3.15,45.31-8.87,7.8-3.29,13.46-8.21,21.3-11.47,9.19-3.87,21-4.9,29.24-2.57a27.59,27.59,0,0,1,9.2,4.55c3.94,2.91,6.81,6.58,6.11,10.76s-5.72,8.9-12.89,10.72c-6.05,1.52-12.06.77-17.94.53a104.81,104.81,0,0,0-17.15.71c-4.91.6-10.07,1.61-14.2,3.67-6.88,3.42-9.2,9-7.74,13.28a10.25,10.25,0,0,0,.4,1c3.52-.24,7-.53,10.52-.87a6.34,6.34,0,0,1,.64-4.52c1.84-3.45,6.11-5.14,9.75-5.91,13.68-2.85,26.29.6,39.93-1.71,4.82-.83,9.92-2.35,14.22-1.39a12.64,12.64,0,0,1,2.53.89q8.79-2.57,17.32-5.57a23.27,23.27,0,0,1-6.48-2.07,15.75,15.75,0,0,1-8.31-9.76v-1.76c.18-6-4.86-11.17-13.2-13.71a49.13,49.13,0,0,1-6.82-2.16c-1.94-1-3.19-2.55-2.25-4.24a13,13,0,0,1,2.36-2.5c2.78-2.74,3.59-5.94,2.17-8.46-.92-1.6-2.46-3.57,0-5.06a8,8,0,0,1,5.57-.64,10.62,10.62,0,0,1,3.79,2.05,21.91,21.91,0,0,0,12.32,4.21c9.54.29,19-4.91,26.55-9.59l12-7.45c3.44-2.12,7.59-4.49,12.05-4.58,2.7-.08,4.86.72,7.37,1.05a54.63,54.63,0,0,0,9.64-.07c13.81-.67,26.9,1.21,36.93,5.28A128.27,128.27,0,0,0,479.33,388.7ZM332.91,223.47c-.44-4.64,7.34-9.77,15.66-11.6a52.35,52.35,0,0,1,23.63.7,68,68,0,0,1,22.94,10.65c4.35,3.1,8.26,6.59,9,10.91a5,5,0,0,1-1.15,4.4c-1.2,1.41-3.32,2.55-5.33,3.68-5,2.82-9.84,5.81-13.28,9.23s-5.4,7.32-4.22,10.62c1.26,3.52,5.81,5.95,8.32,9.09s1.95,8.08-4.11,10.52a31.68,31.68,0,0,1-6,1.47,43.41,43.41,0,0,1-18.47-.83,8.2,8.2,0,0,1-4.89-4.72c-1.44-3.6-.29-8.25.76-12.62.95-4,1.86-8.33.42-11.68-1.21-2.8-4.2-4.19-5.23-7.13-.69-2-.38-4.41-.51-6.65C349.87,229.65,333.75,232.73,332.91,223.47ZM300.75,258.8c5.57-4.32,14.68-6.84,23.05-7.55,11.51-.95,23.21,1.68,25.34,7.76,1.85,5.24-3.66,11.49-3.49,17.08.24,7.21,9.69,11.89,18.56,16l29,13.24c11,5,22.67,10.85,22.68,19.82a8.52,8.52,0,0,1-2.85,6.43c-3.35,3.22-9.59,5.25-15.52,6.27-10.9,1.88-17.57.33-27.33-1.09-2-.29-4.45-.58-5.51-.87-.55-.16-2.45-.39-2.45-.39-6.07-1.08-7.92-1.34-12.35-3.54-2.86-1.44-5.28-3.33-5.4-5.75s1.87-4.84,2-7.21-1.78-4.61-3.71-6.6c-2.69-2.73-5.6-5.52-10.4-7-5-1.58-11.57-1.56-17.85-1.51s-12.83.09-17.92-1.42-8.31-5.11-5.71-8.78c1.35-1.89,3.93-3.49,6-5.23,5.87-5,6.59-11.39,1.76-15.34-1.31-1.07-3-2-3.73-3.26-1-1.77-.09-4,1.24-6A20.32,20.32,0,0,1,300.75,258.8Zm13.41,119.57c1.3,2.9,2.54,6.34-1.12,9.23a23.07,23.07,0,0,1-7,3.25,34,34,0,0,1-20.45,1.38c-4.07-1.13-9.19-4.4-13.06-5.63-2.74-.89-6.61-1.64-9.45-2.44s-5.08-2.41-4.46-4.45c.75-2.47,5.05-4.41,8.32-6.42,8.39-5.16,10.95-12.87,5.89-17.67-1.6-1.49-3.83-2.72-5.14-4.34s-1.47-3.83.84-5.59c4-3,11.12-2.37,16.94-3.71,8.12-1.84,13.06-7.46,20.86-10,8-2.61,16.5-1.34,23.57.27,7.57,1.74,14.95,3.83,20.3,7.2s8.47,8.17,6.65,13.41-9.34,10.68-18.36,12.22c-3.91.68-7.77.62-11.67,1s-8.21,1.21-11,3.14C311.91,372,312.84,375.5,314.16,378.37ZM157.23,326.26a34.22,34.22,0,0,0-12.59-7.78c-4.75-1.79-10.27-3-14.57-5.14s-7.41-5.37-5.83-9.09c1.36-3.25,6.14-6.25,11.47-8a57,57,0,0,1,16.68-2.39c10.83-.14,20.9,1.65,28.56,5.1,3,1.33,5.66,3,5.83,5.43.14,1.72-1.06,3.56-1.89,5.35-1.67,3.68-1.35,7.86,3.57,9.46,3.41,1.11,8.16.74,12.14,1.26s7.33,2.93,4.76,5.3a27.38,27.38,0,0,1-3.37,2.13c-3.81,2.54-3.46,5.85-3.62,8.8-.25,4.19-2.11,8.58-5.45,12.75a6.52,6.52,0,0,1-.91,1.15c-6.32,4.91-11.13,11.41-20.59,13.6-6.39,1.49-12.43-.34-15.7-3-4-3.31-5.05-8-2.86-12.54,2.07-4.36,6.94-8.64,8-13C161.65,332.16,159.89,329,157.23,326.26ZM212,289.81c1.79-5.16,11.45-9.79,20.35-10.43s16.48,2.17,19.92,6.34c2.85,3.46,3.18,7.7,4.8,11.54a24.86,24.86,0,0,0,8.59,10.29,22.17,22.17,0,0,0,7.78,3.7c7.25,1.77,16.71.16,25.48-.9a89.8,89.8,0,0,1,18.47-.72c5.84.55,11.12,2.17,13.73,5,1.81,2,3,5.31.25,7.62s-7.79,2.6-11.16,1.47a7.39,7.39,0,0,0-2.08-.12,68.41,68.41,0,0,0-16.63,3.3c-6.46,2.26-11.87,5.6-18.22,8s-14.65,3.76-19.28,1.51c-6.63-3.2-1-10.77-4.65-15.43-2.55-3.32-9.27-4.59-15.77-5.18a90.25,90.25,0,0,0-15.8-.16c-5.19.47-10.47,1.53-15.55,1.62s-9.94-.86-13.33-2.68c-2.3-1.23-4-3.15-2.62-5.21,2-3,8.82-4.22,12.44-6.83C214,298.78,210.51,294.18,212,289.81Zm-12.84,69.3q4.33-11.79,8.65-23.56c1.08-2.93,2.21-6,5.24-8.67,4-3.54,11-6.06,17.58-6.3s12.21,1.86,14,5.17c1.21,2.19.85,4.77,1.17,7.17a14.76,14.76,0,0,0,5.65,9.51c2,1.66,4.5,3.76,2.14,5.87s-7.22,2.12-11.16,2.68a30.5,30.5,0,0,0-16.75,8.15c-3.72,3.74-5.45,7.79-7.1,11.76q-1.86,4.41-3.73,8.87a14.91,14.91,0,0,1-3.37,5.47c-3.52,3.42-10.67,5.65-16.82,5.66s-12-1.67-14.09-4.73a7.24,7.24,0,0,1-.49-1.26c-.13-2.81,1.86-4.5,4.72-7.23,1.89-1.8,4.33-3.44,6.3-5.22C195.78,368.28,197.53,363.61,199.18,359.11Zm-1.46,38.13c2.4-1.22,5.62-1.86,8.36-2.74,9.07-5,16-11.39,19.47-17.9,1.92-3.62,2.83-7.27,4.86-10.9a23.39,23.39,0,0,1,11-9.8,9.32,9.32,0,0,1,2.61-.81,8.6,8.6,0,0,1,3.3.38c6.18,1.6,12.84,3.59,14.15,7.58,1.1,3.35-1.95,7.28-6.1,10.51-3.88,3-9.09,6.15-9.18,9.46,0,2.1,2.15,3.75,4.83,4.86,6,2.44,14.37,2.68,21.35,4.29s12.86,5.69,9.58,10.44c-4.24,6.11-19.26,8-25.84,13.65-2.55,2.18-3.58,4.74-6.34,6.86-4.53,3.47-12.77,4.8-18.86,3.93a27,27,0,0,1-13.82-6.34c-3.44-2.83-6.27-6-10.58-8.35-3.64-2-8.34-3.49-11-6S192.86,399.7,197.72,397.24ZM222.38,245a7.51,7.51,0,0,1,.32-9.95c4.52-5.37,15.78-8.58,25.14-8.64s17.27,2.26,24.82,4.57c11.1,3.41,23,7.47,25.13,15a3.73,3.73,0,0,1-.22,3,12.15,12.15,0,0,1-3.15,2.94c-6.87,5.17-13.77,10.89-14.76,16.71-.75,4.31,1.87,8.15,5.36,11.44,1.62,1.55,3.5,3.35,2.1,5.39-1,1.48-3.5,2.6-5,4-3.38,3.24-1,7.56-6.11,10-4.38,2.12-10.23.49-11.5-2.14s.18-5.77.38-8.68c.29-4.63-2.86-8.83-8.54-11.35-3.77-1.67-9-3.42-7.43-6.54a16,16,0,0,1,1.93-2.3c3.31-3.73,2.22-8.07-2.51-10.1-6.1-1.76-10.54-4-15.75-6.44C228.49,250.05,224.6,247.88,222.38,245ZM115.31,285.27c-1.17-.72-2.22-1.6-2-2.72.37-2,4.32-3.5,6.15-5.4,3.09-3.22-.72-6.25-4.5-8.26-3.53-1.85-7.24-3.67-9.53-6.15-3.5-3.78-3.31-9,.52-13.64s11.22-8.79,19.44-10.78c9-2.16,19.85-1.19,21.85,3.54a10.56,10.56,0,0,1,.34,4.31c-.14,6.89,4.68,13.8,15.73,15.26,7.26,1,15.72-.57,23.77-1.54a155.46,155.46,0,0,1,43.08.63c6.79,1.13,14,3.66,12.65,8.1-.91,3-5.72,5.78-10.78,7.21s-10.42,1.76-15.62,2.08c-3.35,1.36-10,4.07-11.9,6.69-1.52,2.1-.81,4.19-.67,6.23a6,6,0,0,1-3.94,6,13.27,13.27,0,0,1-9.13.24c-2.48-.88-4-2.35-5.89-3.63-4.88-3.45-12-5.79-20.43-6.09-11-.41-23.13,2.62-34,2C124.43,289.07,119.09,287.6,115.31,285.27ZM94.85,358.88c-2.51-1.25-5.49-3.38-6.85-6.08s-.16-6.09,3.1-8.87c4-3.46,11.42-6.76,10.58-10.29-.33-1.43-2.07-2.44-3.73-3.38q-6.21-3.43-12.39-6.91c-2.46-1.38-5.07-3-4.73-5.23.26-1.68,2.22-3.4,4.56-4.75,7-4,18.15-5.09,24.33-2.36,4,1.78,5.8,4.75,9,7,3.82,2.63,9.5,4.14,15.06,5.6s11.22,2.94,15.11,5.55,5.64,6.62,2.69,10.48c-2.13,2.74-6.39,5.13-7.9,7.94s-.79,6-5,7.62c-2.79,1.06-5.92.58-8.93.71-5.69.22-11.2,2.68-16.85,4.15S98.65,360.8,94.85,358.88Zm51.88,80.58c-5.06,2.66-11.11,1.61-17.25,2.52-2.61.39-5.11.11-7.71.25s-5.75,1-6.72,2.48a2,2,0,0,0,0,2.24c.87,1.52,2.7,2.69,3.75,4.14s1.13,3.46-1.08,4.94c-2.66,1.78-7.13,1.83-10.22,1.12-9.31-2.15-12.29-8.54-13.43-14.58s-1.46-12.64-7.83-16.88c-5.53-3.68-14.66-4.91-22.44-7.05s-14.93-6.1-13.3-11.67c.85-2.8,3.84-5.56,7.35-8a50.88,50.88,0,0,1,19.63-8.13c7.45-1.32,15.37-.49,19,2.66,2.4,2.08,2.79,4.91,3.9,7.45a9.21,9.21,0,0,0,8,5.55c6,.66,13.18-2.52,19.47-2.3,6.62.21,9.7,3.93,11.92,7.3,3.09,4.68,6.16,9.36,9.26,14,1.39,2.13,2.82,4.3,2.83,6.75S150.3,437.57,146.73,439.46Zm4.44-27.09c-2.3-9.51-10.26-17.83-22.39-23.39-6.22-2.84-13.58-5-18.19-8.76s-5.63-9.75.74-14.24c6.57-4.65,18-5.54,26-3.84s13.63,5.29,20.43,8a17.08,17.08,0,0,0,7.09,1.47c7.07-.21,12.18-6.55,19.4-7.57.78-.12,3-.23,3.67.87,1.14,2-2.44,6.55-5.27,9.19s-6.89,4.87-10.06,7.4-5.44,5.79-3.66,8.11c2.77,3.64,13.6,3.08,15.81,6.89,2.09,3.57-4.79,8.07-5.58,12.2-1.09,5.52,9,9.41,5.15,14.93-2.07,3-8,5.21-13.2,5.44a21.77,21.77,0,0,1-12.71-3.16,13.78,13.78,0,0,1-5.28-5.85C152,417.61,151.81,414.94,151.17,412.37Zm139.94,31.07c-8.25,6.55-21.88,10.52-34.54,11.7-9.87.92-20.74.68-29,4.87-1.83.9-3.43,2-5.38,2.8-3.74,1.51-8.16,1.66-12.15,1.57-6-.14-12.5-.95-14.59-4-1.54-2.25-.26-5.11.37-7.79s.2-5.66-3.54-6.7-8.67.27-13.2,1a50.86,50.86,0,0,1-17.24,0c-4.85-.92-9.26-3.13-8.41-6.37.74-2.82,5.46-5.44,10.33-6.51a44.58,44.58,0,0,1,14.3-.39l1.3-.35c5.59-2.44,9.81-6.08,11.31-9.74.71-1.73.86-3.5,2.06-5.2a9.41,9.41,0,0,1,6.9-3.57,6.28,6.28,0,0,1,6.17,3.64c2.39,4.31,4.85,8.72,10,11.87s13.79,4.75,22.25,2.67c5.29-1.29,9.75-3.81,14.6-5.79a70.91,70.91,0,0,1,24.85-5.1c5-.09,10,.44,13.66,1.93C300.3,427.75,299.35,436.9,291.11,443.44Zm101.61-42c-1.93,3.1-5.73,5.89-9.71,8.48a34.92,34.92,0,0,1-9.41,4.59,32.35,32.35,0,0,1-13.11.63A32,32,0,0,1,350.27,412c-2.55-1.34-4.72-3.07-8.28-3.54-5.91-.82-14,3-14.3,6.75-.22,3.24,4.4,5.47,4,8.72-.35,2.84-4.39,5.54-8.17,7.88-2.66,1.66-5.73,3.45-9.24,3.78a9,9,0,0,1-7.48-2.42c-1.37-1.55-1.76-3.43-2.56-5.17-1.56-3.31-4.8-6.16-9.27-8.16l-.94-.18c-4.21-2.86-13-1.58-20.23-1.53-1.52,0-3.26-.15-3.54-1-.14-.4.13-.85.43-1.26,3.83-5,16.42-7.35,18.87-12.41.72-1.46.42-2.95,1.6-4.35,1.76-2.11,6.13-3.24,9.9-3.59s7.49-.21,11.23-1c5.24-1.17,9.68-4.31,10.35-7.34,1-4.35-4.95-7.92-1.95-12.24,1.84-2.64,6.6-4.59,11.21-5.56s9.27-1.18,13.92-1.79a68.94,68.94,0,0,1,8.94-1c5.94-.07,10.36,2.07,14.11,4.25a92.6,92.6,0,0,1,19.36,14.76C392.66,390.19,396.35,395.65,392.72,401.46Z" style="fill:#BA68C8"></path></g></g></g><g id="freepik--Clouds--inject-101"><path id="freepik--Cloud--inject-101" d="M398.53,81.11A14.07,14.07,0,0,1,406,84.42a12.28,12.28,0,0,1,1.76,1.91c.67.9,1.34,2,2.45,2.21a4.29,4.29,0,0,0,1.67-.1A16.46,16.46,0,0,1,423.6,91c1.62,1.07,3.21,2.5,5.15,2.49a12.4,12.4,0,0,0,2.61-.5,9.36,9.36,0,0,1,6,.73,15.12,15.12,0,0,0,3.24,1.51c2.32.51,4.63-1,7-1,2.86,0,5.21,2.33,8,2.92,2.1.45,4.35-.07,6.4.59a2.07,2.07,0,0,1,1.39,1.09,1.88,1.88,0,0,1-.93,2.09c-2.94,2-6.83-1.16-10.32-.59-2.35.38-4.13,2.38-6.43,3-2.52.7-5.17-.34-7.78-.48-4.43-.22-8.69,2.18-13.13,1.94-2.92-.17-5.69-1.47-8.62-1.52-4.54-.09-8.82,2.85-13.34,2.38a36.5,36.5,0,0,1-4.26-1,5.9,5.9,0,0,0-2.7-.2c-.78.19-1.52.35-2.31.48-2.09.34-4,1.35-6.17,1.44-4.09.16-7.61-3.17-11.7-3.45-2.69-.18-5.34,1-8,.78a7.86,7.86,0,0,1-.83-.11c-.69-.12-1.32-.38-2-.55a3,3,0,0,0-1,.09c-.36,0-.72.06-1.08.07a14.55,14.55,0,0,1-4.26-.51c-1.89-.53-3.69-1.44-5.65-1.52s-4.16.8-6.21.44a2,2,0,0,1-1.34-.7.93.93,0,0,1,.21-1.34,1.55,1.55,0,0,1,.71-.1,5.37,5.37,0,0,0,2.76-.83c.58-.37,1.08-.84,1.68-1.16,2-1.07,4.6-.07,6.82-.69,1.49-.41,2.68-1.51,4.08-2.17a8.48,8.48,0,0,1,1.89-.6,12.54,12.54,0,0,1,4,0c.68.09,1.35.21,2,.35l1,.22a2.31,2.31,0,0,0,.52.12,1.79,1.79,0,0,0,.9-.35,6.89,6.89,0,0,0,1.57-1.93,6.59,6.59,0,0,1,5-2.68,29.71,29.71,0,0,0,3.4,0,3.46,3.46,0,0,0,2.34-1.69c1.37-2,2.89-4,5.13-5a7.35,7.35,0,0,0,1.37-.7,4.56,4.56,0,0,1,1-.49,13.63,13.63,0,0,1,2.06-.64,14.16,14.16,0,0,1,4.31-.23Z" style="fill:#f0f0f0"></path><path id="freepik--cloud--inject-101" d="M75.13,87.56a12.79,12.79,0,0,1,6.78,3,11.4,11.4,0,0,1,1.6,1.73c.6.82,1.22,1.8,2.22,2a3.92,3.92,0,0,0,1.52-.09,14.92,14.92,0,0,1,10.62,2.28c1.47,1,2.91,2.27,4.67,2.27a11.41,11.41,0,0,0,2.37-.46,8.5,8.5,0,0,1,5.46.66,13.69,13.69,0,0,0,2.93,1.37c2.11.46,4.2-.92,6.36-.88,2.6,0,4.73,2.11,7.28,2.66,1.52.32,3.1.09,4.64.28.39,0,.76.17,1.15.24.23.05.46,0,.68,0a.86.86,0,0,1,.47,1.31,1.45,1.45,0,0,1-.62.37,16.85,16.85,0,0,1-6.58,1.18A10.4,10.4,0,0,0,122,106c-.45.2-.91.37-1.37.56a24.24,24.24,0,0,1-2.7,1.22c-2.29.63-4.69-.31-7.06-.43-4-.21-7.89,2-11.92,1.75-2.64-.15-5.16-1.33-7.81-1.38-4.13-.07-8,2.59-12.11,2.16A32.31,32.31,0,0,1,75.2,109a5.23,5.23,0,0,0-2.45-.19c-.7.17-1.37.32-2.09.44-1.89.31-3.66,1.23-5.6,1.3-3.71.15-6.91-2.87-10.62-3.12a10.15,10.15,0,0,0-2.27.12c-.67.1-1.34.31-2,.4a4.11,4.11,0,0,1-1.08-.2c-.4-.07-.81-.11-1.22-.14a22.85,22.85,0,0,0-2.48,0,23.31,23.31,0,0,1-4.94,0c-1.62-.24-3.17-.89-4.81-1-2.61-.2-5.51.89-7.69-.56-.23-.16-.47-.43-.36-.68a.69.69,0,0,1,.34-.29c2.44-1.22,5-2.47,7.68-2.62a14.2,14.2,0,0,0,4.13-.33A19,19,0,0,0,42,100.9a10.18,10.18,0,0,1,4.16-1c.73,0,1.45-.06,2.18,0,1,0,1.73.4,2.68-.22a6,6,0,0,0,1.43-1.76A6,6,0,0,1,57,95.41a26.58,26.58,0,0,0,3.09,0,3.14,3.14,0,0,0,2.12-1.53c1.25-1.78,2.63-3.6,4.66-4.53a6.6,6.6,0,0,0,1.24-.64,4.17,4.17,0,0,1,.9-.44,11,11,0,0,1,1.87-.58,12.82,12.82,0,0,1,3.91-.21Z" style="fill:#f0f0f0"></path></g><g id="freepik--Sun--inject-101"><circle id="freepik--sun--inject-101" cx="118.27" cy="49.14" r="17.34" style="fill:#ffbda7"></circle></g><g id="freepik--Characters--inject-101"><g id="freepik--Scooter--inject-101"><path d="M385.76,428.46C344.38,450.82,281,449.38,214.81,433c-68.69-17-58.71-26.1-40.91-28.7s37.43-9.36,18.46-13.55c-34.93-7.72-64.56-15.6-77.65-25.11-17.92-13-5.75-15.79,7.13-19s9.37-7.13-8.81-15.89S59.47,303.2,69.54,295.8c4.81-3.53,21.29-.52,32.28-1.69s-.25-8-19-18C61.1,264.53,60.06,256,64.56,254.67c11.63-3.5,32.86,3.19,54.42,8.27,23.19,5.47,37,10.68,18.26-4.88-16.29-13.51,9.36-10.63,34.61,1.24,23.48,11,18.72-1.21,16.07-7.86s12.15-11.61,94.38,38.41C347.12,329.28,426,406.73,385.76,428.46Z" style="fill:#BA68C8;opacity:0.65"></path><path d="M330.64,367.16C303,351,193.52,295,167.06,284.91s-53.16-18.07-66.57-20c-11.63-1.7-13.9,3.34-9.12,6.76,11.63,8.35,35,20,28.69,25.18s-21.89,5,8.78,23c32.36,18.95,44.93,30,32.41,31.13-20.91,1.88-20.7,6.52-5.95,14.78,22,12.35,51.58,18.11,64.59,26.29s-16,10.92,1.9,22.41c14.86,9.55,54.81,18.56,112.38,18C410.07,431.77,405,410.49,330.64,367.16Z" style="fill:#BA68C8;opacity:0.85"></path><path d="M330.64,367.16C303,351,193.52,295,167.06,284.91s-53.16-18.07-66.57-20c-11.63-1.7-13.9,3.34-9.12,6.76,11.63,8.35,35,20,28.69,25.18s-21.89,5,8.78,23c32.36,18.95,44.93,30,32.41,31.13-20.91,1.88-20.7,6.52-5.95,14.78,22,12.35,51.58,18.11,64.59,26.29s-16,10.92,1.9,22.41c14.86,9.55,54.81,18.56,112.38,18C410.07,431.77,405,410.49,330.64,367.16Z" style="fill:#fff;opacity:0.15"></path><path id="freepik--Shadow--inject-101" d="M113.46,325.11c4,3.29,10.59,8,21.49,14.3,6.3,3.64,38.29,23.59,69,41.32,22.95,13.24,30,17.7,59.26,33.4,15.79,8.48,39.64,17.68,78.68,22.19,25.25,2.92,48.71-1.07,59.86-7.51s18.06-20,13-34.56c-7.81-22.54-23.75-36.31-38.44-45.43-27.19-16.87-34.91-21-57.86-34.21-30.69-17.72-65.25-36.19-71.55-39.83a198.07,198.07,0,0,0-24.78-12.4c-5.72-2.31-13.51-2.61-20.74-.86,0,0-24.45,4.07-36.88,11.25l-33,19.07C119,299,112,313.13,112,313.13,109.38,318.06,109.47,321.8,113.46,325.11Z" style="opacity:0.30000000000000004"></path><path d="M123,293.08s9.62,20.61,12.74,28.75c1.46,3.83,3.25,5.43,11,10.86l37.64,26.42c3.62,2.09,14.75,11.57,14.75,11.57,5.57,5.32,10.69,7.83,22,14.45,12.73,7.46,36.34,23.22,78.65,36.79,56.15,18,115.13-4.77,127.12-24.94Z" style="fill:#455a64"></path><path d="M166.23,341.54l-21.56-15a3.94,3.94,0,0,1-1.2-1.65l-3.26-8.18c-.05-.5.19-.72.53-.5l24.58,15.06a38.8,38.8,0,0,1,8.18,7.37c1.62,1.9,3,3.82,3.12,4.83s-1.14,1.23-2.6,1.12A17.23,17.23,0,0,1,166.23,341.54Z" style="fill:#263238"></path><path d="M121.65,298.59c4.15,3.43,11,8.35,22.41,14.91,6.58,3.8,39.92,24.6,71.93,43.08,23.93,13.82,31.31,18.47,61.79,34.84,16.47,8.84,41.34,18.44,82.05,23.14,26.33,3,50.79-1.13,62.42-7.84s18.83-20.83,13.57-36c-8.14-23.5-24.77-37.86-40.09-47.36-28.35-17.6-36.4-21.86-60.33-35.68-32-18.48-68-37.73-74.62-41.53A208.4,208.4,0,0,0,235,233.17c-6-2.4-14.09-2.71-21.63-.89,0,0-25.5,4.25-38.45,11.73L140.41,263.9c-13,7.48-20.3,22.2-20.3,22.2C117.4,291.24,117.49,295.14,121.65,298.59Zm2.2-9.77.23-.31.17-.34c.07-.14,6.86-13.56,18.48-20.26L177.18,248c12.07-7,36.66-11.12,36.9-11.16l.17,0,.16,0a37.8,37.8,0,0,1,8.72-1,27.42,27.42,0,0,1,10.09,1.73,205,205,0,0,1,25.25,12.65c2.1,1.21,7,3.9,13.84,7.63,14.52,7.94,38.81,21.22,60.78,33.9,5,2.88,9.28,5.34,13.22,7.6,14.81,8.5,24.6,14.11,47,28,19.36,12,31.84,26.72,38.15,44.95,4.76,13.74-2.35,25.23-11.51,30.52-8.78,5.07-25.08,8.22-42.52,8.22a149.41,149.41,0,0,1-17.05-1c-32.8-3.79-59.09-11.19-80.38-22.62-24.06-12.92-33.77-18.57-48.49-27.12l-13.18-7.65c-22-12.69-45-26.72-58.74-35.1-6.44-3.93-11.1-6.77-13.2-8-9.41-5.43-16.73-10.3-21.77-14.47C122.33,293.14,122.1,291.23,123.85,288.82Z" style="fill:#fafafa"></path><path d="M377.41,410.94c17.44,0,33.74-3.15,42.52-8.22,9.16-5.29,16.27-16.78,11.51-30.52-6.31-18.23-18.79-32.94-38.15-44.95-22.38-13.89-32.17-19.5-47-28-3.94-2.26-8.24-4.72-13.22-7.6-22-12.68-46.26-26-60.78-33.9-6.82-3.73-11.74-6.42-13.84-7.63a205,205,0,0,0-25.25-12.65,27.42,27.42,0,0,0-10.09-1.73,37.8,37.8,0,0,0-8.72,1l-.16,0-.17,0c-.24,0-24.83,4.2-36.9,11.16l-34.45,19.9c-11.62,6.7-18.41,20.12-18.48,20.26l-.17.34-.23.31c-1.75,2.41-1.52,4.32.75,6.2,5,4.17,12.36,9,21.77,14.47,2.1,1.21,6.76,4.05,13.2,8,13.75,8.38,36.75,22.41,58.74,35.1l13.18,7.65c14.72,8.55,24.43,14.2,48.49,27.12,21.29,11.43,47.58,18.83,80.38,22.62A149.41,149.41,0,0,0,377.41,410.94Z" style="fill:#e0e0e0"></path><path d="M132.21,289.27a3.52,3.52,0,0,1,.09-.42l0-.16c0-.18.11-.38.18-.59s.07-.2.12-.31c1.89-4.72,9.92-13.82,13.84-17.19h0a24.22,24.22,0,0,1,3.78-2.79l34.46-19.89c7.41-4.28,24.66-8.15,31.86-9.35l.69-.12.69-.17a22.71,22.71,0,0,1,5.18-.62,13,13,0,0,1,4.47.64A190.3,190.3,0,0,1,251,250c2.27,1.31,7.25,4,14.15,7.8,14.44,7.89,38.61,21.1,60.47,33.73l13.25,7.62c14.67,8.41,24.36,14,46.54,27.73a87.63,87.63,0,0,1,18.69,15.19h0s11.27,11.64,16.67,22.8h0a70.13,70.13,0,0,1,4.14,9.57c3.47,10-1.73,18.37-8.42,22.23-5.83,3.37-19.55,7.3-39,7.3h0a142.1,142.1,0,0,1-16.37-.95c-31.86-3.69-57.3-10.83-77.78-21.83-23.95-12.86-33.63-18.49-48.27-27l-13.21-7.66c-21.91-12.65-44.87-26.65-58.59-35-6.49-4-11.18-6.81-13.34-8.06-7-4-12-7.3-15.62-9.86a4.75,4.75,0,0,1-2-4.33Z" style="fill:#BA68C8"></path><path d="M338.82,299.18c14.67,8.41,24.36,14,46.54,27.73a87.63,87.63,0,0,1,18.69,15.19h0s11.27,11.64,16.67,22.8h0a70.13,70.13,0,0,1,4.14,9.57,17.86,17.86,0,0,1-4,18.76c-2.6-18-25.79-38-25.79-38l-109.89-56,26.26-15.79c4.74,2.68,9.48,5.39,14.13,8.07Z" style="fill:#fff;opacity:0.15"></path><path d="M381.78,383c16.11.35,26.58-2.05,31.41-5.64a11.17,11.17,0,0,0,4-13.35c-5.14-14.84-15.57-27-31.87-37.09-22.18-13.77-31.87-19.32-46.54-27.73l-13.25-7.62c-21.86-12.63-46-25.84-60.47-33.73-6.9-3.77-11.88-6.49-14.15-7.8A190.3,190.3,0,0,0,227.6,238.3a13,13,0,0,0-4.47-.64,22.71,22.71,0,0,0-5.18.62l-.69.17-.69.12c-7.2,1.2-24.45,5.07-31.86,9.35l-34.46,19.89a31.45,31.45,0,0,0-8.58,8c3.51,2.35,7.61,4.89,12.23,7.55,2.26,1.31,7,4.19,13.5,8.17,13.68,8.34,36.58,22.3,58.43,34.91l13.23,7.68c14.57,8.47,24.2,14.07,48,26.86,19.57,10.51,44.06,17.35,74.88,20.92C367.1,382.47,376.67,383,381.78,383Z" style="fill:#f0f0f0"></path><path d="M239.06,334.1c33.81-2.92,91.93,30.9,122,40.54s73.13,8.19,50.1-24.1c-9.74-13.66-33.4-32.7-33.4-32.7s16.55,18.68,3.53,25.1c-14.82,7.07-36.2-.72-65.64-6.86S264.54,328.86,239.06,334.1Z" style="fill:#BA68C8"></path><path d="M179.06,251.17c1.26,16.6,21.92,40.15,26.69,45.91s-1.06,6.73-17-4-31.36-29.42-31.36-29.42Z" style="fill:#263238"></path><polygon points="186.27 247.01 157.43 263.66 173.19 247.59 186.27 247.01" style="fill:#BA68C8"></polygon><polyline points="173.19 247.59 186.27 247.01 157.43 263.66" style="opacity:0.5"></polyline><path d="M316.09,321.94l-15.42,8.91a7.12,7.12,0,0,1-5.53.67l-24.56-7.09a7.12,7.12,0,0,0-2.79-.23l-30.7,3.54a7.11,7.11,0,0,1-6.4-2.66L215.12,305.3V292.81l-28.66-37.24a1.33,1.33,0,0,0-.44-.38l-9.67-5.58a1.49,1.49,0,0,0-1.7.13l-17.22,13.92,14.25-16.46a1.48,1.48,0,0,1,.39-.32l35.49-20.52a1.54,1.54,0,0,1,1.54,0l13.22,8.11L262,265.72v12.49l72.13,16.91Z" style="fill:#BA68C8"></path><path d="M316.09,321.94l-15.42,8.91a7.12,7.12,0,0,1-5.53.67l-24.56-7.09a7.12,7.12,0,0,0-2.79-.23l-30.7,3.54a7.11,7.11,0,0,1-6.4-2.66L215.12,305.3V292.81l-28.66-37.24a1.33,1.33,0,0,0-.44-.38l-9.67-5.58a1.49,1.49,0,0,0-1.7.13l-17.22,13.92,14.25-16.46a1.48,1.48,0,0,1,.39-.32l35.49-20.52a1.54,1.54,0,0,1,1.54,0l13.22,8.11L262,265.72v12.49l72.13,16.91Z" style="opacity:0.1"></path><path d="M209.27,283.7l7.32,8.78s-.13,12.68,0,12.28,1-13.35,1-13.35Z" style="fill:#fff;opacity:0.30000000000000004"></path><path d="M175.28,245l29.18-16.88a7.52,7.52,0,0,1,7.69.1l10.17,6.24L262,265.72v12.49l59.77,14-21,19.93s-28.62,3.14-35.65,1.22-27.8-14.49-31.5-16.91c-16.1-10.52-24.42-17-31.82-25.38C192.1,260,188.7,256.73,188.7,252.21,188.7,249.77,183.3,245.45,175.28,245Z" style="opacity:0.1"></path><path d="M258.75,321.74c-11.18,2.29-20.22,4-22.15,4.37s-3.61.27-5.71-2.6-9.1-11.71-9.1-11.71,8,8.82,10.46,11.23,4.12,2.08,9.49,1.1S258.75,321.74,258.75,321.74Z" style="fill:#fff;opacity:0.30000000000000004"></path><path d="M226.58,222.38l-29.23,40.77S187.69,240.66,184,236.3s3.34-7.3,10.41-12.17C207.36,215.21,220.84,214.51,226.58,222.38Z" style="fill:#e0e0e0"></path><path d="M226.58,222.38l-29.23,40.77S187.69,240.66,184,236.3s3.34-7.3,10.41-12.17C207.36,215.21,220.84,214.51,226.58,222.38Z" style="fill:#e0e0e0"></path><path d="M311.28,285.14a11.12,11.12,0,0,0-5.53-9.61c-10.48-6.09-33.22-19.39-44.79-26.8a142.68,142.68,0,0,1-28.49-21.85c-9.87-8.61-22.66-3.39-25.1-2.24-3.85,1.82-15.67,9.07-16.94,13.34-.8,3.26-.48,5.2-.44,8.23a20.94,20.94,0,0,0,4.22,13.09,138.38,138.38,0,0,0,25.09,24.4c11.58,8.48,34.29,21.23,44.78,27a11.19,11.19,0,0,0,11-.12l32.35-18.73a7.76,7.76,0,0,0,3.88-6.71Z" style="fill:#37474f"></path><path d="M275.05,310.58l32.35-18.73a7.76,7.76,0,0,0,3.88-6.71,11.12,11.12,0,0,0-5.53-9.61l-5-2.9-7.84,4-27,22.31c-.46.45,2.66,10,3.7,13.15A11.19,11.19,0,0,0,275.05,310.58Z" style="fill:#263238"></path><path d="M232.81,226.33c7.5,7.14,12,12.08,28.15,22.4,9,5.76,24.73,15.07,36.21,21.8h0l8.56,5c.22.13.43.28.64.43a3.5,3.5,0,0,1-.37,5.81l-21.6,12.46c-3.79,2.19-17.2,7.35-21,5.25-14-7.65-45.47-26.53-56.79-37.35-13.36-12.78-16.71-17.92-16.17-24.15.37-4.24,11.27-10.83,17.8-13.84C215.84,220.63,225.31,219.19,232.81,226.33Z" style="fill:#455a64"></path><path d="M178.59,233.21c0,4.18,0,8.62,1.71,10.16,3.74,3.29,8.67,5.84,11.59,12.79l2.32,3.14s.41-3.77-3.34-10.74S178.59,233.21,178.59,233.21Z" style="fill:#f0f0f0"></path><path d="M178.59,233.21c0,4.18,0,8.62,1.71,10.16,3.74,3.29,8.67,5.84,11.59,12.79l2.32,3.14s.41-3.77-3.34-10.74S178.59,233.21,178.59,233.21Z" style="opacity:0.1"></path><path d="M197.35,263.15a123.58,123.58,0,0,0-10-25.12c-2.35-4.14,11.21-13.17,18.72-16.62s14.52-4.92,20.48,1a17.34,17.34,0,0,1,2,.87A36.15,36.15,0,0,0,218,215c-6.65-3.44-10.24-2.93-21.24,2.31s-21.46,13.13-17.22,18.42,13.34,17.51,14.65,23.56Z" style="fill:#f0f0f0"></path><path id="freepik--shadow--inject-101" d="M262.73,302.66c1.35,8,.64,10.09-9.82,20.68s-13.18,12.92-13.23,16.83,6.7,14.66,10.85,18.81-3.5,7.08-7.95,7.65a14,14,0,0,1-13-5.86c-2.94-4.45-2.59-5.15-5.31-8.34-3.19-3.75-7.49-3.81-8.11-7.33s2.15-6.3,6.07-8.73c7.35-8.52,7.39-20.28,16.85-28.24C248.92,299.82,262.73,302.66,262.73,302.66Z" style="opacity:0.2"></path><path id="freepik--shadow--inject-101" d="M211,249.72c2.95,7,2.78,12.85,0,20.85s-11.54,30.67-12.25,37.56-1.39,16.34,3.65,23.2c1.34,4.09,5.44,7.88-2.25,8.84a14.26,14.26,0,0,1-13.89-5.71c-2.1-2.71-2.31-4.6-2.89-9.86-.32-2.84-.71-4.73-3.16-6.61s-4.21-5.42-.68-8.95,6.72-4.48,6.42-16.32S211,249.72,211,249.72Z" style="opacity:0.2"></path><g id="freepik--Character--inject-101"><g id="freepik--Bottom--inject-101"><path d="M210.28,258.36c2.73-11.32-2.53-20.24-12.22-48.31-3.67-10.64,12.42-13.45,12.58-27.52,0,0-6.8,1.83-18.89-.25s-15,2.21-15,2.21c-9.37,8.18-19.23,19.61-6.11,43.75,6.16,11.34,17.63,28.48,17.63,28.48-3.13,7-4.33,11.13-3.95,25.3.23,8.87.93,7.77.19,13.42s-.76,6.57-3.67,9.66c-2.19,2.33-3.74,5.6-2.32,9,.8,1.91,2.58,3,3.87,4.34,4.27,4.36.64,10.43,6.22,16.44,5.13,5.53,21,5.37,15.41-1.62-6.83-7.06-8.73-21.39-6.91-29.66s5.57-16,8.78-27.64c1.88-7,3.3-12.69,4.41-17.58" style="fill:#c8856a"></path><path d="M182.24,180.53s-8.48,5-13.32,11.92c-3.77,5.38-5,11.43-4.64,14.76,2.44-2.71,8.42-4.45,14.09-4.5,12-.1,20.51,6.72,21.57,12.95a39,39,0,0,0,12.65-10.28,25.73,25.73,0,0,0,4.68-10.54c.4-1.93-.72-3.13-.77-4Z" style="fill:#37474f"></path><path d="M242.47,221.24c-6.4-8.42-25-26.3-25-26.3l-2.22,1.15-15.11,19.67,1.43,4.27s23.18,19.11,24.49,20.3c-.51,5.08,0,9.66,3,19.87,2.34,7.9,2.71,6.74,3.4,12s.88,6.08-1,9.55c-1.4,2.61-2,5.92.08,8.61,1.17,1.52,3,2.09,4.51,3,4.87,2.89,3.08,9.2,9.52,13.26,5.93,3.73,20.16-.23,13.44-5.15-7.83-4.7-13-17.09-13.31-25s1-15.71,1.25-26.89C247.53,230.22,248.87,229.65,242.47,221.24Z" style="fill:#c8856a"></path><path d="M203.86,217.9s8.45-7.19,10.4-16.87l-2.62.95-11.48,13.78,1.43,4.27s19.74,16.27,24.49,20.3h0C225.66,240.07,203.86,217.9,203.86,217.9Z" style="fill:#af6152"></path></g><g id="freepik--Top--inject-101"><path d="M199.65,114.15a35,35,0,0,0-4.62.59,2.28,2.28,0,0,1-1.55-.37c-3.21-1.67-4.13-5.59-6.65-8a8.29,8.29,0,0,0-10-.78c-3.45-8.61-15.14-3.91-12.45,4.76-7.87,4.19-4.69,14.47,2.77,17.3a10.49,10.49,0,0,0,2.54,9.68c4.79,5.34,13.61,4,17.43-1.39,1.79,2.17,8.64,1.73,10-3.6.44-1.74,6.61-5.84,7.91-6.41Z" style="fill:#263238"></path><path id="freepik--Arm--inject-101" d="M215.83,139c6.38-.25,9.72,1.47,13.4,8.87S239,170,239,170c6.46,4.62,12.38,10.21,19.37,14,2.2,1.1,4.71.57,7,1.07,3,1.2,5.3,3.64,7.73,5.65.63.57,2.23,1.58,1.27,2.11-.76.41-1.79-.29-2.54.14-.3.18-.5.51-.79.72-.85.62-2,0-3.06,0-.58,0-1.15.21-1.73.17a10.58,10.58,0,0,1-2.72-1.13c-2-1.53-4.1-3.85-6.77-3.93-2.26.32-8.41,1.35-8.41,1.35s-14.94-6.71-17.6-8.42-3.51-3-7.88-12c-4.56-9.4-6.45-13.44-6.45-13.44Z" style="fill:#c8856a"></path><path d="M189.33,143.89c-4.43,2-6.91,5-10,20.63a98,98,0,0,1-6.87,21.73,4.54,4.54,0,0,0,.37,4.49c9.65,14.12,38.28,13.1,44.64,4.2a170.28,170.28,0,0,1,7.45-21.39c2.81-6.82,4.28-10.05,2.4-16.74-1.28-4.55-4.06-9.28-6.9-14.53-1-1.79-2.49-3.72-7.9-3.13C212.54,139.15,196.16,140.83,189.33,143.89Z" style="fill:#BA68C8"></path><path d="M189.33,143.89c-4.43,2-6.91,5-10,20.63a98,98,0,0,1-6.87,21.73,4.54,4.54,0,0,0,.37,4.49c9.65,14.12,38.28,13.1,44.64,4.2a170.28,170.28,0,0,1,7.45-21.39c2.81-6.82,4.28-10.05,2.4-16.74-1.28-4.55-4.06-9.28-6.9-14.53-1-1.79-2.49-3.72-7.9-3.13C212.54,139.15,196.16,140.83,189.33,143.89Z" style="fill:#fff;opacity:0.6000000000000001"></path><path d="M214.17,146.4c-1.53-4-3.17,4-3.17,4l2,11.09c1.68,6,1.86,10.39-2,22.66-2.81,9-4.66,14.47-5.45,16.76.52-.09,1-.2,1.53-.31,1.06-3.25,3.54-10.89,5.18-16.19,2.14-6.9,4.71-14.94,2-22.73C216.38,156.88,215.7,150.45,214.17,146.4Z" style="fill:#BA68C8;opacity:0.30000000000000004"></path><path d="M178.59,167.63c2.43,5.84,9.62,13.92,25.7,13,16.78-.9,20-5.62,20-5.62l-1.91,4.9s-4.74,4.41-18.34,4.73-23.72-5.24-26.77-12.06Z" style="fill:#37474f"></path><path d="M175.9,177.55C178.33,183.39,188.09,190,201,190c16.79,0,19.66-5.37,19.66-5.37l-1.55,4.65s-4.74,5-18.34,4.72c-12.25-.29-23.51-5.7-26.65-11.79Z" style="fill:#37474f"></path><g id="freepik--Head--inject-101"><path d="M231.08,108.47c-1.42-2.57-3.23-3.17-4.61-3.25-1.58-2.59-7.67-5.49-10.58-5.93-11.24-1.66-15.3,3.81-16.07,5.92-5.5.36-12.25,10.2-7.38,21.18,2.11,4.76,6.27,7.35,7.29,10l6.45,1.54A13.22,13.22,0,0,1,215,127.59c7.83-2.63,12.23-4.29,13.48-5.81A10.85,10.85,0,0,0,231.08,108.47Z" style="fill:#263238"></path><path d="M228.35,115.77a14.3,14.3,0,0,1-.26,4.82c-.34,1.78.59,3.22.4,6.84-.44,8.37-4.76,12.14-7.3,13a12.68,12.68,0,0,1-5.52.35l-1.95,7s1.95,7.45-.73,13.64c-2.18-3.94-7.36-9.4-10-12.48-3.78-4.33-4.44-7.13-4.44-7.13L201,130.53s-2.26,3-5.16-.32c-2.27-2.62-3.06-6.77-.55-9.06a3.73,3.73,0,0,1,6.3,1.51c.94,2.43,3.24,2.62,3.37,0s.11-3.17.11-3.17c3.83-1.2,3-5.43,5.91-7.53,2-1.49,5.26-2.77,8.92.69C222.36,109.85,227.11,109.43,228.35,115.77Z" style="fill:#c8856a"></path><path d="M215.67,140.78a14.23,14.23,0,0,1-11.75-9.9,12.73,12.73,0,0,0,2.63,7.06c3,3.64,8.6,4.71,8.6,4.71Z" style="fill:#af6152"></path><path d="M214.81,130.49l5.37,2a2.77,2.77,0,0,1-3.61,1.84A3.12,3.12,0,0,1,214.81,130.49Z" style="fill:#af6152"></path><path d="M214.79,132.43a3,3,0,0,0,1.78,1.95,2.67,2.67,0,0,0,1.72.05,2.41,2.41,0,0,0-2.28-2.29A2.44,2.44,0,0,0,214.79,132.43Z" style="fill:#ffa8a7"></path><path d="M215.7,122.76c0,.86-.77-.29-1.59-.34s-1.47,1-1.41.15a1.51,1.51,0,0,1,1.59-1.46A1.54,1.54,0,0,1,215.7,122.76Z" style="fill:#263238"></path><path d="M226.68,121.9c.14.84-.7-.1-1.51,0s-1.27,1.29-1.41.45a1.48,1.48,0,1,1,2.92-.48Z" style="fill:#263238"></path><path d="M215.33,117.68l-3.6,1.81a2.2,2.2,0,0,1,1-2.84A1.93,1.93,0,0,1,215.33,117.68Z" style="fill:#263238"></path><path d="M226.94,119l-3.6-1.72a1.87,1.87,0,0,1,2.57-1.06A2.21,2.21,0,0,1,226.94,119Z" style="fill:#263238"></path><polygon points="219.12 120.18 219.93 129.85 225.03 128 219.12 120.18" style="fill:#af6152"></polygon></g><g id="freepik--arm--inject-101"><path d="M192.06,142.88c-1.06-.42-3.8-2.54-6.2-3.85-2.24-1.22-5.44-2.93-6.46-4-3.61-3.77-13.29-12.21-13.29-12.21s2.08-16.37,2.67-19.8a25.25,25.25,0,0,1,1.54-6.26c1-1.25,3.45-2.7,4.54-4.25A17.56,17.56,0,0,0,177.22,88a12.2,12.2,0,0,1,1.55-2.84c.78-1.14-.63-1.65-1.52-1.47a3.93,3.93,0,0,0-2.06,1.13c-.73.81-1.59,2.68-2.83,2.76-1,.06-.37-1.67-.27-2.21a15.32,15.32,0,0,1,.85-2.8c.39-1,.87-2.62,1.4-4.46a12.42,12.42,0,0,0,.51-4.05,2.45,2.45,0,0,0-.93-2c-.8-.51-1.31.42-1.63,1.16a6.45,6.45,0,0,0-1.21,0,2,2,0,0,0-1.58,1.18A3.18,3.18,0,0,0,166.11,76c-.26.5-.31.46-.86.54-1,.15-1.34,1-1.82,1.81A22.06,22.06,0,0,0,160.31,85c-1,3.73-.53,7.71-.88,11.51a14.86,14.86,0,0,1-.86,3.91c-1.35,3.64-2.11,6-3.38,9.67-.74,2.12-2.39,6.54-3.32,9.58-2.17,7.06-2.68,7.11,3,13.34,6.42,7.06,18.26,16.39,24.43,26.19,1.14,1.82.81,4.6,1.53,6.48.6,3.3,5.45,4.89,10.43-2.25C194.77,158.35,197.27,150.69,192.06,142.88Z" style="fill:#c8856a"></path><path d="M166.11,122.82c-.37,1.61-1.9,6.66-4.42,7.53,3.64-.19,5.09-5,5.37-6.67Z" style="fill:#af6152"></path></g></g></g><g id="freepik--character--inject-101"><g id="freepik--bottom--inject-101"><path d="M248,323.4a180.18,180.18,0,0,0,13.48-17.67c2.9-4.33.3-11.65-4.78-22.31-5.7-11.55-29.3,5.88-29.3,5.88l9.19,12.75c-5,4.44-6.36,9.54-8.9,17.7-1.45,4.65-3.38,9.5-4.45,12.09-1.52,3.53-2.38,3.6-4.9,6.46-2.73,3.09-2.88,6.52,4.11,10.53,4.1,2.36,6.47,6.95,7.78,9.54a10.5,10.5,0,0,0,6.47,5.32c2.6,1.5,3.36,1.18,6.34,1.2a10.44,10.44,0,0,0,5.37-1.65,3.3,3.3,0,0,0,2.53-.82c1.18-1,1.45-1.72-.45-3.44a83.88,83.88,0,0,1-9.19-10.35c-2.84-3.91-6.49-9.43-3.45-13.07C240.7,332.18,244.44,327.69,248,323.4Z" style="fill:#ffa8a7"></path><path d="M286.17,250.55c16,2.85,18.26,5.88,17.57,14.1a83.29,83.29,0,0,1-3.69,17.13,12,12,0,0,0-3.78-7.43c-1.85-.67-26.29-.67-26.29-.67S269.39,249.68,286.17,250.55Z" style="fill:#ffa8a7"></path><path d="M248.77,273.84l28.1.47c-2.16-7.55,4.17-20.36,11.7-23.3-7.71-1.49-26.1-5.7-26.1-5.7Z" style="fill:#263238"></path><path d="M253,273.91l-1.36-3.33s6.72-6,9-12.58a30.75,30.75,0,0,1-5.13,12.88l21.36,3.43Z"></path><path d="M212.81,245.31c-2.49,8.94-3.53,18.51,4.56,31.94,7.43,12.33,18.41,24.3,18.41,24.3s1.78-4.44,8.88-9.2c9.79-6.56,15.14-3.53,15.14-3.53l-8.58-19.21s9.75-7.25,11.25-24.3Z" style="fill:#263238"></path></g><g id="freepik--top--inject-101"><path d="M314,227.57c6.5,3.14.77,11.23-3.73,10.41-.29-1.08-3-1.49-12-3.39-2.53-.53-8.09-1.59-14.69-2.87-3.15-.62-5.31-4.4-7-7.4-5-8.81-12.17-20.46-12.17-20.46l5.51-15.12c5.52.22,6.73,2.84,11.66,12.41s8,15.78,8,15.78S308.46,224.88,314,227.57Z" style="fill:#ffa8a7"></path><path d="M267,234.24c7.46-16.41,8.8-19.07,9-27.78.15-5.83-.88-10.59-4.7-17,0,0-5.2-1.92-14.5-.68-13,1.72-18.66,4-18.66,4-4.13,1.21-8.75,8.64-13.2,18.69s-10.5,20.27-12.12,33.91c18.13,20.75,43.41,11.07,49.66,0A83.67,83.67,0,0,1,267,234.24Z" style="fill:#BA68C8"></path><path d="M267,234.24c7.46-16.41,8.8-19.07,9-27.78.15-5.83-.88-10.59-4.7-17,0,0-5.2-1.92-14.5-.68-13,1.72-18.66,4-18.66,4-4.13,1.21-8.75,8.64-13.2,18.69s-10.5,20.27-12.12,33.91c18.13,20.75,43.41,11.07,49.66,0A83.67,83.67,0,0,1,267,234.24Z" style="fill:#fff;opacity:0.6000000000000001"></path><path d="M264.16,214.52c1,3.29,1.44,3.83-.37,9.24s-6.51,15.32-7.9,19.47-3.42,11.23-3.42,11.23l1.18-.5s2.18-8,3.51-11.23,6.5-15.64,7.53-18.35,2.39-6,.65-9.85c1.61-4.79,2.39-7.86,2-12.33a55.1,55.1,0,0,0-1.74-9.12Z" style="fill:#BA68C8;opacity:0.30000000000000004"></path><path d="M270.75,225.89c-3.78,4-15.18,8.35-27.29,6.3-9.7-1.65-21.93-9-21.21-14.9l-1.88,4.13s.16,10.32,22.38,15c11.6,2.43,21.92-1.66,25.57-5.14Z" style="fill:#37474f"></path><path d="M266.48,235.32c-3.78,4-15.21,8.62-27.32,6.57-9.7-1.65-22-8.63-21.29-14.57-.63,1.55-1.21,3.08-1.73,4.57,0,0,.09,9.55,22.31,14.2,11.6,2.43,22.14-2,25.79-5.51Z" style="fill:#37474f"></path><path d="M251.57,185.6c-.26-3.41-6.74-8.89-7.81-14.9C242.37,162.83,246,155,251.43,155c1.07-5.21,9.71-7.6,14.89-6.27,4.5.95,10.65,2.73,14.35-.88a6.43,6.43,0,0,1-1.51,6.47c1.48-.16,3.07-.89,4.51-.73.52,2.81-1.68,5.22-2.9,7.48,2.3,4.85-.46,10.19-5.36,12Z" style="fill:#263238"></path><path d="M266,195.91h0c.85-2.78,1.62-5.82,1.62-5.82l-14.17-11.8-2.92,12.76a1.18,1.18,0,0,0-.06.37c-.49,3.26,2.77,7.83,7.5,13.8a54.68,54.68,0,0,1,6.18,9.3s2.2-6.5,1.86-11.83C265.81,199.32,265.57,197.36,266,195.91Z" style="fill:#ffa8a7"></path><path d="M254.55,178.8s-.21,5.27,2.57,8.38c.55.62,2.62,3.18,10,4.87l.52-2a28.71,28.71,0,0,1-5.61-1.42,16.87,16.87,0,0,1-3.25-1.81C255.62,184.74,255,179.8,254.55,178.8Z" style="fill:#f28f8f"></path><path d="M278,158.73c.14.23-.89,1-1,1.13a11.51,11.51,0,0,1-2,1.28,15.19,15.19,0,0,1-4.58,1.39,28.64,28.64,0,0,1-7.79-.15.58.58,0,0,0-.37,0,.55.55,0,0,0-.25.34,9.12,9.12,0,0,1-1,2.27,5.7,5.7,0,0,1-2.65,1.64.58.58,0,0,0-.24.15.53.53,0,0,0-.08.24c-.23,1.93.79,3.94.15,5.78a1.86,1.86,0,0,1-.62.9,1,1,0,0,1-1.48-.31,40,40,0,0,1-1.86-3.56,15.62,15.62,0,0,0-.88-1.3,4.73,4.73,0,0,0-1.34-1.37,3.48,3.48,0,0,0-2.81-.15,4.15,4.15,0,0,0-2.52,3,8.76,8.76,0,0,0,1.21,6.69,4.48,4.48,0,0,0,3.09,2.34c2,.33,2.58-.71,2.59-.73h0l1.09,1c.55,2.19,1.4,5.24,3.21,7s3.52,2.51,6.93,3.32,8.49.78,10.43.06,5.42-2.62,5.44-14.27C280.58,161.34,278.3,159.26,278,158.73Z" style="fill:#ffa8a7"></path><path d="M267.57,172.57a1.47,1.47,0,1,1-1.53-1.48A1.5,1.5,0,0,1,267.57,172.57Z" style="fill:#263238"></path><path d="M266,165.75l-3.14,1.76a1.89,1.89,0,0,1,.71-2.51A1.76,1.76,0,0,1,266,165.75Z" style="fill:#263238"></path><path d="M266.88,180l5.22,1.59a2.86,2.86,0,0,1-3.51,1.85A2.66,2.66,0,0,1,266.88,180Z" style="fill:#af6152"></path><path d="M269.73,183.48a3,3,0,0,0-3-2.6,2.62,2.62,0,0,0,3,2.6Z" style="fill:#f28f8f"></path><path d="M279.22,166.48l-3.46-1.09a1.74,1.74,0,0,1,2.21-1.22A1.9,1.9,0,0,1,279.22,166.48Z" style="fill:#263238"></path><path d="M278.7,171.48a1.5,1.5,0,0,1-1.41,1.59,1.51,1.51,0,0,1-1.53-1.48,1.47,1.47,0,1,1,2.94-.11Z" style="fill:#263238"></path><path d="M260.55,169.81l-2.28,1.26-2.78,1.54c-.33-.61-.61-1.25-.91-1.88l3.42-1.84,2.13-1.14Z" style="fill:#BA68C8"></path><path d="M260.55,169.81l-2.28,1.26-2.78,1.54c-.33-.61-.61-1.25-.91-1.88l3.42-1.84,2.13-1.14Z" style="opacity:0.1"></path><path d="M283.69,165.83a20.2,20.2,0,0,0-7.24.68c-2.08.81-2.79,1.59-3.95,1.69s-2.07-.58-4.33-1.07a21.68,21.68,0,0,0-7.05.32c-.78.07-1.48.35-1.45,1.39s.78,1.09,1,1.87c.51,2.71,1.21,6.17,4.79,6.12,7.39,0,4.63-7.05,7.35-6.86,1,.16.95,2.05,1.63,3.36a5.22,5.22,0,0,0,1,1.41c2.54,2.39,7,.7,7.59-1.87.54-1.29.32-3.29.9-4.42C284.45,167.92,284.83,166,283.69,165.83ZM270,172.29a4.53,4.53,0,0,1-.92,2.1,4.08,4.08,0,0,1-3,1.38,3.49,3.49,0,0,1-3.73-2.08l-.17-.41c-.38-1.13-.94-3.53-.36-4.27,1-1.24,6.33-1.47,8,.22C270.3,169.82,270.23,171.15,270,172.29Zm12.54-1.38a4.61,4.61,0,0,1-1.9,3.41c-2,1.13-4.82.26-5.35-1.67-1.44-4,.11-5.07,4.17-5.73C282.83,166.72,283.07,167.58,282.56,170.91Z" style="fill:#BA68C8"></path><path d="M282.56,170.91a4.61,4.61,0,0,1-1.9,3.41c-2,1.13-4.82.26-5.35-1.67-1.44-4,.11-5.07,4.17-5.73C282.83,166.72,283.07,167.58,282.56,170.91Z" style="fill:#37474f"></path><path d="M270,172.29a4.53,4.53,0,0,1-.92,2.1,4.08,4.08,0,0,1-3,1.38,3.49,3.49,0,0,1-3.73-2.08l-.17-.41c-.38-1.13-.94-3.53-.36-4.27,1-1.24,6.33-1.47,8,.22C270.3,169.82,270.23,171.15,270,172.29Z" style="fill:#37474f"></path><path d="M266.05,168c-1.8-.06-3.62.31-4.18,1s0,3.14.36,4.27a1.19,1.19,0,0,1,.08.2,7.11,7.11,0,0,0,1.59-.39c.33-.13.75-.27,1,0s.15.58,0,.87a2.77,2.77,0,0,0-.41,1.65,5.08,5.08,0,0,0,1.61.18,4.08,4.08,0,0,0,3-1.38,4.6,4.6,0,0,0,.42-.63,4.2,4.2,0,0,1-2,.55.87.87,0,0,1-.69-.16.85.85,0,0,1-.15-.82,5.48,5.48,0,0,1,1-2.06,1.85,1.85,0,0,0,.33-.6.55.55,0,0,0-.21-.6.74.74,0,0,0-.6,0,6.15,6.15,0,0,0-1.37.65c-.28.18-.63.39-.91.21a.59.59,0,0,1-.22-.47,2,2,0,0,1,.51-1.25C265.44,168.81,265.74,168.42,266.05,168Z" style="fill:#455a64"></path><path d="M281.86,172.57a1.49,1.49,0,0,1-1.19,0,.46.46,0,0,1-.21-.18.53.53,0,0,1,0-.25,4.7,4.7,0,0,1,.56-1.64,1.14,1.14,0,0,0,.14-.8.9.9,0,0,0-.95-.49c-.39,0-.75.19-1.13.23a.86.86,0,0,1-.59-.12.7.7,0,0,1-.24-.62,1.69,1.69,0,0,1,.23-.65,6.28,6.28,0,0,1,.79-1.12c-3.47.58-5,1.52-4.26,4.55a2.47,2.47,0,0,0,.36.19,2.7,2.7,0,0,0,1.73,0,5.47,5.47,0,0,1,1.51-.41.83.83,0,0,1,.53.18.82.82,0,0,1,.2.74,3.9,3.9,0,0,1-.39,1.1,2.37,2.37,0,0,0-.26,1.13,1.21,1.21,0,0,0,.1.36,4,4,0,0,0,1.91-.5,3.72,3.72,0,0,0,1.54-1.95A3.79,3.79,0,0,1,281.86,172.57Z" style="fill:#455a64"></path><path d="M271.5,171.09l1.48,7.37,4.9-1.91a13.28,13.28,0,0,0-5.19-6.58C271.71,169.94,271.5,171.09,271.5,171.09Z" style="fill:#f28f8f"></path><path d="M238,219.39s9.51-18,1.22-27c-7.17,1.79-12.61,2.47-15.54,11-2.1,6.09-3,8.76-5.64,18.55-1.53,5.74-1.89,7.39-3,11.35-2.23,7.84-4.19,10.12-1,15.76,3.74,6.67,4.58,6.78,12.31,17.26,4.44,6,7.63,9,8,13a7.64,7.64,0,0,0,3,5.41l3.63-16.11c-1.21-3-11-25.9-11-25.9Z" style="fill:#ffa8a7"></path></g></g><path d="M377.73,317.84s23.66,19,33.4,32.7c8.65,12.14,8,19.91,2.15,24.39-1.85-6.47-14-19.81-29.77-33.47C392.09,334.06,377.73,317.84,377.73,317.84Z" style="fill:#fff;opacity:0.30000000000000004"></path><path d="M289,331.84c-9.93-10.68-35.69-57.63-35.69-57.63l36.58-13.47,12.19,3.13a37.89,37.89,0,0,1,6.84,2.59,214.5,214.5,0,0,1,26.37,16c23.09,16.1,30.94,22.85,42.47,35.37,2.37,2.57,16.7,18.24,3.53,25.1-14.57,7.58-36.2-.72-65.64-6.86a253.6,253.6,0,0,0-26.36-4.22Z" style="fill:#455a64"></path><path d="M276.87,302.47c5.09,8.62,14.77,19.55,28.45,24.79s41.3,15.33,55.93,16.28,22.83-1.76,25.48-8.08c-.21,2.87-1.73,5.53-5.47,7.48-14.57,7.58-36.2-.72-65.64-6.86a253.6,253.6,0,0,0-26.36-4.22l-.29,0c-9.8-10.54-35.69-57.63-35.69-57.63l37.07,12.34C279.72,289,271.78,293.86,276.87,302.47Z" style="fill:#37474f"></path><path d="M256.22,268.33,270.63,260A15.86,15.86,0,0,1,282,258.57l20.76,5.49a20.77,20.77,0,0,1,4.93,2.07h0a2.49,2.49,0,0,1,1.46,2.09c.05,5.16-3.71,10.62-11.07,14.87s-16.82,6.42-25.76,6.4a7.56,7.56,0,0,1-3.64-.84,14.77,14.77,0,0,1-4-3.43l-10.89-10.34C252,272.82,253,270.16,256.22,268.33Z" style="fill:#263238"></path><path d="M296.51,269.87c3.21-1.85,2.81-4.72-.79-5.71l-15.36-4a10.75,10.75,0,0,0-7.73,1l-14.4,8.31c-2.17,1.25-2.86,3.06-1.7,4.47l8.78,7.78c1.71,2.08,6.68,2.3,9.88.45Z" style="fill:#455a64"></path><path d="M268.66,288.65a14.7,14.7,0,0,1-2.1-1.48l38.59-22.28a20.22,20.22,0,0,1,2.52,1.23h0a3.35,3.35,0,0,1,.63.44,2.34,2.34,0,0,1,.45.5,2,2,0,0,1,.38,1.15c.05,5.16-3.71,10.62-11.07,14.87a44.8,44.8,0,0,1-5.88,2.8,50.25,50.25,0,0,1-6.41,2,55.59,55.59,0,0,1-10.1,1.5c-1.13.07-2.25.1-3.37.1a8,8,0,0,1-2.87-.49,5.44,5.44,0,0,1-.77-.35Z" style="fill:#37474f"></path><path d="M324.54,313.89c7.61,2,30.11,1.74,30.11,1.74s.79-12.55-5.67-20.91c-3.59-4.64-14.91-16.89-19.5-17.38s-12.74-.92-15.85.51-11.06,13.48-10.13,16.73S319.88,312.65,324.54,313.89Z" style="fill:#BA68C8"></path><path d="M313.63,277.85c3.11-1.43,11.26-1,15.85-.51s15.91,12.74,19.5,17.38c6.46,8.36,5.67,20.91,5.67,20.91C347.25,295.66,318.15,276.05,313.63,277.85Z" style="fill:#fff;opacity:0.30000000000000004"></path><path d="M314.55,246.43l-2.71-4.69,11.46-6.61h0a1.33,1.33,0,0,1,1.37.12,4.22,4.22,0,0,1,1.92,3.31,1.36,1.36,0,0,1-.54,1.22h0Z" style="fill:#37474f"></path><path d="M315.1,245.19c0,1.22-.85,1.72-1.91,1.11a4.23,4.23,0,0,1-1.91-3.32c0-1.22.85-1.71,1.91-1.1A4.21,4.21,0,0,1,315.1,245.19Z" style="fill:#263238"></path><path d="M306.21,248.85l-.74-1.27,7.27-4.21h0a.38.38,0,0,1,.38,0,1.15,1.15,0,0,1,.52.91.37.37,0,0,1-.15.33h0Z" style="fill:#f0f0f0"></path><path d="M306.36,248.51c0,.34-.23.47-.52.31a1.17,1.17,0,0,1-.52-.91c0-.33.23-.47.52-.3A1.15,1.15,0,0,1,306.36,248.51Z" style="fill:#e0e0e0"></path><path d="M268.92,277.46c2.36-.1,8.37-.82,10.05,2.54l8.43,4.4,6.53-4.4s-3.28-12.55,6.37-20Z" style="fill:#BA68C8"></path><path d="M268.92,277.46c2.36-.1,8.37-.82,10.05,2.54l8.43,4.4,6.53-4.4s-3.28-12.55,6.37-20Z" style="opacity:0.2"></path><polygon points="278.97 273.98 256.74 281.68 256.74 276.62 274.27 266.49 278.97 273.98" style="fill:#BA68C8"></polygon><polygon points="269.89 263.96 252.36 274.08 256.74 276.62 274.27 266.49 269.89 263.96" style="fill:#BA68C8"></polygon><polygon points="269.89 263.96 252.36 274.08 256.74 276.62 274.27 266.49 269.89 263.96" style="fill:#fff;opacity:0.30000000000000004"></polygon><polygon points="256.74 281.68 252.36 279.15 252.36 274.08 256.74 276.62 256.74 281.68" style="fill:#BA68C8"></polygon><polygon points="256.74 281.68 252.36 279.15 252.36 274.08 256.74 276.62 256.74 281.68" style="opacity:0.1"></polygon><polygon points="292.94 255.75 310.47 245.63 306.08 243.1 288.55 253.22 292.94 255.75" style="fill:#BA68C8"></polygon><polygon points="292.94 255.75 310.47 245.63 306.08 243.1 288.55 253.22 292.94 255.75" style="fill:#fff;opacity:0.30000000000000004"></polygon><polygon points="310.47 250.69 297.32 263.35 292.94 255.75 310.47 245.63 310.47 250.69" style="fill:#BA68C8"></polygon><polygon points="310.47 250.69 297.32 263.35 292.94 255.75 310.47 245.63 310.47 250.69" style="opacity:0.1"></polygon><path d="M273,260.33a34.3,34.3,0,0,1,8.22-7.26c4.23-2.43,7.2-3.29,8.92-3.34s2.69.26,3.38,1.05l1.4,1.63c3.69,4.94,5.31,8.75,6.16,13.41a60.91,60.91,0,0,1,1.24,9.65c0,2.41-8.36,7.24-15,8.93-1.1-4.66-7.57-7.39-9.69-12l-2.49-4.31a8.42,8.42,0,0,0-2.59-2.59L269.89,264Z" style="fill:#BA68C8"></path><path d="M247.39,282.76l-.74-1.27,7.28-4.21h0a.36.36,0,0,1,.37,0,1.15,1.15,0,0,1,.52.91.4.4,0,0,1-.14.33h0Z" style="fill:#f0f0f0"></path><path d="M247.54,282.43c0,.33-.23.46-.52.3a1.15,1.15,0,0,1-.52-.91c0-.33.23-.46.52-.3A1.15,1.15,0,0,1,247.54,282.43Z" style="fill:#e0e0e0"></path><path d="M239.26,289.72,236.54,285,248,278.42h0a1.33,1.33,0,0,1,1.37.12,4.23,4.23,0,0,1,1.91,3.32,1.37,1.37,0,0,1-.53,1.22h0l0,0h0Z" style="fill:#37474f"></path><path d="M239.81,288.49c0,1.22-.85,1.71-1.91,1.1a4.21,4.21,0,0,1-1.91-3.31c0-1.22.85-1.72,1.91-1.11A4.23,4.23,0,0,1,239.81,288.49Z" style="fill:#263238"></path><g id="freepik--Hands--inject-101"><path d="M239.94,266.23c1.51,3.76,3.13,4.79,4.25,5.42,2.25,1.27,4.41,2.57,6,3.55a4,4,0,0,1,1.17,1,10.25,10.25,0,0,1,1.47,3.65c.44,1.67,1.12,3.85.53,5.54-.47,1.32-1.81,1-2,1.36-1.13,1.81-1.57.85-2,1.18s-.67.93-1.18,1.15a6.85,6.85,0,0,1-1.37.16c-.53.12-.8.82-1.27,1.08a2.78,2.78,0,0,1-2.48.07,10.47,10.47,0,0,1-2.68-1.3l2.08-1.2c.26-1.4-.11-4.45-2.25-5l-2.86,1.65a5.81,5.81,0,0,1-1.2-5.65Z" style="fill:#f28f8f"></path><path d="M314,227.57s2.44,1.17,4.92,2.38c2.82,1.39,4.2,1.88,5.16,2.4a3.59,3.59,0,0,1,1.19,1.07c.68,1,1.11,1.85,2.07,3.36s1.6,4.44.55,5.24c-.33.25-1.62.82-1.71,1.22a1.65,1.65,0,0,1-.6,1c-.45.35-1.09.36-1.55.7s-.68.93-1.19,1.16a7.15,7.15,0,0,1-1.4.16c-.53.13-.93.55-1.45.72a3.38,3.38,0,0,1-1.73,0,6.31,6.31,0,0,1-2.38-1.41l1.62-.94a4.36,4.36,0,0,0-3-4.51l-2.12,1.23c-1.42-1.28-1.62-1.59-2.16-3.77Z" style="fill:#ffa8a7"></path></g></g></g><g id="freepik--speech-bubble--inject-101"><g id="freepik--speech-bubble--inject-101"><g id="freepik--speech-bubble--inject-101"><path d="M301.19,70.41a23.29,23.29,0,0,0-33.38,32.26l-2.47,6.8a1.35,1.35,0,0,0,1.9,1.66l6.41-3.36a23.29,23.29,0,0,0,27.54-37.36Zm.82,31.67a21.37,21.37,0,0,1-14,7.21l-2.46.1a21.45,21.45,0,0,1-2.84-42.67l2.45-.22A21.45,21.45,0,0,1,302,102.08Z" style="fill:#e0e0e0"></path></g><path id="freepik--Heart--inject-101" d="M285.85,101.22c-15.15-8.07-16.37-16.73-12-21,3.94-3.8,11.16-1.3,12,4.13.81-5.43,8-7.93,12-4.13C302.23,84.49,301,93.15,285.85,101.22Z" style="fill:#BA68C8"></path></g></g></svg>