<svg xmlns="http://www.w3.org/2000/svg" viewBox="0 0 500 500"><g id="freepik--Floor--inject-51"><ellipse id="freepik--floor--inject-51" cx="250" cy="349.57" rx="247.78" ry="143.06" style="fill:#fafafa"></ellipse></g><g id="freepik--Shadows--inject-51"><path id="freepik--Shadow--inject-51" d="M126.37,467.74,45.93,421.3c-2.4-1.38-2.39-3.62,0-5L339.38,247.14a9.57,9.57,0,0,1,8.66,0l80.18,46.28c2.39,1.38,2.39,3.62,0,5L135,467.74A9.57,9.57,0,0,1,126.37,467.74Z" style="fill:#e0e0e0"></path><ellipse id="freepik--shadow--inject-51" cx="403.42" cy="344.48" rx="67.93" ry="39.22" style="fill:#e0e0e0"></ellipse></g><g id="freepik--Window--inject-51"><g id="freepik--window--inject-51"><path d="M434.25,151.84a27.66,27.66,0,0,1-13.62-4.13h0C403.17,137.63,389,112,389,90.5V47c0-11,3.63-19.17,10.23-23,6-3.48,13.87-2.79,22.07,1.94,17.45,10.08,31.65,35.74,31.65,57.21v43.47c0,11-3.63,19.16-10.22,23A16.71,16.71,0,0,1,434.25,151.84Zm-13-5.25c7.79,4.5,15.17,5.19,20.79,1.94,6.09-3.51,9.58-11.48,9.58-21.85V83.21c0-21.06-13.91-46.22-31-56.09-7.79-4.5-15.17-5.19-20.79-1.94-6.09,3.51-9.58,11.48-9.58,21.86V90.5C390.26,111.56,404.17,136.72,421.27,146.59Z" style="fill:#e0e0e0"></path><path d="M420.94,36.64c-5.59-3.22-10.77-4-15-2.82h0l0,0c-.41.13-.83.27-1.22.43s-.79.35-1.17.55a13.42,13.42,0,0,0-3.12,2.31A17.64,17.64,0,0,0,399,38.66a19.17,19.17,0,0,0-3,6.2c0,.2-.12.42-.17.63a26.48,26.48,0,0,0-.78,4.33,8.14,8.14,0,0,0-.08.85q-.08.66-.09,1.35c0,.22,0,.45,0,.67s0,.66,0,1v36.2c0,17.73,11.67,38.85,26.08,47.16A22.41,22.41,0,0,0,432,140.42l.82,0,.81-.07a13.92,13.92,0,0,0,2.38-.46l.67-.23c.26-.09.51-.18.76-.29l.62-.29.7-.37q.33-.19.66-.42a6.38,6.38,0,0,0,.63-.43l.6-.49c4-3.33,6.37-9.29,6.37-17.34V83.82C447,66.08,435.35,45,420.94,36.64ZM441.88,120c0,5.09-1.08,9.22-3.13,11.93a2,2,0,0,0-.18.23,11.73,11.73,0,0,1-1.33.1,17.54,17.54,0,0,1-8.49-2.67c-12.76-7.36-23.52-26.92-23.53-42.72V50.68c0-2.39.34-8.39,3.28-12.12a4.84,4.84,0,0,1,.68-.1,5.12,5.12,0,0,1,.69,0,17.54,17.54,0,0,1,8.5,2.67c12.75,7.37,23.51,26.93,23.51,42.73Z" style="fill:#37474f"></path><path d="M441.88,83.82V120c0,5.09-1.08,9.22-3.13,11.93a2,2,0,0,0-.18.23,11.73,11.73,0,0,1-1.33.1,17.54,17.54,0,0,1-8.49-2.67c-12.76-7.36-23.52-26.92-23.53-42.72V50.68c0-2.39.34-8.39,3.28-12.12a4.84,4.84,0,0,1,.68-.1,5.12,5.12,0,0,1,.69,0,17.54,17.54,0,0,1,8.5,2.67C431.12,48.46,441.88,68,441.88,83.82Z" style="fill:#BA68C8"></path><path d="M441.88,83.82V120c0,5.09-1.08,9.22-3.13,11.93a2,2,0,0,0-.18.23,11.73,11.73,0,0,1-1.33.1,17.54,17.54,0,0,1-8.49-2.67c-12.76-7.36-23.52-26.92-23.53-42.72V50.68c0-2.39.34-8.39,3.28-12.12a4.84,4.84,0,0,1,.68-.1,5.12,5.12,0,0,1,.69,0,17.54,17.54,0,0,1,8.5,2.67C431.12,48.46,441.88,68,441.88,83.82Z" style="fill:#fff;opacity:0.6000000000000001"></path><path d="M413.76,75c1.8,2.73,3.51,5.51,5.21,8.3s3.32,5.62,5,8.42,3.24,5.67,4.81,8.54,3.12,5.73,4.58,8.65c-1.8-2.73-3.51-5.51-5.2-8.3s-3.33-5.61-5-8.42-3.23-5.67-4.8-8.53S415.23,78,413.76,75Z" style="fill:#fff"></path><path d="M423.58,79.48c1,1.49,2,3,2.94,4.55s1.84,3.1,2.77,4.64,1.78,3.14,2.63,4.72,1.7,3.19,2.48,4.82c-1-1.49-2-3-2.94-4.55s-1.84-3.09-2.77-4.64-1.78-3.13-2.63-4.72S424.36,81.12,423.58,79.48Z" style="fill:#fff"></path><path d="M412.71,85.76c1,1.49,2,3,2.93,4.55s1.85,3.1,2.77,4.64,1.78,3.14,2.64,4.72,1.69,3.19,2.47,4.82c-1-1.49-2-3-2.93-4.55s-1.85-3.1-2.77-4.64-1.79-3.13-2.64-4.72S413.49,87.4,412.71,85.76Z" style="fill:#fff"></path><path d="M421,36.65c-14.41-8.32-26.08-.68-26.08,17v36.2c0,17.73,11.67,38.85,26.08,47.17s26.08.69,26.08-17V83.82C447,66.08,435.36,45,421,36.65ZM441.89,120c0,5.09-1.08,9.22-3.14,11.93a8,8,0,0,1-6.73,3.34,17.54,17.54,0,0,1-8.5-2.67C410.77,125.26,400,105.69,400,89.89V53.69c0-3.57.72-15.27,9.88-15.27a17.72,17.72,0,0,1,8.5,2.67c12.75,7.37,23.51,26.94,23.51,42.73Z" style="fill:#455a64"></path><path d="M440.64,73.94,400.16,50.57c.5-4.83,2.46-12.15,9.71-12.15a17.54,17.54,0,0,1,8.5,2.67C428.55,47,437.46,60.63,440.64,73.94Z" style="fill:#e0e0e0"></path><polygon points="415.76 56.28 415.76 53.82 422.16 57.51 422.16 59.97 415.76 56.28" style="fill:#455a64"></polygon></g></g><g id="freepik--Character--inject-51"><g id="freepik--window-seat--inject-51"><g id="freepik--Seat--inject-51"><path d="M336.58,151.12a2.07,2.07,0,0,1,1.22-1.7l10.66-6.15a6.46,6.46,0,0,1,5.87,0L423.17,183a2.05,2.05,0,0,1,1.22,1.7v3.18a2,2,0,0,1-1.22,1.69l-10.66,6.16a6.46,6.46,0,0,1-5.87,0L337.8,156a2.08,2.08,0,0,1-1.22-1.7Z" style="fill:#BA68C8"></path><g style="opacity:0.1"><path d="M336.58,151.12a2.07,2.07,0,0,1,1.22-1.7l10.66-6.15a6.46,6.46,0,0,1,5.87,0L423.17,183a2.05,2.05,0,0,1,1.22,1.7v3.18a2,2,0,0,1-1.22,1.69l-10.66,6.16a6.46,6.46,0,0,1-5.87,0L337.8,156a2.08,2.08,0,0,1-1.22-1.7Z"></path></g><path d="M337.8,149.42l10.66-6.15a6.46,6.46,0,0,1,5.87,0l55.25,31.87v21.28a6,6,0,0,1-2.94-.7L337.8,156a2.08,2.08,0,0,1-1.22-1.7v-3.18A2.07,2.07,0,0,1,337.8,149.42Z" style="fill:#BA68C8"></path><g style="opacity:0.35000000000000003"><path d="M337.8,149.42l10.66-6.15a6.46,6.46,0,0,1,5.87,0l55.25,31.87v21.28a6,6,0,0,1-2.94-.7L337.8,156a2.08,2.08,0,0,1-1.22-1.7v-3.18A2.07,2.07,0,0,1,337.8,149.42Z"></path></g><path d="M421.34,175.55,356,137.82a7,7,0,0,0-7.05,0l-6,3.48c-4.23,2.44-5.86,3.07-6.21,5.28-.06.34-.08,4.12-.08,4.54a2.06,2.06,0,0,0,1.22,1.69l68.84,39.73a6.52,6.52,0,0,0,5.87,0l10.66-6.16a2.07,2.07,0,0,0,1.22-1.69c0-.41,0-4.19,0-4.53C424.26,177.77,423.67,176.9,421.34,175.55Z" style="fill:#37474f"></path><path d="M355.53,138.41l66.06,38.12a1.71,1.71,0,0,1,0,3.25l-9.9,5.72a7,7,0,0,1-6.25,0l-66.06-38.12a2,2,0,0,1-1.17-1.62,2,2,0,0,1,1.17-1.63l9.9-5.72A7,7,0,0,1,355.53,138.41Z" style="fill:#455a64"></path><path d="M265.94,268.67l-7.4,4.27,3,29.28a12.91,12.91,0,0,0,5.69,8.79l53.05,30.61a4.09,4.09,0,0,0,4.18.24l7.39-4.27a4.26,4.26,0,0,0,2-3.09l4.34-24.17Z" style="fill:#ebebeb"></path><path d="M261.52,302.22a12.91,12.91,0,0,0,5.69,8.79l53.05,30.61c2.81,1.62,5.56.35,6.13-2.85l4.34-24.17-72.19-41.66Z" style="fill:#e0e0e0"></path><path d="M261.52,302.22a12.91,12.91,0,0,0,5.69,8.79l53.05,30.61c2.81,1.62,5.56.35,6.13-2.85l4.34-24.17-72.19-41.66Z" style="opacity:0.1"></path><path d="M344.16,223.51l-7.4,4.27,3,29.28a12.93,12.93,0,0,0,5.69,8.8l53.05,30.6a4.09,4.09,0,0,0,4.18.24l7.39-4.26a4.33,4.33,0,0,0,2-3.1l4.34-24.17Z" style="fill:#ebebeb"></path><path d="M339.75,257.06a12.93,12.93,0,0,0,5.69,8.8l53.05,30.6c2.81,1.63,5.56.35,6.13-2.85L409,269.44l-72.2-41.66Z" style="fill:#e0e0e0"></path><path d="M339.75,257.06a12.93,12.93,0,0,0,5.69,8.8l53.05,30.6c2.81,1.63,5.56.35,6.13-2.85L409,269.44l-72.2-41.66Z" style="opacity:0.1"></path><polygon points="256.73 255.28 258.54 272.94 330.73 314.6 334.29 300.06 256.73 255.28" style="fill:#BA68C8"></polygon><polygon points="256.73 255.28 258.54 272.94 330.73 314.6 334.29 300.06 256.73 255.28" style="opacity:0.35000000000000003"></polygon><polygon points="416.36 265.17 419.92 250.63 334.29 300.06 330.73 314.6 416.36 265.17" style="fill:#BA68C8"></polygon><polygon points="416.36 265.17 419.92 250.63 334.29 300.06 330.73 314.6 416.36 265.17" style="opacity:0.1"></polygon><path d="M419.92,234a28.59,28.59,0,0,0-14.3-24.77L357.8,181.64l-19.12-11-85.63,49.44,3.68,35.23,77.56,44.78,85.63-49.44Z" style="fill:#455a64"></path><polygon points="338.68 170.61 253.06 220.05 255.24 240.85 276.95 233.84 362.57 184.4 338.68 170.61" style="fill:#37474f"></polygon><path d="M253.05,220.05,320,258.69a28.6,28.6,0,0,1,14.3,24.77v16.6l-77.56-44.78Z" style="fill:#263238"></path><path d="M349.3,96.52a28.58,28.58,0,0,0-14.13-21.75L328.66,71,243,120.45h0l10,99.6,14.6,8.42a9,9,0,0,0,9,0l72.45-41.83a15.47,15.47,0,0,0,7.66-14.95Z" style="fill:#455a64"></path><path d="M335.17,74.77,328.66,71,243,120.45h0l2.06,19.61,99-57.17A28.56,28.56,0,0,0,335.17,74.77Z" style="fill:#37474f"></path><path d="M249.55,124.21,243,120.45l10,99.6,14,8.07a3,3,0,0,0,4.53-2.93L263.67,146A28.59,28.59,0,0,0,249.55,124.21Z" style="fill:#263238"></path><path d="M346.94,70.12,345.7,58.28c-.68-6.46-5.51-14.17-10.79-17.22l-9.56-5.52-86,49.67,3.7,35.24,9.56,5.51c2.42,1.4,4.5,1.56,6,.73h0l86-49.66v0C346.37,76,347.31,73.62,346.94,70.12Z" style="fill:#455a64"></path><path d="M239.33,85.21l9.56,5.52c5.28,3,10.11,10.75,10.79,17.21l1.24,11.84c.68,6.46-3.05,9.23-8.33,6.18L243,120.45Z" style="fill:#263238"></path><path d="M259,73.83l6,3.44a21.19,21.19,0,0,1,10.2,14.33l3,15.34,52.56-30.35-3-15.34a21.16,21.16,0,0,0-10.2-14.33l-6-3.44Z" style="fill:#ebebeb"></path></g><g id="freepik--character--inject-51"><g id="freepik--Bottom--inject-51"><path d="M396.06,283.91s-7.33,17.15-7.81,23.95c-.49,7.09-2.25,9.42-1.17,17.16.23,1.68,1.06,5.07,1.25,6.44a2,2,0,0,1-1.86,2.48c-3.09.59-8.11-5.28-10.44-11.62a185.11,185.11,0,0,1-5.72-22.3,9.79,9.79,0,0,1,1.05-4.95,15.14,15.14,0,0,1,1.46-2.55c1.07-3.08,1.66-8.94,2.59-13Z" style="fill:#ffa8a7"></path><path d="M364.17,306.39a7.26,7.26,0,0,0-.86,2.31c-.1,1.42,3,6.13,4.25,7.85a11.42,11.42,0,0,1,2.17,8.11c-.26,4.53,1.67,8.93,4.53,12.72a31.18,31.18,0,0,0,15.31,10.39c7.44,2.43,10.14-1.28,10.14-1.28s2.38-3.57,1-5.07S364.17,306.39,364.17,306.39Z" style="fill:#263238"></path><path d="M372.82,292.52c-.22,0-.62-.09-1.22.61-.23.26-1.65,3.6-2.81,5.35s-4.19,5-4.62,7.91c1.64,5.57,6.77,9.52,7.47,14.76s.68,11.32,8.61,17.86,16.19,7.35,19.19,5.7,2.79-4.83-1.25-11c-4.29-6.51-7-20.51-7-20.51a45.73,45.73,0,0,1-.68-6c-.12-1.91.48-3.94.66-5.86a4.45,4.45,0,0,0-.33-2.66,4.56,4.56,0,0,0-2.19-1.57,19.57,19.57,0,0,0-4.11-1.47,6.62,6.62,0,0,0-4.26.44,31.41,31.41,0,0,1-2.69,1.66,3.82,3.82,0,0,1-3.94-.78,3.25,3.25,0,0,1-1-3.64S372.82,292.52,372.82,292.52Z" style="fill:#BA68C8"></path><path d="M372.82,292.52c-.22,0-.62-.09-1.22.61-.23.26-1.65,3.6-2.81,5.35s-4.19,5-4.62,7.91c1.64,5.57,6.77,9.52,7.47,14.76s.68,11.32,8.61,17.86,16.19,7.35,19.19,5.7,2.79-4.83-1.25-11c-4.29-6.51-7-20.51-7-20.51a45.73,45.73,0,0,1-.68-6c-.12-1.91.48-3.94.66-5.86a4.45,4.45,0,0,0-.33-2.66,4.56,4.56,0,0,0-2.19-1.57,19.57,19.57,0,0,0-4.11-1.47,6.62,6.62,0,0,0-4.26.44,31.41,31.41,0,0,1-2.69,1.66,3.82,3.82,0,0,1-3.94-.78,3.25,3.25,0,0,1-1-3.64S372.82,292.52,372.82,292.52Z" style="opacity:0.4"></path><path d="M375.64,333.8s3.22-6.28,11.76-6.11,11.42,4.58,12.68,7.15c1.49,3.07,3,8.62-.54,10.14-3.84,1.64-8.24,1-15.11-2.55S375.64,333.8,375.64,333.8Z" style="fill:#fafafa"></path><path d="M377.63,308.1a.86.86,0,0,0,.78,0c1.33-.65,8.33-2,12.33,1.85.54-.41.44-1.19-.21-2.29-4.71-3.1-11.34-1.86-12.95-1.07a.82.82,0,0,0-.35,1.13A.84.84,0,0,0,377.63,308.1Z" style="fill:#fafafa"></path><path d="M391.54,315a2.66,2.66,0,0,0-.46-2.35c-4.65-2.63-10.81-1.46-12.35-.71a.82.82,0,0,0-.35,1.13.91.91,0,0,0,1.17.39C380.85,312.78,387.49,311.51,391.54,315Z" style="fill:#fafafa"></path><path d="M394.82,326.55a4.82,4.82,0,0,0-1-3.11c-4.69-2.94-11.16-1.73-12.75-.95a.82.82,0,0,0-.35,1.13.9.9,0,0,0,1.17.39C383.26,323.32,391,321.87,394.82,326.55Z" style="fill:#fafafa"></path><path d="M379.93,318.7a.87.87,0,0,0,.77,0c1.32-.64,8.18-1.95,12.2,1.73a3,3,0,0,0-.67-2.54c-4.65-2.63-10.81-1.46-12.35-.71a.82.82,0,0,0-.35,1.13A.87.87,0,0,0,379.93,318.7Z" style="fill:#fafafa"></path><path d="M402.4,306.11s4.64,20.92,8.77,29,6.24,11.94,11.77,18c1.2,1.32,3.93,3.74,4.91,4.8a2.1,2.1,0,0,1-.12,3.25c-2.31,2.34-12.38,3.19-18.15-.88s-11.2-12.94-14.67-16.24c-1.3-1.25-2.53-2.52-3.71-3.88s-.87-2.59-1-4.08c-.07-.73,0-2.71,0-2.71-.88-3.53-3.14-9-4.36-12.45Z" style="fill:#ffa8a7"></path><path d="M388.65,349.27a7.65,7.65,0,0,0,.34,2.56c.6,1.35,5.8,4.19,7.77,5.17a11.92,11.92,0,0,1,6,6.43c2,4.32,5.92,7.44,10.42,9.53a32.53,32.53,0,0,0,19.25,2.1c8.07-1.4,8.75-6.15,8.75-6.15s.45-4.47-1.55-5.18S388.65,349.27,388.65,349.27Z" style="fill:#263238"></path><path d="M389.84,332.2c-.21.1-.62.23-.83,1.17-.08.36.25,4.14,0,6.32-.23,2.34-1.4,6.72-.39,9.58,4.25,4.34,10.93,5.47,14.14,10s6.18,10.14,16.72,12.29,18.57-1.16,20.54-4.15.2-5.83-6.54-9.52C426.35,354,417,342.35,417,342.35a49.07,49.07,0,0,1-3.54-5.16c-1.05-1.71-1.5-3.88-2.27-5.74a3.51,3.51,0,0,0-4.4-2.68,20.81,20.81,0,0,0-4.52.66,6.9,6.9,0,0,0-3.73,2.5c-.63.91-1,2-1.67,2.84a4,4,0,0,1-4,1.22,3.4,3.4,0,0,1-2.72-2.88A8.27,8.27,0,0,1,389.84,332.2Z" style="fill:#BA68C8"></path><path d="M389.84,332.2c-.21.1-.62.23-.83,1.17-.08.36.25,4.14,0,6.32-.23,2.34-1.4,6.72-.39,9.58,4.25,4.34,10.93,5.47,14.14,10s6.18,10.14,16.72,12.29,18.57-1.16,20.54-4.15.2-5.83-6.54-9.52C426.35,354,417,342.35,417,342.35a49.07,49.07,0,0,1-3.54-5.16c-1.05-1.71-1.5-3.88-2.27-5.74a3.51,3.51,0,0,0-4.4-2.68,20.81,20.81,0,0,0-4.52.66,6.9,6.9,0,0,0-3.73,2.5c-.63.91-1,2-1.67,2.84a4,4,0,0,1-4,1.22,3.4,3.4,0,0,1-2.72-2.88A8.27,8.27,0,0,1,389.84,332.2Z" style="opacity:0.4"></path><path d="M412.69,369s-.1-7.38,7.88-11.41,12.8-1.38,15.22.39c2.89,2.1,7,6.48,4.48,9.63-2.74,3.41-7.1,5-15.22,5.06S412.69,369,412.69,369Z" style="fill:#fafafa"></path><path d="M401.93,344.25a.88.88,0,0,0,.72-.37c.91-1.25,6.73-5.93,12.31-4.34.29-.64-.17-1.31-1.32-2-5.87-.56-11.39,3.84-12.49,5.35a.86.86,0,0,0,.23,1.22A.92.92,0,0,0,401.93,344.25Z" style="fill:#fafafa"></path><path d="M418.15,343.76a2.79,2.79,0,0,0-1.58-1.95c-5.58-.15-10.7,3.95-11.76,5.41a.85.85,0,0,0,.23,1.21,1,1,0,0,0,.55.16.91.91,0,0,0,.72-.38C407.2,347,412.72,342.57,418.15,343.76Z" style="fill:#fafafa"></path><path d="M426.87,352.87a5.06,5.06,0,0,0-2.48-2.36c-5.78-.42-11.17,3.88-12.26,5.37a.86.86,0,0,0,.23,1.22,1,1,0,0,0,1.28-.22C414.6,355.56,421,350.43,426.87,352.87Z" style="fill:#fafafa"></path><path d="M409.25,352.92a.93.93,0,0,0,.72-.37c.91-1.24,6.61-5.82,12.13-4.39a3.16,3.16,0,0,0-1.87-2c-5.59-.14-10.7,4-11.76,5.41a.84.84,0,0,0,.23,1.21A.86.86,0,0,0,409.25,352.92Z" style="fill:#fafafa"></path><path d="M359.54,190.47c16.49,6,36,15.24,48.68,26.07,3.65,3.12,7.93,8.32,6.81,19.43-1.27,12.71-15.62,56.27-15.62,56.27l-78.53-87.35Z" style="fill:#263238"></path><path d="M396.82,278.84c-11.38-8.78-49.16-63.57-49.16-63.57l1.48-.38c7.81-4.36,9.58-14.52,9.58-14.52,1.4,4.42-.77,10.75-3.18,14.43,2.89,2.32,17.07,13.42,28.41,21.7,2.84,2.08,5.77,4.67,6.91,9.6C393.59,257.93,397,276.42,396.82,278.84Z"></path><path d="M352.87,187.56h0l-63.09,14c3.32,17.16,6.66,21.44,9.42,25,4.12,5.32,5.81,8.06,21.18,17,17.86,10.42,34.49,18.63,38.3,20.3,2.87,1.26,4,8.34,5.49,15.63,1.57,7.65,3.38,11.31,11.47,27.23,7.92,15.58,10.91,17.17,10.91,17.17s11.56.85,19-6.11c0,0-12.06-53.87-14.57-63.56-1.41-5.41-1.82-10.18-8.76-16-6-5-33.09-23.41-33.09-23.41S360,202.28,352.87,187.56Z" style="fill:#263238"></path></g><g id="freepik--Top--inject-51"><path d="M344.5,108.53c7.81,2.12,9.93,2.7,15.94,9.89,6.9,8.26,21.5,23.91,21.5,23.91s14.94-16.46,17.32-21c1.32-2.52.24-9.35-.16-16.06-.14-2.26-.66-2.08,1.61-8.74,1.19-3.51,2.1-4.46,2.1-4.46a1.56,1.56,0,0,1,1.11.71A30.53,30.53,0,0,1,406,89.13c.55-.52,1.36-.1,1.92.54.61-.89,1-1.76,1.43-1.63,1.92.59,1.86,2.89,1.86,3.85,2.09.28,2,2.72,1.85,3.66-.55,3.62-.94,5.51-1.2,7.23-.3,2,.05,9.86,1.07,8.79s1.42-4.1,3.13-5.51c1.51-1.23,2.8-.3,2.76.71-.05,1.53-.73,3.93-1.06,7.28a27.56,27.56,0,0,1-2.44,9.48c-1.12,2.45-2.9,4.19-4.3,6.19-4.24,6.11-16.32,29.05-21.43,33.75-2.71,2.5-6.22,4.61-14.79-2.18s-26.22-22.84-26.22-22.84Z" style="fill:#ffa8a7"></path><path d="M411.82,107.14h0a31.18,31.18,0,0,0-.18,5c.22,1,.61.84,1.29-.58C412.33,112.2,412,109.7,411.82,107.14Z" style="fill:#f28f8f"></path><path d="M411.21,91.89a1.16,1.16,0,0,0-.89.6,4.76,4.76,0,0,0-.46,1c-.24.72-.42,1.46-.6,2.2l-1.07,4.47-.54,2.23a10.56,10.56,0,0,0-.34,2.22c-.07,1.53-.08,3.06-.15,4.6-.16-1.53-.26-3.06-.27-4.61a9,9,0,0,1,.27-2.32l.5-2.25c.38-1.49.75-3,1.19-4.45.23-.73.46-1.47.76-2.19a5.13,5.13,0,0,1,.59-1A1.17,1.17,0,0,1,411.21,91.89Z" style="fill:#f28f8f"></path><path d="M407.92,89.67c-.52,1.45-1.08,2.86-1.66,4.26-.27.71-.59,1.4-.88,2.1-.15.35-.32.7-.44,1s-.19.72-.28,1.09c-.37,1.47-.69,3-1,4.44-.08.37-.17.75-.23,1.11s0,.76-.06,1.13c0,.76-.07,1.52-.13,2.28-.06-.76-.09-1.52-.14-2.29a11.2,11.2,0,0,1,0-1.16c0-.39.1-.76.15-1.14.24-1.52.56-3,.9-4.5.1-.37.19-.74.32-1.12s.31-.7.46-1.06c.32-.69.62-1.39,1-2.08C406.53,92.4,407.2,91,407.92,89.67Z" style="fill:#f28f8f"></path><path d="M403.92,92.77c-.33,1.17-.74,2.31-1.12,3.45a34.93,34.93,0,0,0-1.08,3.43,23.67,23.67,0,0,0-.73,3.5c-.12,1.19-.05,2.4-.14,3.62a27.6,27.6,0,0,1-.26-3.64,16.31,16.31,0,0,1,.61-3.62,21,21,0,0,1,1.18-3.45C402.86,95,403.36,93.85,403.92,92.77Z" style="fill:#f28f8f"></path><path d="M341.55,107.13c3.7.76,10.58,2.11,15.33,6.63s25.36,27.72,25.36,27.72l16.29-19.1a13,13,0,0,0,4.36,6.89c3.77,3.31,6.42,3.67,6.42,3.67s-7.16,13.74-13.4,23.21-8.62,10.72-11.65,10.69-6.39-2.34-11.18-5.91-26.73-22.41-26.73-22.41Z" style="fill:#BA68C8"></path><path d="M341.55,107.13c3.7.76,10.58,2.11,15.33,6.63s25.36,27.72,25.36,27.72l16.29-19.1a13,13,0,0,0,4.36,6.89c3.77,3.31,6.42,3.67,6.42,3.67s-7.16,13.74-13.4,23.21-8.62,10.72-11.65,10.69-6.39-2.34-11.18-5.91-26.73-22.41-26.73-22.41Z" style="opacity:0.5"></path><path d="M382.24,141.48c-4.34,5.32-5.52,8-5.53,11.25-.8-3.91,0-7,4.26-12.67Z" style="opacity:0.30000000000000004"></path><path d="M402.89,129.27a13,13,0,0,1-4.36-6.89L394,127.64c1.94,4.42,6.39,10.25,12.37,10.7,1.76-3.22,2.9-5.4,2.9-5.4S406.66,132.58,402.89,129.27Z" style="fill:#BA68C8"></path><path d="M402.89,129.27a13,13,0,0,1-4.36-6.89L394,127.64c1.94,4.42,6.39,10.25,12.37,10.7,1.76-3.22,2.9-5.4,2.9-5.4S406.66,132.58,402.89,129.27Z" style="opacity:0.7000000000000001"></path><path d="M304.37,102.63c-.17,2.66-1.6,5.3-6.9,8.46s-14.94,8.82-19.13,12.9c-.7,4.07.66,22.75,2.15,35.65s8.14,45.19,10.72,52.27c9.57,3.21,36,5,52.7-5s15.63-16.44,15.63-16.44S352.72,170.62,352,162s-1.85-41.25-5.5-49.24c-2.14-4.69-3.26-5.44-8.39-6.56S324,104,324,104Z" style="fill:#BA68C8"></path><path d="M304.37,102.63c-.17,2.66-1.6,5.3-6.9,8.46s-14.94,8.82-19.13,12.9c-.7,4.07.66,22.75,2.15,35.65s8.14,45.19,10.72,52.27c9.57,3.21,36,5,52.7-5s15.63-16.44,15.63-16.44S352.72,170.62,352,162s-1.85-41.25-5.5-49.24c-2.14-4.69-3.26-5.44-8.39-6.56S324,104,324,104Z" style="opacity:0.30000000000000004"></path><g id="freepik--Head--inject-51"><path d="M342.11,58.71c-3.18-6-10-11.53-20-11.52-12.26,0-22.59,5.88-22.49,13.81-1.66-.3-4.53,1.41-5.14,6a33.51,33.51,0,0,0,1.88,15.67c2.62,7.26,5,10.41,5.94,12.54a4.17,4.17,0,0,0,2.32,2.48l2.34-9.11V82.35s4.25-5.23,4.91-9.66a26.33,26.33,0,0,0,.32-4.16L342,70.06A12,12,0,0,0,342.11,58.71Z"></path><path d="M298.67,90.73c3.39,2,5.61.56,5.61.56l.11,14.24c3.19,5.46,11.75,10.73,18.19,17.79,3.05,3.36,5.15,8.22,6.89,11.59a47.84,47.84,0,0,0-2.59-22.75l.27-8.83s5,.06,7.29-.92c3.21-1.38,5-3.44,6.52-8.91,1.68-6,1.81-14.56.52-17.53-.13-2.4.82-5.9.52-8.41a8.12,8.12,0,0,0-3.09-5.64c-5.54-4-13.66,1.71-20.94,2.52-4.24.46-7.1-1.49-8.81-2.42,4.72,5.46.06,11.27-.18,14.42a8.28,8.28,0,0,1-1.78,4.93c-1.56,1.22-2.6-2.19-3.79-3.57a5.14,5.14,0,0,0-8.08,1.42A8.43,8.43,0,0,0,298.67,90.73Z" style="fill:#ffa8a7"></path><path d="M323.07,71.8l-4.54,1.86a2.56,2.56,0,0,1,1.39-3.28A2.38,2.38,0,0,1,323.07,71.8Z" style="fill:#37474f"></path><path d="M340.18,72.4l-4.72-1.48a2.37,2.37,0,0,1,3-1.67A2.6,2.6,0,0,1,340.18,72.4Z" style="fill:#37474f"></path><path d="M320.39,76.66a2,2,0,1,0,2-2A2,2,0,0,0,320.39,76.66Z" style="fill:#263238"></path><path d="M335.29,76.23a2,2,0,1,0,2-2A1.82,1.82,0,0,0,335.29,76.23Z" style="fill:#263238"></path><path d="M328.36,73.87l1.38,12.77,6.78-2.34A29.86,29.86,0,0,0,328.36,73.87Z" style="fill:#f28f8f"></path><path d="M324,89.67l6.83.94a3.39,3.39,0,0,1-3.81,3A3.61,3.61,0,0,1,324,89.67Z" style="fill:#b16668"></path><path d="M324.93,90.7a3.77,3.77,0,0,0-.83.08,3.57,3.57,0,0,0,3,2.88,3.43,3.43,0,0,0,1.11,0A3.17,3.17,0,0,0,324.93,90.7Z" style="fill:#f28f8f"></path><path d="M327.15,103.33c-5.6-.6-10.86-1.93-13.41-4a20.41,20.41,0,0,1-5.5-7.59s.72,6.34,5.29,10.22,13.58,4.42,13.58,4.42Z" style="fill:#f28f8f"></path><path d="M304.36,101.63v1c.72,2.93,4.69,7.77,8.44,10.83,6.46,5.27,8.64,5.23,10.37,7.15s3.36,8.21,5.06,11.83c-1.9-2.26-4.68-8.27-5.9-7a23.47,23.47,0,0,0-3.74,6.3,42.17,42.17,0,0,1-14.37-10.93,43,43,0,0,1-6.14-10.49,38.84,38.84,0,0,0,3.36-4.1C303.05,104.1,302.75,101.9,304.36,101.63Z" style="fill:#BA68C8"></path><path d="M329.83,131.18c2.66-6.87,3.69-9.47,4-9.55s2.26,4.35,2.26,4.35a56.51,56.51,0,0,0-2.85-10.39c-1.72-3.94-6.12-11.58-6.12-11.58l-.26,8.15S330,118.86,329.83,131.18Z" style="fill:#BA68C8"></path></g></g></g><path d="M236.58,208.85a2.07,2.07,0,0,1,1.22-1.69L248.46,201a6.52,6.52,0,0,1,5.87,0l68.84,39.73a2,2,0,0,1,1.22,1.69v3.18a2.05,2.05,0,0,1-1.22,1.7l-10.66,6.16a6.52,6.52,0,0,1-5.87,0L237.8,213.73a2.07,2.07,0,0,1-1.22-1.69Z" style="fill:#BA68C8"></path><g style="opacity:0.1"><path d="M236.58,208.85a2.07,2.07,0,0,1,1.22-1.69L248.46,201a6.52,6.52,0,0,1,5.87,0l68.84,39.73a2,2,0,0,1,1.22,1.69v3.18a2.05,2.05,0,0,1-1.22,1.7l-10.66,6.16a6.52,6.52,0,0,1-5.87,0L237.8,213.73a2.07,2.07,0,0,1-1.22-1.69Z"></path></g><path d="M237.8,207.16,248.46,201a6.52,6.52,0,0,1,5.87,0l55.25,31.88v21.28a6.08,6.08,0,0,1-2.94-.7L237.8,213.73a2.07,2.07,0,0,1-1.22-1.69v-3.19A2.07,2.07,0,0,1,237.8,207.16Z" style="fill:#BA68C8"></path><g style="opacity:0.35000000000000003"><path d="M237.8,207.16,248.46,201a6.52,6.52,0,0,1,5.87,0l55.25,31.88v21.28a6.08,6.08,0,0,1-2.94-.7L237.8,213.73a2.07,2.07,0,0,1-1.22-1.69v-3.19A2.07,2.07,0,0,1,237.8,207.16Z"></path></g><path d="M321.34,233.29,256,195.56a7,7,0,0,0-7,0l-6,3.48c-4.23,2.43-5.86,3.07-6.21,5.28-.06.33-.08,4.12-.08,4.53a2.07,2.07,0,0,0,1.22,1.7l68.84,39.72a6.46,6.46,0,0,0,5.87,0l10.66-6.15a2.05,2.05,0,0,0,1.22-1.7c0-.4,0-4.18,0-4.52C324.26,235.51,323.67,234.63,321.34,233.29Z" style="fill:#37474f"></path><path d="M255.53,196.15l66.07,38.12a1.72,1.72,0,0,1,0,3.25l-9.91,5.72a7,7,0,0,1-6.25,0l-66.06-38.12a1.71,1.71,0,0,1,0-3.25l9.9-5.72A7,7,0,0,1,255.53,196.15Z" style="fill:#455a64"></path><g id="freepik--Arm--inject-51"><path d="M259.08,189.87c1.72-12,5.34-34.89,7.49-44.5,3.42-15.21,5-17,13.4-23,5.56,4.38,11.07,17,8.18,36.59l-8.08,35.45s4.7,4,13.78,12c8.93,7.92,18.13,15.11,27.78,22.13a9.31,9.31,0,0,1,2.35,2.16c.62.92,2.74,5.68,3.3,7a14.17,14.17,0,0,1,.79,2.37,9.29,9.29,0,0,1-.4,3.16c-.46,2.47-1.06,4.73-1.68,7.16a2.43,2.43,0,0,1-.75,1.42,7.55,7.55,0,0,1-1,.48,4.46,4.46,0,0,0-1.42,1.62,8.11,8.11,0,0,1-2.79,2.48c-1.19.66-2.09.35-3-.71a10,10,0,0,1-1.7-4,83.18,83.18,0,0,0-2.61-8,5.18,5.18,0,0,0-3.18-3.52c-2.61-1.35-5.36-2-7.46-4.13-1.8-1.8-2.93-5.11-5.12-6.51-3.16-2-22-12.52-32-18.9C256.78,205.52,257.33,202.12,259.08,189.87Z" style="fill:#ffa8a7"></path><path d="M281.54,121.3c-3.65,1.86-9.5,6.1-10.8,7.88-2.39,3.26-2.71,5.46-6,21.54s-6.09,39.15-7.06,46.32-.11,9.69,5,13.08,30.64,17.32,30.64,17.32,6.86-11.64,13-10.48l-25.15-23.1,8.33-36.77S295,135.86,281.54,121.3Z" style="fill:#BA68C8"></path><path d="M281.54,121.3c-3.65,1.86-9.5,6.1-10.8,7.88-2.39,3.26-2.71,5.46-6,21.54s-6.09,39.15-7.06,46.32-.11,9.69,5,13.08,30.64,17.32,30.64,17.32,6.86-11.64,13-10.48l-25.15-23.1,8.33-36.77S295,135.86,281.54,121.3Z" style="opacity:0.5"></path><path d="M281.19,193.86c-2.62-.93-11.55-.57-13.81,3,2.13-5.22,9.28-6.47,14.35-5.38Z" style="opacity:0.30000000000000004"></path><path d="M289.11,225.12l5.36,3a18.69,18.69,0,0,1,5.14-7.63,11.12,11.12,0,0,1,7.64-2.78L302.07,213s-3-.48-7.67,3.52C290.7,219.75,289.11,225.12,289.11,225.12Z" style="fill:#BA68C8"></path><path d="M289.11,225.12l5.36,3a18.69,18.69,0,0,1,5.14-7.63,11.12,11.12,0,0,1,7.64-2.78L302.07,213s-3-.48-7.67,3.52C290.7,219.75,289.11,225.12,289.11,225.12Z" style="opacity:0.7000000000000001"></path></g></g></g><g id="freepik--Seating--inject-51"><g id="freepik--seat--inject-51"><path d="M165.94,326.41l-7.4,4.27,3,29.29a12.94,12.94,0,0,0,5.69,8.79l53,30.6a4.09,4.09,0,0,0,4.18.24l7.39-4.26a4.3,4.3,0,0,0,2-3.1l4.34-24.17Z" style="fill:#ebebeb"></path><path d="M161.52,360a12.94,12.94,0,0,0,5.69,8.79l53,30.6c2.81,1.63,5.56.35,6.13-2.85l4.34-24.17-72.19-41.66Z" style="fill:#e0e0e0"></path><path d="M161.52,360a12.94,12.94,0,0,0,5.69,8.79l53,30.6c2.81,1.63,5.56.35,6.13-2.85l4.34-24.17-72.19-41.66Z" style="opacity:0.1"></path><path d="M244.16,281.26l-7.4,4.27,3,29.28a12.91,12.91,0,0,0,5.69,8.79l53.05,30.61a4.12,4.12,0,0,0,4.18.24l7.39-4.27a4.31,4.31,0,0,0,2-3.09l4.34-24.17Z" style="fill:#ebebeb"></path><path d="M239.75,314.81a12.91,12.91,0,0,0,5.69,8.79l53.05,30.61c2.81,1.62,5.56.34,6.13-2.85L309,327.19l-72.2-41.66Z" style="fill:#e0e0e0"></path><path d="M239.75,314.81a12.91,12.91,0,0,0,5.69,8.79l53.05,30.61c2.81,1.62,5.56.34,6.13-2.85L309,327.19l-72.2-41.66Z" style="opacity:0.1"></path><path d="M319.92,291.77A28.6,28.6,0,0,0,305.62,267L257.8,239.39l-19.12-11-85.63,49.44L156.73,313l77.56,44.77,85.63-49.44Z" style="fill:#455a64"></path><polygon points="238.68 228.35 153.06 277.79 155.24 298.6 176.95 291.58 262.57 242.15 238.68 228.35" style="fill:#37474f"></polygon><path d="M153.05,277.79,220,316.44a28.6,28.6,0,0,1,14.3,24.77V357.8L156.73,313Z" style="fill:#263238"></path><path d="M249.3,154.27a28.56,28.56,0,0,0-14.13-21.75l-6.51-3.76L143,178.19h0l10,99.6,14.59,8.43a9.06,9.06,0,0,0,9,0l72.45-41.83a15.49,15.49,0,0,0,7.66-14.95Z" style="fill:#455a64"></path><path d="M235.17,132.52l-6.51-3.76L143,178.19h0l2.06,19.61,99-57.17A28.53,28.53,0,0,0,235.17,132.52Z" style="fill:#37474f"></path><path d="M149.55,182,143,178.19l10,99.6,14,8.08a3,3,0,0,0,4.53-2.93l-7.91-79.23A28.61,28.61,0,0,0,149.55,182Z" style="fill:#263238"></path><path d="M246.94,127.86,245.7,116c-.68-6.46-5.51-14.17-10.79-17.21l-9.56-5.52-86,49.66,3.7,35.24,9.56,5.52c2.42,1.39,4.5,1.56,6,.72h0l86-49.66h0C246.37,133.77,247.31,131.37,246.94,127.86Z" style="fill:#455a64"></path><path d="M139.33,143l9.56,5.52c5.28,3.05,10.11,10.76,10.79,17.22l1.24,11.84c.68,6.46-3,9.23-8.33,6.18L143,178.19Z" style="fill:#263238"></path><polygon points="156.73 313.02 158.54 330.69 230.73 372.35 234.29 357.8 156.73 313.02" style="fill:#BA68C8"></polygon><polygon points="156.73 313.02 158.54 330.69 230.73 372.35 234.29 357.8 156.73 313.02" style="opacity:0.35000000000000003"></polygon><polygon points="316.36 322.91 319.92 308.37 234.29 357.8 230.73 372.35 316.36 322.91" style="fill:#BA68C8"></polygon><polygon points="316.36 322.91 319.92 308.37 234.29 357.8 230.73 372.35 316.36 322.91" style="opacity:0.1"></polygon><path d="M159,131.57l6,3.45a21.17,21.17,0,0,1,10.2,14.32l2.95,15.34,52.56-30.35L227.77,119a21.14,21.14,0,0,0-10.2-14.32l-6-3.45Z" style="fill:#ebebeb"></path></g><g id="freepik--seat--inject-51"><path d="M136.58,266.6a2.07,2.07,0,0,1,1.22-1.7l10.66-6.15a6.46,6.46,0,0,1,5.87,0l68.84,39.72a2.05,2.05,0,0,1,1.22,1.7v3.18a2.05,2.05,0,0,1-1.22,1.69l-10.66,6.16a6.52,6.52,0,0,1-5.87,0L137.8,271.48a2.08,2.08,0,0,1-1.22-1.7Z" style="fill:#BA68C8"></path><g style="opacity:0.1"><path d="M136.58,266.6a2.07,2.07,0,0,1,1.22-1.7l10.66-6.15a6.46,6.46,0,0,1,5.87,0l68.84,39.72a2.05,2.05,0,0,1,1.22,1.7v3.18a2.05,2.05,0,0,1-1.22,1.69l-10.66,6.16a6.52,6.52,0,0,1-5.87,0L137.8,271.48a2.08,2.08,0,0,1-1.22-1.7Z"></path></g><path d="M137.8,264.9l10.66-6.15a6.46,6.46,0,0,1,5.87,0l55.25,31.87V311.9a6,6,0,0,1-2.94-.7L137.8,271.48a2.08,2.08,0,0,1-1.22-1.7V266.6A2.07,2.07,0,0,1,137.8,264.9Z" style="fill:#BA68C8"></path><g style="opacity:0.35000000000000003"><path d="M137.8,264.9l10.66-6.15a6.46,6.46,0,0,1,5.87,0l55.25,31.87V311.9a6,6,0,0,1-2.94-.7L137.8,271.48a2.08,2.08,0,0,1-1.22-1.7V266.6A2.07,2.07,0,0,1,137.8,264.9Z"></path></g><path d="M221.34,291,156,253.3a7,7,0,0,0-7,0l-6,3.48c-4.23,2.44-5.86,3.07-6.21,5.28,0,.34-.08,4.12-.08,4.54a2.07,2.07,0,0,0,1.22,1.69L206.64,308a6.52,6.52,0,0,0,5.87,0l10.66-6.16a2.05,2.05,0,0,0,1.22-1.69c0-.41,0-4.19,0-4.53C224.26,293.25,223.67,292.37,221.34,291Z" style="fill:#37474f"></path><path d="M155.53,253.89,221.6,292a1.72,1.72,0,0,1,0,3.25L211.69,301a7,7,0,0,1-6.25,0l-66.06-38.12a1.71,1.71,0,0,1,0-3.25l9.9-5.72A7,7,0,0,1,155.53,253.89Z" style="fill:#455a64"></path><path d="M65.94,384.15l-7.4,4.27,3,29.28a12.91,12.91,0,0,0,5.69,8.79l53.05,30.61a4.09,4.09,0,0,0,4.18.24l7.39-4.27a4.26,4.26,0,0,0,2-3.09l4.34-24.17Z" style="fill:#ebebeb"></path><path d="M61.52,417.7a12.91,12.91,0,0,0,5.69,8.79l53.05,30.61c2.82,1.62,5.56.35,6.14-2.85l4.33-24.17L58.54,388.42Z" style="fill:#f5f5f5"></path><path d="M144.16,339l-7.4,4.27,3,29.28a13,13,0,0,0,5.69,8.8l53.05,30.6a4.09,4.09,0,0,0,4.18.24l7.39-4.27a4.26,4.26,0,0,0,2-3.09l4.34-24.17Z" style="fill:#ebebeb"></path><path d="M139.75,372.54a13,13,0,0,0,5.69,8.8l53.05,30.6c2.81,1.62,5.56.35,6.13-2.85L209,384.92l-72.2-41.66Z" style="fill:#e0e0e0"></path><path d="M139.75,372.54a13,13,0,0,0,5.69,8.8l53.05,30.6c2.81,1.62,5.56.35,6.13-2.85L209,384.92l-72.2-41.66Z" style="opacity:0.1"></path><polygon points="56.73 370.76 58.54 388.42 130.73 430.08 134.29 415.54 56.73 370.76" style="fill:#BA68C8"></polygon><polygon points="56.73 370.76 58.54 388.42 130.73 430.08 134.29 415.54 56.73 370.76" style="opacity:0.35000000000000003"></polygon><polygon points="216.36 380.65 219.92 366.11 134.29 415.54 130.73 430.08 216.36 380.65" style="fill:#BA68C8"></polygon><polygon points="216.36 380.65 219.92 366.11 134.29 415.54 130.73 430.08 216.36 380.65" style="opacity:0.1"></polygon><path d="M219.92,349.5a28.61,28.61,0,0,0-14.3-24.77L157.8,297.12l-19.12-11L53.06,335.52l3.67,35.24,77.56,44.78,85.63-49.44Z" style="fill:#455a64"></path><polygon points="138.68 286.09 53.05 335.52 55.24 356.33 76.95 349.32 162.57 299.88 138.68 286.09" style="fill:#37474f"></polygon><path d="M53.06,335.52,120,374.17a28.6,28.6,0,0,1,14.3,24.77v16.6L56.73,370.76Z" style="fill:#263238"></path><path d="M149.3,212a28.58,28.58,0,0,0-14.13-21.75l-6.51-3.76L43,235.93h0l10,99.59L67.65,344a9,9,0,0,0,9,0l72.45-41.83a15.47,15.47,0,0,0,7.66-14.95Z" style="fill:#455a64"></path><path d="M135.17,190.25l-6.51-3.76L43,235.93h0l2.06,19.61,99-57.17A28.44,28.44,0,0,0,135.17,190.25Z" style="fill:#37474f"></path><path d="M49.55,239.69,43,235.93l10,99.59,14,8.08a3,3,0,0,0,4.53-2.93l-7.91-79.23A28.57,28.57,0,0,0,49.55,239.69Z" style="fill:#263238"></path><path d="M146.94,185.6l-1.24-11.84c-.68-6.46-5.51-14.17-10.79-17.22L125.35,151l-86,49.67L43,235.93l9.55,5.51c2.42,1.4,4.5,1.56,6,.73h0l86-49.67h0C146.37,191.51,147.31,189.1,146.94,185.6Z" style="fill:#455a64"></path><path d="M39.33,200.69l9.56,5.51C54.17,209.25,59,217,59.68,223.42l1.24,11.84c.68,6.46-3.05,9.23-8.33,6.18L43,235.93Z" style="fill:#263238"></path><path d="M59,189.31l6,3.44a21.19,21.19,0,0,1,10.2,14.33l3,15.34,52.56-30.35-3-15.34a21.16,21.16,0,0,0-10.2-14.33l-6-3.44Z" style="fill:#ebebeb"></path><g id="freepik--Backpack--inject-51"><path id="freepik--shadow--inject-51" d="M127.92,366.76c19-8.87,46.81-24.56,60.75-34.76,2.51-1.83,2.32-4.65-.37-6.21L162.58,311a10.79,10.79,0,0,0-9.76,0c-11.16,6.43-49.51,28.4-60.67,34.83-2.7,1.55-2.7,4.07,0,5.63l25.8,14.85A12.08,12.08,0,0,0,127.92,366.76Z" style="fill:#37474f"></path><g id="freepik--backpack--inject-51"><path d="M140.38,231.94c7.28-.71,19.52,5.52,22.91,10.44,3.56,5.16,25,77.19,19.92,84.51-6.42,9.18-42.12,29.07-59,30a32.64,32.64,0,0,1-25.85-10.65C94,341,86.16,265.7,89.55,259,95,248.21,131.1,232.84,140.38,231.94Z" style="fill:#BA68C8"></path><path d="M140.38,231.94c7.28-.71,19.52,5.52,22.91,10.44,3.56,5.16,25,77.19,19.92,84.51-6.42,9.18-42.12,29.07-59,30a32.64,32.64,0,0,1-25.85-10.65C94,341,86.16,265.7,89.55,259,95,248.21,131.1,232.84,140.38,231.94Z" style="fill:#fff;opacity:0.2"></path><path d="M90.48,297.46c-.29-3.15-.56-6.27-.79-9.29-.09-1.21-.18-2.4-.26-3.57-.16-2.34-.3-4.6-.41-6.75,0-1.07-.1-2.11-.14-3.12-.06-1.52-.11-3-.13-4.31s0-2.61,0-3.77c0-.39,0-.76,0-1.13.08-3.26.33-5.56.81-6.5.15-.3.34-.61.54-.93l.21-.31c.15-.21.3-.42.47-.63l.3-.38c.16-.2.34-.4.52-.6s.22-.26.34-.38l.87-.88.61-.56.42-.38c.23-.21.48-.41.72-.62l.37-.31c.27-.22.55-.45.84-.67,6.95,1.92,7.69,1.56,7.89,1.65a15.6,15.6,0,0,1,8.86,12.5l6,37.24.58,3.53c.71,4.95,12.81,50.12-3.07,48.76l-.63,0c-10.93-2.47-15-7.29-17.06-9.8a7.87,7.87,0,0,1-1.07-2.44c-.16-.48-.31-1-.46-1.6l-.24-.93c-.23-1-.47-2-.71-3.22-.08-.4-.16-.8-.24-1.22-1.2-6.24-2.44-14.9-3.54-24.19-.22-1.86-.43-3.75-.63-5.64-.14-1.26-.27-2.53-.4-3.8-.07-.64-.13-1.27-.2-1.91Z" style="opacity:0.1"></path><path d="M88.83,263.27a13,13,0,0,1,.72-4.25c5.48-10.81,41.55-26.18,50.83-27.08,7.28-.71,19.51,5.52,22.91,10.44a40,40,0,0,1,2.73,6.56c-13.46,8.18-48.63,26.79-52.71,25.83-5-1.17-24-10.91-24.47-11.48Z" style="opacity:0.4"></path><path d="M137,315.36c7.21-3.89,23-14.12,27.47-16.5a5.78,5.78,0,0,1,5.3-.44c.75.38,3.36,1.71,4,2a3.44,3.44,0,0,1,2.07,2.53c1.37,7.86,2.09,11.09,2.32,14.91.16,2.61,0,5-3.77,8s-20.55,13.28-25.56,16c-4.72,2.61-9.87,4.67-12.28,3.38-.63-.34-3.45-1.67-4.2-2.06a2.66,2.66,0,0,1-1.34-2.12c-.57-4-2.09-12.62-2.59-15.55C127.88,322,129.43,319.48,137,315.36Z" style="fill:#BA68C8"></path><path d="M137,315.36c7.21-3.89,23-14.12,27.47-16.5a5.78,5.78,0,0,1,5.3-.44c.75.38,3.36,1.71,4,2a3.44,3.44,0,0,1,2.07,2.53c1.37,7.86,2.09,11.09,2.32,14.91.16,2.61,0,5-3.77,8s-20.55,13.28-25.56,16c-4.72,2.61-9.87,4.67-12.28,3.38-.63-.34-3.45-1.67-4.2-2.06a2.66,2.66,0,0,1-1.34-2.12c-.57-4-2.09-12.62-2.59-15.55C127.88,322,129.43,319.48,137,315.36Z" style="opacity:0.30000000000000004"></path><path d="M132.91,324.34l-4.23-1.9c.77-2.19,3.14-4.26,8.36-7.08,7.21-3.89,23-14.12,27.47-16.5a5.78,5.78,0,0,1,5.3-.44c.75.38,3.36,1.71,4,2a3.6,3.6,0,0,1,1.82,1.74Z" style="opacity:0.4"></path><path d="M175.91,303c1.37,7.86,2.09,11.09,2.32,14.91.16,2.61,0,5-3.77,8s-20.55,13.28-25.56,16c-6.13,3.39-13,5.88-13.65,1.26-.57-4-2.09-12.62-2.59-15.54-.61-3.62.94-6.14,8.55-10.25,7.21-3.9,23-14.13,27.47-16.51C172.45,298.91,175.49,300.6,175.91,303Z" style="fill:#BA68C8"></path><path d="M175.91,303c1.37,7.86,2.09,11.09,2.32,14.91.16,2.61,0,5-3.77,8s-20.55,13.28-25.56,16c-6.13,3.39-13,5.88-13.65,1.26-.57-4-2.09-12.62-2.59-15.54-.61-3.62.94-6.14,8.55-10.25,7.21-3.9,23-14.13,27.47-16.51C172.45,298.91,175.49,300.6,175.91,303Z" style="opacity:0.18"></path><path d="M128.68,322.44c.57-2.1,4.55-.84,5.72,1.86s1.51,6.36,2.06,7.53,39.86-22.25,40.87-23.54c.47-.6-.83-7.21-2.48-8.35s-5.36-3.1-7.62-2.59-26.09,14.89-30.77,17.43S128.14,319.87,128.68,322.44Z" style="fill:#BA68C8"></path><path d="M128.68,322.44c.57-2.1,4.55-.84,5.72,1.86s1.51,6.36,2.06,7.53,39.86-22.25,40.87-23.54c.47-.6-.83-7.21-2.48-8.35s-5.36-3.1-7.62-2.59-26.09,14.89-30.77,17.43S128.14,319.87,128.68,322.44Z" style="opacity:0.1"></path><path d="M149.05,328.81l-4.76,2.6a1,1,0,0,1-1.45-.51l-.86-2.27a1.15,1.15,0,0,1,.51-1.36l4.78-2.68a1,1,0,0,1,1.43.49l.88,2.37A1.16,1.16,0,0,1,149.05,328.81Z" style="fill:#37474f"></path><path d="M172.47,314.79l-4.76,2.61a1,1,0,0,1-1.45-.51l-.86-2.27a1.16,1.16,0,0,1,.52-1.37l4.77-2.68a1,1,0,0,1,1.43.5l.88,2.37A1.14,1.14,0,0,1,172.47,314.79Z" style="fill:#37474f"></path><path d="M176,282.12c-1.53-5.7-2.48-9.59-4-14.36-2.2-1.26-5.23-2.82-5.23-2.82l-17.35,6.18-16.22,5.78-3.69,1.32c-1.15.41-2.29,1.12-3.44,1.44-3,.84-7.76-1.26-10.25-2.77s-4-3-7-3.46q1.39,7.8,2.91,15.58c1,4.88,1.52,9.85,3.85,14.43a9,9,0,0,0,6.35,4.69,27,27,0,0,0,9.78-.37s.9,4.38,1.65,6.53a7.94,7.94,0,0,0,4.67,3.25c2.76-.75,1.61-12.65,1.61-12.65l20.23-11s1.18,4.25,2.06,6.32c1.35,1.61,3.8,3.36,4.61,3.15,3.49-.92.69-13.68.69-13.68S173.28,286.31,176,282.12Z" style="opacity:0.15"></path><path d="M141.13,231.87c8-.68,17.6,3.31,22.61,8.66s13.66,32.78,11.49,37.9S152.32,295.8,139.6,302c-10.16,4.91-15.8,4-20.23,2.22-3.34-1.34-3.9-6-4.66-9.45-2-8.88-4.92-24.82-11.75-29.55s-13-6-14.12-1.88c0,0-2.75-5.78,8.62-12.56C116.29,239.49,131.27,232.71,141.13,231.87Z" style="fill:#BA68C8"></path><path d="M141.13,231.87c8-.68,17.6,3.31,22.61,8.66s13.66,32.78,11.49,37.9S152.32,295.8,139.6,302c-10.16,4.91-15.8,4-20.23,2.22-3.34-1.34-3.9-6-4.66-9.45-2-8.88-4.92-24.82-11.75-29.55s-13-6-14.12-1.88c0,0-2.75-5.78,8.62-12.56C116.29,239.49,131.27,232.71,141.13,231.87Z" style="opacity:0.1"></path><path d="M149,257.39l-8-3.69a1.69,1.69,0,0,0-2.18.61l-6.63,12.45a1.46,1.46,0,0,0,.79,2l7.91,3.73a1.65,1.65,0,0,0,2.17-.59l6.73-12.52A1.45,1.45,0,0,0,149,257.39Z" style="fill:#fafafa"></path><path d="M142.12,271l6.38-11.86a.73.73,0,0,0-.4-1l-7.25-3.34a.82.82,0,0,0-1.08.3L133.47,267a.74.74,0,0,0,.4,1l7.17,3.38A.82.82,0,0,0,142.12,271Z" style="fill:#37474f"></path><path d="M143.19,265.43h0a1.26,1.26,0,0,0,.63-1.05l-.55-5.57c0-.36-.37-.48-.75-.26h0a1.27,1.27,0,0,0-.62,1.05l.54,5.57C142.48,265.53,142.81,265.65,143.19,265.43Z" style="fill:#BA68C8"></path><path d="M139.36,267.64h0a1.26,1.26,0,0,0,.63-1.05l-.54-5.57c0-.36-.38-.47-.75-.26h0a1.26,1.26,0,0,0-.63,1.05l.54,5.57C138.65,267.74,139,267.86,139.36,267.64Z" style="fill:#BA68C8"></path><path d="M136.69,286.89,130,290s3.75,15.57,5,23.26c0,0,2.22,3.17,3.87,3.59s3.07-3.48,2.94-6.29S138.55,293.48,136.69,286.89Z" style="fill:#455a64"></path><path d="M137.15,288.39l-6.89,2.9a1.34,1.34,0,0,1-1.89-.87l-.81-3.15a1.6,1.6,0,0,1,.92-1.78l6.91-3a1.29,1.29,0,0,1,1.86.85l.83,3.29A1.57,1.57,0,0,1,137.15,288.39Z" style="fill:#37474f"></path><path d="M137.75,307.53a2.92,2.92,0,0,0-1.54,2.91,1.51,1.51,0,0,0,2.22,1.17A2.84,2.84,0,0,0,140,308.7,1.49,1.49,0,0,0,137.75,307.53Z" style="fill:#e0e0e0"></path><path d="M164.39,272.91l-6.54,3.38s3.53,15.39,5.22,23c0,0,2.39,3.07,4.06,3.4s2.86-3.62,2.57-6.42A173.4,173.4,0,0,0,164.39,272.91Z" style="fill:#455a64"></path><path d="M164.93,274.4l-6.69,3.22a1.36,1.36,0,0,1-1.94-.79l-1-3.11a1.57,1.57,0,0,1,.81-1.82l6.71-3.33a1.31,1.31,0,0,1,1.9.77l1,3.26A1.59,1.59,0,0,1,164.93,274.4Z" style="fill:#37474f"></path><path d="M165.53,293.51a2.86,2.86,0,0,0-1.37,3,1.52,1.52,0,0,0,2.28,1.07,2.81,2.81,0,0,0,1.36-3A1.48,1.48,0,0,0,165.53,293.51Z" style="fill:#e0e0e0"></path><path d="M86.52,314.49c.4-.24,6.12-5.06,6.81-5.46,1.21-.7,22,9.4,24.07,11.23,1.44,1.28,2.85,22.58,2.35,24.14-.19.57-6.63,4.9-6.82,5.46-.5,1.57-22.39-8.65-24.09-11.4S84.73,315.52,86.52,314.49Z" style="fill:#BA68C8"></path><path d="M86.52,314.49c.4-.24,6.12-5.06,6.81-5.46,1.21-.7,22,9.4,24.07,11.23,1.44,1.28,2.85,22.58,2.35,24.14-.19.57-6.63,4.9-6.82,5.46-.5,1.57-22.39-8.65-24.09-11.4S84.73,315.52,86.52,314.49Z" style="opacity:0.18"></path><path d="M110.59,325.72c1.44,1.27,2.85,22.58,2.34,24.14s-22.39-8.65-24.09-11.4-4.11-22.94-2.32-24C87.73,313.78,108.53,323.89,110.59,325.72Z" style="fill:#BA68C8"></path><path d="M93.32,309c-.68.39-6.39,5.23-6.8,5.45,1.21-.69,22,9.42,24.07,11.24l6.81-5.45C115.34,318.43,94.54,308.32,93.32,309Z" style="opacity:0.4"></path><path d="M110.59,325.72c1.44,1.27,2.85,22.58,2.34,24.14s-22.39-8.65-24.09-11.4-4.11-22.94-2.32-24C87.73,313.78,108.53,323.89,110.59,325.72Z" style="opacity:0.30000000000000004"></path><path d="M117.4,320.27c-1.54-.73-5.45,1.63-7.05,3.18s-2.55,8.34-7.1,9.75-12.07-3.69-14-7.18-4.79-10.93-2.93-13.8a7.8,7.8,0,0,1,9.2-3.28C99.09,310.31,116.48,317,117.4,320.27Z" style="fill:#BA68C8"></path><path d="M117.4,320.27c-1.54-.73-5.45,1.63-7.05,3.18s-2.55,8.34-7.1,9.75-12.07-3.69-14-7.18-4.79-10.93-2.93-13.8a7.8,7.8,0,0,1,9.2-3.28C99.09,310.31,116.48,317,117.4,320.27Z" style="opacity:0.2"></path><path d="M96.65,324.82a3.4,3.4,0,0,1,2.09,2.8c0,1.12-.85,1.69-2,1.29a3.34,3.34,0,0,1-2.09-2.8A1.32,1.32,0,0,1,96.65,324.82Z" style="fill:#37474f"></path><path d="M110.88,250.52c-1.11.64-4.66-.77-5.24-1.51s-1.35-7.28.84-11,17.38-10.81,21.34-10.43a11.94,11.94,0,0,1,7.68,4c.58.92,1.7,7,.8,8.27s-4.7-.53-5.07-1.06.71-5-1.94-5.87c-2.4-.77-13,3.76-17.19,7.29-1.81,1.53-1.35,5.2-1.09,7S111.44,250.19,110.88,250.52Z" style="fill:#37474f"></path><path d="M128.33,232.83c2.77-.33,5.42-.18,6.34,2.33s.89,4.78.49,5.11a7.45,7.45,0,0,1-3.93-1.5c-.37-.53.71-5-1.94-5.87a2.55,2.55,0,0,0-1-.07Z" style="fill:#263238"></path></g></g><path d="M36.58,324.33a2.07,2.07,0,0,1,1.22-1.69l10.66-6.16a6.52,6.52,0,0,1,5.87,0l68.84,39.73a2,2,0,0,1,1.22,1.69v3.18a2.05,2.05,0,0,1-1.22,1.7l-10.66,6.15a6.46,6.46,0,0,1-5.87,0L37.8,329.21a2.07,2.07,0,0,1-1.22-1.69Z" style="fill:#BA68C8"></path><g style="opacity:0.1"><path d="M36.58,324.33a2.07,2.07,0,0,1,1.22-1.69l10.66-6.16a6.52,6.52,0,0,1,5.87,0l68.84,39.73a2,2,0,0,1,1.22,1.69v3.18a2.05,2.05,0,0,1-1.22,1.7l-10.66,6.15a6.46,6.46,0,0,1-5.87,0L37.8,329.21a2.07,2.07,0,0,1-1.22-1.69Z"></path></g><path d="M37.8,322.64l10.66-6.16a6.52,6.52,0,0,1,5.87,0l55.25,31.87v21.29a6,6,0,0,1-2.94-.71L37.8,329.21a2.07,2.07,0,0,1-1.22-1.69v-3.19A2.07,2.07,0,0,1,37.8,322.64Z" style="fill:#BA68C8"></path><g style="opacity:0.35000000000000003"><path d="M37.8,322.64l10.66-6.16a6.52,6.52,0,0,1,5.87,0l55.25,31.87v21.29a6,6,0,0,1-2.94-.71L37.8,329.21a2.07,2.07,0,0,1-1.22-1.69v-3.19A2.07,2.07,0,0,1,37.8,322.64Z"></path></g><path d="M121.34,348.77,56,311a7,7,0,0,0-7.05,0l-6,3.48c-4.23,2.43-5.86,3.07-6.21,5.28,0,.33-.08,4.12-.08,4.53A2.07,2.07,0,0,0,37.8,326l68.84,39.72a6.46,6.46,0,0,0,5.87,0l10.66-6.15a2.05,2.05,0,0,0,1.22-1.7c0-.4,0-4.18,0-4.52C124.26,351,123.67,350.11,121.34,348.77Z" style="fill:#37474f"></path><path d="M55.53,311.63l66.07,38.12a2,2,0,0,1,1.16,1.62A2,2,0,0,1,121.6,353l-9.91,5.72a7,7,0,0,1-6.25,0L39.38,320.6a1.71,1.71,0,0,1,0-3.25l9.9-5.72A7,7,0,0,1,55.53,311.63Z" style="fill:#455a64"></path></g></g><g id="freepik--sign-2--inject-51"><g id="freepik--seats-signal--inject-51"><path d="M240.31,468.09a10.26,10.26,0,0,1-5-1.19l-21.78-12.54a3.43,3.43,0,0,1,0-6.44L311,391.62a11.14,11.14,0,0,1,10.06,0l21.7,12.54a3.43,3.43,0,0,1,0,6.44l-97.44,56.29A10.35,10.35,0,0,1,240.31,468.09ZM213.78,448.4l.28.47a2.37,2.37,0,0,0,0,4.54L235.84,466a9.92,9.92,0,0,0,9,0l97.44-56.29a2.37,2.37,0,0,0,0-4.54l-21.71-12.54a10,10,0,0,0-9,0l-97.51,56.3Z" style="fill:#BA68C8"></path><path d="M239.23,458.42a2.6,2.6,0,0,1-1.93.09,1.09,1.09,0,0,1-.44-.55c-.11-.26-.09-.43,0-.52a2,2,0,0,1,.55-.12c.47-.09.86-.18,1.18-.27a3.66,3.66,0,0,0,1-.42,1.4,1.4,0,0,0,.82-1c0-.37-.26-.74-.89-1.1a3.57,3.57,0,0,0-1.91-.53,4.24,4.24,0,0,0-2,.61l-.61.36a.83.83,0,0,1-.51.1,2,2,0,0,1-.66-.25l-.25-.15c-.26-.15-.4-.27-.44-.38s0-.2.17-.29l.49-.28c.56-.33.84-.68.81-1a1.18,1.18,0,0,0-.7-.94,2.87,2.87,0,0,0-1.39-.39,2.77,2.77,0,0,0-1.49.4,2.42,2.42,0,0,0-.68.52,2.37,2.37,0,0,0-.31.47.65.65,0,0,1-.18.28,1.69,1.69,0,0,1-.87,0,2.79,2.79,0,0,1-1-.25c-.33-.2-.31-.52.07-1a7,7,0,0,1,4.74-2.18,5.51,5.51,0,0,1,3,.72,2.17,2.17,0,0,1,1.06,1.11,1.37,1.37,0,0,1-.23,1.22l.07,0a6.63,6.63,0,0,1,2.56-.2,6.43,6.43,0,0,1,2.44.79,3.38,3.38,0,0,1,1.42,1.35,1.47,1.47,0,0,1,0,1.41,3.58,3.58,0,0,1-1.39,1.29A12,12,0,0,1,239.23,458.42Z" style="fill:#455a64"></path><path d="M245.76,454.4a4.48,4.48,0,0,1-.92-.38c-.12-.07-.18-.13-.18-.19L243,448.58a3.94,3.94,0,0,0-.45-1,2,2,0,0,0-.65-.58,2.53,2.53,0,0,0-1.4-.34,3.1,3.1,0,0,0-1.46.44,2.24,2.24,0,0,0-.72.6,3.37,3.37,0,0,0-.36.68.68.68,0,0,1-.2.35,1.7,1.7,0,0,1-.91.1,2.38,2.38,0,0,1-.94-.25.54.54,0,0,1-.27-.7,2.4,2.4,0,0,1,.7-1,6.86,6.86,0,0,1,1.27-.94,7,7,0,0,1,3.29-1,5.59,5.59,0,0,1,3,.71,3.43,3.43,0,0,1,1.15,1,4.89,4.89,0,0,1,.66,1.64l1.29,3.8,3.66-2.12a.83.83,0,0,1,.51-.1,1.82,1.82,0,0,1,.66.26l.25.14c.25.15.4.27.44.38s0,.2-.18.29l-5.89,3.41A1.1,1.1,0,0,1,245.76,454.4Z" style="fill:#455a64"></path><path d="M273.28,436.22a11.08,11.08,0,0,1-4.44-1.6c-1.59-.91-2.48-1.77-2.68-2.55s.31-1.53,1.51-2.22a6.4,6.4,0,0,1,1.4-.61,1.11,1.11,0,0,1,.47,0,1,1,0,0,1,.41.16,1.74,1.74,0,0,1,.6.52c.13.19.09.32-.15.37a4.43,4.43,0,0,0-1.14.44c-.61.35-.79.77-.57,1.24a5,5,0,0,0,2,1.65,9,9,0,0,0,2.86,1.14,3.24,3.24,0,0,0,2.19-.36,2.64,2.64,0,0,0,.45-.32c.12-.11.23-.23.36-.37l.09-.09a.9.9,0,0,1,.64,0,3.29,3.29,0,0,1,.84.34.53.53,0,0,1,.24.23c0,.07,0,.17-.08.28a2.56,2.56,0,0,1-.44.44,6.23,6.23,0,0,1-.71.49A6.44,6.44,0,0,1,273.28,436.22Z" style="fill:#455a64"></path><path d="M258.14,440.09l-4.52,2.61c-1.1.64-1,1.75.31,2.48l4.32,2.5,8.51-4.91-4.32-2.5A4.81,4.81,0,0,0,258.14,440.09Z" style="fill:#455a64"></path><path d="M255,438.14c1.31.75,1.31,2,0,2.73a5.25,5.25,0,0,1-4.73,0c-1.3-.76-1.3-2,0-2.73A5.19,5.19,0,0,1,255,438.14Z" style="fill:#455a64"></path><path d="M283.5,434.58l-8.71,5a6.8,6.8,0,0,1-6.12,0l-8.71-5c-1.69-1-1.69-2.56,0-3.54l8.71-5a6.74,6.74,0,0,1,6.12,0l8.71,5C285.19,432,285.19,433.61,283.5,434.58Zm-22.42-2.89a1.19,1.19,0,0,0,0,2.24l8.71,5a4.28,4.28,0,0,0,3.88,0l8.71-5a1.19,1.19,0,0,0,0-2.24l-8.71-5a4.28,4.28,0,0,0-3.88,0Z" style="fill:#455a64"></path><path d="M290.72,427.23a1,1,0,0,1-.48-.15l-8.31-4.8c-.17-.1-.26-.19-.26-.28s.07-.17.23-.26l2.35-1.35a5.59,5.59,0,0,1,2.62-.83,4.31,4.31,0,0,1,2.35.59,2.31,2.31,0,0,1,1,.94,1,1,0,0,1-.05,1l.06,0a4.81,4.81,0,0,1,1.77-.17,4.3,4.3,0,0,1,1.9.59c.83.48,1.23,1,1.19,1.55s-.54,1.11-1.51,1.67l-2.37,1.37A.92.92,0,0,1,290.72,427.23Zm-2.64-4.6c.32-.19.47-.4.42-.63s-.27-.46-.67-.7a2.62,2.62,0,0,0-1.16-.38,1.92,1.92,0,0,0-1,.28l-1.09.62,2.46,1.43Zm4.21,2.22c.73-.42.63-.89-.29-1.43a2.63,2.63,0,0,0-1.24-.39,2.21,2.21,0,0,0-1.19.33l-1.19.68,2.65,1.53Z" style="fill:#455a64"></path><path d="M300.45,424.8l-8.71,5a6.76,6.76,0,0,1-6.13,0l-8.7-5c-1.69-1-1.69-2.56,0-3.54l8.7-5a6.82,6.82,0,0,1,6.13,0l8.71,5C302.14,422.24,302.14,423.82,300.45,424.8ZM278,421.91a1.18,1.18,0,0,0,0,2.24l8.71,5a4.28,4.28,0,0,0,3.88,0l8.7-5a1.18,1.18,0,0,0,0-2.24l-8.71-5a4.32,4.32,0,0,0-3.87,0Z" style="fill:#455a64"></path><path d="M306.89,417.75l-.19-.14-6.34-6.17c-.17-.16,0-.36.38-.61l.71-.4a1.32,1.32,0,0,1,1.06-.23l10.67,3.66.25.12c.18.1.08.26-.28.46l-.53.31a1.13,1.13,0,0,1-.87.22l-2.24-.81-2.31,1.33,1.39,1.3c.13.11,0,.27-.32.47l-.53.31C307.35,417.79,307.07,417.85,306.89,417.75Zm1-4.25L304,412.13c-.34-.13-.71-.28-1.1-.46l-.06,0c.3.23.56.44.78.64l2.39,2.19Z" style="fill:#455a64"></path><path d="M317.39,415l-8.7,5a6.76,6.76,0,0,1-6.13,0l-8.71-5c-1.69-1-1.69-2.56,0-3.53l8.71-5a6.76,6.76,0,0,1,6.13,0l8.7,5C319.08,412.45,319.08,414,317.39,415ZM295,412.13a1.18,1.18,0,0,0,0,2.23l8.7,5a4.28,4.28,0,0,0,3.88,0l8.71-5a1.18,1.18,0,0,0,0-2.24l-8.71-5a4.28,4.28,0,0,0-3.88,0Z" style="fill:#455a64"></path><path d="M327.65,406,323,408.69a4.3,4.3,0,0,1-3.92,0l-5.87-3.39a1.19,1.19,0,0,1,0-2.26l4.69-2.71a4.36,4.36,0,0,1,3.92,0l5.87,3.39A1.19,1.19,0,0,1,327.65,406Zm-13.28-2.24a.46.46,0,0,0,0,.87l5.88,3.39a1.67,1.67,0,0,0,1.51,0l4.69-2.71a.46.46,0,0,0,0-.87l-5.88-3.4a1.65,1.65,0,0,0-1.5,0Z" style="fill:#455a64"></path><path d="M323.79,404.79l-3.86-2.23a2.42,2.42,0,0,0-2.13.2L315.66,404c-.69.4-.84.95-.35,1.24l3.86,2.23a2.45,2.45,0,0,0,2.14-.21l2.13-1.23C324.13,405.62,324.29,405.07,323.79,404.79Z" style="fill:#455a64"></path></g></g><g id="freepik--sign-1--inject-51"><g id="freepik--Signal--inject-51"><path d="M77.58,130.66a1.3,1.3,0,0,1-.64-.17,1.75,1.75,0,0,1-.75-1.59V98A3.81,3.81,0,0,1,77.83,95L140.6,58.7a1.47,1.47,0,0,1,1.47-.07,1.76,1.76,0,0,1,.76,1.6V91.09a3.81,3.81,0,0,1-1.64,3.08L78.41,130.42A1.67,1.67,0,0,1,77.58,130.66Zm63.85-71a.56.56,0,0,0-.24.08L78.41,96A2.64,2.64,0,0,0,77.35,98V128.9c0,.38.11.55.17.58a.37.37,0,0,0,.31-.07L140.6,93.17a2.68,2.68,0,0,0,1.06-2.08V60.23c0-.39-.11-.55-.17-.59Z" style="fill:#BA68C8"></path><path d="M100.87,103.84a.2.2,0,0,1,.28,0,.48.48,0,0,1,.12.37v2.45a1.19,1.19,0,0,1-.12.51.74.74,0,0,1-.28.35l-7.14,4.12a.2.2,0,0,1-.28,0,.5.5,0,0,1-.12-.37v-15a1.19,1.19,0,0,1,.12-.51.74.74,0,0,1,.28-.35l7-4a.21.21,0,0,1,.28,0,.5.5,0,0,1,.12.37v2.46a1.19,1.19,0,0,1-.12.51.79.79,0,0,1-.28.35l-4.64,2.67v2.51l4.31-2.49a.22.22,0,0,1,.28,0,.5.5,0,0,1,.12.37v2.46a1.19,1.19,0,0,1-.12.51.74.74,0,0,1-.28.35L96.11,104v2.59Z" style="fill:#455a64"></path><path d="M107.28,99.14l-1.93,5.28c-.06.17-.13.34-.2.49a1.05,1.05,0,0,1-.41.4l-2.29,1.32a.18.18,0,0,1-.24,0,.41.41,0,0,1-.09-.3v-.11s0-.1,0-.17l3.48-9.49-3.33-5.29a.59.59,0,0,1,0-.23,1,1,0,0,1,.09-.41.65.65,0,0,1,.24-.29L104.87,89c.2-.12.35-.12.44,0l.19.23,1.82,2.87,1.76-4.93.2-.46a1,1,0,0,1,.44-.49l2.3-1.33a.18.18,0,0,1,.23,0,.38.38,0,0,1,.1.3,1,1,0,0,1,0,.28L109,94.71l3.45,5.4s0,.1,0,.13,0,.07,0,.1a1.07,1.07,0,0,1-.1.42.61.61,0,0,1-.23.28l-2.29,1.32c-.2.12-.34.14-.42.08a1,1,0,0,1-.2-.25Z" style="fill:#455a64"></path><path d="M114.11,99.9a.22.22,0,0,1-.28,0,.51.51,0,0,1-.12-.37v-15a1.16,1.16,0,0,1,.12-.51.82.82,0,0,1,.28-.36l2-1.13a.21.21,0,0,1,.29,0,.48.48,0,0,1,.12.37v15a1.19,1.19,0,0,1-.12.51.8.8,0,0,1-.29.35Z" style="fill:#455a64"></path><path d="M126.33,76.62a.22.22,0,0,1,.29,0,.5.5,0,0,1,.12.37v2.46a1.19,1.19,0,0,1-.12.51.8.8,0,0,1-.29.35l-2.65,1.53V93.74a1.19,1.19,0,0,1-.12.51.74.74,0,0,1-.28.35l-2,1.14a.21.21,0,0,1-.29,0,.5.5,0,0,1-.12-.37V83.46L118.25,85a.21.21,0,0,1-.29,0,.48.48,0,0,1-.12-.37V82.15a1.19,1.19,0,0,1,.12-.51.75.75,0,0,1,.29-.35Z" style="fill:#455a64"></path><polygon points="131.67 89.86 131.67 73.63 138.87 77.59 131.67 89.86" style="fill:#e0e0e0"></polygon><polygon points="87.28 115.49 87.28 99.26 80.08 111.53 87.28 115.49" style="fill:#e0e0e0"></polygon><path d="M61.57,138.24a2.43,2.43,0,0,0,.93-2c.06-1.37.12-2.75.15-4.1a1.54,1.54,0,0,1,.49-1.25A10.79,10.79,0,0,0,65.31,128a2.49,2.49,0,0,0,.27-2.31c-.55-1.39-1.09-2.81-1.68-4.15a6.17,6.17,0,0,1-.36-2.49c0-1.15,0-2.31,0-3.46,0-1.84-.85-2.67-2-2s-2,2.44-2,4.3c0,1.15,0,2.29,0,3.44a10.11,10.11,0,0,1-.37,2.91c-.59,2-1.12,4.06-1.68,6.09-.29,1.08-.22,1.61.28,2a2.47,2.47,0,0,0,2.16.44c.36-.08.49.12.5.67,0,1.33.09,2.63.14,3.94C60.67,138.19,61.06,138.54,61.57,138.24Z" style="fill:#e0e0e0"></path><path d="M48.41,126.81c0-.94-.07-1.87-.09-2.82A4.24,4.24,0,0,1,50,120.23c1-.57,1.9-1.12,2.86-1.66s1.76.19,1.71,1.83c-.08,2.44-.18,4.9-.23,7.33a5.76,5.76,0,0,1-1.17,3.58,2.21,2.21,0,0,0-.25.91c-.15,3.19-.28,6.37-.41,9.55a3.19,3.19,0,0,1-.75,2c-.42.46-.92.58-1.16.16a2.65,2.65,0,0,1-.28-1.13c-.14-2.79-.26-5.58-.37-8.39,0-.69-.09-1.17-.58-1.22s-.78-.67-.82-1.54c-.07-1.62-.12-3.25-.18-4.87Z" style="fill:#e0e0e0"></path><path d="M63.37,108.61a4.71,4.71,0,0,1-1.83,3.83c-1,.59-1.84-.2-1.83-1.79a4.77,4.77,0,0,1,1.88-3.87C62.6,106.23,63.38,107,63.37,108.61Z" style="fill:#e0e0e0"></path><path d="M51.46,118.26c-1,.6-1.84-.18-1.83-1.77a4.76,4.76,0,0,1,1.82-3.85c1-.6,1.84.19,1.84,1.77A4.78,4.78,0,0,1,51.46,118.26Z" style="fill:#e0e0e0"></path><path d="M166.65,77.57a2.43,2.43,0,0,0,.93-2c.06-1.37.12-2.74.15-4.1a1.52,1.52,0,0,1,.5-1.25,11,11,0,0,0,2.16-2.93,2.47,2.47,0,0,0,.27-2.31c-.55-1.39-1.09-2.8-1.68-4.15a6.17,6.17,0,0,1-.36-2.49c0-1.15,0-2.31,0-3.46,0-1.84-.84-2.67-2-2s-2,2.44-2,4.3c0,1.15,0,2.29,0,3.44a9.77,9.77,0,0,1-.37,2.91c-.59,2-1.12,4.06-1.68,6.09-.29,1.08-.22,1.61.28,2a2.53,2.53,0,0,0,2.16.44c.37-.09.49.11.5.67,0,1.32.09,2.62.14,3.93C165.75,77.52,166.14,77.87,166.65,77.57Z" style="fill:#e0e0e0"></path><path d="M153.49,66.14c0-.94-.07-1.87-.09-2.82a4.27,4.27,0,0,1,1.72-3.76c.95-.56,1.91-1.11,2.86-1.65s1.76.18,1.71,1.82c-.08,2.45-.18,4.9-.23,7.33a5.72,5.72,0,0,1-1.17,3.58,2.21,2.21,0,0,0-.25.91c-.15,3.19-.28,6.37-.41,9.55a3.19,3.19,0,0,1-.75,2c-.42.46-.92.59-1.16.16a2.65,2.65,0,0,1-.28-1.13q-.21-4.17-.37-8.39c0-.69-.09-1.17-.58-1.21s-.78-.68-.82-1.55c-.07-1.61-.12-3.24-.18-4.87Z" style="fill:#e0e0e0"></path><path d="M168.45,47.94a4.7,4.7,0,0,1-1.83,3.83c-1,.6-1.84-.19-1.83-1.79a4.73,4.73,0,0,1,1.88-3.86C167.68,45.56,168.46,46.37,168.45,47.94Z" style="fill:#e0e0e0"></path><path d="M156.54,57.59c-1,.6-1.84-.18-1.83-1.77A4.79,4.79,0,0,1,156.53,52c1-.6,1.84.19,1.84,1.77A4.77,4.77,0,0,1,156.54,57.59Z" style="fill:#e0e0e0"></path></g></g></svg>